<svg width="122" height="122" viewBox="0 0 122 122" fill="none" xmlns="http://www.w3.org/2000/svg">
<rect x="2.92822" y="2.96777" width="115.872" height="115.872" rx="5" fill="#2D3250"/>
<path d="M61.4637 78.9462C59.4949 78.9462 57.7544 78.6751 56.2422 78.133C54.7299 77.5909 53.4317 76.8633 52.3474 75.9502C51.2632 75.0372 50.3786 74.01 49.6938 72.8687L52.6042 70.5147C53.1463 71.5419 53.8311 72.455 54.6586 73.2539C55.486 74.0528 56.4847 74.6805 57.6545 75.137C58.8244 75.5936 60.1654 75.8218 61.6777 75.8218C63.7891 75.8218 65.4583 75.4366 66.6852 74.6663C67.9407 73.8959 68.5684 72.7688 68.5684 71.2851C68.5684 70.4006 68.2688 69.6159 67.6696 68.9311C67.099 68.2178 66.0147 67.6757 64.4169 67.3048L57.9969 65.8496C56.285 65.4501 54.9154 64.9223 53.8882 64.266C52.861 63.5812 52.1191 62.7823 51.6626 61.8692C51.2061 60.9276 50.9778 59.9147 50.9778 58.8305C50.9778 57.3468 51.3773 55.9914 52.1762 54.7645C53.0037 53.5376 54.1735 52.5532 55.6858 51.8114C57.2266 51.0695 59.0669 50.6986 61.2069 50.6986C63.6037 50.6986 65.6723 51.1836 67.4128 52.1538C69.1819 53.1239 70.637 54.5791 71.7784 56.5193L68.9964 58.6593C67.9977 56.8902 66.8422 55.6348 65.5296 54.8929C64.2457 54.1511 62.6906 53.7801 60.8645 53.7801C59.3808 53.7801 58.1681 53.9941 57.2266 54.4221C56.285 54.8216 55.5859 55.3637 55.1294 56.0485C54.6729 56.7333 54.4446 57.5037 54.4446 58.3597C54.4446 59.0159 54.573 59.6151 54.8298 60.1572C55.0866 60.6994 55.5431 61.1844 56.1994 61.6124C56.8842 62.0119 57.8257 62.3543 59.0241 62.6396L64.9732 63.9664C67.5983 64.5371 69.4244 65.4216 70.4516 66.62C71.5073 67.7898 72.0352 69.245 72.0352 70.9855C72.0352 72.5548 71.5929 73.9387 70.7084 75.137C69.8524 76.3354 68.6255 77.277 67.0276 77.9618C65.4583 78.6181 63.6037 78.9462 61.4637 78.9462ZM59.8373 83.2689V46.4614H62.7905V83.2689H59.8373Z" fill="#D2B689"/>
<path d="M31.6073 50.6017V77.4453C31.6073 84.4679 31.6073 87.9792 32.9739 90.6613C34.176 93.0206 36.0942 94.9387 38.4536 96.1407C41.1358 97.5074 44.647 97.5074 51.6694 97.5074H70.0596C77.0822 97.5074 80.5931 97.5074 83.2756 96.1407C85.6349 94.9387 87.553 93.0206 88.755 90.6613C90.1217 87.9792 90.1217 84.4679 90.1217 77.4453V30.6338M98.481 59.891L75.7723 34.6629C70.6076 28.9252 68.0254 26.0564 64.9839 24.9973C62.3132 24.0671 59.4058 24.0673 56.7346 24.9979C53.6936 26.0575 51.1119 28.9267 45.9481 34.6651L23.248 59.891" stroke="#D2B689" stroke-width="6" stroke-linecap="round" stroke-linejoin="round"/>
</svg>
