<svg width="122" height="122" viewBox="0 0 122 122" fill="none" xmlns="http://www.w3.org/2000/svg">
<rect x="2.92822" y="2.96777" width="115.872" height="115.872" rx="5" fill="#2D3250"/>
<path d="M63.3203 51.1954V48.6147H70.6936C73.9529 48.6147 77.0786 47.32 79.3832 45.0154C81.6878 42.7107 82.9826 39.585 82.9826 36.3258V31.4102C82.9826 30.7584 82.7236 30.1332 82.2627 29.6723C81.8018 29.2114 81.1766 28.9524 80.5248 28.9524H70.6936C68.0324 28.938 65.4407 29.8019 63.3203 31.4102V24.0369C63.3203 23.385 63.0614 22.7599 62.6004 22.299C62.1395 21.838 61.5144 21.5791 60.8625 21.5791C60.2107 21.5791 59.5855 21.838 59.1246 22.299C58.6637 22.7599 58.4047 23.385 58.4047 24.0369V26.4947C56.2844 24.8863 53.6927 24.0224 51.0314 24.0369H41.2003C40.5484 24.0369 39.9233 24.2958 39.4623 24.7568C39.0014 25.2177 38.7425 25.8428 38.7425 26.4947V31.4102C38.7425 34.6695 40.0372 37.7952 42.3418 40.0998C44.6464 42.4044 47.7722 43.6991 51.0314 43.6991H58.4047V51.1954C52.1309 51.8259 46.3394 54.8436 42.228 59.6243C38.1166 64.4049 35.9998 70.5829 36.3155 76.8804C36.6312 83.178 39.3551 89.1133 43.924 93.4589C48.4928 97.8044 54.5571 100.228 60.8625 100.228C67.1679 100.228 73.2322 97.8044 77.801 93.4589C82.3699 89.1133 85.0939 83.178 85.4095 76.8804C85.7252 70.5829 83.6084 64.4049 79.497 59.6243C75.3856 54.8436 69.5941 51.8259 63.3203 51.1954ZM70.6936 33.9909H78.067V36.3258C78.067 38.2813 77.2902 40.1568 75.9074 41.5395C74.5246 42.9223 72.6492 43.6991 70.6936 43.6991H63.3203V41.2414C63.3203 39.2858 64.0971 37.4104 65.4799 36.0276C66.8627 34.6448 68.7381 33.868 70.6936 33.868V33.9909ZM43.658 31.4102V28.9524H51.0314C52.9869 28.9524 54.8624 29.7293 56.2451 31.1121C57.6279 32.4948 58.4047 34.3703 58.4047 36.3258V38.7836H51.0314C49.0759 38.7836 47.2004 38.0067 45.8176 36.624C44.4349 35.2412 43.658 33.3658 43.658 31.4102ZM60.8625 95.3126C56.9737 95.3126 53.1722 94.1594 49.9387 91.9989C46.7053 89.8384 44.1851 86.7675 42.697 83.1747C41.2088 79.5819 40.8194 75.6285 41.5781 71.8144C42.3367 68.0003 44.2094 64.4968 46.9592 61.747C49.709 58.9972 53.2125 57.1245 57.0266 56.3659C60.8407 55.6072 64.7941 55.9966 68.3869 57.4848C71.9797 58.9729 75.0506 61.4931 77.2111 64.7265C79.3716 67.96 80.5248 71.7615 80.5248 75.6503C80.5248 80.8651 78.4532 85.8662 74.7658 89.5536C71.0784 93.241 66.0773 95.3126 60.8625 95.3126Z" fill="#D2B689"/>
<path d="M60.8621 68.2772H65.7777C66.4295 68.2772 67.0547 68.0182 67.5156 67.5573C67.9765 67.0964 68.2355 66.4712 68.2355 65.8194C68.2355 65.1675 67.9765 64.5424 67.5156 64.0815C67.0547 63.6205 66.4295 63.3616 65.7777 63.3616H63.3199C63.3199 62.7097 63.061 62.0846 62.6 61.6237C62.1391 61.1628 61.514 60.9038 60.8621 60.9038C60.2103 60.9038 59.5851 61.1628 59.1242 61.6237C58.6633 62.0846 58.4043 62.7097 58.4043 63.3616V63.804C56.7788 64.3938 55.4123 65.5362 54.5437 67.0314C53.6751 68.5266 53.3596 70.2795 53.6525 71.9838C53.9453 73.688 54.8278 75.2351 56.1456 76.3546C57.4635 77.4741 59.133 78.0949 60.8621 78.1083C61.514 78.1083 62.1391 78.3672 62.6 78.8281C63.061 79.2891 63.3199 79.9142 63.3199 80.5661C63.3199 81.2179 63.061 81.8431 62.6 82.304C62.1391 82.7649 61.514 83.0238 60.8621 83.0238H55.9466C55.2947 83.0238 54.6696 83.2828 54.2086 83.7437C53.7477 84.2046 53.4888 84.8298 53.4888 85.4816C53.4888 86.1335 53.7477 86.7586 54.2086 87.2195C54.6696 87.6805 55.2947 87.9394 55.9466 87.9394H58.4043C58.4043 88.5913 58.6633 89.2164 59.1242 89.6773C59.5851 90.1382 60.2103 90.3972 60.8621 90.3972C61.514 90.3972 62.1391 90.1382 62.6 89.6773C63.061 89.2164 63.3199 88.5913 63.3199 87.9394V87.497C64.9454 86.9072 66.3119 85.7648 67.1805 84.2696C68.0491 82.7744 68.3646 81.0215 68.0718 79.3172C67.7789 77.613 66.8965 76.0659 65.5786 74.9464C64.2607 73.8269 62.5913 73.2061 60.8621 73.1927C60.2103 73.1927 59.5851 72.9338 59.1242 72.4729C58.6633 72.0119 58.4043 71.3868 58.4043 70.7349C58.4043 70.0831 58.6633 69.4579 59.1242 68.997C59.5851 68.5361 60.2103 68.2772 60.8621 68.2772Z" fill="#D2B689"/>
<path d="M35.5718 39.4966L30.6563 34.581C30.4278 34.3506 30.1559 34.1678 29.8564 34.043C29.5569 33.9182 29.2357 33.854 28.9112 33.854C28.5868 33.854 28.2655 33.9182 27.966 34.043C27.6665 34.1678 27.3947 34.3506 27.1662 34.581L22.2506 39.4966C21.7878 39.9594 21.5278 40.5871 21.5278 41.2416C21.5278 41.8961 21.7878 42.5238 22.2506 42.9866C22.7135 43.4494 23.3412 43.7094 23.9957 43.7094C24.6502 43.7094 25.2779 43.4494 25.7407 42.9866L26.4535 42.2493V48.6149C26.4535 49.2668 26.7124 49.8919 27.1733 50.3529C27.6342 50.8138 28.2594 51.0727 28.9112 51.0727C29.5631 51.0727 30.1882 50.8138 30.6491 50.3529C31.1101 49.8919 31.369 49.2668 31.369 48.6149V42.2493L32.0818 42.9866C32.3103 43.217 32.5821 43.3998 32.8816 43.5246C33.1811 43.6494 33.5023 43.7136 33.8268 43.7136C34.1513 43.7136 34.4725 43.6494 34.772 43.5246C35.0715 43.3998 35.3433 43.217 35.5718 42.9866C35.8022 42.7581 35.985 42.4863 36.1098 42.1868C36.2346 41.8873 36.2988 41.5661 36.2988 41.2416C36.2988 40.9171 36.2346 40.5959 36.1098 40.2964C35.985 39.9969 35.8022 39.7251 35.5718 39.4966Z" fill="#D2B689"/>
<path d="M99.4742 54.2432L94.5586 49.3276C94.3301 49.0972 94.0583 48.9144 93.7588 48.7896C93.4593 48.6648 93.138 48.6006 92.8136 48.6006C92.4891 48.6006 92.1679 48.6648 91.8684 48.7896C91.5689 48.9144 91.297 49.0972 91.0686 49.3276L86.153 54.2432C85.9238 54.4723 85.742 54.7444 85.618 55.0438C85.494 55.3432 85.4302 55.6641 85.4302 55.9882C85.4302 56.6427 85.6902 57.2704 86.153 57.7332C86.6158 58.196 87.2435 58.456 87.898 58.456C88.2221 58.456 88.543 58.3922 88.8424 58.2682C89.1418 58.1441 89.4139 57.9624 89.643 57.7332L90.3558 56.9959V63.3615C90.3558 64.0134 90.6147 64.6385 91.0757 65.0994C91.5366 65.5604 92.1617 65.8193 92.8136 65.8193C93.4654 65.8193 94.0906 65.5604 94.5515 65.0994C95.0124 64.6385 95.2714 64.0134 95.2714 63.3615V56.9959L95.9841 57.7332C96.2126 57.9636 96.4844 58.1464 96.7839 58.2712C97.0834 58.396 97.4047 58.4602 97.7291 58.4602C98.0536 58.4602 98.3748 58.396 98.6743 58.2712C98.9739 58.1464 99.2457 57.9636 99.4742 57.7332C99.7045 57.5047 99.8874 57.2329 100.012 56.9334C100.137 56.6339 100.201 56.3126 100.201 55.9882C100.201 55.6637 100.137 55.3425 100.012 55.043C99.8874 54.7435 99.7045 54.4716 99.4742 54.2432Z" fill="#D2B689"/>
</svg>
