<svg width="122" height="122" viewBox="0 0 122 122" fill="none" xmlns="http://www.w3.org/2000/svg">
<rect x="2.92822" y="2.96777" width="115.872" height="115.872" rx="5" fill="#2D3250"/>
<path d="M92.6403 40.5637H86.2396V29.8958C86.2396 28.1983 85.5652 26.5702 84.3648 25.3698C83.1645 24.1695 81.5364 23.4951 79.8388 23.4951C78.1413 23.4951 76.5132 24.1695 75.3128 25.3698C74.1125 26.5702 73.4381 28.1983 73.4381 29.8958V40.5637H32.9002C31.2027 40.5637 29.5746 41.2381 28.3742 42.4384C27.1739 43.6388 26.4995 45.2668 26.4995 46.9644V85.3687C26.4995 87.0663 27.1739 88.6944 28.3742 89.8947C29.5746 91.0951 31.2027 91.7695 32.9002 91.7695H75.5717C76.1376 91.7695 76.6802 91.5447 77.0804 91.1445C77.4805 90.7444 77.7053 90.2017 77.7053 89.6359V83.2352H92.6403C93.2061 83.2352 93.7488 83.0104 94.1489 82.6103C94.5491 82.2101 94.7738 81.6674 94.7738 81.1016V42.6973C94.7738 42.1314 94.5491 41.5887 94.1489 41.1886C93.7488 40.7885 93.2061 40.5637 92.6403 40.5637ZM77.7053 36.2966H81.9724V54.6239L79.8388 56.7575L77.7053 54.6239V36.2966ZM79.8388 27.7623C80.4047 27.7623 80.9474 27.987 81.3475 28.3872C81.7476 28.7873 81.9724 29.33 81.9724 29.8958V32.0294H77.7053V29.8958C77.7053 29.33 77.93 28.7873 78.3302 28.3872C78.7303 27.987 79.273 27.7623 79.8388 27.7623ZM73.4381 87.5023H32.9002C32.3344 87.5023 31.7917 87.2775 31.3916 86.8774C30.9914 86.4773 30.7667 85.9346 30.7667 85.3687C30.7667 84.8029 30.9914 84.2602 31.3916 83.8601C31.7917 83.4599 32.3344 83.2352 32.9002 83.2352H73.4381V87.5023ZM90.5067 78.968H32.9002C32.1724 78.9738 31.4508 79.1037 30.7667 79.3521V46.9644C30.7667 46.3986 30.9914 45.8559 31.3916 45.4558C31.7917 45.0556 32.3344 44.8308 32.9002 44.8308H73.4381V55.4987C73.4365 55.7795 73.4903 56.0579 73.5965 56.3178C73.7027 56.5778 73.8591 56.8142 74.0569 57.0135L78.324 61.2807C78.5223 61.4807 78.7583 61.6394 79.0183 61.7477C79.2783 61.856 79.5572 61.9118 79.8388 61.9118C80.1205 61.9118 80.3994 61.856 80.6594 61.7477C80.9194 61.6394 81.1553 61.4807 81.3537 61.2807L85.6208 57.0135C85.8186 56.8142 85.975 56.5778 86.0812 56.3178C86.1874 56.0579 86.2412 55.7795 86.2396 55.4987V44.8308H90.5067V78.968Z" fill="#D2B689"/>
<path d="M37.1673 53.3653H54.2358C54.8017 53.3653 55.3444 53.1405 55.7445 52.7404C56.1446 52.3403 56.3694 51.7976 56.3694 51.2317C56.3694 50.6659 56.1446 50.1232 55.7445 49.7231C55.3444 49.3229 54.8017 49.0981 54.2358 49.0981H37.1673C36.6014 49.0981 36.0587 49.3229 35.6586 49.7231C35.2585 50.1232 35.0337 50.6659 35.0337 51.2317C35.0337 51.7976 35.2585 52.3403 35.6586 52.7404C36.0587 53.1405 36.6014 53.3653 37.1673 53.3653Z" fill="#D2B689"/>
<path d="M64.9037 59.7659C64.9037 59.2 64.6789 58.6574 64.2788 58.2572C63.8787 57.8571 63.336 57.6323 62.7701 57.6323H37.1673C36.6014 57.6323 36.0587 57.8571 35.6586 58.2572C35.2585 58.6574 35.0337 59.2 35.0337 59.7659C35.0337 60.3318 35.2585 60.8744 35.6586 61.2746C36.0587 61.6747 36.6014 61.8995 37.1673 61.8995H62.7701C63.336 61.8995 63.8787 61.6747 64.2788 61.2746C64.6789 60.8744 64.9037 60.3318 64.9037 59.7659Z" fill="#D2B689"/>
<path d="M84.1058 70.434H80.9907L77.3423 64.9934C77.1472 64.7029 76.8835 64.465 76.5747 64.3004C76.2659 64.1359 75.9214 64.0498 75.5715 64.0498C75.2215 64.0498 74.877 64.1359 74.5682 64.3004C74.2594 64.465 73.9958 64.7029 73.8006 64.9934L70.1522 70.434H64.9036C64.3377 70.434 63.795 70.6587 63.3949 71.0589C62.9948 71.459 62.77 72.0017 62.77 72.5675C62.77 73.1334 62.9948 73.6761 63.3949 74.0762C63.795 74.4763 64.3377 74.7011 64.9036 74.7011H71.3043C71.6557 74.6993 72.0013 74.6107 72.3102 74.4432C72.6191 74.2757 72.8819 74.0345 73.0752 73.741L75.5715 70.0072L78.0677 73.741C78.261 74.0345 78.5238 74.2757 78.8327 74.4432C79.1417 74.6107 79.4872 74.6993 79.8386 74.7011H84.1058C84.6716 74.7011 85.2143 74.4763 85.6144 74.0762C86.0145 73.6761 86.2393 73.1334 86.2393 72.5675C86.2393 72.0017 86.0145 71.459 85.6144 71.0589C85.2143 70.6587 84.6716 70.434 84.1058 70.434Z" fill="#D2B689"/>
</svg>
