<svg width="122" height="122" viewBox="0 0 122 122" fill="none" xmlns="http://www.w3.org/2000/svg">
<rect x="2.92822" y="2.96777" width="115.872" height="115.872" rx="5" fill="#2D3250"/>
<path d="M61.9818 87.1662C58.3098 87.1662 55.0636 86.6607 52.2431 85.6495C49.4226 84.6384 47.0012 83.2814 44.979 81.5784C42.9567 79.8755 41.307 77.9597 40.0298 75.831L45.4579 71.4406C46.469 73.3564 47.7463 75.0593 49.2896 76.5494C50.8328 78.0395 52.6954 79.2103 54.8773 80.0617C57.0592 80.9132 59.5604 81.339 62.3809 81.339C66.319 81.339 69.4322 80.6205 71.7205 79.1837C74.0621 77.7468 75.2329 75.6447 75.2329 72.8774C75.2329 71.2277 74.6741 69.7642 73.5565 68.487C72.4922 67.1566 70.4699 66.1455 67.4898 65.4537L55.5159 62.7396C52.3229 61.9946 49.7685 61.01 47.8527 59.786C45.9369 58.5088 44.5532 57.0188 43.7018 55.3158C42.8503 53.5597 42.4246 51.6704 42.4246 49.6482C42.4246 46.8809 43.1696 44.3531 44.6597 42.0648C46.203 39.7764 48.3849 37.9405 51.2054 36.5568C54.0791 35.1732 57.5116 34.4813 61.5029 34.4813C65.9731 34.4813 69.8313 35.386 73.0776 37.1954C76.377 39.0048 79.0911 41.7189 81.2198 45.3376L76.0311 49.3289C74.1685 46.0294 72.0132 43.6879 69.5652 42.3043C67.1705 40.9206 64.2701 40.2288 60.8643 40.2288C58.097 40.2288 55.8352 40.6279 54.0791 41.4262C52.3229 42.1712 51.0191 43.1823 50.1676 44.4595C49.3162 45.7368 48.8904 47.1736 48.8904 48.7701C48.8904 49.9941 49.1299 51.1117 49.6089 52.1228C50.0878 53.1339 50.9393 54.0386 52.1633 54.8369C53.4405 55.5819 55.1966 56.2205 57.4318 56.7527L68.5275 59.2273C73.4235 60.2916 76.8294 61.9413 78.7452 64.1765C80.7142 66.3584 81.6987 69.0724 81.6987 72.3187C81.6987 75.2456 80.8739 77.8266 79.2241 80.0617C77.6276 82.2969 75.3393 84.053 72.3591 85.3302C69.4322 86.5542 65.9731 87.1662 61.9818 87.1662ZM58.9484 95.2286V26.5786H64.4564V95.2286H58.9484Z" fill="#D2B689"/>
</svg>
