<svg width="122" height="122" viewBox="0 0 122 122" fill="none" xmlns="http://www.w3.org/2000/svg">
<rect x="2.92822" y="2.96777" width="115.872" height="115.872" rx="5" fill="#2D3250"/>
<path d="M97.4817 57.5674L88.268 39.1399C88.0766 38.7601 87.7837 38.4406 87.4219 38.217C87.06 37.9934 86.6433 37.8743 86.2179 37.873H35.5423C35.1169 37.8743 34.7002 37.9934 34.3384 38.217C33.9765 38.4406 33.6837 38.7601 33.4922 39.1399L24.2785 57.5674C24.2883 57.6362 24.2883 57.706 24.2785 57.7748C24.2676 57.9742 24.2676 58.1742 24.2785 58.3736L24.0251 58.604C24.0229 58.6423 24.0229 58.6808 24.0251 58.7192C24.0467 58.9387 24.0931 59.155 24.1633 59.3641C24.1633 59.3641 24.1633 59.4793 24.1633 59.5484C24.2576 59.7819 24.3987 59.9935 24.5779 60.1703L59.1295 97.0253C59.345 97.2555 59.6054 97.4389 59.8946 97.5644C60.1839 97.6898 60.4958 97.7545 60.811 97.7545C61.1263 97.7545 61.4382 97.6898 61.7274 97.5644C62.0167 97.4389 62.2771 97.2555 62.4925 97.0253L97.0441 60.1703C97.375 59.8336 97.5944 59.4033 97.6727 58.9378C97.751 58.4722 97.6843 57.9939 97.4817 57.5674ZM60.8801 44.53L68.2511 56.3006H53.5091L60.8801 44.53ZM49.1787 54.5269L40.1492 42.4799H56.7339L49.1787 54.5269ZM65.0263 42.4799H81.6111L72.5816 54.5269L65.0263 42.4799ZM69.2646 60.9074L60.8801 87.7425L52.4956 60.9074H69.2646ZM55.6974 86.5677L31.6495 60.9074H47.7736L55.6974 86.5677ZM74.1249 60.9074H90.249L66.0629 86.5677L74.1249 60.9074ZM91.7462 56.3006H77.0042L85.8264 44.53L91.7462 56.3006ZM35.9339 44.53L44.7561 56.3006H30.0601L35.9339 44.53Z" fill="#D2B689"/>
<path d="M60.8806 33.2665C61.4915 33.2665 62.0774 33.0238 62.5094 32.5918C62.9413 32.1598 63.184 31.574 63.184 30.963V26.3562C63.184 25.7453 62.9413 25.1594 62.5094 24.7274C62.0774 24.2954 61.4915 24.0527 60.8806 24.0527C60.2697 24.0527 59.6838 24.2954 59.2518 24.7274C58.8198 25.1594 58.5771 25.7453 58.5771 26.3562V30.963C58.5771 31.574 58.8198 32.1598 59.2518 32.5918C59.6838 33.0238 60.2697 33.2665 60.8806 33.2665Z" fill="#D2B689"/>
<path d="M47.7274 32.5989C47.9416 32.8148 48.1963 32.9862 48.477 33.1031C48.7577 33.2201 49.0588 33.2803 49.3629 33.2803C49.667 33.2803 49.968 33.2201 50.2487 33.1031C50.5294 32.9862 50.7842 32.8148 50.9983 32.5989C51.2142 32.3848 51.3856 32.13 51.5025 31.8493C51.6195 31.5686 51.6797 31.2676 51.6797 30.9635C51.6797 30.6594 51.6195 30.3583 51.5025 30.0776C51.3856 29.7969 51.2142 29.5422 50.9983 29.328L48.6949 27.0246C48.2611 26.5908 47.6729 26.3472 47.0594 26.3472C46.446 26.3472 45.8577 26.5908 45.424 27.0246C44.9903 27.4583 44.7466 28.0466 44.7466 28.66C44.7466 29.2734 44.9903 29.8617 45.424 30.2955L47.7274 32.5989Z" fill="#D2B689"/>
<path d="M72.3974 33.2669C72.7005 33.2687 73.001 33.2106 73.2817 33.0959C73.5623 32.9813 73.8176 32.8124 74.0328 32.5989L76.3362 30.2955C76.77 29.8617 77.0137 29.2734 77.0137 28.66C77.0137 28.0466 76.77 27.4583 76.3362 27.0246C75.9025 26.5908 75.3142 26.3472 74.7008 26.3472C74.0874 26.3472 73.4991 26.5908 73.0654 27.0246L70.7619 29.328C70.546 29.5422 70.3747 29.7969 70.2577 30.0776C70.1408 30.3583 70.0806 30.6594 70.0806 30.9635C70.0806 31.2675 70.1408 31.5686 70.2577 31.8493C70.3747 32.13 70.546 32.3848 70.7619 32.5989C70.9772 32.8124 71.2324 32.9813 71.5131 33.0959C71.7937 33.2106 72.0942 33.2687 72.3974 33.2669Z" fill="#D2B689"/>
</svg>
