<svg width="149" height="140" viewBox="0 0 149 140" fill="none" xmlns="http://www.w3.org/2000/svg">
<path d="M71.6459 18.6415C72.5439 15.8776 76.4541 15.8776 77.3522 18.6415L87.8039 50.8085C88.2055 52.0446 89.3574 52.8815 90.6571 52.8815H124.479C127.386 52.8815 128.594 56.6003 126.243 58.3085L98.8799 78.1888C97.8285 78.9528 97.3885 80.3069 97.7901 81.5429L108.242 113.71C109.14 116.474 105.976 118.772 103.625 117.064L76.2624 97.1837C75.2109 96.4198 73.7871 96.4198 72.7357 97.1837L45.3728 117.064C43.0216 118.772 39.8582 116.474 40.7562 113.71L51.2079 81.5429C51.6096 80.3069 51.1696 78.9528 50.1181 78.1888L22.7552 58.3085C20.4041 56.6003 21.6124 52.8815 24.5186 52.8815H58.341C59.6407 52.8815 60.7925 52.0446 61.1942 50.8085L71.6459 18.6415Z" fill="#FF9900"/>
</svg>
