<svg width="176" height="67" viewBox="0 0 176 67" fill="none" xmlns="http://www.w3.org/2000/svg">
<path d="M14.4895 0.493164L17.9923 7.58959L25.8256 8.73454L20.1575 14.2552L21.4952 22.0545L14.4895 18.3703L7.48373 22.0545L8.82139 14.2552L3.15332 8.73454L10.9866 7.58959L14.4895 0.493164Z" fill="#FFAC0A"/>
<path d="M74.6081 0.493164L78.111 7.58959L85.9443 8.73454L80.2762 14.2552L81.6139 22.0545L74.6081 18.3703L67.6024 22.0545L68.94 14.2552L63.272 8.73454L71.1052 7.58959L74.6081 0.493164Z" fill="#FFAC0A"/>
<path d="M44.549 0.493164L48.0519 7.58959L55.8852 8.73454L50.2171 14.2552L51.5548 22.0545L44.549 18.3703L37.5433 22.0545L38.881 14.2552L33.2129 8.73454L41.0462 7.58959L44.549 0.493164Z" fill="#FFAC0A"/>
<path d="M104.668 0.493164L108.171 7.58959L116.004 8.73454L110.336 14.2552L111.673 22.0545L104.668 18.3703L97.662 22.0545L98.9996 14.2552L93.3315 8.73454L101.165 7.58959L104.668 0.493164Z" fill="#FFAC0A"/>
<path d="M134.727 0.493164L138.23 7.58959L146.063 8.73454L140.395 14.2552L141.733 22.0545L134.727 18.3703L127.722 22.0545L129.059 14.2552L123.391 8.73454L131.224 7.58959L134.727 0.493164Z" fill="#FFAC0A"/>
<path d="M1.0693 40.5897V39.6379H3.83946V36.8678H4.79125V39.6379H7.58981V40.5897H4.79125V43.3741H3.83946V40.5897H1.0693ZM8.19567 45.1782V44.3259L9.41738 43.0189C9.7015 42.7064 10.033 42.3086 10.4118 41.8256C10.7906 41.3426 11.1221 40.8786 11.4062 40.4335C11.6903 39.9789 11.9318 39.4959 12.1307 38.9844C12.3391 38.473 12.4432 38.009 12.4432 37.5923C12.4432 37.024 12.3012 36.5694 12.0171 36.2285C11.7424 35.8876 11.3683 35.7171 10.8948 35.7171L9.2185 37.2513C8.70709 36.8725 8.43717 36.3658 8.40876 35.7313C9.32741 35.2578 10.3313 35.021 11.4204 35.021C12.2349 35.021 12.9073 35.2199 13.4377 35.6176C13.9775 36.0059 14.2474 36.5837 14.2474 37.3508C14.2474 37.9001 14.1148 38.4778 13.8496 39.0839C13.5939 39.6805 13.2246 40.2772 12.7416 40.8738C12.268 41.4705 11.8276 41.9819 11.4204 42.4081C11.0226 42.8342 10.5539 43.2983 10.014 43.8003H13.4092L14.1764 42.266H14.8014L14.4037 45.1782H8.19567ZM16.0812 44.4253C16.0812 44.1601 16.1759 43.9376 16.3653 43.7576C16.5547 43.5682 16.782 43.4735 17.0472 43.4735C17.3123 43.4735 17.5349 43.5682 17.7148 43.7576C17.9043 43.9376 17.999 44.1601 17.999 44.4253C17.999 44.681 17.9043 44.9083 17.7148 45.1072C17.5254 45.2966 17.3029 45.3913 17.0472 45.3913C16.782 45.3913 16.5547 45.2966 16.3653 45.1072C16.1759 44.9083 16.0812 44.681 16.0812 44.4253ZM23.1492 35.021C24.3046 35.021 25.2185 35.504 25.8909 36.47C26.5728 37.4265 26.9137 38.6719 26.9137 40.2062C26.9137 41.7215 26.5728 42.9668 25.8909 43.9423C25.2185 44.9083 24.3046 45.3913 23.1492 45.3913C21.9937 45.3913 21.0751 44.9083 20.3932 43.9423C19.7208 42.9668 19.3846 41.7215 19.3846 40.2062C19.3846 38.6814 19.7208 37.436 20.3932 36.47C21.0751 35.504 21.9937 35.021 23.1492 35.021ZM23.1492 35.8591C22.5336 35.8591 22.0553 36.2806 21.7144 37.1235C21.3734 37.9664 21.203 38.9939 21.203 40.2062C21.203 41.4184 21.3734 42.446 21.7144 43.2888C22.0553 44.1317 22.5336 44.5532 23.1492 44.5532C23.7648 44.5532 24.243 44.1317 24.584 43.2888C24.9249 42.446 25.0954 41.4184 25.0954 40.2062C25.0954 38.9939 24.9249 37.9664 24.584 37.1235C24.243 36.2806 23.7648 35.8591 23.1492 35.8591ZM32.125 35.021C33.2804 35.021 34.1943 35.504 34.8667 36.47C35.5486 37.4265 35.8895 38.6719 35.8895 40.2062C35.8895 41.7215 35.5486 42.9668 34.8667 43.9423C34.1943 44.9083 33.2804 45.3913 32.125 45.3913C30.9695 45.3913 30.0509 44.9083 29.369 43.9423C28.6966 42.9668 28.3604 41.7215 28.3604 40.2062C28.3604 38.6814 28.6966 37.436 29.369 36.47C30.0509 35.504 30.9695 35.021 32.125 35.021ZM32.125 35.8591C31.5094 35.8591 31.0311 36.2806 30.6902 37.1235C30.3492 37.9664 30.1788 38.9939 30.1788 40.2062C30.1788 41.4184 30.3492 42.446 30.6902 43.2888C31.0311 44.1317 31.5094 44.5532 32.125 44.5532C32.7406 44.5532 33.2188 44.1317 33.5598 43.2888C33.9007 42.446 34.0712 41.4184 34.0712 40.2062C34.0712 38.9939 33.9007 37.9664 33.5598 37.1235C33.2188 36.2806 32.7406 35.8591 32.125 35.8591ZM41.1008 35.021C42.2562 35.021 43.1701 35.504 43.8425 36.47C44.5244 37.4265 44.8653 38.6719 44.8653 40.2062C44.8653 41.7215 44.5244 42.9668 43.8425 43.9423C43.1701 44.9083 42.2562 45.3913 41.1008 45.3913C39.9454 45.3913 39.0267 44.9083 38.3448 43.9423C37.6724 42.9668 37.3362 41.7215 37.3362 40.2062C37.3362 38.6814 37.6724 37.436 38.3448 36.47C39.0267 35.504 39.9454 35.021 41.1008 35.021ZM41.1008 35.8591C40.4852 35.8591 40.0069 36.2806 39.666 37.1235C39.325 37.9664 39.1546 38.9939 39.1546 40.2062C39.1546 41.4184 39.325 42.446 39.666 43.2888C40.0069 44.1317 40.4852 44.5532 41.1008 44.5532C41.7164 44.5532 42.1946 44.1317 42.5356 43.2888C42.8765 42.446 43.047 41.4184 43.047 40.2062C43.047 38.9939 42.8765 37.9664 42.5356 37.1235C42.1946 36.2806 41.7164 35.8591 41.1008 35.8591ZM54.7424 35.021C55.841 35.021 56.7644 35.1867 57.5126 35.5182V38.2031H56.8591L56.2056 36.1006C55.8363 36.0154 55.4101 35.9728 54.9271 35.9728C52.5689 35.9728 51.3898 37.3839 51.3898 40.2062C51.3898 43.0284 52.4742 44.4395 54.643 44.4395C54.965 44.4395 55.2538 44.43 55.5095 44.4111C55.7653 44.3922 55.9973 44.3638 56.2056 44.3259L57.0296 42.0813H57.683L57.5836 44.7663C57.451 44.842 57.2616 44.9178 57.0154 44.9935C56.7691 45.0693 56.4992 45.1356 56.2056 45.1924C55.9215 45.2493 55.6232 45.2966 55.3107 45.3345C55.0076 45.3724 54.7282 45.3913 54.4725 45.3913C52.872 45.3913 51.6597 44.9462 50.8358 44.056C50.0119 43.1657 49.5999 41.8825 49.5999 40.2062C49.5999 38.5299 50.0261 37.2466 50.8784 36.3564C51.7402 35.4661 53.0282 35.021 54.7424 35.021ZM58.7044 45.1782V44.5674L59.9119 44.2833V34.9642H58.7044V34.3533L60.9774 33.8135H61.6166V44.2833L62.8241 44.5674V45.1782H58.7044ZM66.7738 35.916C66.7738 36.2096 66.6697 36.4605 66.4613 36.6689C66.2624 36.8678 66.0162 36.9672 65.7226 36.9672C65.429 36.9672 65.178 36.8678 64.9697 36.6689C64.7708 36.4605 64.6714 36.2096 64.6714 35.916C64.6714 35.6224 64.7708 35.3761 64.9697 35.1773C65.178 34.9689 65.429 34.8647 65.7226 34.8647C66.0162 34.8647 66.2624 34.9642 66.4613 35.1631C66.6697 35.3619 66.7738 35.6129 66.7738 35.916ZM63.6343 45.1782V44.5674L64.8418 44.2833V39.2259H63.6343V38.6151L65.9073 38.0753H66.5323V44.2833L67.7398 44.5674V45.1782H63.6343ZM68.5612 41.5415C68.5612 40.4997 68.8595 39.6284 69.4562 38.9276C70.0528 38.2173 70.8768 37.8622 71.928 37.8622C72.4773 37.8622 72.9556 37.9664 73.3628 38.1747C73.7795 38.3736 74.1063 38.653 74.343 39.0129C74.5893 39.3727 74.7692 39.7752 74.8828 40.2204C74.9965 40.6655 75.0533 41.1485 75.0533 41.6694H70.2517C70.318 42.446 70.5785 43.1089 71.033 43.6582C71.4876 44.198 72.108 44.4679 72.894 44.4679C73.396 44.4679 73.9405 44.359 74.5277 44.1412L74.7692 44.8089C73.8884 45.1972 73.0503 45.3913 72.2548 45.3913C71.1088 45.3913 70.2044 45.0172 69.5414 44.269C68.888 43.5209 68.5612 42.6117 68.5612 41.5415ZM70.2517 40.9733L73.2918 40.746C73.2634 40.1777 73.1308 39.6853 72.894 39.2686C72.6573 38.8519 72.321 38.6435 71.8854 38.6435C71.4119 38.6435 71.0236 38.8661 70.7205 39.3112C70.4269 39.7563 70.2707 40.3103 70.2517 40.9733ZM76.0922 45.1782V44.5674L77.2997 44.2833V39.2259H76.0922V38.6151L78.3652 38.0753H79.0044V38.7572C79.7242 38.1605 80.4866 37.8622 81.2916 37.8622C82.0303 37.8622 82.6127 38.0705 83.0389 38.4872C83.4651 38.9039 83.6782 39.439 83.6782 40.0925V44.2833L84.8857 44.5674V45.1782H81.0643V44.5674L81.9877 44.2833V40.3482C81.9877 39.3822 81.5757 38.8992 80.7518 38.8992C80.193 38.8992 79.6106 39.117 79.0044 39.5527V44.2833L79.9278 44.5674V45.1782H76.0922ZM85.5533 38.9276V38.5014L87.5705 36.7825H87.9967V38.1605L90.0423 38.0753V38.9276H87.9967V43.2746C87.9967 44.1175 88.3329 44.539 89.0053 44.539C89.2894 44.539 89.6303 44.4537 90.0281 44.2833L90.2696 44.9367C89.6824 45.2398 89.0763 45.3913 88.4513 45.3913C87.7694 45.3913 87.239 45.2303 86.8602 44.9083C86.4908 44.5768 86.3062 44.0086 86.3062 43.2036V38.9276H85.5533ZM90.9244 41.5415C90.9244 40.4997 91.2227 39.6284 91.8194 38.9276C92.416 38.2173 93.24 37.8622 94.2912 37.8622C94.8405 37.8622 95.3188 37.9664 95.726 38.1747C96.1427 38.3736 96.4695 38.653 96.7062 39.0129C96.9525 39.3727 97.1324 39.7752 97.246 40.2204C97.3597 40.6655 97.4165 41.1485 97.4165 41.6694H92.6149C92.6812 42.446 92.9417 43.1089 93.3962 43.6582C93.8508 44.198 94.4712 44.4679 95.2572 44.4679C95.7592 44.4679 96.3037 44.359 96.8909 44.1412L97.1324 44.8089C96.2516 45.1972 95.4135 45.3913 94.6179 45.3913C93.472 45.3913 92.5676 45.0172 91.9046 44.269C91.2512 43.5209 90.9244 42.6117 90.9244 41.5415ZM92.6149 40.9733L95.655 40.746C95.6266 40.1777 95.494 39.6853 95.2572 39.2686C95.0204 38.8519 94.6842 38.6435 94.2486 38.6435C93.7751 38.6435 93.3868 38.8661 93.0837 39.3112C92.7901 39.7563 92.6339 40.3103 92.6149 40.9733ZM101.857 45.1782V44.5248L103.164 44.2122V36.2001L101.857 35.8876V35.2341H105.877C106.389 35.2341 106.857 35.2767 107.284 35.3619C107.71 35.4377 108.122 35.575 108.52 35.7739C108.927 35.9633 109.244 36.2522 109.471 36.6405C109.708 37.0193 109.826 37.4786 109.826 38.0184C109.826 39.278 109.173 40.1304 107.866 40.5755L109.841 44.2264L111.091 44.539V45.1782H108.505L106.161 40.7886H104.911V44.2122L106.218 44.5248V45.1782H101.857ZM104.911 39.9362H105.735C106.427 39.9362 106.981 39.7658 107.397 39.4248C107.823 39.0839 108.037 38.6056 108.037 37.99C108.037 37.3839 107.828 36.9246 107.411 36.6121C106.995 36.2901 106.436 36.1291 105.735 36.1291H104.911V39.9362ZM111.526 41.5415C111.526 40.4997 111.824 39.6284 112.421 38.9276C113.017 38.2173 113.841 37.8622 114.893 37.8622C115.442 37.8622 115.92 37.9664 116.327 38.1747C116.744 38.3736 117.071 38.653 117.308 39.0129C117.554 39.3727 117.734 39.7752 117.847 40.2204C117.961 40.6655 118.018 41.1485 118.018 41.6694H113.216C113.283 42.446 113.543 43.1089 113.998 43.6582C114.452 44.198 115.072 44.4679 115.859 44.4679C116.36 44.4679 116.905 44.359 117.492 44.1412L117.734 44.8089C116.853 45.1972 116.015 45.3913 115.219 45.3913C114.073 45.3913 113.169 45.0172 112.506 44.269C111.852 43.5209 111.526 42.6117 111.526 41.5415ZM113.216 40.9733L116.256 40.746C116.228 40.1777 116.095 39.6853 115.859 39.2686C115.622 38.8519 115.286 38.6435 114.85 38.6435C114.376 38.6435 113.988 38.8661 113.685 39.3112C113.391 39.7563 113.235 40.3103 113.216 40.9733ZM119.043 43.4167C119.043 41.7783 120.496 40.9591 123.404 40.9591V40.4619C123.404 39.6379 123.285 39.117 123.049 38.8992C122.821 38.6719 122.461 38.5583 121.969 38.5583L120.307 39.9789C120.08 39.8368 119.885 39.6379 119.724 39.3822C119.573 39.117 119.492 38.8377 119.483 38.5441C119.881 38.3262 120.316 38.1605 120.79 38.0469C121.263 37.9237 121.732 37.8622 122.196 37.8622C124.138 37.8622 125.108 38.6767 125.108 40.3056V44.2548H126.217V44.7236C125.999 44.932 125.757 45.093 125.492 45.2066C125.227 45.3298 124.966 45.3913 124.711 45.3913C124.152 45.3913 123.74 45.1498 123.475 44.6668C122.84 45.1498 122.125 45.3913 121.33 45.3913C120.705 45.3913 120.165 45.2256 119.71 44.8941C119.265 44.5626 119.043 44.0702 119.043 43.4167ZM120.833 43.3599C120.833 43.7103 120.946 43.9707 121.173 44.1412C121.41 44.3117 121.709 44.3969 122.068 44.3969C122.589 44.3969 123.034 44.2359 123.404 43.9139V41.6836C122.551 41.6836 121.907 41.8398 121.472 42.1524C121.046 42.4554 120.833 42.8579 120.833 43.3599ZM126.682 45.1782V44.5674L127.889 44.2833V34.9642H126.682V34.3533L128.955 33.8135H129.594V44.2833L130.802 44.5674V45.1782H126.682ZM134.751 35.916C134.751 36.2096 134.647 36.4605 134.439 36.6689C134.24 36.8678 133.994 36.9672 133.7 36.9672C133.406 36.9672 133.155 36.8678 132.947 36.6689C132.748 36.4605 132.649 36.2096 132.649 35.916C132.649 35.6224 132.748 35.3761 132.947 35.1773C133.155 34.9689 133.406 34.8647 133.7 34.8647C133.994 34.8647 134.24 34.9642 134.439 35.1631C134.647 35.3619 134.751 35.6129 134.751 35.916ZM131.612 45.1782V44.5674L132.819 44.2833V39.2259H131.612V38.6151L133.885 38.0753H134.51V44.2833L135.717 44.5674V45.1782H131.612ZM136.565 45.1782V44.4679L140.529 38.8424H137.958L137.276 40.2772H136.764L136.921 38.0753H142.589V38.7714L138.625 44.3969H141.282L142.02 42.82H142.575L142.432 45.1782H136.565ZM143.75 43.4167C143.75 41.7783 145.204 40.9591 148.112 40.9591V40.4619C148.112 39.6379 147.993 39.117 147.756 38.8992C147.529 38.6719 147.169 38.5583 146.677 38.5583L145.015 39.9789C144.787 39.8368 144.593 39.6379 144.432 39.3822C144.281 39.117 144.2 38.8377 144.191 38.5441C144.588 38.3262 145.024 38.1605 145.498 38.0469C145.971 37.9237 146.44 37.8622 146.904 37.8622C148.845 37.8622 149.816 38.6767 149.816 40.3056V44.2548H150.924V44.7236C150.706 44.932 150.465 45.093 150.2 45.2066C149.935 45.3298 149.674 45.3913 149.418 45.3913C148.86 45.3913 148.448 45.1498 148.183 44.6668C147.548 45.1498 146.833 45.3913 146.037 45.3913C145.412 45.3913 144.873 45.2256 144.418 44.8941C143.973 44.5626 143.75 44.0702 143.75 43.4167ZM145.54 43.3599C145.54 43.7103 145.654 43.9707 145.881 44.1412C146.118 44.3117 146.416 44.3969 146.776 44.3969C147.297 44.3969 147.742 44.2359 148.112 43.9139V41.6836C147.259 41.6836 146.615 41.8398 146.179 42.1524C145.753 42.4554 145.54 42.8579 145.54 43.3599ZM151.702 41.8825C151.702 40.6039 152.095 39.6142 152.881 38.9134C153.667 38.2126 154.619 37.8622 155.737 37.8622C156.134 37.8622 156.48 37.9048 156.774 37.99V34.9642H155.566V34.3533L157.839 33.8135H158.478V44.2548H159.586V44.7236L159.359 44.9083C159.264 44.9841 159.084 45.0835 158.819 45.2066C158.564 45.3298 158.313 45.3913 158.066 45.3913C157.962 45.3913 157.858 45.3771 157.754 45.3487C157.659 45.3298 157.574 45.3013 157.498 45.2635C157.422 45.2256 157.351 45.183 157.285 45.1356C157.219 45.0788 157.162 45.0267 157.115 44.9793C157.077 44.932 157.034 44.8799 156.987 44.8231C156.949 44.7663 156.92 44.7189 156.902 44.681C156.883 44.6431 156.859 44.6005 156.83 44.5532L156.802 44.4963C156.234 45.093 155.533 45.3913 154.7 45.3913C153.876 45.3913 153.17 45.093 152.583 44.4963C151.996 43.8902 151.702 43.0189 151.702 41.8825ZM153.449 41.8256C153.449 42.6401 153.629 43.2604 153.989 43.6866C154.359 44.1128 154.794 44.3259 155.296 44.3259C155.827 44.3259 156.319 44.1507 156.774 43.8003V38.7856C156.48 38.6909 156.177 38.6435 155.864 38.6435C155.145 38.6435 154.562 38.9134 154.117 39.4532C153.672 39.9931 153.449 40.7839 153.449 41.8256ZM164.078 37.8622C165.12 37.8622 165.982 38.2173 166.664 38.9276C167.346 39.6284 167.686 40.5234 167.686 41.6125C167.686 42.7111 167.346 43.6156 166.664 44.3259C165.982 45.0362 165.12 45.3913 164.078 45.3913C163.036 45.3913 162.17 45.0362 161.478 44.3259C160.797 43.6156 160.456 42.7111 160.456 41.6125C160.456 40.5234 160.797 39.6284 161.478 38.9276C162.17 38.2173 163.036 37.8622 164.078 37.8622ZM164.078 38.6435C163.491 38.6435 163.036 38.9134 162.714 39.4532C162.402 39.9931 162.246 40.7128 162.246 41.6125C162.246 42.5122 162.402 43.2367 162.714 43.786C163.036 44.3353 163.491 44.61 164.078 44.61C164.665 44.61 165.115 44.3353 165.428 43.786C165.75 43.2273 165.911 42.5028 165.911 41.6125C165.911 40.7128 165.75 39.9931 165.428 39.4532C165.115 38.9134 164.665 38.6435 164.078 38.6435ZM168.976 45.0646V43.0331H169.629L170.169 44.5248C170.501 44.5816 170.87 44.61 171.277 44.61C171.883 44.61 172.31 44.5342 172.556 44.3827C172.812 44.2217 172.939 43.9518 172.939 43.573C172.939 43.2794 172.802 43.0379 172.527 42.8485C172.253 42.6496 171.779 42.4175 171.107 42.1524C170.472 41.8872 169.98 41.5747 169.629 41.2148C169.279 40.8454 169.104 40.3814 169.104 39.8226C169.104 39.1881 169.369 38.7051 169.899 38.3736C170.439 38.0327 171.14 37.8622 172.002 37.8622C172.75 37.8622 173.427 37.9522 174.033 38.1321V40.0641H173.437L172.968 38.7287C172.693 38.653 172.371 38.6151 172.002 38.6151C171.49 38.6151 171.131 38.6956 170.922 38.8566C170.723 39.0081 170.624 39.2402 170.624 39.5527C170.624 39.7326 170.69 39.8936 170.823 40.0357C170.955 40.1777 171.102 40.2961 171.263 40.3908C171.434 40.4761 171.704 40.5992 172.073 40.7602C172.935 41.1201 173.55 41.4847 173.92 41.854C174.298 42.2139 174.488 42.6827 174.488 43.2604C174.488 43.9518 174.208 44.4821 173.65 44.8515C173.091 45.2114 172.362 45.3913 171.462 45.3913C170.572 45.3913 169.743 45.2824 168.976 45.0646Z" fill="white"/>
</svg>
