<svg width="current" height="current" viewBox="0 0 18 16" fill="current" xmlns="http://www.w3.org/2000/svg">
<path d="M15.3 14.2222H2.7V15.1111C2.7 15.3469 2.60518 15.573 2.4364 15.7397C2.26761 15.9064 2.03869 16 1.8 16H0.9C0.661305 16 0.432387 15.9064 0.263604 15.7397C0.0948211 15.573 0 15.3469 0 15.1111V6.22222L2.232 1.07733C2.37089 0.757334 2.60186 0.484657 2.89625 0.293138C3.19064 0.10162 3.53549 -0.000308949 3.888 7.03436e-07H14.112C14.4642 3.91218e-05 14.8087 0.102131 15.1027 0.293628C15.3967 0.485125 15.6274 0.757612 15.7662 1.07733L18 6.22222V15.1111C18 15.3469 17.9052 15.573 17.7364 15.7397C17.5676 15.9064 17.3387 16 17.1 16H16.2C15.9613 16 15.7324 15.9064 15.5636 15.7397C15.3948 15.573 15.3 15.3469 15.3 15.1111V14.2222ZM16.2 8H1.8V12.4444H16.2V8ZM1.9584 6.22222H16.0416L14.1129 1.77778H3.888L1.9593 6.22222H1.9584ZM4.05 11.5556C3.69196 11.5556 3.34858 11.4151 3.09541 11.165C2.84223 10.915 2.7 10.5758 2.7 10.2222C2.7 9.8686 2.84223 9.52946 3.09541 9.27941C3.34858 9.02937 3.69196 8.88889 4.05 8.88889C4.40804 8.88889 4.75142 9.02937 5.00459 9.27941C5.25777 9.52946 5.4 9.8686 5.4 10.2222C5.4 10.5758 5.25777 10.915 5.00459 11.165C4.75142 11.4151 4.40804 11.5556 4.05 11.5556V11.5556ZM13.95 11.5556C13.592 11.5556 13.2486 11.4151 12.9954 11.165C12.7422 10.915 12.6 10.5758 12.6 10.2222C12.6 9.8686 12.7422 9.52946 12.9954 9.27941C13.2486 9.02937 13.592 8.88889 13.95 8.88889C14.308 8.88889 14.6514 9.02937 14.9046 9.27941C15.1578 9.52946 15.3 9.8686 15.3 10.2222C15.3 10.5758 15.1578 10.915 14.9046 11.165C14.6514 11.4151 14.308 11.5556 13.95 11.5556V11.5556Z" fill="current"/>
</svg>
