<svg width="198" height="81" viewBox="0 0 198 81" fill="none" xmlns="http://www.w3.org/2000/svg">
<path d="M11.151 68.6368L10.0851 74.2893C10.0089 74.686 9.96832 75.0886 9.96402 75.4925C9.92952 75.7357 9.95091 75.9835 10.0266 76.2171C10.1023 76.4507 10.2302 76.664 10.4007 76.8408C10.5712 77.0175 10.7798 77.153 11.0106 77.237C11.2413 77.321 11.4882 77.3513 11.7324 77.3255C13.0325 77.3255 13.9934 76.4454 14.3891 74.3216L15.4712 68.6691H16.642L15.56 74.3216C15.0109 77.1802 13.5978 78.3268 11.579 78.3268C11.2026 78.3625 10.8229 78.314 10.4675 78.1849C10.112 78.0558 9.78974 77.8493 9.5239 77.5804C9.25806 77.3114 9.05532 76.9868 8.93033 76.6299C8.80535 76.273 8.76125 75.8928 8.80122 75.5167C8.80296 75.0753 8.84349 74.6349 8.92235 74.2005L9.98017 68.6368H11.151ZM17.1992 78.1734L18.1117 73.3284C18.257 72.5694 18.3539 71.9072 18.4266 71.342H19.4521L19.2664 72.6259H19.3149C19.5633 72.1996 19.9159 71.8434 20.3396 71.5906C20.7633 71.3378 21.2443 71.1967 21.7374 71.1805C21.9465 71.1621 22.1572 71.1883 22.3555 71.2573C22.5538 71.3263 22.7352 71.4365 22.8878 71.5807C23.0404 71.7249 23.1607 71.8998 23.2408 72.0939C23.3208 72.2879 23.3589 72.4968 23.3524 72.7066C23.5994 72.2588 23.9585 71.8827 24.3944 71.6152C24.8304 71.3477 25.3283 71.1979 25.8395 71.1805C26.0674 71.1791 26.293 71.2259 26.5015 71.318C26.71 71.41 26.8966 71.5451 27.0492 71.7145C27.2017 71.8838 27.3167 72.0835 27.3865 72.3004C27.4564 72.5173 27.4795 72.7466 27.4545 72.9731C27.4506 73.3633 27.4128 73.7523 27.3414 74.1359L26.5824 78.1734H25.4519L26.1867 74.2328C26.2486 73.9407 26.2811 73.6431 26.2836 73.3446C26.2836 72.6259 26.0171 72.1575 25.2581 72.1575C24.499 72.1575 23.417 73.1427 23.1182 74.6689L22.456 78.1734H21.3336L22.0927 74.1359C22.147 73.87 22.1767 73.5997 22.1815 73.3284C22.1815 72.7551 22.02 72.1575 21.164 72.1575C20.3081 72.1575 19.2422 73.288 18.9757 74.7415L18.3378 78.1734H17.1992ZM34.1567 72.2141C33.8927 72.1479 33.6214 72.1153 33.3492 72.1172C31.5808 72.1172 30.1192 73.9663 30.1192 75.8559C30.1192 76.6149 30.3938 77.3659 31.2982 77.3659C32.2026 77.3659 33.4219 76.0981 33.7207 74.2732L34.1163 72.2141H34.1567ZM33.3977 78.1734C33.3977 77.7616 33.4703 77.1156 33.5511 76.405C32.792 77.8181 31.8634 78.3268 30.8863 78.3268C30.6047 78.3198 30.3277 78.2541 30.0729 78.1339C29.8181 78.0138 29.5912 77.8419 29.4065 77.6291C29.2219 77.4164 29.0837 77.1675 29.0006 76.8983C28.9175 76.6292 28.8915 76.3456 28.9241 76.0658C28.9156 75.4367 29.0313 74.8121 29.2647 74.2278C29.4981 73.6435 29.8445 73.111 30.2842 72.6609C30.7238 72.2108 31.2479 71.8518 31.8266 71.6047C32.4052 71.3576 33.0269 71.2272 33.6561 71.2208C34.2771 71.2238 34.8944 71.3162 35.4891 71.4954L34.7946 75.0484C34.5878 76.0905 34.4904 77.1514 34.5039 78.2138L33.3977 78.1734ZM44.0405 72.965C44.0405 72.4079 43.6206 72.101 42.9908 72.101C41.8764 72.101 41.0447 73.1911 40.7621 74.2651C42.5951 74.2651 44.0405 74.0309 44.0405 72.9731V72.965ZM44.2908 77.81C43.598 78.1797 42.8231 78.3685 42.0379 78.3591C40.2291 78.3591 39.4378 77.1156 39.4378 75.6056C39.4378 73.5464 40.9639 71.2128 43.1603 71.2128C43.4113 71.1736 43.6677 71.1885 43.9124 71.2564C44.1571 71.3242 44.3845 71.4436 44.5794 71.6064C44.7744 71.7692 44.9323 71.9717 45.0426 72.2005C45.153 72.4292 45.2133 72.6788 45.2195 72.9327C45.2195 74.7254 43.2007 75.2099 40.6732 75.1614C40.6177 75.5996 40.6646 76.0446 40.8105 76.4615C40.9412 76.7519 41.1573 76.9955 41.4299 77.16C41.7026 77.3244 42.0189 77.4019 42.3367 77.3821C42.9801 77.3759 43.6122 77.2124 44.1778 76.9056L44.3393 77.7777L44.2908 77.81ZM46.0431 78.2057L46.9637 73.3607C47.1009 72.6017 47.2059 71.9395 47.2705 71.3743H48.3041L48.1184 72.6582C48.3686 72.2335 48.7216 71.8785 49.1449 71.6259C49.5682 71.3733 50.0483 71.2312 50.5409 71.2128C50.75 71.1944 50.9607 71.2206 51.159 71.2896C51.3573 71.3586 51.5387 71.4688 51.6913 71.613C51.8439 71.7572 51.9642 71.9321 52.0443 72.1262C52.1243 72.3202 52.1624 72.5291 52.1559 72.7389C52.4044 72.2871 52.7671 71.9084 53.2078 71.6405C53.6484 71.3727 54.1517 71.2252 54.6672 71.2128C54.8951 71.2114 55.1207 71.2582 55.3292 71.3503C55.5377 71.4423 55.7243 71.5774 55.8769 71.7468C56.0294 71.9161 56.1444 72.1158 56.2143 72.3327C56.2841 72.5496 56.3073 72.7789 56.2822 73.0054C56.2772 73.3951 56.2421 73.7839 56.1772 74.1682L55.4101 78.2057H54.32L55.0548 74.2651C55.1127 73.9724 55.1451 73.6752 55.1517 73.3769C55.1517 72.6582 54.8852 72.1898 54.1181 72.1898C53.351 72.1898 52.2689 73.175 51.9863 74.7012L51.3242 78.2057H50.1936L51.0011 74.1682C51.053 73.9021 51.08 73.6318 51.0819 73.3607C51.0819 72.7874 50.9285 72.1898 50.0644 72.1898C49.2004 72.1898 48.1507 73.3203 47.8761 74.7738L47.2463 78.2057H46.0431ZM59.0438 77.0591C59.4225 77.3269 59.881 77.4578 60.3439 77.4305C61.8539 77.4305 63.1217 75.5652 63.1217 73.7725C63.1217 73.0539 62.7987 72.1575 61.8136 72.1575C60.8284 72.1575 59.7544 73.2154 59.3991 75.0968L59.06 77.0025L59.0438 77.0591ZM57.122 80.9997L58.4947 73.7968C58.632 72.9893 58.7774 72.0526 58.8743 71.3743H59.9482L59.7544 72.6259C60.0152 72.2106 60.3707 71.863 60.7918 71.6117C61.2129 71.3605 61.6876 71.2127 62.1769 71.1805C63.6627 71.1805 64.2764 72.3998 64.2764 73.6514C64.2764 76.0739 62.5565 78.3268 60.2874 78.3268C59.7732 78.3531 59.261 78.2445 58.8016 78.0119V78.0119L58.2525 80.9674L57.122 80.9997ZM65.4069 78.1734L66.2144 73.7645C66.384 72.8762 66.4971 71.9718 66.5697 71.342H67.6033C67.5387 71.8184 67.4903 72.2948 67.4176 72.8197C67.5776 72.3801 67.8591 71.995 68.2293 71.7091C68.5995 71.4233 69.0433 71.2483 69.509 71.2047C69.6165 71.1963 69.7245 71.1963 69.832 71.2047L69.6059 72.3594C69.5038 72.3531 69.4013 72.3531 69.2991 72.3594C68.2816 72.3594 67.3772 73.5868 67.0785 75.1776L66.5132 78.1896L65.4069 78.1734ZM74.7659 72.965C74.7659 72.4079 74.346 72.101 73.7242 72.101C72.6018 72.101 71.7781 73.1911 71.4955 74.2651C73.3285 74.2651 74.7255 74.0309 74.7255 72.9731L74.7659 72.965ZM75.0162 77.81C74.3237 78.1807 73.5486 78.3696 72.7633 78.3591C70.9545 78.3591 70.1631 77.1156 70.1631 75.6056C70.1631 73.5464 71.6893 71.2128 73.8938 71.2128C74.1412 71.1798 74.3929 71.1993 74.6323 71.2702C74.8717 71.341 75.0935 71.4614 75.2832 71.6237C75.4729 71.786 75.6263 71.9865 75.7333 72.212C75.8404 72.4376 75.8987 72.6831 75.9044 72.9327C75.9044 74.7254 73.8857 75.2099 71.3582 75.1614C71.3015 75.6002 71.3514 76.0461 71.5036 76.4615C71.6319 76.7519 71.8463 76.996 72.1178 77.1606C72.3893 77.3252 72.7048 77.4025 73.0217 77.3821C73.6651 77.3759 74.2972 77.2124 74.8628 76.9056L75.0243 77.7777L75.0162 77.81ZM76.825 77.0025C77.2731 77.2608 77.7778 77.4049 78.2946 77.4224C78.454 77.4391 78.6151 77.4231 78.7681 77.3754C78.9211 77.3277 79.0628 77.2493 79.1844 77.145C79.3061 77.0407 79.4053 76.9127 79.4758 76.7688C79.5463 76.6249 79.5868 76.4681 79.5947 76.3081C79.5947 75.7751 79.3525 75.4521 78.6499 75.0565C78.3047 74.908 78.0069 74.6676 77.789 74.3614C77.5712 74.0553 77.4416 73.6951 77.4145 73.3203C77.4277 73.0095 77.5052 72.7048 77.6421 72.4254C77.7789 72.146 77.9721 71.8979 78.2096 71.6969C78.447 71.4959 78.7235 71.3462 79.0217 71.2573C79.3198 71.1684 79.6332 71.1423 79.9419 71.1805C80.4409 71.1653 80.9348 71.2853 81.3712 71.5277L81.0482 72.4079C80.6841 72.2088 80.2762 72.1033 79.8612 72.101C79.7128 72.0843 79.5626 72.0982 79.4199 72.1419C79.2771 72.1856 79.1449 72.2581 79.0313 72.355C78.9177 72.4519 78.8253 72.5711 78.7597 72.7052C78.6941 72.8393 78.6567 72.9855 78.6499 73.1346C78.6499 73.6272 78.9729 73.9421 79.5786 74.2732C79.9341 74.4288 80.241 74.6774 80.467 74.993C80.693 75.3085 80.8296 75.6791 80.8625 76.0658C80.8625 77.5032 79.6916 78.3268 78.2543 78.3268C77.654 78.3333 77.0648 78.165 76.5585 77.8423L76.8815 76.9864L76.825 77.0025ZM87.6051 72.2302C87.3411 72.164 87.0698 72.1315 86.7976 72.1333C85.0292 72.1333 83.5676 73.9825 83.5676 75.872C83.5676 76.6311 83.8341 77.3821 84.7385 77.3821C85.6429 77.3821 86.8703 76.1143 87.2094 74.2893L87.597 72.2302H87.6051ZM86.8461 78.1896C86.8688 77.5977 86.9227 77.0074 87.0076 76.4211V76.4211C86.2566 77.8343 85.328 78.343 84.3509 78.343C84.0657 78.3395 83.7844 78.2758 83.5255 78.1562C83.2666 78.0366 83.0359 77.8636 82.8484 77.6487C82.6609 77.4338 82.5209 77.1817 82.4375 76.9089C82.3541 76.6362 82.3292 76.3489 82.3644 76.0658C82.3559 75.4367 82.4716 74.8121 82.705 74.2278C82.9384 73.6435 83.2849 73.111 83.7245 72.6609C84.1641 72.2108 84.6882 71.8518 85.2669 71.6047C85.8455 71.3576 86.4672 71.2272 87.0964 71.2208C87.7174 71.2238 88.3348 71.3162 88.9294 71.4954L88.243 75.0484C88.0341 76.0903 87.934 77.1512 87.9443 78.2138L86.8461 78.1896ZM98.151 72.424C97.8071 72.2282 97.4161 72.1305 97.0205 72.1414C95.4055 72.1414 94.1136 73.8775 94.1136 75.7025C94.1136 76.51 94.3962 77.3821 95.3975 77.3821C96.3988 77.3821 97.392 76.3565 97.6827 74.8142L98.151 72.3917V72.424ZM100.129 68.1523L98.6355 76.0093C98.4878 76.7232 98.388 77.4462 98.3368 78.1734H97.2628L97.4485 76.8168C97.2093 77.2561 96.8605 77.6261 96.436 77.8907C96.0115 78.1553 95.5258 78.3055 95.026 78.3268C93.7017 78.3268 92.9831 77.2367 92.9831 75.8397C92.9831 73.4172 94.7838 71.1805 97.1982 71.1805C97.6169 71.1769 98.0319 71.2594 98.4175 71.4227L99.0231 68.1927L100.129 68.1523ZM101.866 75.4764C101.866 76.5907 102.471 77.3982 103.481 77.3982C104.861 77.3982 105.903 75.6136 105.903 74.0229C105.932 73.7899 105.913 73.5533 105.846 73.3282C105.779 73.1031 105.666 72.8944 105.514 72.7152C105.362 72.5361 105.175 72.3904 104.964 72.2875C104.753 72.1845 104.523 72.1265 104.288 72.1172C102.818 72.1172 101.866 73.9098 101.866 75.4764V75.4764ZM107.106 74.0309C107.106 76.1385 105.604 78.3268 103.319 78.3268C102.953 78.337 102.59 78.2702 102.252 78.1307C101.914 77.9912 101.609 77.7822 101.357 77.5172C101.105 77.2522 100.911 76.9371 100.789 76.5925C100.666 76.2479 100.618 75.8813 100.646 75.5167C100.646 73.2719 102.213 71.1805 104.433 71.1805C104.803 71.1697 105.17 71.2375 105.511 71.3794C105.852 71.5213 106.159 71.734 106.412 72.0035C106.665 72.273 106.857 72.5931 106.977 72.9426C107.097 73.2922 107.141 73.6631 107.106 74.0309V74.0309ZM118.096 77.7616C117.241 78.0938 116.333 78.2662 115.415 78.2703C114.842 78.3106 114.267 78.2253 113.73 78.0203C113.193 77.8153 112.707 77.4955 112.307 77.0833C111.648 76.3044 111.303 75.3086 111.338 74.2893C111.316 73.5296 111.451 72.7736 111.732 72.0678C112.014 71.3619 112.437 70.7211 112.976 70.1849C113.514 69.6486 114.157 69.2282 114.864 68.9495C115.571 68.6708 116.327 68.5396 117.087 68.5642C117.858 68.528 118.628 68.6746 119.332 68.9921L118.952 69.9854C118.324 69.6989 117.64 69.5581 116.95 69.5735C115.855 69.5626 114.798 69.9765 114.002 70.7283C113.546 71.1869 113.185 71.7312 112.939 72.3298C112.694 72.9285 112.57 73.5697 112.573 74.2167C112.573 76.0578 113.494 77.269 115.609 77.269C116.107 77.2763 116.602 77.1829 117.063 76.9945L117.596 74.1601H115.666L115.851 73.2073H118.92L118.064 77.7616H118.096ZM120.131 78.1734L120.939 73.7645C121.108 72.8762 121.221 71.9718 121.294 71.342H122.32C122.263 71.8184 122.206 72.2948 122.134 72.8197C122.296 72.3817 122.578 71.9981 122.948 71.7126C123.318 71.4271 123.76 71.2511 124.225 71.2047C124.335 71.1959 124.446 71.1959 124.556 71.2047L124.354 72.3675C124.25 72.3612 124.144 72.3612 124.039 72.3675C123.022 72.3675 122.118 73.5949 121.827 75.1857L121.262 78.1976L120.131 78.1734ZM131.557 71.342L130.645 76.187C130.499 76.9945 130.403 77.6162 130.338 78.1815H129.272L129.458 76.8976C129.199 77.3141 128.844 77.6622 128.422 77.9124C128.001 78.1626 127.525 78.3075 127.035 78.3349C126.155 78.3349 125.235 77.915 125.235 76.3565C125.245 75.9713 125.288 75.5877 125.364 75.2099L126.099 71.35H127.269L126.551 75.1614C126.473 75.4898 126.43 75.8254 126.422 76.1627C126.422 76.8653 126.72 77.3417 127.528 77.3417C128.335 77.3417 129.458 76.3565 129.74 74.8465L130.403 71.35L131.557 71.342ZM133.923 76.9945C134.299 77.2622 134.755 77.3933 135.215 77.3659C136.725 77.3659 137.993 75.5006 137.993 73.7079C137.993 72.9893 137.67 72.0929 136.685 72.0929C135.7 72.0929 134.61 73.1508 134.262 75.0565L133.923 76.9622V76.9945ZM132.001 80.9351L133.366 73.7322C133.511 72.9247 133.649 71.988 133.754 71.3097H134.852L134.658 72.6097C134.919 72.1944 135.274 71.8469 135.695 71.5956C136.117 71.3443 136.591 71.1965 137.081 71.1643C138.566 71.1643 139.188 72.3836 139.188 73.6353C139.188 76.0578 137.46 78.3107 135.191 78.3107C134.679 78.3382 134.169 78.2295 133.713 77.9958V77.9958L133.164 80.9512L132.001 80.9351ZM141.651 75.4441C141.651 76.5584 142.257 77.3659 143.266 77.3659C144.647 77.3659 145.689 75.5813 145.689 73.9906C145.689 73.1831 145.325 72.0849 144.074 72.0849C142.604 72.0849 141.611 73.8775 141.651 75.4441ZM146.892 73.9986C146.892 76.1062 145.398 78.2945 143.105 78.2945C142.74 78.3036 142.377 78.2359 142.04 78.0959C141.703 77.9559 141.399 77.7467 141.148 77.4818C140.896 77.2169 140.704 76.9023 140.582 76.5582C140.46 76.2142 140.411 75.8484 140.44 75.4844C140.44 73.2396 142.006 71.1482 144.219 71.1482C144.588 71.1374 144.956 71.2052 145.297 71.3471C145.638 71.489 145.945 71.7017 146.198 71.9712C146.45 72.2407 146.643 72.5608 146.762 72.9103C146.882 73.2599 146.926 73.6308 146.892 73.9986V73.9986ZM153.869 68.6368L153.061 72.6743H157.462L158.221 68.6368H159.408L157.583 78.1573H156.412L157.22 73.6756H152.843L152.035 78.1573H150.865L152.698 68.6368H153.869ZM164.632 72.9489C164.632 72.3917 164.213 72.0849 163.591 72.0849C162.476 72.0849 161.645 73.175 161.362 74.249C163.195 74.249 164.592 74.0148 164.592 72.957L164.632 72.9489ZM164.891 77.7939C164.196 78.1645 163.418 78.3534 162.63 78.343C160.821 78.343 160.038 77.0994 160.038 75.5894C160.038 73.5303 161.564 71.1966 163.76 71.1966C164.01 71.1646 164.263 71.1859 164.504 71.2592C164.745 71.3325 164.967 71.4561 165.156 71.6217C165.346 71.7874 165.498 71.9913 165.602 72.2201C165.707 72.4489 165.762 72.6973 165.763 72.9489C165.763 74.7415 163.744 75.226 161.225 75.1776C161.165 75.6157 161.212 76.0617 161.362 76.4777C161.492 76.7687 161.708 77.013 161.981 77.1776C162.253 77.3422 162.57 77.4192 162.888 77.3982C163.529 77.3911 164.158 77.2276 164.721 76.9218L164.891 77.7939V77.7939ZM166.643 78.1896L167.451 73.7806C167.62 72.8924 167.733 71.988 167.806 71.3581H168.831C168.775 71.8345 168.718 72.311 168.654 72.8358H168.694C168.854 72.3963 169.136 72.0112 169.506 71.7253C169.876 71.4394 170.32 71.2645 170.786 71.2208C170.893 71.2125 171.001 71.2125 171.109 71.2208L170.883 72.3756C170.778 72.3693 170.672 72.3693 170.568 72.3756C169.55 72.3756 168.654 73.603 168.355 75.1937L167.79 78.2057L166.643 78.1896ZM173.216 71.3581L173.814 75.2503C173.911 76.0578 173.999 76.5503 174.024 76.9299H174.064C174.209 76.5665 174.395 76.1224 174.783 75.3149L176.842 71.342H178.126L174.331 78.1734H173.208L171.997 71.342L173.216 71.3581ZM183.455 72.2302C183.191 72.165 182.92 72.1325 182.648 72.1333C180.887 72.1333 179.418 73.9825 179.418 75.872C179.418 76.6311 179.684 77.3821 180.589 77.3821C181.493 77.3821 182.72 76.1143 183.06 74.2893L183.455 72.2302ZM182.688 78.1896C182.688 77.7777 182.761 77.1317 182.842 76.4211C182.091 77.8343 181.162 78.343 180.185 78.343C179.904 78.3348 179.628 78.2683 179.374 78.1477C179.12 78.0271 178.894 77.855 178.71 77.6424C178.527 77.4297 178.389 77.1812 178.307 76.9126C178.224 76.644 178.198 76.3611 178.231 76.082C178.221 75.4532 178.336 74.8288 178.568 74.2446C178.801 73.6603 179.147 73.1277 179.586 72.6775C180.025 72.2273 180.548 71.8682 181.126 71.621C181.705 71.3738 182.326 71.2433 182.955 71.237C183.576 71.239 184.193 71.3315 184.788 71.5115L184.101 75.0645C183.888 76.1059 183.788 77.1671 183.803 78.2299L182.688 78.1896ZM185.821 78.1896L187.727 68.1604H188.898L186.984 78.1896H185.821Z" fill="white"/>
<path fill-rule="evenodd" clip-rule="evenodd" d="M80.6445 34.9321C78.5369 34.9321 76.3809 35.344 76.3809 38.3802V40.2293C76.3809 42.4823 77.6163 43.6774 79.9662 43.6774H83.0993C85.7559 43.6774 86.8461 42.8052 86.8461 40.6573V40.2939H85.3037V40.6977C85.3037 41.7717 84.5689 42.3127 83.0508 42.3127H80.7494C79.1344 42.3127 78.0605 41.9493 78.0605 40.1728V38.4286C78.0605 36.4745 79.199 36.313 80.483 36.313H83.0347C84.6012 36.313 85.2068 36.749 85.2068 37.8795V38.2025H86.7492V37.8472C86.7492 35.9173 85.4895 34.9321 83.0185 34.9321H80.6445Z" fill="white"/>
<path fill-rule="evenodd" clip-rule="evenodd" d="M108.293 34.9321C106.743 34.9321 105.661 35.1986 105.063 36.2403V35.0613H103.521V43.5482H105.136V38.7597C105.136 36.9751 105.717 36.3372 109.004 36.3372H109.359C112.056 36.3372 112.274 37.1447 112.274 38.2106V43.5724H113.889V37.8472C113.889 36.7571 113.429 34.9321 110.336 34.9321H108.293Z" fill="white"/>
<path fill-rule="evenodd" clip-rule="evenodd" d="M121.221 34.9321C118.08 34.9321 116.917 35.5297 116.917 37.1366V37.6211C116.917 39.2361 117.725 39.9467 119.719 39.9467H123.999C125.654 39.9467 125.768 40.3666 125.768 41.0449C125.768 42.1996 125.307 42.2965 123.143 42.2965H120.172C118.645 42.2965 118.339 41.7959 118.339 40.9803V40.4554H116.796V41.0772C116.796 43.6773 118.88 43.6774 120.898 43.6774H123.45C124.928 43.6774 127.399 43.6773 127.399 41.166C127.399 38.6547 125.832 38.5659 123.773 38.5659H120.107C118.662 38.5659 118.548 38.1702 118.548 37.6211V37.3143C118.548 36.5068 118.831 36.313 120.85 36.313H123.272C124.823 36.313 125.509 36.3533 125.509 37.4758V37.5969L125.63 37.6776H127.051V37.1447C127.051 35.8285 126.422 34.9564 123.353 34.9564L121.221 34.9321Z" fill="white"/>
<path fill-rule="evenodd" clip-rule="evenodd" d="M136.661 30.8059L134.069 34.0359H135.409C135.498 34.0359 138.469 31.0159 138.469 31.0159L138.679 30.7979L136.661 30.8059Z" fill="white"/>
<path fill-rule="evenodd" clip-rule="evenodd" d="M148.337 34.9322C147.865 34.8983 147.393 34.9894 146.968 35.1964C146.542 35.4034 146.179 35.7189 145.915 36.1112V35.0614H144.372V43.5482H145.987V38.1864C145.984 37.923 146.037 37.6618 146.144 37.4207C146.25 37.1796 146.407 36.9641 146.603 36.7888C146.8 36.6135 147.032 36.4825 147.284 36.4046C147.536 36.3267 147.801 36.3037 148.063 36.3373H148.919C151.341 36.3373 151.688 36.6037 151.688 38.574V39.0505H153.223V37.9523C153.223 35.8043 152.221 34.9726 149.645 34.9726L148.337 34.9322Z" fill="white"/>
<path fill-rule="evenodd" clip-rule="evenodd" d="M159.327 34.9321C157.22 34.9321 155.064 35.344 155.064 38.3802V40.2293C155.064 42.4823 156.299 43.6774 158.649 43.6774H161.782C164.439 43.6774 165.529 42.8052 165.529 40.6573V40.2939H163.986V40.6977C163.986 41.7717 163.244 42.3127 161.734 42.3127H159.392C157.777 42.3127 156.703 41.9493 156.703 40.1728V38.4286C156.703 36.4745 157.841 36.313 159.125 36.313H161.677C163.235 36.313 163.849 36.749 163.849 37.8795V38.2025H165.383V37.8472C165.383 35.9173 164.132 34.9321 161.661 34.9321H159.327Z" fill="white"/>
<path fill-rule="evenodd" clip-rule="evenodd" d="M168.412 31.6055V33.3739H170.051V31.6055H168.412Z" fill="white"/>
<path fill-rule="evenodd" clip-rule="evenodd" d="M168.412 35.061V43.5479H170.051V35.061H168.412Z" fill="white"/>
<path fill-rule="evenodd" clip-rule="evenodd" d="M179.813 34.9321H177.827C175.655 34.9321 173.144 35.3278 173.144 38.3963V40.2132C173.144 43.2897 175.655 43.6774 177.827 43.6774H179.813C181.994 43.6774 184.497 43.2897 184.497 40.2132V38.3963C184.497 35.3278 181.994 34.9321 179.813 34.9321ZM182.858 40.1324C182.858 41.9332 181.856 42.2965 180.233 42.2965H177.407C175.792 42.2965 174.783 41.9332 174.783 40.1324V38.4771C174.783 36.6763 175.792 36.313 177.407 36.313H180.233C181.848 36.313 182.858 36.6763 182.858 38.4771V40.1324V40.1324Z" fill="white"/>
<path fill-rule="evenodd" clip-rule="evenodd" d="M136.669 34.9321H134.682C132.502 34.9321 129.999 35.3278 129.999 38.3963V40.2132C129.999 43.2897 132.502 43.6774 134.682 43.6774H136.669C138.849 43.6774 141.352 43.2897 141.352 40.2132V38.3963C141.352 35.3278 138.849 34.9321 136.669 34.9321ZM139.697 40.1324C139.697 41.9332 138.696 42.2965 137.073 42.2965H134.246C132.631 42.2965 131.622 41.9332 131.622 40.1324V38.4771C131.622 36.6763 132.623 36.313 134.246 36.313H137.073C138.688 36.313 139.697 36.6763 139.697 38.4771V40.1324Z" fill="white"/>
<path fill-rule="evenodd" clip-rule="evenodd" d="M95.9304 34.9321H93.944C91.7637 34.9321 89.2605 35.3278 89.2605 38.3963V40.2132C89.2605 43.2897 91.7637 43.6774 93.944 43.6774H95.9304C98.1107 43.6774 100.614 43.2897 100.614 40.2132V38.3963C100.614 35.3278 98.1107 34.9321 95.9304 34.9321ZM98.9747 40.1324C98.9747 41.9332 97.9734 42.2965 96.3503 42.2965H93.5241C91.9091 42.2965 90.8997 41.9332 90.8997 40.1324V38.4771C90.8997 36.6763 91.901 36.313 93.5241 36.313H96.3503C97.9653 36.313 98.9747 36.6763 98.9747 38.4771V40.1324V40.1324Z" fill="white"/>
<path fill-rule="evenodd" clip-rule="evenodd" d="M191.514 34.9321C188.373 34.9321 187.21 35.5297 187.21 37.1366V37.6211C187.21 39.2361 188.018 39.9467 190.012 39.9467H194.292C195.907 39.9467 196.06 40.3666 196.06 41.0449C196.06 42.1996 195.6 42.2965 193.436 42.2965H190.464C188.938 42.2965 188.631 41.7959 188.631 40.9803V40.4554H187.089V41.0772C187.089 43.6773 189.172 43.6774 191.191 43.6774H193.743C195.221 43.6774 197.7 43.6773 197.7 41.166C197.7 38.6547 196.085 38.5659 194.066 38.5659H190.4C188.954 38.5659 188.841 38.1702 188.841 37.6211V37.3143C188.841 36.5068 189.132 36.313 191.143 36.313H193.565C195.116 36.313 195.802 36.3533 195.802 37.4758V37.5969L195.923 37.6776H197.344V37.1447C197.344 35.8285 196.714 34.9564 193.646 34.9564L191.514 34.9321Z" fill="white"/>
<path fill-rule="evenodd" clip-rule="evenodd" d="M73.8534 10.9736C54.8045 -1.01773 16.6259 -1.17115 5.40973 1.2029C0.984631 2.1396 -0.363893 5.37767 0.080232 9.90774C1.40453 23.3284 23.9257 44.2991 46.027 49.6367C48.3849 50.21 53.8355 50.3312 57.0735 48.5547C66.594 43.3382 73.9341 34.0197 77.261 22.7954C79.2798 15.8429 77.9555 13.5496 73.8534 10.9736ZM48.6271 34.8272H45.3971V28.2622H33.9145V34.8433H30.6845V18.1119H33.9145V25.3794H45.3729V18.1119H48.6029L48.6271 34.8272ZM61.9993 35.0452H51.954V32.2028H61.5148C64.8982 32.2028 65.3262 32.0009 65.3262 30.3375C65.3262 29.4089 65.3262 28.7225 62.8472 28.7225H56.1772C52.9472 28.7225 51.526 27.4628 51.526 24.5316V23.7241C51.526 20.8494 53.4883 19.7269 58.519 19.7269H68.1444V22.6097H57.9376C54.6268 22.6097 54.6268 23.0296 54.6268 24.0551V24.58C54.6268 25.3229 54.6268 25.9205 56.7828 25.9205H62.4999C65.7299 25.9205 68.427 26.2677 68.427 30.5717C68.427 35.0452 64.2441 35.0452 61.9993 35.0452V35.0452Z" fill="white"/>
</svg>
