<svg width="36" height="39" viewBox="0 0 36 39" fill="none" xmlns="http://www.w3.org/2000/svg">
<path d="M2 23.4783L2.92323 15.1693C2.97281 14.723 2.86345 14.2735 2.61437 13.8998L2.48463 13.7052C2.18495 13.2557 2.14912 12.68 2.39074 12.1968L2.40032 12.1777C2.46634 12.0456 2.55322 11.9251 2.65761 11.8207C3.14097 11.3373 3.19535 10.5721 2.78521 10.0253L2.56491 9.73152C2.21111 9.25979 2.11392 8.63656 2.30038 8.07716C2.42862 7.69245 2.68319 7.35618 3.0206 7.13125L3.72641 6.6607C3.9048 6.54177 4.11441 6.47831 4.32882 6.47831C4.74016 6.47831 5.10691 6.2371 5.36361 5.91568C6.01122 5.10476 7.05494 4.49619 7.99412 4.08996C9.2481 3.54757 10.5664 2.98755 11.7752 2.35074C14.1361 1.10695 16.4196 0.869691 18.2495 1.05667C20.4453 1.28104 22.7996 1.54788 24.8289 2.4162C25.1211 2.54124 25.3902 2.68222 25.6343 2.83025C26.6392 3.43977 27.5736 4.20774 28.6648 4.64423C29.2192 4.86598 29.742 5.15977 30.2196 5.51802L31.5 6.47831L32.6155 7.222C32.8693 7.3912 33.0871 7.60897 33.2563 7.86277C33.7162 8.55259 33.7712 9.43594 33.4004 10.1775L33.2236 10.5311C33.0766 10.8252 33 11.1495 33 11.4783C33 11.8071 33.0766 12.1314 33.2236 12.4255L33.6218 13.2219C33.8477 13.6736 33.7591 14.2192 33.402 14.5763C33.1481 14.8302 33.0245 15.1864 33.0664 15.543L34 23.4783V32.5769C34 33.1647 34.174 33.7393 34.5 34.2283L34.8711 34.7849C34.9551 34.911 35 35.0592 35 35.2107C35 35.6346 34.6563 35.9783 34.2324 35.9783H33.1327C33.0443 35.9783 32.9561 35.9846 32.8686 35.9971L29.5 36.4783C25.8408 37.1436 22.1291 37.4783 18.4098 37.4783H17.5L10 36.9783L2.5 35.9783H1.76759C1.34366 35.9783 1 35.6346 1 35.2107C1 35.0592 1.04486 34.911 1.12892 34.7849L1.5 34.2283C1.82603 33.7393 2 33.1647 2 32.5769V23.4783Z" stroke="black" stroke-width="1.7"/>
<path d="M3 14.4785C9.33333 15.8118 25.1 17.1785 33.5 13.9785" stroke="black" stroke-width="1.7"/>
<path d="M5 6.47852C9 9.47852 24 10.1785 32 6.97852" stroke="black" stroke-width="1.7"/>
<path d="M2.5 9.47852C4.33333 10.1452 8.5 11.3785 10.5 10.9785" stroke="black" stroke-width="1.7"/>
<path d="M33 10.9785C32.5 11.4785 30 12.4785 24 12.4785" stroke="black" stroke-width="1.7"/>
<path d="M25.65 26.4785C25.65 30.3795 22.2743 33.6285 18 33.6285C13.7257 33.6285 10.35 30.3795 10.35 26.4785C10.35 22.5775 13.7257 19.3285 18 19.3285C22.2743 19.3285 25.65 22.5775 25.65 26.4785Z" stroke="black" stroke-width="1.7"/>
<path d="M15.1767 29.095C16.9331 30.3697 20.6837 31.1567 21.6355 24.107C18.7744 23.7191 13.477 24.1735 15.1767 29.095Z" stroke="black" stroke-width="1.7"/>
<path d="M18.2424 26.5454C17.1394 27.1848 14.7467 29.8195 14 31" stroke="black" stroke-width="1.7"/>
</svg>
