<svg width="45" height="44" viewBox="0 0 45 44" fill="none" xmlns="http://www.w3.org/2000/svg">
<path d="M19.1494 17.5375L1 26.4625V32.7625L21.6623 43L44 32.7625V25.9375L24.7338 17.5375" stroke="black" stroke-width="1.7"/>
<path d="M1.27924 26.4625L21.6624 36.175L44 25.9375" stroke="black" stroke-width="1.7"/>
<path d="M21.6623 36.175V42.7375" stroke="black" stroke-width="1.7"/>
<path d="M7.14258 29.3502L28.6426 19.1127" stroke="black" stroke-width="1.7"/>
<path d="M13.8438 32.4998L35.9022 22.5248" stroke="black" stroke-width="1.7"/>
<path d="M8.25977 22.7875L28.6429 33.025" stroke="black" stroke-width="1.7"/>
<path d="M15.2402 19.375L35.9025 29.6125" stroke="black" stroke-width="1.7"/>
<path d="M30.0386 8.61249C30.0386 14.5333 21.9412 19.6083 21.9412 19.6083C21.9412 19.6083 13.8438 14.5333 13.8438 8.61249C13.8438 6.59353 14.6969 4.65727 16.2154 3.22965C17.734 1.80203 19.7936 1 21.9412 1C24.0887 1 26.1483 1.80203 27.6669 3.22965C29.1854 4.65727 30.0386 6.59353 30.0386 8.61249Z" stroke="black" stroke-width="1.7" stroke-linecap="round" stroke-linejoin="round"/>
<path d="M21.9411 11.15C23.4318 11.15 24.6403 10.0139 24.6403 8.61251C24.6403 7.21109 23.4318 6.07501 21.9411 6.07501C20.4504 6.07501 19.242 7.21109 19.242 8.61251C19.242 10.0139 20.4504 11.15 21.9411 11.15Z" stroke="black" stroke-width="1.7" stroke-linecap="round" stroke-linejoin="round"/>
</svg>
