<svg width="41" height="34" viewBox="0 0 41 34" fill="none" xmlns="http://www.w3.org/2000/svg">
<path d="M20.8789 4.87891V27.99" stroke="black" stroke-width="1.7" stroke-linecap="round" stroke-linejoin="round"/>
<path d="M26.1317 9.08092H18.2529C17.2778 9.08092 16.3426 9.46829 15.6531 10.1578C14.9635 10.8473 14.5762 11.7825 14.5762 12.7577C14.5762 13.7328 14.9635 14.668 15.6531 15.3576C16.3426 16.0471 17.2778 16.4345 18.2529 16.4345H23.5055C24.4806 16.4345 25.4158 16.8218 26.1053 17.5114C26.7949 18.2009 27.1822 19.1361 27.1822 20.1112C27.1822 21.0864 26.7949 22.0216 26.1053 22.7111C25.4158 23.4006 24.4806 23.788 23.5055 23.788H14.5762" stroke="black" stroke-width="1.7" stroke-linecap="round" stroke-linejoin="round"/>
<path d="M1 2.93941V13.6061H11.6667" stroke="black" stroke-width="1.7" stroke-linecap="round" stroke-linejoin="round"/>
<path d="M39.7888 31.0607V20.394H30.0918" stroke="black" stroke-width="1.7" stroke-linecap="round" stroke-linejoin="round"/>
<path d="M35.3625 11.6653C34.4684 9.11666 32.9486 6.83805 30.9452 5.04204C28.9417 3.24604 26.5198 1.99119 23.9055 1.39458C21.2912 0.797965 18.5696 0.879035 15.9947 1.63022C13.4198 2.38141 11.0756 3.77824 9.18072 5.69036L1 13.4435M39.7879 20.5565L31.6072 28.3096C29.7123 30.2218 27.368 31.6186 24.7932 32.3698C22.2183 33.121 19.4967 33.202 16.8824 32.6054C14.268 32.0088 11.8461 30.754 9.8427 28.958C7.83924 27.162 6.31952 24.8833 5.42534 22.3347" stroke="black" stroke-width="1.7" stroke-linecap="round" stroke-linejoin="round"/>
</svg>
