<svg width="100" height="65" viewBox="0 0 213 84" fill="none" xmlns="http://www.w3.org/2000/svg">
<g clip-path="url(#clip0_128_3)">
<path d="M109.58 10.82C110.569 10.82 111.536 10.5268 112.358 9.97735C113.18 9.42794 113.821 8.64705 114.199 7.73342C114.578 6.81979 114.677 5.81445 114.484 4.84455C114.291 3.87464 113.815 2.98373 113.115 2.28447C112.416 1.5852 111.525 1.109 110.555 0.916074C109.585 0.723148 108.58 0.822164 107.667 1.2006C106.753 1.57904 105.972 2.2199 105.423 3.04215C104.873 3.86439 104.58 4.83109 104.58 5.82C104.598 7.14045 105.131 8.40172 106.064 9.33551C106.998 10.2693 108.26 10.8019 109.58 10.82V10.82ZM129.9 55.19C131.624 55.1245 133.32 54.7343 134.9 54.04C135.966 53.6539 136.893 52.9573 137.56 52.04C137.943 51.6289 138.164 51.092 138.18 50.53C138.115 50.0455 137.997 49.5694 137.83 49.11C137.582 48.6637 137.222 48.2898 136.785 48.0251C136.348 47.7603 135.85 47.6138 135.34 47.6H134.72C134.1 47.78 133.92 47.95 133.57 47.95C133.116 48.1158 132.631 48.1773 132.15 48.13C131.777 48.1709 131.399 48.1194 131.05 47.9798C130.701 47.8403 130.392 47.6172 130.15 47.33C129.695 46.7838 129.354 46.1511 129.15 45.47C128.859 43.5612 128.742 41.63 128.8 39.7V4.08C128.836 3.51328 128.713 2.94779 128.447 2.44642C128.18 1.94504 127.78 1.52743 127.29 1.24C126.314 0.592824 125.171 0.245213 124 0.24C122.821 0.158112 121.653 0.514185 120.72 1.24C120.234 1.53163 119.837 1.95007 119.571 2.45042C119.305 2.95077 119.18 3.51412 119.21 4.08V44.54C119.184 47.0648 119.996 49.5269 121.52 51.54C123.21 53.67 125.87 55.18 129.95 55.18L129.9 55.19ZM149.29 22.08C151.6 18.62 154.29 18.18 155.42 18.18C156.524 18.2357 157.571 18.6882 158.369 19.4544C159.166 20.2205 159.66 21.2487 159.76 22.35C159.76 22.97 159.94 23.35 159.94 23.86C159.914 25.7475 159.228 27.5663 158 29C155.16 32.29 151.08 33.09 146.91 33.53V32.39C146.91 29.01 147.44 24.76 149.21 22.09L149.29 22.08ZM143.09 50.49C146.2 53.59 150.54 55.28 155.87 55.28C158.478 55.2708 161.063 54.7897 163.5 53.86C164.413 53.5025 165.259 52.9919 166 52.35C166.567 51.8286 166.923 51.1168 167 50.35V50C166.912 49.3586 166.594 48.7712 166.104 48.3478C165.615 47.9244 164.987 47.694 164.34 47.7C163.996 47.6681 163.651 47.7303 163.34 47.88C161.743 48.4754 160.043 48.744 158.34 48.67H156.7C155.086 48.5694 153.528 48.0401 152.187 47.1365C150.845 46.233 149.77 44.988 149.07 43.53C148.394 42.4454 147.913 41.2506 147.65 40C147.515 39.6847 147.453 39.3427 147.47 39C152.79 38.82 157.58 38 162.02 35.72C164.692 34.2677 166.952 32.1622 168.59 29.6C169.506 27.7637 169.988 25.7419 170 23.69C170.034 23.1206 169.973 22.5495 169.82 22C168.82 16.86 164.05 12.78 156.6 12.78C153.453 12.7173 150.342 13.4586 147.561 14.9338C144.781 16.4089 142.423 18.5691 140.71 21.21C138.313 25.2013 137.057 29.7741 137.08 34.43C137.11 35.8823 137.227 37.3316 137.43 38.77C137.778 43.2531 139.807 47.4393 143.11 50.49H143.09ZM50.58 54C51.551 54.6491 52.692 54.997 53.86 55C55.0378 55.0708 56.2019 54.7159 57.14 54C57.6274 53.71 58.0259 53.2919 58.2921 52.7912C58.5584 52.2904 58.6821 51.7262 58.65 51.16V28.93C58.7292 26.92 59.2445 24.9512 60.16 23.16C60.5973 22.2425 61.282 21.4653 62.1371 20.9158C62.9922 20.3664 63.9837 20.0665 65 20.05C65.436 20.0272 65.8715 20.1055 66.2723 20.279C66.673 20.4525 67.0282 20.7164 67.31 21.05C68.2623 21.9678 68.8577 23.194 68.99 24.51C69.1524 25.6673 69.2558 26.8322 69.3 28V51.11C69.2894 51.7016 69.4426 52.2846 69.7426 52.7946C70.0426 53.3046 70.4778 53.7218 71 54C71.9756 54.6472 73.1192 54.9948 74.29 55C75.5248 55.0825 76.7495 54.7285 77.75 54C78.2573 53.7189 78.6805 53.3075 78.9758 52.8083C79.2711 52.309 79.4279 51.74 79.43 51.16V28.93C79.5092 26.92 80.0245 24.9512 80.94 23.16C81.3762 22.2521 82.0539 21.4817 82.8987 20.9331C83.7436 20.3846 84.7231 20.0791 85.73 20.05C86.1555 20.0265 86.5809 20.0998 86.974 20.2643C87.3672 20.4289 87.718 20.6804 88 21C88.9553 21.9168 89.5542 23.1429 89.69 24.46C89.86 25.88 90.04 27.12 90.04 27.92V51.11C90.0292 51.7028 90.1835 52.287 90.4854 52.7973C90.7874 53.3076 91.2252 53.724 91.75 54C92.721 54.6491 93.862 54.997 95.03 55C96.2635 55.07 97.484 54.7173 98.49 54C99.0006 53.7218 99.4269 53.3114 99.7243 52.8117C100.022 52.312 100.179 51.7415 100.18 51.16V29.37C100.18 23.78 99.02 19.79 97.07 16.86C96.0976 15.5008 94.8 14.4071 93.296 13.6786C91.7919 12.9502 90.1292 12.6103 88.46 12.69C86.9941 12.7218 85.549 13.044 84.2085 13.6379C82.8679 14.2318 81.6584 15.0856 80.65 16.15C79.544 17.2839 78.6469 18.6042 78 20.05C77.3798 17.9881 76.1057 16.184 74.37 14.91C72.4286 13.4634 70.036 12.7545 67.62 12.91C63.27 12.91 60.35 15.57 58.39 18.05V17.87C58.4313 17.2984 58.3117 16.7266 58.0448 16.2193C57.778 15.7121 57.3745 15.2897 56.88 15C55.9064 14.3485 54.7614 14.0005 53.59 14C52.4123 13.931 51.2488 14.2857 50.31 15C49.7939 15.2396 49.3638 15.6317 49.0777 16.1235C48.7915 16.6153 48.6632 17.183 48.71 17.75V51C48.9318 52.2004 49.5999 53.2722 50.58 54V54ZM112.86 14.69C111.889 14.0415 110.748 13.6936 109.58 13.69C108.402 13.6201 107.238 13.9749 106.3 14.69C105.813 14.98 105.414 15.3981 105.148 15.8988C104.882 16.3996 104.758 16.9638 104.79 17.53V50.75C104.754 51.3167 104.877 51.8822 105.143 52.3836C105.41 52.885 105.81 53.3026 106.3 53.59C107.271 54.2385 108.412 54.5864 109.58 54.59C110.758 54.6599 111.922 54.3051 112.86 53.59C113.347 53.3 113.746 52.8819 114.012 52.3812C114.278 51.8804 114.402 51.3162 114.37 50.75V17.48C114.322 16.9295 114.163 16.3945 113.904 15.9066C113.644 15.4187 113.289 14.9879 112.86 14.64V14.69ZM211.62 31.94C211.62 31.77 211.44 31.59 211.26 31.32C211.039 31.3098 210.821 31.3731 210.64 31.5L210.29 31.85L208.87 33.27C207.29 34.8168 205.62 36.2693 203.87 37.62C202.115 39.2003 200.257 40.6635 198.31 42C198.31 41.38 198.13 40.85 198.13 40.31C197.535 38.1101 196.261 36.1539 194.49 34.72C192.01 32.72 188.73 31.26 186.24 29.72C185.012 29.1073 183.912 28.2656 183 27.24C182.17 26.3964 181.64 25.3039 181.49 24.13V23.34C181.469 22.6874 181.594 22.0383 181.855 21.4398C182.116 20.8414 182.507 20.3085 183 19.88C184.195 18.8249 185.758 18.2825 187.35 18.37C190.19 18.37 192.49 19.52 193.91 19.52C194.637 19.5563 195.356 19.3487 195.952 18.9303C196.548 18.5118 196.987 17.9064 197.2 17.21C197.2 17.04 197.37 16.59 197.37 16.21C197.314 15.3221 196.96 14.479 196.365 13.8181C195.769 13.1572 194.967 12.7173 194.09 12.57C192.402 12.1039 190.649 11.9115 188.9 12C183.9 12 179.85 13.15 177.01 15.46C175.626 16.4588 174.506 17.7809 173.75 19.3112C172.994 20.8415 172.623 22.5336 172.67 24.24C172.712 25.2837 172.829 26.3231 173.02 27.35C174.18 31.7 178.35 34.09 182.43 36.13C184.298 36.9951 186.08 38.0365 187.75 39.24C189.26 40.39 190.24 41.55 190.41 42.7V43.32C190.325 44.5614 189.788 45.7285 188.9 46.6C187.456 47.6615 185.69 48.1946 183.9 48.11H183.72C181.607 48.0375 179.529 47.5552 177.6 46.69C177.015 46.4204 176.373 46.3001 175.73 46.34C175.028 46.3088 174.342 46.5491 173.813 47.011C173.284 47.4728 172.954 48.1207 172.89 48.82V49.18C172.923 49.6991 173.067 50.2051 173.312 50.664C173.557 51.1228 173.897 51.5238 174.31 51.84C175.597 52.8149 177.082 53.4974 178.66 53.84C161.18 62.62 136.96 70.52 106.26 70.52C80.9757 70.7006 56.0033 64.932 33.36 53.68C37 52.88 39.93 51.68 41.97 49.6C43.4219 48.2745 44.5757 46.6556 45.3549 44.8506C46.1341 43.0457 46.521 41.0958 46.49 39.13C46.5184 38.2399 46.4615 37.3492 46.32 36.47C45.7888 33.6432 44.3196 31.0783 42.15 29.19C38.86 26.35 34.69 24.19 31.23 22.19C29.561 21.3397 28.0358 20.233 26.71 18.91C25.6968 17.922 25.0006 16.6549 24.71 15.27V14.11C24.697 13.2171 24.8678 12.3311 25.2119 11.507C25.556 10.683 26.0659 9.93855 26.71 9.32C28.13 7.9 30.35 7 33.63 7C35.7048 7.06523 37.7622 7.40142 39.75 8C40.3594 8.16705 40.9815 8.2841 41.61 8.35C42.3114 8.34928 43.0003 8.16411 43.6076 7.81308C44.2149 7.46204 44.7192 6.95747 45.07 6.35C45.2231 5.89319 45.2843 5.41057 45.25 4.93C45.2376 4.40649 45.1028 3.89316 44.8562 3.4312C44.6095 2.96925 44.2581 2.57154 43.83 2.27C42.9211 1.55191 41.8611 1.04931 40.73 0.8C38.3297 0.331715 35.8946 0.0641239 33.45 0V0C26.71 0 21.74 1.86 18.45 4.79C16.9796 6.08689 15.8059 7.6853 15.0087 9.47647C14.2114 11.2676 13.8094 13.2095 13.83 15.17C13.797 15.944 13.854 16.7192 14 17.48C15 22.63 19.32 26.09 23.85 28.75C28.2 31.41 32.9 33.75 34.58 36.02C35.4985 37.2848 35.9954 38.8068 36 40.37C35.9805 41.8478 35.4823 43.2795 34.58 44.45C33.531 45.5816 32.2522 46.4758 30.8293 47.0726C29.4064 47.6693 27.8723 47.9549 26.33 47.91C24.1255 47.8644 21.9645 47.2881 20.03 46.23C19.8971 46.2089 19.7744 46.1458 19.68 46.05C15.609 43.4291 11.7078 40.5534 7.99996 37.44C5.67996 35.58 3.89996 34 2.99996 33.1L1.59996 31.68L1.23996 31.32C1.15693 31.2451 1.05801 31.19 0.950622 31.1588C0.843238 31.1276 0.730185 31.1212 0.619957 31.14C0.439957 31.14 0.269957 31.32 0.269957 31.77C0.0198484 32.7218 -0.0713786 33.7084 -4.2893e-05 34.69V34.87C-4.2893e-05 38.15 1.14996 40.64 4.07996 43.3C4.87996 44.1 43.92 83.76 106.48 83.76C169.12 83.76 208.16 44.1 208.87 43.3C211.71 40.64 212.95 38.15 212.95 34.87V34.78C212.548 34.4206 212.224 33.9838 211.995 33.4958C211.766 33.0077 211.639 32.4786 211.62 31.94" fill="#FF5A00"/>
</g>
<defs>
<clipPath id="clip0_128_3">
<rect width="212.95" height="83.76" fill="white"/>
</clipPath>
</defs>
</svg>
