<svg width="55" height="32" viewBox="0 0 55 32" fill="none" xmlns="http://www.w3.org/2000/svg">
<circle cx="12.9231" cy="23.0577" r="3.32308" stroke="black" stroke-width="1.7"/>
<circle cx="46.9045" cy="24.8459" r="2.01154" stroke="black" stroke-width="1.7"/>
<circle cx="12.9228" cy="23.0575" r="8.09231" stroke="black" stroke-width="1.7"/>
<circle cx="46.9038" cy="24.8462" r="6.30385" stroke="black" stroke-width="1.7"/>
<path d="M1 17.6924C3.1859 14.1154 9.70385 8.03467 18.2885 12.327C26.8731 16.6193 25.4423 26.0385 23.6538 30.2115" stroke="black" stroke-width="1.7"/>
<path d="M11.7305 9.94235V1.59619L15.3074 3.38465L17.0959 11.1347L17.692 12.327" stroke="black" stroke-width="1.7"/>
<path d="M23.0586 16.5001C25.4432 15.5065 29.974 12.8039 29.0201 9.94238" stroke="black" stroke-width="1.7"/>
<path d="M28.4238 9.9425L29.6161 3.98096H48.0969L51.0777 6.36557V9.9425H28.4238Z" stroke="black" stroke-width="1.7"/>
<path d="M44.5195 9.94238V18.2885V18.8847" stroke="black" stroke-width="1.7"/>
<path d="M50.4805 9.94238V18.8847V20.077" stroke="black" stroke-width="1.7"/>
<path d="M24.8457 19.481H43.6058" stroke="black" stroke-width="1.7"/>
<path d="M24.8457 23.6538H41.538" stroke="black" stroke-width="1.7"/>
<path d="M29.0188 7.55788L24.8457 3.98096" stroke="black" stroke-width="1.7"/>
<path d="M26.0379 1L22.4609 6.96154" stroke="black" stroke-width="1.7"/>
</svg>
