<svg viewBox="0 0 179 74" fill="none" xmlns="http://www.w3.org/2000/svg">
<path d="M22.1671 6.56836C18.3469 14.0111 16.7661 20.927 16.832 28.3038C16.8979 35.2197 18.8738 37.7884 25.8555 39.2375C18.6104 42.399 11.7604 41.6745 5.04216 38.5788C4.44937 38.3153 3.92245 36.998 3.92245 36.2077C3.92245 31.0702 3.79072 25.8668 4.25177 20.7294C4.44937 18.7534 5.70081 16.3164 7.28157 15.2626C11.7604 12.1669 16.6344 9.72988 22.1671 6.56836Z" fill="white"/>
<path d="M28.6218 20.1371C35.4059 18.4905 41.9924 19.2809 48.2496 22.3107C49.04 22.7059 49.8304 24.089 49.8304 25.077C49.9621 29.5559 50.0939 34.1005 49.5669 38.5794C49.3035 40.7529 47.9203 43.3875 46.2078 44.5731C41.6631 47.7346 36.6574 50.2375 31.6516 52.8062C35.2742 46.4832 36.6574 39.6991 36.855 32.6515C37.0526 25.077 35.6035 22.9693 28.6218 20.1371Z" fill="white"/>
<path d="M174.381 35.747C173.064 41.3456 167.531 44.5071 160.615 43.7826C153.37 43.0581 148.101 37.9206 148.035 31.3999C147.969 24.6158 152.777 19.6101 160.418 18.4904C166.346 17.6341 173.722 20.9933 174.249 26.2625C171.944 26.7894 170.034 26.5259 168.058 24.7476C164.831 21.7836 159.891 21.7836 156.532 24.2207C153.436 26.4601 152.185 30.2802 153.37 33.837C155.28 39.5672 163.513 41.7408 168.058 37.4595C170.034 35.6812 171.812 35.1543 174.381 35.747Z" fill="white"/>
<path d="M74.7272 25.7379C73.1465 28.8336 71.7633 31.4023 70.3143 34.2345C73.4099 34.6297 77.0325 33.8393 76.9666 38.7792C75.5176 38.7792 74.0027 38.911 72.4878 38.7792C69.458 38.4499 67.2186 38.9768 65.6378 42.2042C65.0451 43.4556 62.3446 43.6532 60.6321 44.3778C60.4345 44.0484 60.2369 43.7191 60.0393 43.3898C64.3205 35.5518 68.5359 27.7139 72.8171 19.8759C73.7392 18.2293 75.32 17.6365 76.3739 19.5466C80.7868 27.3846 85.068 35.3542 89.481 43.3898C86.056 44.4436 84.0801 43.5215 82.5652 40.4917C80.2599 35.6836 77.4936 31.0071 74.7272 25.7379Z" fill="white"/>
<path d="M119.186 43.3881C122.348 37.5262 125.443 31.73 128.605 25.868C129.725 23.8262 130.713 21.7844 131.898 19.8084C132.754 18.3594 134.269 17.6349 135.257 19.4132C139.802 27.3829 144.149 35.4185 148.562 43.5199C144.808 44.7054 142.898 43.2564 141.449 40.2266C139.209 35.4843 136.509 30.9396 133.742 25.8022C132.162 28.7661 130.844 31.3348 129.33 34.2329C132.359 34.694 135.916 33.9694 135.916 38.8435C134.73 38.8435 133.479 38.9093 132.228 38.8435C129 38.6459 126.102 38.58 124.521 42.5319C124.06 43.6516 121.294 43.7833 119.581 44.3761C119.516 43.9809 119.318 43.6516 119.186 43.3881Z" fill="white"/>
<path d="M20.9155 20.599C22.0352 14.4736 24.4722 9.79713 28.8193 6.10869C29.3463 5.64763 30.5318 5.38417 31.0588 5.64763C36.3938 8.67743 41.663 11.839 46.8664 15.0663C47.6568 15.5274 48.1178 16.5154 49.2375 17.8327C39.2919 16.1202 29.8732 13.9466 20.9155 20.599Z" fill="white"/>
<path d="M5.50293 43.2583C15.3168 44.9708 24.5379 45.8271 32.4418 39.043C32.9028 43.6535 28.9509 51.7549 25.1307 53.9943C24.6038 54.3237 23.6817 54.3237 23.1548 54.0602C17.7538 51.1621 12.4188 48.1324 7.14956 45.1026C6.62264 44.7732 6.29331 44.1804 5.50293 43.2583Z" fill="white"/>
<path d="M114.576 30.6093C118.067 23.43 115.103 18.6218 107.067 18.4242C103.445 18.3584 99.8222 18.4901 96.1996 18.3584C93.7626 18.2925 92.9064 19.3463 92.9722 21.7175C93.0381 28.0405 93.0381 34.4295 92.9722 40.7525C92.9722 42.9919 93.7626 43.914 96.0679 43.8482C100.152 43.7164 104.169 43.7823 108.253 43.8482C111.678 43.914 114.971 43.3871 116.552 39.8304C118.133 36.3395 117.211 33.2439 114.576 30.6093ZM98.1756 22.5737C101.798 22.5737 105.355 22.3103 108.846 22.7055C109.768 22.8372 111.349 24.879 111.217 25.8011C111.085 26.855 109.373 28.3699 108.253 28.5675C105.026 28.9627 101.798 28.6992 98.1756 28.6992C98.1756 26.4598 98.1756 24.7473 98.1756 22.5737ZM109.175 39.3693C105.618 39.7645 101.996 39.5011 98.2415 39.5011C98.2415 37.0641 98.2415 35.0881 98.2415 32.8487C102.062 32.8487 105.816 32.5852 109.439 33.0463C110.624 33.178 112.205 35.2198 112.402 36.5371C112.468 37.3275 110.361 39.2376 109.175 39.3693Z" fill="white"/>
<path d="M61.2251 55.4426L60.6982 57.0233H60.0396L61.752 52.0176H62.5424L64.2549 57.0233H63.5963L63.0693 55.4426H61.2251ZM62.8718 54.9815L62.4107 53.5325C62.279 53.2032 62.2131 52.9397 62.1472 52.6104C62.0814 52.9397 62.0155 53.2032 61.8838 53.5325L61.4227 54.9815H62.8718Z" fill="white"/>
<path d="M64.8476 56.2324C65.1111 56.43 65.5721 56.5617 66.0332 56.5617C66.6918 56.5617 67.087 56.2324 67.087 55.7055C67.087 55.2444 66.8236 54.981 66.1649 54.7175C65.3745 54.454 64.8476 53.993 64.8476 53.3343C64.8476 52.544 65.5063 51.9512 66.4942 51.9512C67.0212 51.9512 67.3505 52.0829 67.6139 52.2146L67.4163 52.7416C67.2846 52.6757 66.8894 52.4781 66.4942 52.4781C65.8356 52.4781 65.5721 52.8733 65.5721 53.2026C65.5721 53.6637 65.9014 53.9271 66.5601 54.1906C67.4163 54.5199 67.8115 54.9151 67.8115 55.6396C67.8115 56.43 67.2187 57.0887 66.0332 57.0887C65.5721 57.0887 65.0452 56.9569 64.7817 56.7593L64.8476 56.2324Z" fill="white"/>
<path d="M68.4702 56.2324C68.7336 56.43 69.1947 56.5617 69.6557 56.5617C70.3144 56.5617 70.7096 56.2324 70.7096 55.7055C70.7096 55.2444 70.4461 54.981 69.7875 54.7175C68.9971 54.454 68.4702 53.993 68.4702 53.3343C68.4702 52.544 69.1288 51.9512 70.1168 51.9512C70.6437 51.9512 70.973 52.0829 71.2365 52.2146L71.0389 52.7416C70.9072 52.6757 70.512 52.4781 70.1168 52.4781C69.4581 52.4781 69.1947 52.8733 69.1947 53.2026C69.1947 53.6637 69.524 53.9271 70.1827 54.1906C71.0389 54.5199 71.4341 54.9151 71.4341 55.6396C71.4341 56.43 70.8413 57.0887 69.6557 57.0887C69.1947 57.0887 68.6678 56.9569 68.4043 56.7593L68.4702 56.2324Z" fill="white"/>
<path d="M76.5059 54.454C76.5059 56.1665 75.452 57.0887 74.2006 57.0887C72.8833 57.0887 71.9612 56.0348 71.9612 54.5858C71.9612 53.005 72.9492 51.9512 74.2665 51.9512C75.6496 51.9512 76.5059 53.005 76.5059 54.454ZM72.6198 54.5858C72.6198 55.6396 73.2126 56.6276 74.2006 56.6276C75.2544 56.6276 75.7814 55.7055 75.7814 54.5858C75.7814 53.5978 75.2544 52.544 74.2006 52.544C73.1468 52.4781 72.6198 53.4661 72.6198 54.5858Z" fill="white"/>
<path d="M80.8529 56.8916C80.5895 57.0233 80.1284 57.1551 79.5356 57.1551C78.1525 57.1551 77.0986 56.2988 77.0986 54.6522C77.0986 53.0714 78.1525 52.0176 79.7332 52.0176C80.326 52.0176 80.7212 52.1493 80.9188 52.2152L80.7871 52.7421C80.5236 52.6104 80.1943 52.5445 79.7991 52.5445C78.6135 52.5445 77.8232 53.269 77.8232 54.5863C77.8232 55.8378 78.5477 56.5623 79.7332 56.5623C80.1284 56.5623 80.5236 56.4964 80.7871 56.3647L80.8529 56.8916Z" fill="white"/>
<path d="M82.302 52.0176V57.0233H81.6433V52.0176H82.302Z" fill="white"/>
<path d="M84.2119 55.4426L83.685 57.0233H83.0264L84.7389 52.0176H85.5292L87.2417 57.0233H86.5831L86.0562 55.4426H84.2119ZM85.8586 54.9815L85.3975 53.5325C85.2658 53.2032 85.1999 52.9397 85.134 52.6104C85.0682 52.9397 85.0023 53.2032 84.8706 53.5325L84.4095 54.9815H85.8586Z" fill="white"/>
<path d="M91.3255 56.8911C91.0621 57.0228 90.601 57.1545 90.0082 57.1545L89.8106 57.4838C90.0741 57.5497 90.3376 57.7473 90.3376 58.0108C90.3376 58.4718 89.9424 58.6035 89.5472 58.6035C89.3496 58.6035 89.152 58.5377 89.0203 58.4718L89.152 58.1425C89.2837 58.2084 89.4155 58.2084 89.5472 58.2084C89.7448 58.2084 89.8765 58.1425 89.8765 58.0108C89.8765 57.8132 89.6789 57.7473 89.2837 57.6814L89.6131 57.0887C88.3616 56.9569 87.5054 56.1007 87.5054 54.5858C87.5054 53.005 88.5592 51.9512 90.14 51.9512C90.7328 51.9512 91.128 52.0829 91.3255 52.1488L91.1938 52.6757C90.9304 52.544 90.601 52.4781 90.2058 52.4781C89.0203 52.4781 88.2299 53.2026 88.2299 54.5199C88.2299 55.7713 88.9544 56.4959 90.14 56.4959C90.5352 56.4959 90.9304 56.43 91.1938 56.2983L91.3255 56.8911Z" fill="white"/>
<path d="M92.9722 55.4423L92.4453 57.023H91.7866L93.4991 52.0173H94.2895L96.002 57.023H95.3433L94.8164 55.4423H92.9722ZM92.9722 51.7538C92.9722 51.2928 93.1698 51.0293 93.4991 51.0293C93.6308 51.0293 93.7626 51.0952 93.9602 51.161C94.0919 51.2269 94.2236 51.2928 94.2895 51.2928C94.4212 51.2928 94.4871 51.2269 94.4871 51.0293H94.8164C94.8164 51.4904 94.6847 51.7538 94.2895 51.7538C94.1578 51.7538 94.026 51.6879 93.8284 51.6221C93.6967 51.5562 93.565 51.4904 93.4991 51.4904C93.3674 51.4904 93.3015 51.6221 93.3015 51.8197H92.9722V51.7538ZM94.6188 54.9812L94.1578 53.5322C94.026 53.2028 93.9602 52.9394 93.8943 52.6101C93.8284 52.9394 93.7626 53.2028 93.6308 53.5322L93.1698 54.9812H94.6188Z" fill="white"/>
<path d="M100.81 54.454C100.81 56.1665 99.7562 57.0887 98.5048 57.0887C97.1875 57.0887 96.2654 56.0348 96.2654 54.5858C96.2654 53.005 97.2534 51.9512 98.5707 51.9512C99.9538 51.9512 100.81 53.005 100.81 54.454ZM96.9899 54.5858C96.9899 55.6396 97.5827 56.6276 98.5707 56.6276C99.6245 56.6276 100.151 55.7055 100.151 54.5858C100.151 53.5978 99.6245 52.544 98.5707 52.544C97.5168 52.4781 96.9899 53.4661 96.9899 54.5858Z" fill="white"/>
<path d="M103.247 52.0829C103.511 52.017 103.972 51.9512 104.433 51.9512C105.091 51.9512 105.486 52.0829 105.816 52.3464C106.079 52.544 106.211 52.8074 106.211 53.2026C106.211 53.6637 105.882 54.1247 105.355 54.3223C105.816 54.454 106.409 54.8492 106.409 55.5738C106.409 56.0348 106.211 56.2983 106.013 56.5617C105.684 56.8911 105.091 57.0228 104.301 57.0228C103.84 57.0228 103.511 57.0228 103.313 56.9569V52.0829H103.247ZM103.906 54.1247H104.499C105.157 54.1247 105.552 53.7954 105.552 53.2685C105.552 52.6757 105.091 52.4781 104.433 52.4781C104.103 52.4781 103.972 52.4781 103.84 52.544V54.1247H103.906ZM103.906 56.5617C104.037 56.5617 104.235 56.5617 104.433 56.5617C105.091 56.5617 105.684 56.2983 105.684 55.5738C105.684 54.9151 105.091 54.5858 104.367 54.5858H103.84V56.5617H103.906Z" fill="white"/>
<path d="M107.265 52.0829C107.594 52.017 108.055 51.9512 108.516 51.9512C109.175 51.9512 109.636 52.0829 109.965 52.3464C110.229 52.544 110.361 52.9391 110.361 53.2685C110.361 53.9271 109.965 54.3882 109.438 54.5199C109.834 54.6516 110.031 54.981 110.163 55.5079C110.295 56.2324 110.426 56.6935 110.558 56.8911H109.899C109.834 56.7593 109.702 56.2983 109.57 55.7055C109.438 55.0468 109.175 54.7834 108.582 54.7175H107.924V56.8911H107.265V52.0829ZM107.924 54.3882H108.582C109.241 54.3882 109.702 53.993 109.702 53.4661C109.702 52.8074 109.241 52.544 108.582 52.544C108.253 52.544 108.055 52.544 107.924 52.6098V54.3882Z" fill="white"/>
<path d="M112.073 55.4426L111.546 57.0233H110.887L112.6 52.0176H113.39L115.103 57.0233H114.444L113.917 55.4426H112.073ZM113.72 54.9815L113.259 53.5325C113.127 53.2032 113.061 52.9397 112.995 52.6104C112.929 52.9397 112.863 53.2032 112.732 53.5325L112.271 54.9815H113.72Z" fill="white"/>
<path d="M115.696 56.2324C115.959 56.43 116.42 56.5617 116.881 56.5617C117.54 56.5617 117.935 56.2324 117.935 55.7055C117.935 55.2444 117.671 54.981 117.013 54.7175C116.222 54.454 115.696 53.993 115.696 53.3343C115.696 52.544 116.354 51.9512 117.342 51.9512C117.869 51.9512 118.198 52.0829 118.462 52.2146L118.264 52.7416C118.133 52.6757 117.737 52.4781 117.342 52.4781C116.683 52.4781 116.42 52.8733 116.42 53.2026C116.42 53.6637 116.749 53.9271 117.408 54.1906C118.264 54.5199 118.659 54.9151 118.659 55.6396C118.659 56.43 118.067 57.0887 116.881 57.0887C116.42 57.0887 115.893 56.9569 115.63 56.7593L115.696 56.2324Z" fill="white"/>
<path d="M120.109 52.0176V57.0233H119.45V52.0176H120.109Z" fill="white"/>
<path d="M121.228 52.0176H121.887V56.4964H123.995V57.0233H121.228V52.0176Z" fill="white"/>
<path d="M127.288 54.6516H125.378V56.43H127.551V56.9569H124.719V51.9512H127.419V52.4781H125.378V54.0589H127.288V54.6516Z" fill="white"/>
<path d="M129 52.0176V57.0233H128.342V52.0176H129Z" fill="white"/>
<path d="M130.12 52.0829C130.449 52.017 130.91 51.9512 131.371 51.9512C132.03 51.9512 132.491 52.0829 132.82 52.3464C133.084 52.544 133.216 52.9391 133.216 53.2685C133.216 53.9271 132.82 54.3882 132.293 54.5199C132.689 54.6516 132.886 54.981 133.018 55.5079C133.15 56.2324 133.281 56.6935 133.413 56.8911H132.754C132.689 56.7593 132.557 56.2983 132.425 55.7055C132.293 55.0468 132.03 54.7834 131.437 54.7175H130.844V56.8911H130.186V52.0829H130.12ZM130.779 54.3882H131.437C132.096 54.3882 132.557 53.993 132.557 53.4661C132.557 52.8074 132.096 52.544 131.437 52.544C131.108 52.544 130.91 52.544 130.779 52.6098V54.3882Z" fill="white"/>
<path d="M134.994 55.4426L134.467 57.0233H133.809L135.521 52.0176H136.311L138.024 57.0233H137.365L136.838 55.4426H134.994ZM136.575 54.9815L136.114 53.5325C135.982 53.2032 135.916 52.9397 135.85 52.6104C135.785 52.9397 135.719 53.2032 135.587 53.5325L135.126 54.9815H136.575Z" fill="white"/>
<path d="M140.263 52.0829C140.659 52.017 141.12 51.9512 141.647 51.9512C142.569 51.9512 143.227 52.1488 143.688 52.544C144.149 52.9391 144.413 53.5319 144.413 54.3223C144.413 55.1127 144.149 55.7713 143.688 56.2324C143.227 56.6935 142.437 56.9569 141.449 56.9569C140.988 56.9569 140.593 56.9569 140.263 56.8911V52.0829ZM140.922 56.4959C141.054 56.4959 141.317 56.5617 141.581 56.5617C142.964 56.5617 143.688 55.7714 143.688 54.454C143.688 53.2685 143.03 52.544 141.647 52.544C141.317 52.544 141.054 52.544 140.922 52.6098V56.4959Z" fill="white"/>
<path d="M147.772 54.6516H145.862V56.43H148.035V56.9569H145.203V51.9512H147.904V52.4781H145.862V54.0589H147.772V54.6516Z" fill="white"/>
<path d="M61.2251 64.3332L60.6982 65.914H60.0396L61.752 60.9082H62.5424L64.2549 65.914H63.5963L63.0693 64.3332H61.2251ZM62.8718 63.8063L62.4107 62.3572C62.279 62.0279 62.2131 61.7645 62.1472 61.4351C62.0814 61.7645 62.0155 62.0279 61.8838 62.3572L61.4227 63.8063H62.8718Z" fill="white"/>
<path d="M64.9136 60.9755C65.3088 60.9096 65.7698 60.8438 66.2967 60.8438C67.2189 60.8438 67.8775 61.0413 68.3386 61.4365C68.7996 61.8317 69.0631 62.4245 69.0631 63.2149C69.0631 64.0053 68.7996 64.6639 68.3386 65.125C67.8775 65.586 67.0871 65.8495 66.0991 65.8495C65.6381 65.8495 65.2429 65.8495 64.9136 65.7836V60.9755ZM65.5722 65.3884C65.704 65.3884 65.9674 65.4543 66.2309 65.4543C67.614 65.4543 68.3386 64.6639 68.3386 63.3466C68.3386 62.1611 67.6799 61.4365 66.2967 61.4365C65.9674 61.4365 65.704 61.4365 65.5722 61.5024V65.3884Z" fill="white"/>
<path d="M74.0688 63.7395C74.0029 63.015 74.0029 62.2246 74.0029 61.566C73.8053 62.1588 73.6077 62.7516 73.3443 63.4761L72.488 65.9131H72.027L71.2366 63.5419C70.9731 62.8174 70.7755 62.2246 70.6438 61.6318C70.6438 62.2246 70.5779 63.0809 70.5779 63.8713L70.4462 66.0448H69.7217L70.051 61.0391H70.8414L71.6976 63.4761C71.8952 64.0689 72.0928 64.6616 72.2246 65.1886C72.3563 64.6616 72.5539 64.1347 72.7515 63.4761L73.6077 61.0391H74.3981L74.7274 66.0448H74.0688V63.7395Z" fill="white"/>
<path d="M76.4399 60.9082V65.914H75.7812V60.9082H76.4399Z" fill="white"/>
<path d="M77.5598 65.914V60.9082H78.2843L79.8651 63.4111C80.2603 64.0039 80.5238 64.5308 80.7872 65.0577C80.7213 64.3991 80.7213 63.8063 80.7213 63.0159V60.9082H81.3141V65.914H80.6555L79.0747 63.4111C78.7454 62.8842 78.4161 62.2914 78.1526 61.7645C78.2185 62.4231 78.2185 63.0159 78.2185 63.8063V65.914H77.5598Z" fill="white"/>
<path d="M83.0922 60.9082V65.914H82.4336V60.9082H83.0922Z" fill="white"/>
<path d="M84.1462 65.125C84.4096 65.3226 84.8707 65.4543 85.3318 65.4543C85.9904 65.4543 86.3856 65.125 86.3856 64.5981C86.3856 64.137 86.1221 63.8735 85.4635 63.6101C84.6731 63.3466 84.1462 62.8856 84.1462 62.2269C84.1462 61.4365 84.8048 60.8438 85.7928 60.8438C86.3197 60.8438 86.6491 60.9755 86.9125 61.1072L86.7149 61.6341C86.5832 61.5683 86.188 61.3707 85.7928 61.3707C85.1342 61.3707 84.8707 61.7659 84.8707 62.0952C84.8707 62.5562 85.2 62.8197 85.8587 63.0832C86.7149 63.4125 87.1101 63.8077 87.1101 64.5322C87.1101 65.3226 86.5173 65.9812 85.3318 65.9812C84.8707 65.9812 84.3438 65.8495 84.0803 65.6519L84.1462 65.125Z" fill="white"/>
<path d="M88.8225 61.4351H87.3076V60.9082H90.9961V61.4351H89.4812V65.8481H88.8225V61.4351Z" fill="white"/>
<path d="M91.5889 60.9755C91.9182 60.9096 92.3793 60.8438 92.8403 60.8438C93.499 60.8438 93.96 60.9755 94.2893 61.2389C94.5528 61.4365 94.6845 61.8317 94.6845 62.1611C94.6845 62.8197 94.2893 63.2808 93.7624 63.4125C94.1576 63.5442 94.3552 63.8735 94.4869 64.4005C94.6187 65.125 94.7504 65.586 94.8821 65.7836H94.2235C94.1576 65.6519 94.0259 65.1908 93.8941 64.5981C93.7624 63.9394 93.499 63.6759 92.9062 63.6101H92.3134V65.7836H91.6547V60.9755H91.5889ZM92.1817 63.2808H92.8403C93.499 63.2808 93.96 62.8856 93.96 62.3586C93.96 61.7 93.499 61.4365 92.8403 61.4365C92.511 61.4365 92.3134 61.4365 92.1817 61.5024V63.2808Z" fill="white"/>
<path d="M96.397 64.3332L95.8701 65.914H95.2114L96.9239 60.9082H97.7143L99.4268 65.914H98.7681L98.2412 64.3332H96.397ZM98.0436 63.8063L97.5826 62.3572C97.4508 62.0279 97.385 61.7645 97.3191 61.4351C97.2532 61.7645 97.1874 62.0279 97.0557 62.3572L96.5946 63.8063H98.0436Z" fill="white"/>
<path d="M100.086 60.9755C100.481 60.9096 100.942 60.8438 101.469 60.8438C102.391 60.8438 103.05 61.0413 103.511 61.4365C103.972 61.8317 104.235 62.4245 104.235 63.2149C104.235 64.0053 103.972 64.6639 103.511 65.125C103.05 65.586 102.259 65.8495 101.271 65.8495C100.81 65.8495 100.415 65.8495 100.086 65.7836V60.9755ZM100.744 65.3884C100.876 65.3884 101.14 65.4543 101.403 65.4543C102.786 65.4543 103.511 64.6639 103.511 63.3466C103.511 62.1611 102.852 61.4365 101.469 61.4365C101.14 61.4365 100.876 61.4365 100.744 61.5024V65.3884Z" fill="white"/>
<path d="M109.307 63.3466C109.307 65.0591 108.253 65.9812 107.001 65.9812C105.684 65.9812 104.762 64.9274 104.762 63.4784C104.762 61.8976 105.75 60.8438 107.067 60.8438C108.45 60.8438 109.307 61.8976 109.307 63.3466ZM105.421 63.4125C105.421 64.4663 106.013 65.4543 107.001 65.4543C108.055 65.4543 108.582 64.5322 108.582 63.4125C108.582 62.4245 108.055 61.3707 107.001 61.3707C105.948 61.3707 105.421 62.3586 105.421 63.4125Z" fill="white"/>
<path d="M110.163 60.9755C110.492 60.9096 110.953 60.8438 111.414 60.8438C112.073 60.8438 112.534 60.9755 112.863 61.2389C113.127 61.4365 113.259 61.8317 113.259 62.1611C113.259 62.8197 112.863 63.2808 112.336 63.4125C112.732 63.5442 112.929 63.8735 113.061 64.4005C113.193 65.125 113.324 65.586 113.456 65.7836H112.797C112.732 65.6519 112.6 65.1908 112.468 64.5981C112.336 63.9394 112.073 63.6759 111.48 63.6101H110.887V65.7836H110.229V60.9755H110.163ZM110.821 63.2808H111.48C112.139 63.2808 112.6 62.8856 112.6 62.3586C112.6 61.7 112.139 61.4365 111.48 61.4365C111.151 61.4365 110.953 61.4365 110.821 61.5024V63.2808Z" fill="white"/>
<path d="M114.971 64.3332L114.444 65.914H113.786L115.498 60.9082H116.289L118.001 65.914H117.342L116.815 64.3332H114.971ZM116.618 63.8063L116.157 62.3572C116.025 62.0279 115.959 61.7645 115.893 61.4351C115.827 61.7645 115.762 62.0279 115.63 62.3572L115.169 63.8063H116.618Z" fill="white"/>
<path d="M118.593 65.125C118.857 65.3226 119.318 65.4543 119.779 65.4543C120.438 65.4543 120.833 65.125 120.833 64.5981C120.833 64.137 120.569 63.8735 119.911 63.6101C119.12 63.3466 118.593 62.8856 118.593 62.2269C118.593 61.4365 119.252 60.8438 120.24 60.8438C120.767 60.8438 121.096 60.9755 121.36 61.1072L121.162 61.6341C121.03 61.5683 120.635 61.3707 120.24 61.3707C119.581 61.3707 119.318 61.7659 119.318 62.0952C119.318 62.5562 119.647 62.8197 120.306 63.0832C121.162 63.4125 121.557 63.8077 121.557 64.5322C121.557 65.3226 120.965 65.9812 119.779 65.9812C119.318 65.9812 118.791 65.8495 118.528 65.6519L118.593 65.125Z" fill="white"/>
<path d="M123.929 60.9755C124.324 60.9096 124.785 60.8438 125.312 60.8438C126.234 60.8438 126.893 61.0413 127.354 61.4365C127.815 61.8317 128.078 62.4245 128.078 63.2149C128.078 64.0053 127.815 64.6639 127.354 65.125C126.893 65.586 126.102 65.8495 125.114 65.8495C124.653 65.8495 124.258 65.8495 123.929 65.7836V60.9755ZM124.587 65.3884C124.719 65.3884 124.983 65.4543 125.246 65.4543C126.629 65.4543 127.354 64.6639 127.354 63.3466C127.354 62.1611 126.695 61.4365 125.312 61.4365C124.983 61.4365 124.719 61.4365 124.587 61.5024V65.3884Z" fill="white"/>
<path d="M131.437 63.5442H129.527V65.3226H131.701V65.8495H128.869V60.8438H131.569V61.3707H129.527V62.9514H131.437V63.5442Z" fill="white"/>
<path d="M137.563 65.7178C137.299 65.8495 136.838 65.9812 136.246 65.9812C134.862 65.9812 133.809 65.125 133.809 63.4784C133.809 61.8976 134.862 60.8438 136.443 60.8438C137.036 60.8438 137.431 60.9755 137.629 61.0413L137.497 61.5683C137.234 61.4365 136.904 61.3707 136.509 61.3707C135.323 61.3707 134.533 62.0952 134.533 63.4125C134.533 64.6639 135.258 65.3884 136.443 65.3884C136.838 65.3884 137.234 65.3226 137.497 65.1908L137.563 65.7178Z" fill="white"/>
<path d="M142.503 63.3466C142.503 65.0591 141.449 65.9812 140.197 65.9812C138.88 65.9812 137.958 64.9274 137.958 63.4784C137.958 61.8976 138.946 60.8438 140.263 60.8438C141.581 60.8438 142.503 61.8976 142.503 63.3466ZM138.617 63.4125C138.617 64.4663 139.209 65.4543 140.197 65.4543C141.251 65.4543 141.778 64.5322 141.778 63.4125C141.778 62.4245 141.251 61.3707 140.197 61.3707C139.144 61.3707 138.617 62.3586 138.617 63.4125Z" fill="white"/>
<path d="M143.293 65.914V60.9082H144.017L145.598 63.4111C145.993 64.0039 146.257 64.5308 146.52 65.0577C146.454 64.3991 146.454 63.8063 146.454 63.0159V60.9082H147.047V65.914H146.389L144.808 63.4111C144.479 62.8842 144.149 62.2914 143.886 61.7645C143.952 62.4231 143.952 63.0159 143.952 63.8063V65.914H143.293Z" fill="white"/>
<path d="M148.101 65.125C148.365 65.3226 148.826 65.4543 149.287 65.4543C149.945 65.4543 150.341 65.125 150.341 64.5981C150.341 64.137 150.077 63.8735 149.419 63.6101C148.628 63.3466 148.101 62.8856 148.101 62.2269C148.101 61.4365 148.76 60.8438 149.748 60.8438C150.275 60.8438 150.604 60.9755 150.868 61.1072L150.67 61.6341C150.538 61.5683 150.143 61.3707 149.748 61.3707C149.089 61.3707 148.826 61.7659 148.826 62.0952C148.826 62.5562 149.155 62.8197 149.814 63.0832C150.67 63.4125 151.065 63.8077 151.065 64.5322C151.065 65.3226 150.472 65.9812 149.287 65.9812C148.826 65.9812 148.299 65.8495 148.035 65.6519L148.101 65.125Z" fill="white"/>
<path d="M156.071 63.3477C156.071 65.0602 155.017 65.9823 153.766 65.9823C152.448 65.9823 151.526 64.9285 151.526 63.4795C151.526 61.8987 152.514 60.8449 153.831 60.8449C155.215 60.8449 156.071 61.8987 156.071 63.3477ZM152.251 63.4136C152.251 64.4674 152.843 65.4554 153.831 65.4554C154.885 65.4554 155.412 64.5333 155.412 63.4136C155.412 62.4256 154.885 61.3718 153.831 61.3718C152.778 61.3718 152.251 62.3598 152.251 63.4136ZM154.885 59.791L153.963 60.6473H153.436L154.095 59.791H154.885Z" fill="white"/>
<path d="M156.927 60.9755C157.257 60.9096 157.718 60.8438 158.179 60.8438C158.837 60.8438 159.298 60.9755 159.628 61.2389C159.891 61.4365 160.023 61.8317 160.023 62.1611C160.023 62.8197 159.628 63.2808 159.101 63.4125C159.496 63.5442 159.694 63.8735 159.825 64.4005C159.957 65.125 160.089 65.586 160.221 65.7836H159.562C159.496 65.6519 159.364 65.1908 159.233 64.5981C159.101 63.9394 158.837 63.6759 158.245 63.6101H157.652V65.7836H156.993V60.9755H156.927ZM157.586 63.2808H158.245C158.903 63.2808 159.364 62.8856 159.364 62.3586C159.364 61.7 158.903 61.4365 158.245 61.4365C157.915 61.4365 157.718 61.4365 157.586 61.5024V63.2808Z" fill="white"/>
<path d="M164.436 65.7178C164.172 65.8495 163.711 65.9812 163.119 65.9812C161.735 65.9812 160.682 65.125 160.682 63.4784C160.682 61.8976 161.735 60.8438 163.316 60.8438C163.909 60.8438 164.304 60.9755 164.502 61.0413L164.37 61.5683C164.107 61.4365 163.777 61.3707 163.382 61.3707C162.197 61.3707 161.406 62.0952 161.406 63.4125C161.406 64.6639 162.131 65.3884 163.316 65.3884C163.711 65.3884 164.107 65.3226 164.37 65.1908L164.436 65.7178Z" fill="white"/>
<path d="M165.885 60.9082V65.914H165.226V60.9082H165.885Z" fill="white"/>
<path d="M171.286 63.3466C171.286 65.0591 170.232 65.9812 168.981 65.9812C167.663 65.9812 166.741 64.9274 166.741 63.4784C166.741 61.8976 167.729 60.8438 169.046 60.8438C170.364 60.8438 171.286 61.8976 171.286 63.3466ZM167.4 63.4125C167.4 64.4663 167.993 65.4543 168.981 65.4543C170.034 65.4543 170.561 64.5322 170.561 63.4125C170.561 62.4245 170.034 61.3707 168.981 61.3707C167.927 61.3707 167.4 62.3586 167.4 63.4125Z" fill="white"/>
<path d="M172.01 65.125C172.274 65.3226 172.735 65.4543 173.196 65.4543C173.854 65.4543 174.25 65.125 174.25 64.5981C174.25 64.137 173.986 63.8735 173.327 63.6101C172.537 63.3466 172.01 62.8856 172.01 62.2269C172.01 61.4365 172.669 60.8438 173.657 60.8438C174.184 60.8438 174.513 60.9755 174.777 61.1072L174.579 61.6341C174.447 61.5683 174.052 61.3707 173.657 61.3707C172.998 61.3707 172.735 61.7659 172.735 62.0952C172.735 62.5562 173.064 62.8197 173.723 63.0832C174.579 63.4125 174.974 63.8077 174.974 64.5322C174.974 65.3226 174.381 65.9812 173.196 65.9812C172.735 65.9812 172.208 65.8495 171.944 65.6519L172.01 65.125Z" fill="white"/>
</svg>
