<svg viewBox="0 0 179 74" fill="none" xmlns="http://www.w3.org/2000/svg">
<path fill-rule="evenodd" clip-rule="evenodd" d="M8.0891 61.0556C8.7402 60.7707 9.06575 60.2422 9.06575 59.5906C9.06575 58.3698 8.12979 57.7186 6.21716 57.6774H3.32788V65.1651H6.6648C8.65881 65.1651 9.63547 64.4727 9.63547 63.0083C9.63547 62.0322 9.10645 61.3811 8.0891 61.0556ZM5.19981 59.0209H6.21716C6.86827 59.0209 7.19439 59.3057 7.19439 59.8754C7.19439 60.3632 6.86827 60.6481 6.21716 60.6481H5.19981V59.0209ZM6.29855 63.7821H5.19981V61.9915H6.29855C7.19383 61.9915 7.64146 62.2764 7.64146 62.9275C7.64146 63.578 7.23452 63.7821 6.29855 63.7821ZM141.322 61.0556C141.973 60.7707 142.299 60.2422 142.299 59.5906C142.299 58.3698 141.363 57.7186 139.45 57.6774H136.561V65.1651H139.898C141.891 65.1651 142.869 64.4727 142.869 63.0083C142.868 62.0322 142.38 61.3811 141.322 61.0556ZM138.432 59.0209H139.449C140.1 59.0209 140.426 59.3057 140.426 59.8754C140.426 60.3632 140.101 60.6481 139.449 60.6481H138.432V59.0209ZM139.531 63.7821H138.432V61.9915H139.531C140.426 61.9915 140.875 62.2764 140.875 62.9275C140.875 63.578 140.467 63.7821 139.531 63.7821ZM118.94 58.4511C118.248 57.921 117.516 57.7588 116.702 57.6774H113.039V65.1651H116.702C117.394 65.1244 118.004 65.0029 118.655 64.5954C119.794 63.8635 120.405 62.7642 120.405 61.4218C120.405 60.201 119.876 59.1831 118.94 58.4511ZM116.702 63.6187C116.58 63.6594 116.416 63.6594 116.295 63.6594H114.911V59.1831H116.295C116.416 59.1831 116.58 59.1831 116.702 59.2238C117.76 59.386 118.452 60.2417 118.452 61.4218C118.452 62.6019 117.76 63.4565 116.702 63.6187ZM89.396 61.666C90.2912 61.2585 90.6987 60.6888 90.6987 59.8347C90.6987 58.3698 89.7628 57.6779 87.8496 57.6779H85.001V65.1657H86.8729V62.1136H87.0764C87.4019 62.1136 87.6461 62.1543 87.8496 62.2363C88.0937 62.3985 88.2972 62.6438 88.46 63.0089L89.3553 65.1657H91.4719L90.2918 62.6025C90.0883 62.113 89.7628 61.7875 89.396 61.666ZM87.8496 60.73H86.8729V59.0214H87.8496C88.46 59.0214 88.7855 59.347 88.7855 59.876C88.7855 60.4452 88.5007 60.73 87.8496 60.73ZM148.565 61.666C149.46 61.2585 149.868 60.6888 149.868 59.8347C149.868 58.3698 148.891 57.6779 146.937 57.6779H144.13V65.1657H146.001V62.1136H146.205C146.531 62.1136 146.775 62.1543 146.937 62.2363C147.223 62.3985 147.385 62.6438 147.547 63.0089L148.525 65.1657H150.641L149.46 62.6025C149.216 62.113 148.931 61.7875 148.565 61.666ZM146.937 60.73H146.001V59.0214H146.937C147.588 59.0214 147.914 59.347 147.914 59.876C147.914 60.4452 147.629 60.73 146.937 60.73ZM14.5595 57.6774H13.5828L10.2866 65.1651H12.3213L12.891 63.7001H16.1465L16.6756 65.1651H18.6696L15.7396 57.6774H14.5595ZM14.5595 62.4386H13.4607L14.5595 59.7121L14.6002 59.5906L15.6582 62.4386H14.5595ZM96.2326 57.6774H95.2553L91.9998 65.1651H93.9944L94.6037 63.7001H97.8185L98.3487 65.1651H100.342L97.4121 57.6774H96.2326ZM96.2326 62.4386H95.1333L96.2326 59.7121L96.3145 59.5906L97.372 62.4386H96.2326ZM155.361 57.6774H154.383L151.087 65.1651H153.082L153.692 63.7001H156.906L157.476 65.1651H159.47L156.54 57.6774H155.361ZM155.361 62.4386H154.221L155.361 59.7121L155.401 59.5906L156.46 62.4386H155.361ZM25.5062 62.1537L21.4775 57.6774H19.8497V65.1651H21.7216V60.4452L25.9131 65.1651H27.3781V57.6774H25.5062V62.1537ZM167.162 65.1651H169.115V57.6774H167.162V65.1651ZM73.159 62.1537L69.1303 57.6774H67.5025V65.1651H69.3337V60.4452L73.5252 65.1651H74.9902V57.6774H73.159V62.1537ZM76.6994 59.0616H79.1817V65.1651H81.135V59.0616H83.6174V57.6774H76.6994V59.0616ZM103.516 57.6774H101.645V65.1651H106.732V63.7414H103.516V57.6774ZM172.738 63.7414V57.6774H170.866V65.1651H175.953V63.7414H172.738ZM62.3344 61.9915H65.305V60.5672H62.3344V59.0616H65.4678V57.6774H60.4217V65.1651H65.5492V63.7821H62.3344V61.9915ZM41.4588 57.596C40.2787 57.596 39.302 57.9216 38.5696 58.6546C37.7964 59.3865 37.3894 60.3225 37.3894 61.4631C37.3894 62.5612 37.7964 63.5385 38.5696 64.2704C39.302 64.9628 40.2787 65.329 41.4588 65.329C42.6384 65.329 43.6151 64.9628 44.3476 64.2704C45.1207 63.5385 45.5277 62.5618 45.5277 61.4631C45.5277 60.3225 45.1207 59.3865 44.3476 58.6546C43.6151 57.9216 42.6384 57.596 41.4588 57.596ZM41.4588 63.7414C40.1973 63.7414 39.3021 62.8054 39.3021 61.4631C39.3021 60.1196 40.1973 59.1429 41.4588 59.1429C42.6797 59.1429 43.5749 60.1202 43.5749 61.4631C43.5744 62.8048 42.6791 63.7414 41.4588 63.7414ZM125.492 57.5559C124.312 57.5559 123.335 57.921 122.603 58.6134C121.829 59.3464 121.423 60.3219 121.423 61.4218C121.423 62.52 121.829 63.4972 122.603 64.2291C123.335 64.9215 124.312 65.2878 125.492 65.2878C126.672 65.2878 127.648 64.9215 128.38 64.2291C129.154 63.4972 129.562 62.5612 129.562 61.4218C129.562 60.3225 129.154 59.3464 128.38 58.6134C127.648 57.9216 126.672 57.5559 125.492 57.5559ZM125.492 63.7414C124.23 63.7414 123.335 62.7642 123.335 61.4218C123.335 60.0783 124.23 59.1424 125.492 59.1424C126.712 59.1424 127.648 60.0783 127.648 61.4218C127.648 62.7642 126.712 63.7414 125.492 63.7414ZM30.9999 61.4625C30.9999 59.9964 31.9358 59.1424 33.4415 59.1424C34.2554 59.1424 35.11 59.3865 35.9239 59.9568V58.1663C35.1165 57.759 34.2237 57.5498 33.3195 57.5559C30.715 57.5559 29.0873 59.1831 29.0873 61.4625C29.0873 62.5607 29.4942 63.5775 30.2267 64.2698C30.9592 64.9622 31.9359 65.3284 33.1567 65.3284C34.174 65.3284 35.11 65.0832 36.0053 64.5547V62.8048C35.11 63.456 34.2147 63.7408 33.2788 63.7408C31.8952 63.7414 30.9999 62.8461 30.9999 61.4625ZM53.8293 61.4625C53.8293 59.9964 54.7653 59.1424 56.2709 59.1424C57.1255 59.1424 57.9394 59.3865 58.794 59.9568V58.1663C57.9394 57.7588 57.0848 57.5559 56.1489 57.5559C53.5444 57.5559 51.9167 59.1831 51.9167 61.4625C51.9167 62.5607 52.3236 63.5775 53.0561 64.2698C53.7886 64.9622 54.7653 65.3284 55.9861 65.3284C57.0441 65.3284 57.9394 65.0832 58.8347 64.5547V62.8048C57.9394 63.456 57.0441 63.7408 56.1489 63.7408C54.7246 63.7414 53.8293 62.8461 53.8293 61.4625ZM164.721 61.2585C164.151 60.8922 163.5 60.6888 162.849 60.4452C162.156 60.201 161.832 59.9161 161.832 59.6318C161.832 59.2243 162.197 59.0214 162.93 59.0214C163.623 59.0214 164.436 59.2656 165.372 59.7534V58.207C164.517 57.8006 163.662 57.5966 162.848 57.5966C161.098 57.5966 160 58.5325 160 59.7534C160 61.1375 160.936 61.7479 162.808 62.3985C163.459 62.6438 163.826 62.806 163.826 63.2542C163.826 63.6606 163.418 63.9042 162.686 63.9042C161.832 63.9042 161.058 63.539 160.122 62.9693V64.6372C160.936 65.125 161.791 65.3691 162.727 65.3691C164.639 65.3691 165.697 64.4739 165.697 63.1315C165.697 62.2764 165.372 61.666 164.721 61.2585ZM81.2164 52.754H94.7676L97.3313 50.1897H83.7395V42.5397H86.3032L88.8669 39.976H78.6527V29.8432L76.1297 32.4069V34.9299H68.4792V21.3381L65.9154 23.8611V37.453H73.5659V45.0622H81.2164V52.754ZM76.1297 23.8611H86.3032L88.8669 21.3381H78.6527V11.1239L73.5659 16.2513V21.3381H76.1297V23.8611ZM94.7676 42.5397V32.3662L97.3313 29.8432V39.976H107.546L102.418 45.0622H97.3313V42.5397H94.7676ZM81.2164 11.1239H83.7395V6.03711L81.2164 8.60084V11.1239ZM107.546 37.4937V34.9299H112.632L110.069 37.4937H107.546ZM94.7676 23.8611V13.6876L97.3313 11.1239V21.3381H107.505L104.982 23.8611H94.7676Z" fill="white"/>
</svg>
