<svg width="35" height="35" viewBox="0 0 35 35" fill="none" xmlns="http://www.w3.org/2000/svg">
<path fill-rule="evenodd" clip-rule="evenodd" d="M17.5 0C27.1655 0 35 7.83512 35 17.5C35 27.1655 27.1649 35 17.5 35C7.83447 35 0 27.1649 0 17.5C0 7.83447 7.83512 0 17.5 0ZM8.83656 17.7286C8.19019 17.0141 8.24607 15.9113 8.95955 15.2659C9.67408 14.6196 10.7769 14.6755 11.4222 15.3889L15.7814 20.2056L25.2013 10.4754C25.874 9.78389 26.9791 9.7686 27.6707 10.4415C28.3622 11.1141 28.3775 12.2193 27.7046 12.9109L16.9919 23.9763L16.9896 23.974C16.9644 24.0003 16.9371 24.0266 16.9095 24.0508C16.196 24.6972 15.0931 24.6423 14.4468 23.9278L8.83548 17.7283L8.83656 17.7286Z" fill="url(#paint0_linear_366_321)"/>
<defs>
<linearGradient id="paint0_linear_366_321" x1="-8.48837" y1="-19.7685" x2="43.2467" y2="-17.6657" gradientUnits="userSpaceOnUse">
<stop stop-color="#F8B179"/>
<stop offset="0.365248" stop-color="#7C5333"/>
<stop offset="1" stop-color="#F8B179"/>
</linearGradient>
</defs>
</svg>
