<svg width="228" height="91" viewBox="0 0 228 91" fill="none" xmlns="http://www.w3.org/2000/svg">
<path d="M13.6292 76.6216L12.4076 82.9055C12.3202 83.3464 12.2737 83.7941 12.2688 84.243C12.2292 84.5133 12.2538 84.7888 12.3405 85.0486C12.4272 85.3083 12.5739 85.5454 12.7693 85.7419C12.9647 85.9384 13.2037 86.089 13.4682 86.1824C13.7326 86.2758 14.0156 86.3095 14.2955 86.2808C15.7854 86.2808 16.8867 85.3023 17.3401 82.9414L18.5802 76.6575H19.9221L18.682 82.9414C18.0527 86.1192 16.4332 87.3939 14.1196 87.3939C13.6882 87.4336 13.2531 87.3796 12.8457 87.2361C12.4384 87.0926 12.0691 86.8631 11.7644 86.5641C11.4597 86.2651 11.2274 85.9042 11.0841 85.5074C10.9409 85.1107 10.8904 84.688 10.9362 84.27C10.9382 83.7792 10.9846 83.2896 11.075 82.8067L12.2873 76.6216H13.6292ZM20.5606 87.2234L21.6063 81.8372C21.7729 80.9934 21.884 80.2573 21.9672 79.6289H23.1425L22.9297 81.0562H22.9852C23.27 80.5824 23.6741 80.1864 24.1596 79.9053C24.6452 79.6243 25.1963 79.4674 25.7615 79.4494C26.0012 79.429 26.2426 79.458 26.4698 79.5347C26.6971 79.6114 26.905 79.734 27.0799 79.8943C27.2548 80.0546 27.3926 80.249 27.4844 80.4648C27.5762 80.6805 27.6198 80.9127 27.6123 81.146C27.8955 80.6481 28.307 80.23 28.8066 79.9326C29.3062 79.6353 29.8768 79.4687 30.4626 79.4494C30.7238 79.4478 30.9824 79.4999 31.2213 79.6022C31.4602 79.7045 31.6742 79.8548 31.849 80.043C32.0238 80.2312 32.1556 80.4532 32.2356 80.6944C32.3157 80.9355 32.3422 81.1904 32.3135 81.4422C32.309 81.876 32.2657 82.3085 32.1839 82.7349L31.314 87.2234H30.0184L30.8606 82.8426C30.9315 82.5179 30.9687 82.1871 30.9716 81.8552C30.9716 81.0562 30.6662 80.5356 29.7963 80.5356C28.9264 80.5356 27.6864 81.6308 27.344 83.3274L26.5851 87.2234H25.2988L26.1687 82.7349C26.2309 82.4393 26.265 82.1388 26.2705 81.8372C26.2705 81.1999 26.0854 80.5356 25.1044 80.5356C24.1235 80.5356 22.9019 81.7923 22.5965 83.4082L21.8654 87.2234H20.5606ZM39.9945 80.5984C39.6919 80.5248 39.381 80.4886 39.0691 80.4907C37.0424 80.4907 35.3674 82.5464 35.3674 84.647C35.3674 85.4908 35.682 86.3257 36.7185 86.3257C37.755 86.3257 39.1524 84.9163 39.4948 82.8875L39.9482 80.5984H39.9945ZM39.1246 87.2234C39.1246 86.7656 39.2079 86.0474 39.3004 85.2574C38.4305 86.8284 37.3663 87.3939 36.2465 87.3939C35.9238 87.3861 35.6063 87.313 35.3143 87.1795C35.0223 87.0459 34.7622 86.8548 34.5506 86.6183C34.339 86.3818 34.1806 86.1051 34.0854 85.8059C33.9902 85.5066 33.9603 85.1914 33.9977 84.8804C33.988 84.181 34.1206 83.4866 34.3881 82.837C34.6556 82.1875 35.0526 81.5955 35.5564 81.0951C36.0602 80.5947 36.6609 80.1957 37.3241 79.921C37.9872 79.6463 38.6997 79.5013 39.4207 79.4942C40.1325 79.4975 40.84 79.6003 41.5214 79.7995L40.7256 83.7493C40.4886 84.9079 40.3769 86.0872 40.3924 87.2683L39.1246 87.2234ZM51.3217 81.4333C51.3217 80.8139 50.8405 80.4727 50.1186 80.4727C48.8415 80.4727 47.8884 81.6846 47.5645 82.8786C49.6652 82.8786 51.3217 82.6182 51.3217 81.4422V81.4333ZM51.6086 86.8194C50.8146 87.2304 49.9265 87.4403 49.0266 87.4299C46.9537 87.4299 46.0468 86.0474 46.0468 84.3687C46.0468 82.0796 47.7958 79.4853 50.313 79.4853C50.6005 79.4417 50.8944 79.4583 51.1749 79.5337C51.4553 79.6092 51.716 79.7419 51.9393 79.9229C52.1627 80.1039 52.3437 80.329 52.4702 80.5833C52.5967 80.8376 52.6657 81.1151 52.6728 81.3974C52.6728 83.3902 50.3592 83.9289 47.4627 83.875C47.399 84.3621 47.4528 84.8568 47.62 85.3203C47.7698 85.6431 48.0174 85.9139 48.3299 86.0968C48.6423 86.2796 49.0048 86.3657 49.369 86.3436C50.1064 86.3368 50.8308 86.155 51.479 85.814L51.6641 86.7835L51.6086 86.8194ZM53.6167 87.2593L54.6717 81.8731C54.829 81.0293 54.9493 80.2932 55.0234 79.6648H56.2079L55.9951 81.0921C56.2818 80.62 56.6864 80.2253 57.1715 79.9445C57.6566 79.6637 58.2068 79.5058 58.7713 79.4853C59.011 79.4649 59.2525 79.494 59.4797 79.5706C59.707 79.6473 59.9149 79.7699 60.0898 79.9302C60.2646 80.0905 60.4025 80.2849 60.4943 80.5007C60.5861 80.7164 60.6296 80.9486 60.6222 81.1819C60.907 80.6796 61.3227 80.2585 61.8277 79.9608C62.3327 79.6631 62.9094 79.4991 63.5003 79.4853C63.7614 79.4837 64.02 79.5358 64.2589 79.6381C64.4979 79.7405 64.7118 79.8907 64.8866 80.0789C65.0614 80.2671 65.1932 80.4891 65.2732 80.7303C65.3533 80.9715 65.3798 81.2263 65.3511 81.4781C65.3453 81.9114 65.3051 82.3436 65.2308 82.7708L64.3517 87.2593H63.1023L63.9445 82.8786C64.0108 82.5531 64.048 82.2227 64.0555 81.8911C64.0555 81.0921 63.7501 80.5715 62.871 80.5715C61.9918 80.5715 60.7517 81.6667 60.4278 83.3633L59.669 87.2593H58.3734L59.2988 82.7708C59.3582 82.475 59.3892 82.1745 59.3914 81.8731C59.3914 81.2358 59.2155 80.5715 58.2253 80.5715C57.2351 80.5715 56.0321 81.8282 55.7174 83.4441L54.9956 87.2593H53.6167ZM68.5161 85.9846C68.95 86.2823 69.4754 86.4279 70.006 86.3975C71.7365 86.3975 73.1894 84.3238 73.1894 82.331C73.1894 81.532 72.8193 80.5356 71.6903 80.5356C70.5612 80.5356 69.3304 81.7115 68.9232 83.8032L68.5346 85.9217L68.5161 85.9846ZM66.3135 90.3653L67.8868 82.3579C68.0441 81.4602 68.2107 80.4189 68.3217 79.6648H69.5525L69.3304 81.0562C69.6292 80.5945 70.0367 80.2081 70.5193 79.9288C71.0019 79.6495 71.5459 79.4852 72.1067 79.4494C73.8095 79.4494 74.5128 80.8049 74.5128 82.1963C74.5128 84.8894 72.5417 87.3939 69.9412 87.3939C69.3519 87.4231 68.7649 87.3024 68.2384 87.0438L67.6091 90.3294L66.3135 90.3653ZM75.8084 87.2234L76.7338 82.322C76.9282 81.3345 77.0577 80.3291 77.141 79.6289H78.3255C78.2515 80.1585 78.196 80.6882 78.1127 81.2717C78.2961 80.783 78.6186 80.3549 79.0429 80.0371C79.4672 79.7193 79.9758 79.5248 80.5096 79.4763C80.6328 79.467 80.7565 79.467 80.8797 79.4763L80.6206 80.76C80.5035 80.7529 80.386 80.7529 80.2689 80.76C79.1029 80.76 78.0664 82.1245 77.724 83.8929L77.0762 87.2413L75.8084 87.2234ZM86.534 81.4333C86.534 80.8139 86.0528 80.4727 85.3403 80.4727C84.0539 80.4727 83.11 81.6846 82.7861 82.8786C84.8868 82.8786 86.4878 82.6182 86.4878 81.4422L86.534 81.4333ZM86.8209 86.8194C86.0274 87.2315 85.139 87.4415 84.239 87.4299C82.1661 87.4299 81.2591 86.0474 81.2591 84.3687C81.2591 82.0796 83.0082 79.4853 85.5346 79.4853C85.8182 79.4486 86.1066 79.4703 86.381 79.5491C86.6553 79.6278 86.9095 79.7617 87.1269 79.9421C87.3444 80.1226 87.5201 80.3454 87.6428 80.5961C87.7655 80.8469 87.8323 81.1199 87.8389 81.3974C87.8389 83.3902 85.5253 83.9289 82.6288 83.875C82.5638 84.3627 82.6209 84.8585 82.7953 85.3203C82.9424 85.6431 83.1881 85.9144 83.4993 86.0974C83.8104 86.2805 84.172 86.3664 84.5351 86.3436C85.2725 86.3368 85.9969 86.155 86.6451 85.814L86.8302 86.7835L86.8209 86.8194ZM88.8939 85.9217C89.4074 86.2088 89.9858 86.3691 90.5782 86.3885C90.7608 86.4071 90.9455 86.3893 91.1208 86.3362C91.2961 86.2832 91.4585 86.196 91.5979 86.0801C91.7374 85.9642 91.851 85.8219 91.9318 85.6619C92.0126 85.5019 92.059 85.3277 92.0681 85.1497C92.0681 84.5572 91.7905 84.1982 90.9853 83.7583C90.5897 83.5933 90.2484 83.326 89.9987 82.9856C89.749 82.6453 89.6005 82.2449 89.5695 81.8282C89.5846 81.4827 89.6734 81.1439 89.8303 80.8333C89.9871 80.5227 90.2086 80.247 90.4807 80.0235C90.7528 79.8 91.0697 79.6336 91.4114 79.5348C91.7531 79.436 92.1122 79.4069 92.466 79.4494C93.0379 79.4325 93.6039 79.5658 94.104 79.8354L93.7339 80.8139C93.3166 80.5925 92.8491 80.4753 92.3735 80.4727C92.2035 80.4541 92.0313 80.4696 91.8677 80.5182C91.7041 80.5667 91.5526 80.6474 91.4224 80.7551C91.2923 80.8628 91.1863 80.9954 91.1111 81.1444C91.0359 81.2935 90.9931 81.456 90.9853 81.6218C90.9853 82.1694 91.3555 82.5195 92.0496 82.8875C92.457 83.0605 92.8088 83.3369 93.0678 83.6877C93.3268 84.0385 93.4834 84.4505 93.521 84.8804C93.521 86.4783 92.1791 87.3939 90.5319 87.3939C89.8439 87.4012 89.1687 87.214 88.5885 86.8553L88.9587 85.9038L88.8939 85.9217ZM101.248 80.6164C100.946 80.5428 100.635 80.5066 100.323 80.5086C98.2962 80.5086 96.6212 82.5644 96.6212 84.665C96.6212 85.5088 96.9266 86.3436 97.963 86.3436C98.9995 86.3436 100.406 84.9343 100.795 82.9055L101.239 80.6164H101.248ZM100.378 87.2413C100.404 86.5833 100.466 85.9271 100.563 85.2754C99.7028 86.8464 98.6386 87.4119 97.5188 87.4119C97.192 87.408 96.8697 87.3373 96.5729 87.2043C96.2762 87.0713 96.0118 86.879 95.7969 86.6401C95.582 86.4011 95.4216 86.1209 95.326 85.8176C95.2304 85.5144 95.2019 85.1951 95.2423 84.8804C95.2325 84.181 95.3652 83.4866 95.6326 82.837C95.9001 82.1875 96.2971 81.5955 96.801 81.0951C97.3048 80.5947 97.9055 80.1957 98.5686 79.921C99.2317 79.6463 99.9442 79.5013 100.665 79.4942C101.377 79.4975 102.085 79.6003 102.766 79.7995L101.979 83.7493C101.74 84.9076 101.625 86.0869 101.637 87.2683L100.378 87.2413ZM113.334 80.8318C112.94 80.6141 112.492 80.5055 112.039 80.5176C110.188 80.5176 108.707 82.4477 108.707 84.4764C108.707 85.3741 109.031 86.3436 110.179 86.3436C111.326 86.3436 112.464 85.2036 112.798 83.489L113.334 80.7959V80.8318ZM115.602 76.083L113.89 84.8176C113.72 85.6112 113.606 86.4149 113.547 87.2234H112.316L112.529 85.7153C112.255 86.2036 111.855 86.6149 111.369 86.9091C110.882 87.2032 110.326 87.3703 109.753 87.3939C108.235 87.3939 107.412 86.1821 107.412 84.6291C107.412 81.936 109.475 79.4494 112.242 79.4494C112.722 79.4454 113.198 79.5371 113.64 79.7187L114.334 76.1279L115.602 76.083ZM117.591 84.2251C117.591 85.4639 118.285 86.3616 119.442 86.3616C121.025 86.3616 122.218 84.3777 122.218 82.6092C122.252 82.3502 122.23 82.0872 122.153 81.837C122.076 81.5868 121.947 81.3547 121.773 81.1555C121.599 80.9564 121.384 80.7944 121.142 80.68C120.9 80.5655 120.636 80.5011 120.368 80.4907C118.683 80.4907 117.591 82.4836 117.591 84.2251ZM123.597 82.6182C123.597 84.9612 121.876 87.3939 119.257 87.3939C118.838 87.4053 118.421 87.331 118.034 87.1759C117.646 87.0208 117.297 86.7884 117.008 86.4939C116.719 86.1993 116.497 85.849 116.357 85.4659C116.217 85.0828 116.161 84.6753 116.194 84.27C116.194 81.7744 117.989 79.4494 120.534 79.4494C120.957 79.4374 121.378 79.5128 121.769 79.6705C122.16 79.8283 122.512 80.0648 122.802 80.3644C123.091 80.664 123.312 81.0198 123.449 81.4084C123.586 81.7969 123.637 82.2093 123.597 82.6182ZM136.192 86.7656C135.212 87.1349 134.171 87.3266 133.12 87.3311C132.463 87.376 131.804 87.2811 131.188 87.0532C130.573 86.8252 130.016 86.4697 129.557 86.0115C128.802 85.1457 128.407 84.0386 128.447 82.9055C128.422 82.0609 128.576 81.2205 128.899 80.4358C129.222 79.6511 129.707 78.9387 130.324 78.3426C130.941 77.7464 131.677 77.279 132.488 76.9692C133.298 76.6593 134.165 76.5136 135.036 76.5408C135.92 76.5006 136.801 76.6636 137.608 77.0166L137.173 78.1208C136.454 77.8023 135.669 77.6458 134.878 77.663C133.623 77.6508 132.413 78.1109 131.5 78.9466C130.977 79.4565 130.563 80.0616 130.282 80.7271C130.001 81.3926 129.859 82.1055 129.862 82.8247C129.862 84.8714 130.917 86.218 133.342 86.218C133.913 86.2261 134.479 86.1223 135.008 85.9128L135.619 82.7618H133.407L133.62 81.7026H137.136L136.155 86.7656H136.192ZM138.524 87.2234L139.45 82.322C139.644 81.3345 139.774 80.3291 139.857 79.6289H141.032C140.967 80.1585 140.903 80.6882 140.819 81.2717C141.006 80.7848 141.329 80.3583 141.753 80.0409C142.176 79.7235 142.684 79.5279 143.216 79.4763C143.343 79.4666 143.469 79.4666 143.596 79.4763L143.364 80.769C143.244 80.762 143.124 80.762 143.003 80.769C141.837 80.769 140.801 82.1335 140.468 83.9019L139.82 87.2503L138.524 87.2234ZM151.619 79.6289L150.573 85.0151C150.407 85.9128 150.296 86.604 150.222 87.2324H149L149.213 85.805C148.917 86.2681 148.51 86.6551 148.026 86.9332C147.543 87.2114 146.998 87.3725 146.437 87.4029C145.428 87.4029 144.373 86.9361 144.373 85.2036C144.385 84.7754 144.435 84.3489 144.521 83.9289L145.363 79.6379H146.705L145.881 83.875C145.792 84.24 145.743 84.6131 145.733 84.9881C145.733 85.7691 146.076 86.2988 147.001 86.2988C147.927 86.2988 149.213 85.2036 149.537 83.5249L150.296 79.6379L151.619 79.6289ZM154.331 85.9128C154.761 86.2105 155.284 86.3562 155.811 86.3257C157.542 86.3257 158.995 84.252 158.995 82.2591C158.995 81.4602 158.625 80.4638 157.496 80.4638C156.367 80.4638 155.117 81.6397 154.719 83.7583L154.331 85.8768V85.9128ZM152.128 90.2935L153.692 82.2861C153.859 81.3884 154.016 80.3471 154.136 79.593H155.395L155.173 81.0383C155.472 80.5766 155.879 80.1902 156.362 79.9109C156.844 79.6315 157.388 79.4672 157.949 79.4314C159.652 79.4314 160.364 80.7869 160.364 82.1783C160.364 84.8714 158.384 87.376 155.784 87.376C155.197 87.4066 154.613 87.2858 154.09 87.0259L153.461 90.3115L152.128 90.2935ZM163.187 84.1892C163.187 85.428 163.881 86.3257 165.038 86.3257C166.62 86.3257 167.814 84.3418 167.814 82.5733C167.814 81.6756 167.398 80.4548 165.963 80.4548C164.279 80.4548 163.141 82.4477 163.187 84.1892ZM169.193 82.5823C169.193 84.9253 167.481 87.358 164.853 87.358C164.434 87.3681 164.019 87.2928 163.632 87.1372C163.246 86.9815 162.898 86.749 162.61 86.4545C162.322 86.1601 162.101 85.8103 161.961 85.4278C161.822 85.0453 161.766 84.6386 161.799 84.2341C161.799 81.7385 163.594 79.4135 166.13 79.4135C166.553 79.4015 166.974 79.4769 167.365 79.6346C167.756 79.7924 168.108 80.0289 168.397 80.3285C168.687 80.628 168.908 80.9839 169.045 81.3725C169.182 81.761 169.232 82.1734 169.193 82.5823ZM177.189 76.6216L176.263 81.1101H181.307L182.177 76.6216H183.537L181.446 87.2054H180.104L181.029 82.2232H176.013L175.088 87.2054H173.746L175.847 76.6216H177.189ZM189.524 81.4153C189.524 80.7959 189.043 80.4548 188.331 80.4548C187.054 80.4548 186.1 81.6667 185.777 82.8606C187.877 82.8606 189.478 82.6003 189.478 81.4243L189.524 81.4153ZM189.821 86.8015C189.024 87.2135 188.132 87.4235 187.229 87.4119C185.156 87.4119 184.259 86.0295 184.259 84.3508C184.259 82.0616 186.008 79.4673 188.525 79.4673C188.811 79.4317 189.101 79.4554 189.377 79.5369C189.653 79.6184 189.908 79.7557 190.125 79.9399C190.342 80.124 190.516 80.3508 190.636 80.6052C190.756 80.8595 190.818 81.1356 190.82 81.4153C190.82 83.4082 188.507 83.9468 185.619 83.8929C185.551 84.38 185.605 84.8758 185.777 85.3382C185.925 85.6618 186.173 85.9334 186.485 86.1164C186.798 86.2994 187.161 86.385 187.526 86.3616C188.26 86.3537 188.981 86.1719 189.626 85.832L189.821 86.8015ZM191.829 87.2413L192.754 82.3399C192.949 81.3525 193.078 80.3471 193.161 79.6469H194.337C194.272 80.1765 194.207 80.7061 194.133 81.2896H194.179C194.363 80.801 194.685 80.3729 195.11 80.055C195.534 79.7372 196.042 79.5427 196.576 79.4942C196.699 79.4849 196.823 79.4849 196.946 79.4942L196.687 80.7779C196.567 80.771 196.447 80.771 196.326 80.7779C195.16 80.7779 194.133 82.1424 193.791 83.9109L193.143 87.2593L191.829 87.2413ZM199.362 79.6469L200.047 83.9737C200.158 84.8714 200.259 85.419 200.287 85.8409H200.333C200.5 85.437 200.713 84.9432 201.157 84.0455L203.517 79.6289H204.988L200.639 87.2234H199.352L197.964 79.6289L199.362 79.6469ZM211.096 80.6164C210.793 80.5439 210.483 80.5077 210.171 80.5086C208.153 80.5086 206.469 82.5644 206.469 84.665C206.469 85.5088 206.774 86.3436 207.811 86.3436C208.847 86.3436 210.254 84.9343 210.643 82.9055L211.096 80.6164ZM210.217 87.2413C210.217 86.7835 210.3 86.0654 210.393 85.2754C209.532 86.8464 208.468 87.4119 207.348 87.4119C207.026 87.4028 206.71 87.3289 206.419 87.1948C206.128 87.0607 205.869 86.8694 205.658 86.633C205.448 86.3967 205.29 86.1204 205.195 85.8218C205.101 85.5231 205.071 85.2087 205.109 84.8984C205.098 84.1994 205.229 83.5052 205.496 82.8557C205.762 82.2062 206.158 81.6141 206.661 81.1136C207.164 80.6131 207.764 80.214 208.427 79.9391C209.09 79.6643 209.802 79.5192 210.522 79.5122C211.234 79.5144 211.942 79.6173 212.623 79.8174L211.836 83.7673C211.592 84.9249 211.478 86.1047 211.494 87.2862L210.217 87.2413ZM213.808 87.2413L215.992 76.092H217.333L215.14 87.2413H213.808Z" fill="url(#paint0_linear_366_379)"/>
<path fill-rule="evenodd" clip-rule="evenodd" d="M93.2717 39.1494C90.8564 39.1494 88.3855 39.6072 88.3855 42.9826V45.0383C88.3855 47.5429 89.8014 48.8714 92.4944 48.8714H96.085C99.1297 48.8714 100.379 47.9019 100.379 45.5141V45.1101H98.6114V45.559C98.6114 46.7529 97.7693 47.3543 96.0295 47.3543H93.392C91.5412 47.3543 90.3104 46.9504 90.3104 44.9754V43.0364C90.3104 40.864 91.6152 40.6845 93.0867 40.6845H96.011C97.8063 40.6845 98.5004 41.1692 98.5004 42.426V42.7851H100.268V42.3901C100.268 40.2446 98.8243 39.1494 95.9925 39.1494H93.2717Z" fill="url(#paint1_linear_366_379)"/>
<path fill-rule="evenodd" clip-rule="evenodd" d="M124.958 39.1494C123.181 39.1494 121.941 39.4457 121.256 40.6037V39.293H119.489V48.7278H121.34V43.4045C121.34 41.4206 122.006 40.7114 125.773 40.7114H126.18C129.271 40.7114 129.52 41.6091 129.52 42.7941V48.7547H131.371V42.3901C131.371 41.1782 130.844 39.1494 127.299 39.1494H124.958Z" fill="url(#paint2_linear_366_379)"/>
<path fill-rule="evenodd" clip-rule="evenodd" d="M139.775 39.1494C136.175 39.1494 134.843 39.8137 134.843 41.6001V42.1387C134.843 43.9341 135.768 44.7241 138.054 44.7241H142.959C144.856 44.7241 144.985 45.1909 144.985 45.945C144.985 47.2287 144.458 47.3364 141.978 47.3364H138.572C136.823 47.3364 136.471 46.7798 136.471 45.8731V45.2896H134.704V45.9809C134.704 48.8714 137.091 48.8714 139.405 48.8714H142.329C144.023 48.8714 146.855 48.8714 146.855 46.0796C146.855 43.2878 145.059 43.189 142.7 43.189H138.498C136.842 43.189 136.712 42.7492 136.712 42.1387V41.7976C136.712 40.8999 137.036 40.6845 139.349 40.6845H142.126C143.903 40.6845 144.689 40.7294 144.689 41.9772V42.1118L144.828 42.2016H146.457V41.6091C146.457 40.1459 145.735 39.1763 142.218 39.1763L139.775 39.1494Z" fill="url(#paint3_linear_366_379)"/>
<path fill-rule="evenodd" clip-rule="evenodd" d="M157.468 34.5646L154.498 38.1554H156.034C156.136 38.1554 159.541 34.798 159.541 34.798L159.782 34.5557L157.468 34.5646Z" fill="url(#paint4_linear_366_379)"/>
<path fill-rule="evenodd" clip-rule="evenodd" d="M170.85 39.1513C170.309 39.1135 169.768 39.2149 169.281 39.445C168.793 39.6751 168.377 40.0259 168.074 40.4619V39.2949H166.306V48.7296H168.157V42.769C168.153 42.476 168.214 42.1858 168.336 41.9177C168.458 41.6497 168.638 41.4101 168.863 41.2152C169.089 41.0203 169.355 40.8747 169.643 40.7881C169.932 40.7015 170.236 40.676 170.535 40.7132H171.516C174.293 40.7132 174.691 41.0095 174.691 43.1999V43.7295H176.449V42.5086C176.449 40.1208 175.301 39.1961 172.349 39.1961L170.85 39.1513Z" fill="url(#paint5_linear_366_379)"/>
<path fill-rule="evenodd" clip-rule="evenodd" d="M183.445 39.1494C181.03 39.1494 178.559 39.6072 178.559 42.9826V45.0383C178.559 47.5429 179.975 48.8714 182.668 48.8714H186.259C189.303 48.8714 190.553 47.9019 190.553 45.5141V45.1101H188.785V45.559C188.785 46.7529 187.934 47.3543 186.203 47.3543H183.519C181.669 47.3543 180.438 46.9504 180.438 44.9754V43.0364C180.438 40.864 181.743 40.6845 183.214 40.6845H186.138C187.924 40.6845 188.628 41.1692 188.628 42.426V42.7851H190.386V42.3901C190.386 40.2446 188.952 39.1494 186.12 39.1494H183.445Z" fill="url(#paint6_linear_366_379)"/>
<path fill-rule="evenodd" clip-rule="evenodd" d="M193.857 35.4521V37.4181H195.735V35.4521H193.857Z" fill="url(#paint7_linear_366_379)"/>
<path fill-rule="evenodd" clip-rule="evenodd" d="M193.857 39.2959V48.7307H195.735V39.2959H193.857Z" fill="url(#paint8_linear_366_379)"/>
<path fill-rule="evenodd" clip-rule="evenodd" d="M206.923 39.1494H204.646C202.157 39.1494 199.279 39.5893 199.279 43.0005V45.0203C199.279 48.4405 202.157 48.8714 204.646 48.8714H206.923C209.421 48.8714 212.29 48.4405 212.29 45.0203V43.0005C212.29 39.5893 209.421 39.1494 206.923 39.1494ZM210.411 44.9306C210.411 46.9324 209.264 47.3364 207.404 47.3364H204.165C202.314 47.3364 201.157 46.9324 201.157 44.9306V43.0903C201.157 41.0884 202.314 40.6845 204.165 40.6845H207.404C209.255 40.6845 210.411 41.0884 210.411 43.0903V44.9306Z" fill="url(#paint9_linear_366_379)"/>
<path fill-rule="evenodd" clip-rule="evenodd" d="M157.478 39.1494H155.201C152.703 39.1494 149.834 39.5893 149.834 43.0005V45.0203C149.834 48.4405 152.703 48.8714 155.201 48.8714H157.478C159.977 48.8714 162.845 48.4405 162.845 45.0203V43.0005C162.845 39.5893 159.977 39.1494 157.478 39.1494ZM160.948 44.9306C160.948 46.9324 159.801 47.3364 157.941 47.3364H154.702C152.851 47.3364 151.694 46.9324 151.694 44.9306V43.0903C151.694 41.0884 152.841 40.6845 154.702 40.6845H157.941C159.791 40.6845 160.948 41.0884 160.948 43.0903V44.9306Z" fill="url(#paint10_linear_366_379)"/>
<path fill-rule="evenodd" clip-rule="evenodd" d="M110.79 39.1494H108.514C106.015 39.1494 103.146 39.5893 103.146 43.0005V45.0203C103.146 48.4405 106.015 48.8714 108.514 48.8714H110.79C113.289 48.8714 116.158 48.4405 116.158 45.0203V43.0005C116.158 39.5893 113.289 39.1494 110.79 39.1494ZM114.279 44.9306C114.279 46.9324 113.132 47.3364 111.272 47.3364H108.033C106.182 47.3364 105.025 46.9324 105.025 44.9306V43.0903C105.025 41.0884 106.173 40.6845 108.033 40.6845H111.272C113.123 40.6845 114.279 41.0884 114.279 43.0903V44.9306Z" fill="url(#paint11_linear_366_379)"/>
<path fill-rule="evenodd" clip-rule="evenodd" d="M220.332 39.1494C216.732 39.1494 215.4 39.8137 215.4 41.6001V42.1387C215.4 43.9341 216.325 44.7241 218.611 44.7241H223.516C225.367 44.7241 225.542 45.1909 225.542 45.945C225.542 47.2287 225.015 47.3364 222.535 47.3364H219.129C217.38 47.3364 217.029 46.7798 217.029 45.8731V45.2896H215.261V45.9809C215.261 48.8714 217.649 48.8714 219.962 48.8714H222.886C224.58 48.8714 227.421 48.8714 227.421 46.0796C227.421 43.2878 225.57 43.189 223.257 43.189H219.055C217.399 43.189 217.269 42.7492 217.269 42.1387V41.7976C217.269 40.8999 217.602 40.6845 219.907 40.6845H222.683C224.46 40.6845 225.246 40.7294 225.246 41.9772V42.1118L225.385 42.2016H227.014V41.6091C227.014 40.1459 226.292 39.1763 222.775 39.1763L220.332 39.1494Z" fill="url(#paint12_linear_366_379)"/>
<path fill-rule="evenodd" clip-rule="evenodd" d="M85.4895 12.5167C63.6587 -0.814019 19.9047 -0.984581 7.05058 1.65464C1.97925 2.69596 0.433796 6.29572 0.942779 11.3318C2.46047 26.2515 28.2705 49.5646 53.5994 55.4983C56.3016 56.1357 62.5482 56.2703 66.2592 54.2954C77.1699 48.4963 85.582 38.1369 89.3948 25.659C91.7083 17.9298 90.1906 15.3804 85.4895 12.5167ZM56.5793 39.0346H52.8776V31.7364H39.718V39.0526H36.0163V20.4524H39.718V28.5316H52.8498V20.4524H56.5515L56.5793 39.0346ZM71.9043 39.277H60.392V36.1171H71.349C75.2265 36.1171 75.717 35.8927 75.717 34.0434C75.717 33.0111 75.717 32.248 72.876 32.248H65.232C61.5303 32.248 59.9015 30.8476 59.9015 27.589V26.6913C59.9015 23.4955 62.1503 22.2477 67.9157 22.2477H78.9467V25.4525H67.2494C63.4552 25.4525 63.4552 25.9193 63.4552 27.0594V27.6429C63.4552 28.4688 63.4552 29.1331 65.926 29.1331H72.478C76.1797 29.1331 79.2706 29.5191 79.2706 34.3038C79.2706 39.277 74.477 39.277 71.9043 39.277Z" fill="url(#paint13_linear_366_379)"/>
<defs>
<linearGradient id="paint0_linear_366_379" x1="-39.1407" y1="68.0161" x2="188.068" y2="201.486" gradientUnits="userSpaceOnUse">
<stop stop-color="#F8B179"/>
<stop offset="0.365248" stop-color="#7C5333"/>
<stop offset="1" stop-color="#F8B179"/>
</linearGradient>
<linearGradient id="paint1_linear_366_379" x1="85.4768" y1="33.6583" x2="103.19" y2="34.5464" gradientUnits="userSpaceOnUse">
<stop stop-color="#F8B179"/>
<stop offset="0.365248" stop-color="#7C5333"/>
<stop offset="1" stop-color="#F8B179"/>
</linearGradient>
<linearGradient id="paint2_linear_366_379" x1="116.607" y1="33.7242" x2="134.156" y2="34.6066" gradientUnits="userSpaceOnUse">
<stop stop-color="#F8B179"/>
<stop offset="0.365248" stop-color="#7C5333"/>
<stop offset="1" stop-color="#F8B179"/>
</linearGradient>
<linearGradient id="paint3_linear_366_379" x1="131.757" y1="33.6583" x2="149.701" y2="34.5698" gradientUnits="userSpaceOnUse">
<stop stop-color="#F8B179"/>
<stop offset="0.365248" stop-color="#7C5333"/>
<stop offset="1" stop-color="#F8B179"/>
</linearGradient>
<linearGradient id="paint4_linear_366_379" x1="153.216" y1="32.5225" x2="161.012" y2="32.9876" gradientUnits="userSpaceOnUse">
<stop stop-color="#F8B179"/>
<stop offset="0.365248" stop-color="#7C5333"/>
<stop offset="1" stop-color="#F8B179"/>
</linearGradient>
<linearGradient id="paint5_linear_366_379" x1="163.846" y1="33.7292" x2="178.836" y2="34.3738" gradientUnits="userSpaceOnUse">
<stop stop-color="#F8B179"/>
<stop offset="0.365248" stop-color="#7C5333"/>
<stop offset="1" stop-color="#F8B179"/>
</linearGradient>
<linearGradient id="paint6_linear_366_379" x1="175.65" y1="33.6583" x2="193.363" y2="34.5464" gradientUnits="userSpaceOnUse">
<stop stop-color="#F8B179"/>
<stop offset="0.365248" stop-color="#7C5333"/>
<stop offset="1" stop-color="#F8B179"/>
</linearGradient>
<linearGradient id="paint7_linear_366_379" x1="193.401" y1="34.3417" x2="196.178" y2="34.4496" gradientUnits="userSpaceOnUse">
<stop stop-color="#F8B179"/>
<stop offset="0.365248" stop-color="#7C5333"/>
<stop offset="1" stop-color="#F8B179"/>
</linearGradient>
<linearGradient id="paint8_linear_366_379" x1="193.401" y1="33.967" x2="196.182" y2="33.9895" gradientUnits="userSpaceOnUse">
<stop stop-color="#F8B179"/>
<stop offset="0.365248" stop-color="#7C5333"/>
<stop offset="1" stop-color="#F8B179"/>
</linearGradient>
<linearGradient id="paint9_linear_366_379" x1="196.123" y1="33.6583" x2="215.331" y2="34.7031" gradientUnits="userSpaceOnUse">
<stop stop-color="#F8B179"/>
<stop offset="0.365248" stop-color="#7C5333"/>
<stop offset="1" stop-color="#F8B179"/>
</linearGradient>
<linearGradient id="paint10_linear_366_379" x1="146.678" y1="33.6583" x2="165.886" y2="34.7031" gradientUnits="userSpaceOnUse">
<stop stop-color="#F8B179"/>
<stop offset="0.365248" stop-color="#7C5333"/>
<stop offset="1" stop-color="#F8B179"/>
</linearGradient>
<linearGradient id="paint11_linear_366_379" x1="99.9909" y1="33.6583" x2="119.199" y2="34.7031" gradientUnits="userSpaceOnUse">
<stop stop-color="#F8B179"/>
<stop offset="0.365248" stop-color="#7C5333"/>
<stop offset="1" stop-color="#F8B179"/>
</linearGradient>
<linearGradient id="paint12_linear_366_379" x1="212.312" y1="33.6583" x2="230.269" y2="34.5712" gradientUnits="userSpaceOnUse">
<stop stop-color="#F8B179"/>
<stop offset="0.365248" stop-color="#7C5333"/>
<stop offset="1" stop-color="#F8B179"/>
</linearGradient>
<linearGradient id="paint13_linear_366_379" x1="-20.8819" y1="-31.0874" x2="111.227" y2="-22.4334" gradientUnits="userSpaceOnUse">
<stop stop-color="#F8B179"/>
<stop offset="0.365248" stop-color="#7C5333"/>
<stop offset="1" stop-color="#F8B179"/>
</linearGradient>
</defs>
</svg>
