<svg width="179" height="74" viewBox="0 0 179 74" fill="none" xmlns="http://www.w3.org/2000/svg">
<path d="M10.5498 62.358L9.5892 67.4523C9.52045 67.8097 9.48391 68.1726 9.48004 68.5366C9.44894 68.7558 9.46822 68.9791 9.53642 69.1897C9.60462 69.4002 9.71994 69.5924 9.87361 69.7517C10.0273 69.911 10.2153 70.0332 10.4232 70.1089C10.6312 70.1846 10.8537 70.2119 11.0738 70.1886C12.2455 70.1886 13.1115 69.3954 13.4681 67.4814L14.4433 62.3871H15.4985L14.5233 67.4814C14.0285 70.0576 12.7549 71.091 10.9355 71.091C10.5963 71.1231 10.2541 71.0794 9.93375 70.9631C9.61343 70.8467 9.32297 70.6606 9.08338 70.4183C8.8438 70.1759 8.66107 69.8833 8.54843 69.5617C8.43579 69.24 8.39605 68.8974 8.43208 68.5585C8.43364 68.1606 8.47017 67.7637 8.54124 67.3722L9.49459 62.358H10.5498ZM16.0007 70.9528L16.823 66.5863C16.954 65.9022 17.0414 65.3054 17.1069 64.796H18.0311L17.8637 65.9531H17.9074C18.1313 65.569 18.4491 65.2479 18.8309 65.0201C19.2128 64.7923 19.6462 64.6651 20.0906 64.6504C20.2791 64.6339 20.469 64.6575 20.6477 64.7197C20.8264 64.7818 20.9899 64.8812 21.1274 65.0111C21.265 65.1411 21.3734 65.2987 21.4455 65.4736C21.5177 65.6485 21.552 65.8368 21.5461 66.0259C21.7688 65.6223 22.0924 65.2833 22.4853 65.0422C22.8782 64.8012 23.3269 64.6662 23.7876 64.6504C23.993 64.6492 24.1963 64.6914 24.3842 64.7744C24.5721 64.8573 24.7403 64.9791 24.8778 65.1317C25.0153 65.2843 25.1189 65.4643 25.1819 65.6598C25.2448 65.8553 25.2657 66.0619 25.2431 66.2661C25.2396 66.6177 25.2055 66.9683 25.1412 67.314L24.4571 70.9528H23.4383L24.1005 67.4013C24.1563 67.1381 24.1856 66.8699 24.1879 66.6008C24.1879 65.9531 23.9477 65.531 23.2636 65.531C22.5795 65.531 21.6044 66.4189 21.3351 67.7943L20.7383 70.9528H19.7268L20.4108 67.314C20.4598 67.0744 20.4866 66.8308 20.4909 66.5863C20.4909 66.0696 20.3453 65.531 19.5739 65.531C18.8025 65.531 17.8419 66.5499 17.6017 67.8598L17.0268 70.9528H16.0007ZM31.2834 65.582C31.0455 65.5223 30.801 65.493 30.5557 65.4946C28.9619 65.4946 27.6447 67.1612 27.6447 68.8641C27.6447 69.5482 27.8921 70.225 28.7072 70.225C29.5223 70.225 30.6212 69.0824 30.8904 67.4377L31.247 65.582H31.2834ZM30.5993 70.9528C30.5993 70.5816 30.6648 69.9994 30.7376 69.359C30.0535 70.6326 29.2166 71.091 28.336 71.091C28.0823 71.0847 27.8326 71.0254 27.603 70.9172C27.3733 70.8089 27.1688 70.654 27.0024 70.4622C26.836 70.2705 26.7114 70.0462 26.6365 69.8036C26.5617 69.561 26.5382 69.3055 26.5676 69.0533C26.5599 68.4863 26.6642 67.9234 26.8746 67.3968C27.0849 66.8702 27.3971 66.3903 27.7933 65.9847C28.1895 65.579 28.6619 65.2555 29.1834 65.0328C29.7049 64.8101 30.2652 64.6925 30.8322 64.6868C31.3919 64.6895 31.9483 64.7728 32.4842 64.9343L31.8584 68.1364C31.672 69.0756 31.5842 70.0317 31.5964 70.9892L30.5993 70.9528ZM40.1911 66.2588C40.1911 65.7566 39.8127 65.4801 39.245 65.4801C38.2407 65.4801 37.4911 66.4625 37.2364 67.4305C38.8884 67.4305 40.1911 67.2194 40.1911 66.2661V66.2588ZM40.4167 70.6253C39.7923 70.9584 39.0939 71.1286 38.3863 71.1201C36.7561 71.1201 36.0429 69.9994 36.0429 68.6385C36.0429 66.7828 37.4184 64.6796 39.3978 64.6796C39.624 64.6443 39.8551 64.6577 40.0756 64.7188C40.2962 64.78 40.5011 64.8876 40.6768 65.0343C40.8525 65.181 40.9948 65.3636 41.0943 65.5697C41.1937 65.7758 41.2481 66.0008 41.2536 66.2297C41.2536 67.8453 39.4342 68.2819 37.1564 68.2383C37.1063 68.6331 37.1486 69.0342 37.2801 69.4099C37.3979 69.6716 37.5926 69.8912 37.8383 70.0394C38.0841 70.1876 38.3691 70.2575 38.6555 70.2396C39.2354 70.2341 39.8051 70.0866 40.3148 69.8102L40.4604 70.5962L40.4167 70.6253ZM41.9959 70.9819L42.8256 66.6154C42.9493 65.9313 43.0439 65.3345 43.1021 64.8251H44.0336L43.8662 65.9822C44.0917 65.5994 44.4099 65.2795 44.7914 65.0519C45.1729 64.8242 45.6055 64.6962 46.0495 64.6796C46.238 64.663 46.4278 64.6866 46.6065 64.7488C46.7853 64.8109 46.9488 64.9103 47.0863 65.0402C47.2238 65.1702 47.3322 65.3278 47.4044 65.5027C47.4766 65.6777 47.5108 65.8659 47.505 66.055C47.7289 65.6478 48.0558 65.3064 48.453 65.0651C48.8501 64.8237 49.3037 64.6908 49.7683 64.6796C49.9737 64.6783 50.177 64.7205 50.3649 64.8035C50.5528 64.8864 50.721 65.0082 50.8585 65.1608C50.996 65.3134 51.0996 65.4934 51.1626 65.6889C51.2255 65.8844 51.2464 66.091 51.2238 66.2952C51.2193 66.6464 51.1876 66.9968 51.1292 67.3431L50.4378 70.9819H49.4553L50.1176 67.4305C50.1698 67.1666 50.199 66.8988 50.2049 66.6299C50.2049 65.9822 49.9648 65.5601 49.2734 65.5601C48.5821 65.5601 47.6069 66.448 47.3522 67.8234L46.7554 70.9819H45.7365L46.4643 67.3431C46.511 67.1033 46.5354 66.8597 46.5371 66.6154C46.5371 66.0987 46.3988 65.5601 45.6201 65.5601C44.8414 65.5601 43.8953 66.579 43.6479 67.8889L43.0803 70.9819H41.9959ZM53.7127 69.9485C54.0539 70.1898 54.4671 70.3079 54.8844 70.2832C56.2453 70.2832 57.3878 68.6021 57.3878 66.9865C57.3878 66.3388 57.0967 65.531 56.2089 65.531C55.321 65.531 54.3531 66.4844 54.0329 68.18L53.7272 69.8975L53.7127 69.9485ZM51.9806 73.4999L53.2178 67.0084C53.3415 66.2806 53.4725 65.4364 53.5599 64.8251H54.5278L54.3531 65.9531C54.5881 65.5788 54.9085 65.2656 55.288 65.0391C55.6675 64.8127 56.0954 64.6795 56.5364 64.6504C57.8754 64.6504 58.4285 65.7494 58.4285 66.8774C58.4285 69.0606 56.8784 71.091 54.8334 71.091C54.37 71.1147 53.9084 71.0169 53.4944 70.8072L52.9995 73.4708L51.9806 73.4999ZM59.4474 70.9528L60.1751 66.9792C60.3279 66.1787 60.4298 65.3636 60.4953 64.796H61.4268C61.3686 65.2254 61.325 65.6547 61.2595 66.1278C61.4037 65.7316 61.6573 65.3846 61.991 65.1269C62.3247 64.8693 62.7246 64.7116 63.1443 64.6723C63.2412 64.6647 63.3386 64.6647 63.4354 64.6723L63.2317 65.713C63.1396 65.7073 63.0472 65.7073 62.9551 65.713C62.0382 65.713 61.2231 66.8191 60.9538 68.2528L60.4444 70.9673L59.4474 70.9528ZM67.882 66.2588C67.882 65.7566 67.5036 65.4801 66.9432 65.4801C65.9316 65.4801 65.1893 66.4625 64.9346 67.4305C66.5866 67.4305 67.8456 67.2194 67.8456 66.2661L67.882 66.2588ZM68.1076 70.6253C67.4835 70.9593 66.7849 71.1296 66.0772 71.1201C64.447 71.1201 63.7338 69.9994 63.7338 68.6385C63.7338 66.7828 65.1093 64.6796 67.096 64.6796C67.319 64.6498 67.5458 64.6675 67.7616 64.7313C67.9774 64.7951 68.1773 64.9037 68.3482 65.0499C68.5192 65.1962 68.6574 65.3769 68.7539 65.5801C68.8504 65.7834 68.9029 66.0047 68.9081 66.2297C68.9081 67.8453 67.0887 68.2819 64.8109 68.2383C64.7598 68.6337 64.8047 69.0356 64.9419 69.4099C65.0575 69.6717 65.2508 69.8916 65.4955 70.04C65.7401 70.1884 66.0245 70.258 66.31 70.2396C66.8899 70.2341 67.4596 70.0866 67.9693 69.8102L68.1149 70.5962L68.1076 70.6253ZM69.7378 69.8975C70.1416 70.1302 70.5964 70.2602 71.0623 70.276C71.2059 70.291 71.3511 70.2765 71.489 70.2336C71.6269 70.1906 71.7545 70.1199 71.8642 70.0259C71.9738 69.9319 72.0632 69.8166 72.1268 69.6869C72.1903 69.5572 72.2268 69.4159 72.2339 69.2717C72.2339 68.7913 72.0156 68.5002 71.3825 68.1436C71.0714 68.0099 70.803 67.7932 70.6066 67.5173C70.4102 67.2413 70.2935 66.9168 70.269 66.579C70.281 66.2989 70.3508 66.0242 70.4741 65.7724C70.5975 65.5206 70.7716 65.2971 70.9856 65.1159C71.1996 64.9347 71.4488 64.7998 71.7175 64.7197C71.9862 64.6396 72.2686 64.616 72.5469 64.6504C72.9966 64.6368 73.4417 64.7449 73.835 64.9634L73.5439 65.7566C73.2157 65.5772 72.8481 65.4822 72.4741 65.4801C72.3404 65.465 72.205 65.4775 72.0764 65.5169C71.9477 65.5563 71.8285 65.6217 71.7262 65.709C71.6238 65.7963 71.5405 65.9038 71.4814 66.0246C71.4223 66.1455 71.3886 66.2772 71.3825 66.4116C71.3825 66.8555 71.6736 67.1394 72.2194 67.4377C72.5398 67.578 72.8164 67.8021 73.0201 68.0864C73.2238 68.3708 73.3469 68.7048 73.3765 69.0533C73.3765 70.3487 72.3213 71.091 71.0259 71.091C70.4849 71.0969 69.9538 70.9452 69.4976 70.6544L69.7887 69.883L69.7378 69.8975ZM79.4532 65.5965C79.2153 65.5369 78.9708 65.5075 78.7255 65.5092C77.1317 65.5092 75.8145 67.1757 75.8145 68.8787C75.8145 69.5628 76.0546 70.2396 76.8697 70.2396C77.6848 70.2396 78.791 69.097 79.0966 67.4523L79.4459 65.5965H79.4532ZM78.7691 70.9673C78.7896 70.4339 78.8382 69.9019 78.9147 69.3735C78.2379 70.6471 77.401 71.1056 76.5204 71.1056C76.2634 71.1024 76.0099 71.0451 75.7765 70.9373C75.5432 70.8294 75.3352 70.6736 75.1663 70.4799C74.9973 70.2862 74.8711 70.059 74.7959 69.8131C74.7208 69.5673 74.6983 69.3084 74.7301 69.0533C74.7224 68.4863 74.8267 67.9234 75.0371 67.3968C75.2474 66.8702 75.5596 66.3903 75.9558 65.9847C76.352 65.579 76.8244 65.2555 77.3459 65.0328C77.8674 64.8101 78.4277 64.6925 78.9947 64.6868C79.5544 64.6895 80.1108 64.7728 80.6467 64.9343L80.0281 68.1364C79.8398 69.0754 79.7496 70.0315 79.7589 70.9892L78.7691 70.9673ZM88.9576 65.7712C88.6477 65.5947 88.2953 65.5066 87.9388 65.5165C86.4833 65.5165 85.3189 67.0811 85.3189 68.7258C85.3189 69.4536 85.5736 70.2396 86.476 70.2396C87.3784 70.2396 88.2736 69.3153 88.5355 67.9253L88.9576 65.7421V65.7712ZM90.7406 61.9214L89.3943 69.0024C89.2612 69.6458 89.1712 70.2974 89.125 70.9528H88.1571L88.3245 69.7301C88.1089 70.1261 87.7946 70.4595 87.412 70.6979C87.0294 70.9364 86.5916 71.0718 86.1412 71.091C84.9477 71.091 84.3 70.1086 84.3 68.8496C84.3 66.6663 85.9229 64.6504 88.0989 64.6504C88.4763 64.6473 88.8503 64.7216 89.1978 64.8688L89.7436 61.9578L90.7406 61.9214ZM92.3053 68.5221C92.3053 69.5264 92.8511 70.2541 93.7608 70.2541C95.0052 70.2541 95.944 68.6458 95.944 67.2121C95.9704 67.0021 95.9529 66.789 95.8925 66.5861C95.8322 66.3832 95.7304 66.1951 95.5936 66.0336C95.4567 65.8722 95.2879 65.7409 95.0976 65.6481C94.9074 65.5553 94.7 65.5031 94.4885 65.4946C93.164 65.4946 92.3053 67.1102 92.3053 68.5221ZM97.0284 67.2194C97.0284 69.1188 95.6748 71.091 93.6152 71.091C93.2858 71.1002 92.958 71.04 92.6534 70.9143C92.3487 70.7885 92.0738 70.6002 91.8467 70.3613C91.6195 70.1225 91.4451 69.8386 91.3348 69.528C91.2245 69.2174 91.1807 68.8871 91.2064 68.5585C91.2064 66.5353 92.6182 64.6504 94.6195 64.6504C94.9523 64.6408 95.2834 64.7019 95.5908 64.8297C95.8982 64.9576 96.175 65.1494 96.4027 65.3922C96.6305 65.6351 96.804 65.9236 96.9119 66.2386C97.0197 66.5536 97.0594 66.8879 97.0284 67.2194ZM106.933 70.5816C106.163 70.881 105.344 71.0364 104.517 71.0401C104 71.0764 103.482 70.9995 102.998 70.8148C102.514 70.63 102.076 70.3418 101.715 69.9703C101.122 69.2684 100.81 68.3709 100.842 67.4523C100.823 66.7676 100.944 66.0863 101.198 65.4501C101.451 64.814 101.833 64.2365 102.318 63.7532C102.803 63.2699 103.383 62.891 104.02 62.6398C104.657 62.3886 105.339 62.2704 106.023 62.2925C106.719 62.2599 107.412 62.3921 108.047 62.6782L107.704 63.5734C107.139 63.3152 106.522 63.1883 105.9 63.2022C104.913 63.1924 103.961 63.5654 103.243 64.2429C102.832 64.6562 102.507 65.1467 102.286 65.6863C102.064 66.2258 101.952 66.8037 101.955 67.3868C101.955 69.0461 102.785 70.1377 104.692 70.1377C105.14 70.1443 105.586 70.0601 106.002 69.8902L106.482 67.3358H104.743L104.91 66.4771H107.675L106.904 70.5816H106.933ZM108.767 70.9528L109.495 66.9792C109.648 66.1787 109.749 65.3636 109.815 64.796H110.739C110.688 65.2254 110.637 65.6547 110.572 66.1278C110.718 65.7331 110.973 65.3874 111.306 65.13C111.639 64.8727 112.038 64.7141 112.457 64.6723C112.556 64.6644 112.656 64.6644 112.755 64.6723L112.573 65.7202C112.479 65.7146 112.384 65.7146 112.289 65.7202C111.372 65.7202 110.557 66.8264 110.295 68.2601L109.786 70.9746L108.767 70.9528ZM119.065 64.796L118.242 69.1625C118.111 69.8902 118.024 70.4506 117.966 70.96H117.005L117.173 69.8029C116.939 70.1783 116.619 70.492 116.239 70.7175C115.859 70.943 115.43 71.0736 114.989 71.0983C114.196 71.0983 113.366 70.7199 113.366 69.3153C113.376 68.9682 113.415 68.6225 113.483 68.2819L114.145 64.8033H115.2L114.553 68.2383C114.482 68.5342 114.443 68.8366 114.436 69.1407C114.436 69.7738 114.705 70.2032 115.433 70.2032C116.161 70.2032 117.173 69.3153 117.427 67.9544L118.024 64.8033L119.065 64.796ZM121.197 69.8902C121.535 70.1316 121.946 70.2497 122.361 70.225C123.722 70.225 124.865 68.5439 124.865 66.9283C124.865 66.2806 124.574 65.4728 123.686 65.4728C122.798 65.4728 121.816 66.4262 121.503 68.1436L121.197 69.8611V69.8902ZM119.465 73.4417L120.695 66.9501C120.826 66.2224 120.95 65.3782 121.044 64.7669H122.034L121.859 65.9386C122.094 65.5643 122.415 65.251 122.794 65.0246C123.174 64.7981 123.601 64.6649 124.042 64.6359C125.382 64.6359 125.942 65.7348 125.942 66.8628C125.942 69.0461 124.385 71.0765 122.34 71.0765C121.878 71.1013 121.419 71.0033 121.008 70.7927L120.513 73.4562L119.465 73.4417ZM128.162 68.493C128.162 69.4973 128.707 70.225 129.617 70.225C130.861 70.225 131.8 68.6167 131.8 67.183C131.8 66.4553 131.473 65.4655 130.345 65.4655C129.02 65.4655 128.125 67.0811 128.162 68.493ZM132.885 67.1903C132.885 69.0897 131.538 71.0619 129.471 71.0619C129.143 71.0701 128.816 71.0091 128.512 70.8829C128.208 70.7567 127.934 70.5682 127.708 70.3295C127.481 70.0908 127.308 69.8072 127.198 69.4971C127.088 69.187 127.044 68.8573 127.07 68.5294C127.07 66.5062 128.482 64.6213 130.476 64.6213C130.809 64.6116 131.14 64.6728 131.447 64.8006C131.754 64.9285 132.031 65.1202 132.259 65.3631C132.487 65.606 132.66 65.8945 132.768 66.2095C132.876 66.5245 132.916 66.8588 132.885 67.1903ZM139.172 62.358L138.445 65.9968H142.411L143.095 62.358H144.165L142.52 70.9382H141.465L142.193 66.8992H138.248L137.52 70.9382H136.465L138.117 62.358H139.172ZM148.873 66.2442C148.873 65.7421 148.495 65.4655 147.935 65.4655C146.93 65.4655 146.181 66.448 145.926 67.4159C147.578 67.4159 148.837 67.2049 148.837 66.2515L148.873 66.2442ZM149.106 70.6107C148.48 70.9448 147.779 71.115 147.068 71.1056C145.438 71.1056 144.732 69.9849 144.732 68.624C144.732 66.7682 146.108 64.665 148.087 64.665C148.312 64.6361 148.541 64.6554 148.758 64.7214C148.974 64.7875 149.175 64.8988 149.345 65.0481C149.516 65.1974 149.653 65.3812 149.747 65.5874C149.842 65.7936 149.891 66.0175 149.892 66.2442C149.892 67.8598 148.073 68.2965 145.802 68.2528C145.749 68.6476 145.791 69.0496 145.926 69.4245C146.043 69.6868 146.237 69.907 146.483 70.0553C146.729 70.2037 147.015 70.2731 147.301 70.2541C147.879 70.2477 148.446 70.1003 148.953 69.8248L149.106 70.6107ZM150.685 70.9673L151.413 66.9938C151.566 66.1933 151.668 65.3782 151.733 64.8106H152.658C152.607 65.2399 152.556 65.6693 152.497 66.1423H152.534C152.678 65.7462 152.932 65.3991 153.265 65.1415C153.599 64.8838 153.999 64.7262 154.419 64.6868C154.516 64.6793 154.613 64.6793 154.71 64.6868L154.506 65.7275C154.412 65.7219 154.317 65.7219 154.222 65.7275C153.305 65.7275 152.498 66.8337 152.228 68.2674L151.719 70.9819L150.685 70.9673ZM156.609 64.8106L157.148 68.3183C157.235 69.0461 157.315 69.49 157.337 69.832H157.373C157.504 69.5045 157.672 69.1043 158.021 68.3765L159.877 64.796H161.034L157.614 70.9528H156.602L155.51 64.796L156.609 64.8106ZM165.837 65.5965C165.599 65.5378 165.355 65.5084 165.109 65.5092C163.523 65.5092 162.198 67.1757 162.198 68.8787C162.198 69.5628 162.439 70.2396 163.254 70.2396C164.069 70.2396 165.175 69.097 165.481 67.4523L165.837 65.5965ZM165.146 70.9673C165.146 70.5962 165.211 70.014 165.284 69.3735C164.607 70.6471 163.77 71.1056 162.89 71.1056C162.637 71.0982 162.388 71.0383 162.159 70.9296C161.93 70.8209 161.727 70.6658 161.561 70.4742C161.395 70.2825 161.271 70.0586 161.197 69.8165C161.123 69.5744 161.099 69.3195 161.129 69.0679C161.12 68.5012 161.223 67.9385 161.433 67.4119C161.642 66.8854 161.954 66.4054 162.35 65.9996C162.745 65.5939 163.217 65.2703 163.738 65.0475C164.259 64.8247 164.819 64.7071 165.386 64.7014C165.946 64.7032 166.502 64.7866 167.038 64.9488L166.419 68.1509C166.227 69.0894 166.137 70.0459 166.15 71.0037L165.146 70.9673ZM167.969 70.9673L169.687 61.9287H170.742L169.017 70.9673H167.969Z" fill="white"/>
<path fill-rule="evenodd" clip-rule="evenodd" d="M73.1802 31.9814C71.2807 31.9814 69.3376 32.3526 69.3376 35.0889V36.7555C69.3376 38.7859 70.4511 39.863 72.5689 39.863H75.3925C77.7868 39.863 78.7693 39.077 78.7693 37.1412V36.8137H77.3793V37.1776C77.3793 38.1455 76.717 38.6331 75.3489 38.6331H73.2748C71.8193 38.6331 70.8514 38.3056 70.8514 36.7045V35.1326C70.8514 33.3714 71.8775 33.2259 73.0346 33.2259H75.3343C76.7461 33.2259 77.292 33.6189 77.292 34.6377V34.9288H78.682V34.6086C78.682 32.8693 77.5467 31.9814 75.3198 31.9814H73.1802Z" fill="white"/>
<path fill-rule="evenodd" clip-rule="evenodd" d="M98.0982 31.9814C96.701 31.9814 95.7258 32.2216 95.1872 33.1604V32.0979H93.7972V39.7465H95.2527V35.431C95.2527 33.8227 95.7767 33.2477 98.7387 33.2477H99.0589C101.49 33.2477 101.686 33.9755 101.686 34.9361V39.7684H103.142V34.6086C103.142 33.6262 102.727 31.9814 99.9395 31.9814H98.0982Z" fill="white"/>
<path fill-rule="evenodd" clip-rule="evenodd" d="M109.749 31.9814C106.918 31.9814 105.87 32.52 105.87 33.9682V34.4049C105.87 35.8604 106.598 36.5008 108.395 36.5008H112.252C113.744 36.5008 113.846 36.8792 113.846 37.4905C113.846 38.5312 113.431 38.6185 111.481 38.6185H108.803C107.427 38.6185 107.151 38.1673 107.151 37.4323V36.9593H105.761V37.5196C105.761 39.863 107.638 39.863 109.458 39.863H111.757C113.089 39.863 115.316 39.863 115.316 37.5997C115.316 35.3364 113.904 35.2563 112.048 35.2563H108.744C107.442 35.2563 107.34 34.8997 107.34 34.4049V34.1283C107.34 33.4006 107.595 33.2259 109.414 33.2259H111.597C112.994 33.2259 113.613 33.2623 113.613 34.2739V34.383L113.722 34.4558H115.003V33.9755C115.003 32.7892 114.435 32.0033 111.67 32.0033L109.749 31.9814Z" fill="white"/>
<path fill-rule="evenodd" clip-rule="evenodd" d="M123.663 28.2622L121.327 31.1732H122.535C122.615 31.1732 125.293 28.4514 125.293 28.4514L125.483 28.2549L123.663 28.2622Z" fill="white"/>
<path fill-rule="evenodd" clip-rule="evenodd" d="M134.186 31.9833C133.761 31.9527 133.335 32.0349 132.952 32.2214C132.568 32.408 132.241 32.6923 132.003 33.0458V32.0997H130.613V39.7484H132.068V34.9161C132.065 34.6787 132.113 34.4433 132.209 34.226C132.305 34.0087 132.446 33.8145 132.623 33.6565C132.801 33.4985 133.01 33.3805 133.237 33.3103C133.464 33.24 133.703 33.2194 133.938 33.2496H134.71C136.893 33.2496 137.206 33.4897 137.206 35.2654V35.6948H138.589V34.7051C138.589 32.7693 137.686 32.0197 135.365 32.0197L134.186 31.9833Z" fill="white"/>
<path fill-rule="evenodd" clip-rule="evenodd" d="M144.091 31.9814C142.192 31.9814 140.249 32.3526 140.249 35.0889V36.7555C140.249 38.7859 141.362 39.863 143.48 39.863H146.303C148.698 39.863 149.68 39.077 149.68 37.1412V36.8137H148.29V37.1776C148.29 38.1455 147.621 38.6331 146.26 38.6331H144.149C142.694 38.6331 141.726 38.3056 141.726 36.7045V35.1326C141.726 33.3714 142.752 33.2259 143.909 33.2259H146.209C147.613 33.2259 148.166 33.6189 148.166 34.6377V34.9288H149.549V34.6086C149.549 32.8693 148.421 31.9814 146.194 31.9814H144.091Z" fill="white"/>
<path fill-rule="evenodd" clip-rule="evenodd" d="M152.28 28.9849V30.5786H153.757V28.9849H152.28Z" fill="white"/>
<path fill-rule="evenodd" clip-rule="evenodd" d="M152.278 32.0996V39.7483H153.755V32.0996H152.278Z" fill="white"/>
<path fill-rule="evenodd" clip-rule="evenodd" d="M162.554 31.9814H160.764C158.806 31.9814 156.543 32.338 156.543 35.1035V36.7409C156.543 39.5137 158.806 39.863 160.764 39.863H162.554C164.519 39.863 166.775 39.5137 166.775 36.7409V35.1035C166.775 32.338 164.519 31.9814 162.554 31.9814ZM165.298 36.6682C165.298 38.291 164.395 38.6185 162.932 38.6185H160.385C158.93 38.6185 158.02 38.291 158.02 36.6682V35.1763C158.02 33.5534 158.93 33.2259 160.385 33.2259H162.932C164.388 33.2259 165.298 33.5534 165.298 35.1763V36.6682Z" fill="white"/>
<path fill-rule="evenodd" clip-rule="evenodd" d="M123.672 31.9814H121.881C119.916 31.9814 117.66 32.338 117.66 35.1035V36.7409C117.66 39.5137 119.916 39.863 121.881 39.863H123.672C125.637 39.863 127.893 39.5137 127.893 36.7409V35.1035C127.893 32.338 125.637 31.9814 123.672 31.9814ZM126.401 36.6682C126.401 38.291 125.498 38.6185 124.035 38.6185H121.488C120.033 38.6185 119.123 38.291 119.123 36.6682V35.1763C119.123 33.5534 120.026 33.2259 121.488 33.2259H124.035C125.491 33.2259 126.401 33.5534 126.401 35.1763V36.6682Z" fill="white"/>
<path fill-rule="evenodd" clip-rule="evenodd" d="M86.9558 31.9814H85.1655C83.2006 31.9814 80.9446 32.338 80.9446 35.1035V36.7409C80.9446 39.5137 83.2006 39.863 85.1655 39.863H86.9558C88.9207 39.863 91.1767 39.5137 91.1767 36.7409V35.1035C91.1767 32.338 88.9207 31.9814 86.9558 31.9814ZM89.6994 36.6682C89.6994 38.291 88.797 38.6185 87.3342 38.6185H84.7871C83.3316 38.6185 82.4219 38.291 82.4219 36.6682V35.1763C82.4219 33.5534 83.3243 33.2259 84.7871 33.2259H87.3342C88.7897 33.2259 89.6994 33.5534 89.6994 35.1763V36.6682Z" fill="white"/>
<path fill-rule="evenodd" clip-rule="evenodd" d="M173.101 31.9814C170.27 31.9814 169.222 32.52 169.222 33.9682V34.4049C169.222 35.8604 169.95 36.5008 171.748 36.5008H175.605C177.06 36.5008 177.198 36.8792 177.198 37.4905C177.198 38.5312 176.784 38.6185 174.833 38.6185H172.155C170.78 38.6185 170.503 38.1673 170.503 37.4323V36.9593H169.113V37.5196C169.113 39.863 170.991 39.863 172.81 39.863H175.11C176.442 39.863 178.676 39.863 178.676 37.5997C178.676 35.3364 177.22 35.2563 175.401 35.2563H172.097C170.794 35.2563 170.692 34.8997 170.692 34.4049V34.1283C170.692 33.4006 170.954 33.2259 172.766 33.2259H174.95C176.347 33.2259 176.966 33.2623 176.966 34.2739V34.383L177.075 34.4558H178.356V33.9755C178.356 32.7892 177.788 32.0033 175.022 32.0033L173.101 31.9814Z" fill="white"/>
<path fill-rule="evenodd" clip-rule="evenodd" d="M67.0596 10.3899C49.8919 -0.417215 15.4839 -0.555487 5.37546 1.5841C1.38739 2.42829 0.172046 5.34657 0.572308 9.42925C1.76582 21.5245 22.0628 40.4241 41.9813 45.2346C44.1063 45.7513 49.0186 45.8604 51.9369 44.2594C60.5171 39.5581 67.1323 31.1599 70.1307 21.0441C71.95 14.7782 70.7565 12.7114 67.0596 10.3899ZM44.3246 31.8876H41.4136V25.971H31.065V31.9022H28.154V16.8232H31.065V23.3729H41.3918V16.8232H44.3028L44.3246 31.8876ZM56.3762 32.0841H47.323V29.5224H55.9395C58.9888 29.5224 59.3745 29.3405 59.3745 27.8413C59.3745 27.0044 59.3745 26.3858 57.1403 26.3858H51.1291C48.2181 26.3858 46.9373 25.2505 46.9373 22.6088V21.8811C46.9373 19.2903 48.7057 18.2787 53.2396 18.2787H61.9144V20.8768H52.7156C49.7318 20.8768 49.7318 21.2552 49.7318 22.1794V22.6525C49.7318 23.322 49.7318 23.8605 51.6749 23.8605H56.8274C59.7384 23.8605 62.1691 24.1735 62.1691 28.0524C62.1691 32.0841 58.3993 32.0841 56.3762 32.0841Z" fill="white"/>
</svg>
