<svg width="22" height="22" viewBox="0 0 22 22" fill="none" xmlns="http://www.w3.org/2000/svg">
<path opacity="0.8" d="M16.0676 1.26562H6.33438C3.64663 1.26562 1.46777 3.44448 1.46777 6.13223V15.8654C1.46777 18.5532 3.64663 20.7321 6.33438 20.7321H16.0676C18.7553 20.7321 20.9342 18.5532 20.9342 15.8654V6.13223C20.9342 3.44448 18.7553 1.26562 16.0676 1.26562Z" stroke="#D69766" stroke-width="1.74858" stroke-linecap="round" stroke-linejoin="round"/>
<path opacity="0.8" d="M15.0941 10.3867C15.2142 11.1967 15.0758 12.024 14.6987 12.7509C14.3215 13.4777 13.7248 14.0672 12.9933 14.4354C12.2618 14.8035 11.4329 14.9317 10.6244 14.8016C9.81587 14.6715 9.06898 14.2898 8.48993 13.7107C7.91088 13.1317 7.52916 12.3848 7.39906 11.5763C7.26896 10.7678 7.39711 9.93883 7.76528 9.20736C8.13345 8.47589 8.72289 7.87913 9.44977 7.50197C10.1766 7.12481 11.0039 6.98645 11.814 7.10657C12.6403 7.2291 13.4052 7.61412 13.9959 8.20477C14.5865 8.79543 14.9715 9.56039 15.0941 10.3867Z" stroke="#D69766" stroke-width="1.74858" stroke-linecap="round" stroke-linejoin="round"/>
<path opacity="0.8" d="M15.8701 5.66797H15.8813" stroke="#D69766" stroke-width="1.87" stroke-linecap="round" stroke-linejoin="round"/>
</svg>
