<svg width="auto" height="auto" viewBox="0 0 1414 1364" fill="none" xmlns="http://www.w3.org/2000/svg">
<rect width="1414" height="1364" fill="white"/>
<path d="M555.226 230.566H574.758V265.106H555.226V230.566Z" fill="#D59665"/>
<path d="M850.227 965.895H869.759V1000.43H850.227V965.895Z" fill="#D59665"/>
<path d="M555.226 321.421C563.58 320.04 567.616 320.322 574.758 320.78V461.649L555.226 454.494V321.421Z" fill="#D59665"/>
<path d="M574.759 699.067C566.405 700.448 562.868 701.541 555.227 701.541L555.227 557.708L574.759 564.862L574.759 699.067Z" fill="#D59665"/>
<path d="M901.741 399.014L910.36 412.469L518.73 748.77L475.387 747.585L901.741 399.014Z" fill="url(#paint0_linear_945_531)"/>
<path d="M569.182 459.6V320.829V320.482C569.823 320.482 573.159 320.713 574.746 320.829V461.63L569.182 459.6Z" fill="#A7744B"/>
<path d="M555.228 557.693L560.793 559.466L560.793 677.75C559.73 678.595 558.435 679.679 555.228 682.238L555.228 557.693Z" fill="#A7744B"/>
<path d="M844.294 480.699L893.696 480.701L460.41 832.935L452.743 820.48L844.294 480.699Z" fill="url(#paint1_linear_945_531)"/>
<path d="M850.177 528.122C858.532 526.741 862.568 527.024 869.709 527.482V668.35L850.177 661.195V528.122Z" fill="#D59665"/>
<path d="M869.712 903.581C862.4 905.74 857.985 907.234 850.179 908.232L850.179 764.399L869.712 771.554L869.712 903.581Z" fill="#D59665"/>
<path d="M864.133 666.287V527.516V527.17C864.775 527.17 868.111 527.401 869.698 527.516V668.318L864.133 666.287Z" fill="#A7744B"/>
<path d="M855.742 766.483L855.742 907.895L855.742 907.98C855.1 907.98 851.765 908.326 850.177 908.208L850.177 764.414L855.742 766.483Z" fill="#A7744B"/>
<path fill-rule="evenodd" clip-rule="evenodd" d="M707.497 632.049C711.856 652.378 720.125 669.007 732.303 681.937C751.271 702.077 785.328 722.875 834.474 744.328C870.255 760.09 897.415 775.196 915.952 789.644C934.49 804.093 943.758 821.168 943.758 840.871C943.758 866.703 933.412 885.749 912.719 898.008C892.026 909.83 864.867 915.74 831.241 915.74C807.099 915.74 785.975 912.895 767.869 907.203L734.889 808.69H705.143V938.07C737.476 947.702 767.438 953.613 795.028 955.802C823.05 957.991 843.096 959.086 855.167 959.086C900.002 959.524 937.292 948.797 967.038 926.905C998.94 903.262 1014.89 869.549 1014.89 825.766C1014.89 805.187 1011.01 786.579 1003.25 769.942C995.922 753.304 984.713 739.074 969.625 727.253C954.536 715.431 940.31 706.018 926.945 699.013C914.012 691.569 897.415 683.688 877.153 675.37C839.216 659.17 812.488 645.159 796.968 633.337C781.88 621.078 774.335 605.973 774.335 588.022C774.335 584.182 774.616 580.495 775.177 576.963L707.497 632.049ZM841.255 523.181C850.093 521.749 859.688 521.033 870.04 521.033C888.577 521.033 906.899 522.784 925.005 526.287L957.338 620.859H986.438L989.671 494.763C959.877 487.279 927.821 482.577 893.504 480.654L841.255 523.181Z" fill="url(#paint2_angular_945_531)"/>
<path d="M944.528 840.693C944.528 743.046 767.573 677.406 774.514 584.883C772.426 637.832 859.232 667.125 866.509 670.727C894.895 681.698 922.232 696.247 932.352 702.15C991.018 731.595 1009.39 771.217 1013.99 808.735C1020.68 884.24 984.179 912.384 966.405 927.524C935.826 947.905 904.292 962.074 832.05 958.386C772.728 956.678 722.722 944.094 705.135 938.015V808.668L734.865 808.575C742.147 830.205 758.905 880.26 767.677 907.445C795.794 916.298 846.684 921.723 896.451 905.732C936.264 892.939 945.091 857.043 944.528 840.693Z" fill="url(#paint3_angular_945_531)"/>
<path fill-rule="evenodd" clip-rule="evenodd" d="M441.789 303.166C413.336 323.306 399.11 351.546 399.11 387.887C399.11 425.978 408.594 455.094 427.562 475.234C446.531 495.375 480.588 516.172 529.734 537.626C565.515 553.388 592.675 568.493 611.212 582.942C623.971 592.886 632.339 604.075 636.316 616.509L699.39 565.172C699.103 564.525 698.809 563.88 698.51 563.239C691.181 546.601 679.973 532.372 664.884 520.55C649.796 508.729 635.569 499.315 622.205 492.31C609.272 484.867 592.675 476.986 572.413 468.667C534.476 452.467 507.747 438.456 492.228 426.635C477.139 414.376 469.595 399.27 469.595 381.319C469.595 360.303 478.001 343.884 494.814 332.063C512.058 320.241 535.553 314.33 565.3 314.33C583.837 314.33 602.159 316.082 620.265 319.584L652.598 414.157H681.697L684.93 288.06C644.838 277.99 600.65 272.955 552.366 272.955C507.101 272.955 470.241 283.025 441.789 303.166ZM475.289 747.572L522.662 709.014C500.113 708.726 480.269 705.888 463.128 700.5L430.149 601.988H400.403V731.368C426.965 739.281 451.927 744.682 475.289 747.572Z" fill="url(#paint4_angular_945_531)"/>
<path d="M662.153 414.056C655.209 364.849 650.734 323.792 618.271 319.438C637.59 374.236 650.669 414.056 650.669 414.056L662.153 414.056Z" fill="#976742"/>
<path fill-rule="evenodd" clip-rule="evenodd" d="M637.663 615.437L699.457 565.142C688.408 539.798 667.17 515.317 627.612 495.463C617.492 489.56 590.156 475.01 561.77 464.04C561.049 463.683 559.547 463.074 557.428 462.214C538.164 454.401 467.894 425.898 469.774 378.195C466.292 424.61 509.09 464.26 552.611 504.579C590.23 539.431 628.388 574.783 637.663 615.437ZM475.43 747.481C440.056 742.802 412.521 735.519 400.395 731.328V601.981L430.126 601.888C437.408 623.517 454.165 673.573 462.937 700.758C477.656 705.392 498.615 709.087 522.387 709.262L475.43 747.481Z" fill="url(#paint5_angular_945_531)"/>
<path d="M418.629 601.946C425.573 651.152 430.781 695.878 463.244 700.232C431.75 606.342 430.229 601.946 430.229 601.946L418.629 601.946Z" fill="#BB8256"/>
<path d="M723.369 808.674C730.313 857.881 735.521 902.607 767.985 906.961C736.49 813.071 734.97 808.674 734.97 808.674L723.369 808.674Z" fill="#BB8256"/>
<path d="M968.543 620.872C961.599 571.666 957.124 530.608 924.66 526.254C943.98 581.052 957.059 620.872 957.059 620.872L968.543 620.872Z" fill="#976742"/>
<path class="top_bar" d="M548.184 90.9551L556.803 104.41L165.173 440.712L121.83 439.527L548.184 90.9551Z" fill="url(#paint6_linear_945_531)"/>
<path class="bottom_bar" d="M1191.76 836.55L1241.16 836.552L807.879 1188.79L800.212 1176.33L1191.76 836.55Z" fill="url(#paint7_linear_945_531)"/>
<!-- <rect x="86.04" y="504.434" width="762.077" height="960.68" transform="rotate(-39.6695 86.04 504.434)" fill="black"/> -->
<defs>
<linearGradient id="paint0_linear_945_531" x1="999.774" y1="362.48" x2="880.89" y2="921.467" gradientUnits="userSpaceOnUse">
<stop stop-color="#F8B179"/>
<stop offset="0.46875" stop-color="#7C5333"/>
<stop offset="1" stop-color="#F8B179"/>
</linearGradient>
<linearGradient id="paint1_linear_945_531" x1="971.608" y1="415.904" x2="887.965" y2="964.571" gradientUnits="userSpaceOnUse">
<stop stop-color="#F8B179"/>
<stop offset="0.46875" stop-color="#7C5333"/>
<stop offset="1" stop-color="#F8B179"/>
</linearGradient>
<radialGradient id="paint2_angular_945_531" cx="0" cy="0" r="1" gradientUnits="userSpaceOnUse" gradientTransform="translate(800.227 620.801) rotate(50.7417) scale(238.386 190.267)">
<stop offset="0.565241" stop-color="#D79766"/>
<stop offset="1" stop-color="#9A6A43"/>
</radialGradient>
<radialGradient id="paint3_angular_945_531" cx="0" cy="0" r="1" gradientUnits="userSpaceOnUse" gradientTransform="translate(916.426 796.616) rotate(-135.762) scale(237.547 379.294)">
<stop stop-color="#D79866"/>
<stop offset="1" stop-color="#8B5E3B"/>
</radialGradient>
<radialGradient id="paint4_angular_945_531" cx="0" cy="0" r="1" gradientUnits="userSpaceOnUse" gradientTransform="translate(495.485 414.098) rotate(50.742) scale(238.383 190.265)">
<stop offset="0.565241" stop-color="#D79766"/>
<stop offset="1" stop-color="#9A6A43"/>
</radialGradient>
<radialGradient id="paint5_angular_945_531" cx="0" cy="0" r="1" gradientUnits="userSpaceOnUse" gradientTransform="translate(611.687 589.929) rotate(-135.762) scale(237.547 379.295)">
<stop stop-color="#D79866"/>
<stop offset="1" stop-color="#8B5E3B"/>
</radialGradient>
<linearGradient id="paint6_linear_945_531" x1="646.217" y1="54.4215" x2="527.333" y2="613.408" gradientUnits="userSpaceOnUse">
<stop stop-color="#F8B179"/>
<stop offset="0.46875" stop-color="#7C5333"/>
<stop offset="1" stop-color="#F8B179"/>
</linearGradient>
<linearGradient id="paint7_linear_945_531" x1="1319.08" y1="771.756" x2="1235.43" y2="1320.42" gradientUnits="userSpaceOnUse">
<stop stop-color="#F8B179"/>
<stop offset="0.46875" stop-color="#7C5333"/>
<stop offset="1" stop-color="#F8B179"/>
</linearGradient>
</defs>
</svg>
