<svg width="auto" height="71" viewBox="0 0 436 71" fill="none" xmlns="http://www.w3.org/2000/svg">
<path d="M14.5654 0H16.3877V3.17277H14.5654V0Z" fill="#D59665"/>
<path d="M42.0867 67.5469H43.9089V70.7196H42.0867V67.5469Z" fill="#D59665"/>
<path d="M14.5654 8.34532C15.3449 8.21847 15.7214 8.24444 16.3877 8.2865V21.2267L14.5654 20.5694V8.34532Z" fill="#D59665"/>
<path d="M16.3877 43.0364C15.6082 43.1633 15.2783 43.2637 14.5654 43.2637L14.5654 30.0512L16.3877 30.7084L16.3877 43.0364Z" fill="#D59665"/>
<path d="M46.8928 15.4727L47.697 16.7086L11.1601 47.6013L7.11645 47.4924L46.8928 15.4727Z" fill="url(#paint0_linear_366_259)"/>
<path d="M15.8672 21.0391V8.29157V8.25977C15.9271 8.25977 16.2382 8.28097 16.3863 8.29157V21.2256L15.8672 21.0391Z" fill="#A7744B"/>
<path d="M14.5651 30.0514L15.0842 30.2143L15.0842 41.0799C14.9851 41.1575 14.8643 41.2571 14.5651 41.4922L14.5651 30.0514Z" fill="#A7744B"/>
<path d="M41.5332 22.9773L46.1422 22.9775L5.71905 55.3337L5.00373 54.1896L41.5332 22.9773Z" fill="url(#paint1_linear_366_259)"/>
<path d="M42.082 27.3326C42.8615 27.2058 43.238 27.2317 43.9043 27.2738V40.214L42.082 39.5567V27.3326Z" fill="#D59665"/>
<path d="M43.9043 61.8247C43.2221 62.023 42.8103 62.1603 42.082 62.252L42.082 49.0394L43.9043 49.6967L43.9043 61.8247Z" fill="#D59665"/>
<path d="M43.3848 40.0254V27.2779V27.2461C43.4446 27.2461 43.7558 27.2673 43.9039 27.2779V40.2119L43.3848 40.0254Z" fill="#A7744B"/>
<path d="M42.6016 49.2289L42.6016 62.219L42.6016 62.2269C42.5417 62.2269 42.2305 62.2586 42.0824 62.2478L42.0824 49.0389L42.6016 49.2289Z" fill="#A7744B"/>
<path fill-rule="evenodd" clip-rule="evenodd" d="M28.7713 36.8798C29.1781 38.7472 29.9495 40.2747 31.0856 41.4624C32.8552 43.3125 36.0326 45.223 40.6176 47.1937C43.9558 48.6416 46.4896 50.0292 48.219 51.3564C49.9485 52.6837 50.8132 54.2522 50.8132 56.0621C50.8132 58.435 49.8479 60.1846 47.9174 61.3107C45.9869 62.3966 43.453 62.9396 40.3159 62.9396C38.0636 62.9396 36.0929 62.6782 34.4037 62.1553L31.3269 53.106H28.5518V64.9908C31.5682 65.8756 34.3635 66.4186 36.9375 66.6197C39.5518 66.8208 41.422 66.9213 42.5481 66.9213C46.7309 66.9615 50.2099 65.9762 52.985 63.9652C55.9613 61.7933 57.4494 58.6965 57.4494 54.6745C57.4494 52.7842 57.0874 51.0749 56.3635 49.5465C55.6797 48.0182 54.634 46.7111 53.2264 45.6252C51.8187 44.5392 50.4914 43.6745 49.2446 43.031C48.0381 42.3473 46.4896 41.6233 44.5993 40.8592C41.06 39.371 38.5664 38.084 37.1185 36.9981C35.7108 35.872 35.007 34.4844 35.007 32.8354C35.007 32.4827 35.0331 32.1442 35.0855 31.8197L28.7713 36.8798ZM41.2504 26.8791C42.0749 26.7476 42.97 26.6818 43.9357 26.6818C45.6651 26.6818 47.3744 26.8427 49.0636 27.1645L52.0801 35.8518H54.7949L55.0966 24.2687C52.317 23.5812 49.3265 23.1492 46.1249 22.9727L41.2504 26.8791Z" fill="url(#paint2_angular_366_259)"/>
<path d="M50.8848 56.0466C50.8848 47.0767 34.3759 41.047 35.0235 32.5479C34.8287 37.4117 42.9272 40.1026 43.6061 40.4335C46.2544 41.4413 48.8047 42.7778 49.7489 43.32C55.2221 46.0248 56.9361 49.6645 57.3655 53.1109C57.9896 60.0467 54.584 62.6321 52.9258 64.0228C50.073 65.895 47.1311 67.1966 40.3913 66.8578C34.8569 66.7009 30.1916 65.5449 28.5508 64.9866V53.1048L31.3245 53.0962C32.0039 55.0831 33.5672 59.6812 34.3856 62.1784C37.0088 62.9916 41.7566 63.49 46.3995 62.021C50.1138 60.8459 50.9373 57.5484 50.8848 56.0466Z" fill="url(#paint3_angular_366_259)"/>
<path fill-rule="evenodd" clip-rule="evenodd" d="M3.98172 6.66869C1.32724 8.51878 0 11.1129 0 14.4511C0 17.9502 0.884827 20.6248 2.65448 22.4749C4.42413 24.325 7.60146 26.2354 12.1865 28.2062C15.5247 29.6541 18.0585 31.0416 19.7879 32.3689C20.9786 33.2826 21.7594 34.3108 22.1303 35.4533L28.0149 30.7374C27.9879 30.6777 27.9604 30.6182 27.9324 30.559C27.2486 29.0307 26.2029 27.7235 24.7953 26.6376C23.3876 25.5517 22.0603 24.687 20.8135 24.0435C19.607 23.3597 18.0585 22.6358 16.1682 21.8716C12.6289 20.3835 10.1353 19.0965 8.68739 18.0106C7.27971 16.8844 6.57587 15.4968 6.57587 13.8479C6.57587 11.9173 7.36015 10.4091 8.92871 9.32317C10.5375 8.23725 12.7294 7.69429 15.5046 7.69429C17.234 7.69429 18.9433 7.85516 20.6325 8.17692L23.649 16.8643H26.3638L26.6655 5.28112C22.9251 4.35608 18.8026 3.89355 14.298 3.89355C10.075 3.89355 6.6362 4.8186 3.98172 6.66869ZM7.10839 47.492L11.5283 43.9498C9.42396 43.9235 7.57206 43.6629 5.97258 43.1678L2.8958 34.1184H0.120658V46.0033C2.59926 46.7303 4.9285 47.2265 7.10839 47.492Z" fill="url(#paint4_angular_366_259)"/>
<path d="M24.5405 16.8557C23.8927 12.3356 23.4752 8.56405 20.4465 8.16406C22.2489 13.1978 23.4691 16.8557 23.4691 16.8557L24.5405 16.8557Z" fill="#976742"/>
<path fill-rule="evenodd" clip-rule="evenodd" d="M22.2556 35.3534L28.0207 30.7334C26.9898 28.4053 25.0085 26.1565 21.318 24.3327C20.3738 23.7904 17.8235 22.454 15.1752 21.4462C15.108 21.4134 14.9679 21.3575 14.7702 21.2785C12.973 20.5608 6.41712 17.9425 6.5926 13.5605C6.26774 17.8242 10.2605 21.4665 14.3207 25.1702C17.8303 28.3716 21.3903 31.619 22.2556 35.3534ZM7.12013 47.4831C3.81998 47.0532 1.25113 46.3842 0.119873 45.9993V34.1175L2.89359 34.1089C3.57297 36.0958 5.13632 40.6939 5.95473 43.1911C7.32786 43.6168 9.28321 43.9562 11.501 43.9723L7.12013 47.4831Z" fill="url(#paint5_angular_366_259)"/>
<path d="M1.821 34.1169C2.46883 38.637 2.95471 42.7455 5.9834 43.1455C3.04513 34.5208 2.90327 34.1169 2.90327 34.1169L1.821 34.1169Z" fill="#BB8256"/>
<path d="M30.2517 53.1042C30.8995 57.6243 31.3854 61.7328 34.4141 62.1328C31.4758 53.5081 31.3339 53.1042 31.3339 53.1042L30.2517 53.1042Z" fill="#BB8256"/>
<path d="M53.1253 35.8538C52.4774 31.3336 52.0599 27.5621 49.0312 27.1621C50.8337 32.1959 52.0539 35.8538 52.0539 35.8538L53.1253 35.8538Z" fill="#976742"/>
<path d="M79.0272 38.9235C79.0272 37.9828 79.4012 37.2518 80.1492 36.7305C80.8972 36.2092 81.8662 35.9485 83.0562 35.9485C84.3256 35.9485 85.4872 36.0788 86.5412 36.3395L86.4562 39.6035H85.6912L84.8412 37.1555C84.3652 37.0648 83.8836 37.0195 83.3962 37.0195C82.6142 37.0195 81.9966 37.1725 81.5432 37.4785C81.1012 37.7845 80.8802 38.2095 80.8802 38.7535C80.8802 39.2182 81.0786 39.6092 81.4752 39.9265C81.8832 40.2325 82.5859 40.5952 83.5832 41.0145C84.1159 41.2298 84.5522 41.4338 84.8922 41.6265C85.2436 41.8078 85.6176 42.0515 86.0142 42.3575C86.4109 42.6635 86.7056 43.0318 86.8982 43.4625C87.1022 43.8932 87.2042 44.3748 87.2042 44.9075C87.2042 46.0408 86.7849 46.9135 85.9462 47.5255C85.1642 48.0922 84.1839 48.3698 83.0052 48.3585C82.6879 48.3585 82.1609 48.3302 81.4242 48.2735C80.6989 48.2168 79.9112 48.0638 79.0612 47.8145V44.4655H79.8432L80.7102 47.0155C81.1862 47.1628 81.7416 47.2365 82.3762 47.2365C83.2602 47.2365 83.9742 47.0835 84.5182 46.7775C85.0622 46.4602 85.3342 45.9672 85.3342 45.2985C85.3342 44.7885 85.0906 44.3465 84.6032 43.9725C84.1159 43.5985 83.4019 43.2075 82.4612 42.7995C81.1692 42.2442 80.2739 41.7058 79.7752 41.1845C79.2766 40.6632 79.0272 39.9095 79.0272 38.9235ZM98.813 35.9485C99.731 35.9485 100.541 36.1015 101.244 36.4075C101.947 36.7135 102.542 37.1385 103.029 37.6825C103.516 38.2265 103.885 38.8782 104.134 39.6375C104.383 40.3968 104.508 41.2298 104.508 42.1365C104.508 43.0545 104.383 43.8932 104.134 44.6525C103.896 45.4118 103.533 46.0692 103.046 46.6245C102.57 47.1685 101.975 47.5935 101.261 47.8995C100.558 48.2055 99.7423 48.3585 98.813 48.3585C97.827 48.3585 96.9713 48.1942 96.246 47.8655C95.532 47.5368 94.9426 47.0948 94.478 46.5395C94.0133 45.9728 93.6676 45.3098 93.441 44.5505C93.2256 43.7912 93.118 42.9752 93.118 42.1025C93.118 41.2525 93.2313 40.4592 93.458 39.7225C93.6846 38.9745 94.0303 38.3228 94.495 37.7675C94.9596 37.2008 95.549 36.7588 96.263 36.4415C96.9883 36.1128 97.8383 35.9485 98.813 35.9485ZM98.813 36.9515C97.657 36.9515 96.7786 37.4388 96.178 38.4135C95.5886 39.3768 95.294 40.6235 95.294 42.1535C95.294 43.7742 95.6056 45.0492 96.229 45.9785C96.8636 46.8965 97.725 47.3555 98.813 47.3555C99.901 47.3555 100.757 46.8965 101.38 45.9785C102.015 45.0492 102.332 43.7742 102.332 42.1535C102.332 40.6235 102.032 39.3768 101.431 38.4135C100.842 37.4388 99.969 36.9515 98.813 36.9515ZM110.148 48.1035V47.3215L111.712 46.9475V37.3595L110.148 36.9855V36.2035H115.367V36.9855L113.803 37.3595V46.9645H117.798L118.716 44.4315H119.498L119.328 48.1035H110.148ZM124.251 36.9855V36.2035H129.47V36.9855L127.906 37.3595V43.6495C127.906 44.7828 128.184 45.6328 128.739 46.1995C129.306 46.7662 130.065 47.0495 131.017 47.0495C131.958 47.0495 132.717 46.7662 133.295 46.1995C133.873 45.6215 134.162 44.7715 134.162 43.6495V37.3595L132.581 36.9855V36.2035H136.933V36.9855L135.369 37.3595V43.6495C135.369 44.3975 135.25 45.0662 135.012 45.6555C134.785 46.2448 134.462 46.7378 134.043 47.1345C133.624 47.5312 133.119 47.8372 132.53 48.0525C131.952 48.2565 131.317 48.3585 130.626 48.3585C129.923 48.3585 129.277 48.2565 128.688 48.0525C128.099 47.8485 127.589 47.5482 127.158 47.1515C126.739 46.7435 126.41 46.2505 126.172 45.6725C125.934 45.0832 125.815 44.4088 125.815 43.6495V37.3595L124.251 36.9855ZM146.27 51.3845C146.7 51.4752 147.052 51.5205 147.324 51.5205C147.652 51.5205 147.907 51.4355 148.089 51.2655C148.281 51.1068 148.378 50.8858 148.378 50.6025C148.378 50.0018 147.964 49.6732 147.137 49.6165L147.477 48.3245C145.879 48.2225 144.643 47.7012 143.771 46.7605C142.785 45.6952 142.292 44.1595 142.292 42.1535C142.292 40.1475 142.802 38.6118 143.822 37.5465C144.853 36.4812 146.394 35.9485 148.446 35.9485C149.76 35.9485 150.865 36.1468 151.761 36.5435V39.7565H150.979L150.197 37.2405C149.755 37.1385 149.245 37.0875 148.667 37.0875C145.845 37.0875 144.434 38.7762 144.434 42.1535C144.434 45.5308 145.731 47.2195 148.327 47.2195C148.712 47.2195 149.058 47.2082 149.364 47.1855C149.67 47.1628 149.947 47.1288 150.197 47.0835L151.183 44.3975H151.965L151.846 47.6105C151.687 47.7012 151.46 47.7918 151.166 47.8825C150.871 47.9732 150.548 48.0525 150.197 48.1205C149.857 48.1885 149.5 48.2452 149.126 48.2905C148.854 48.3245 148.604 48.3472 148.378 48.3585L148.208 49.0215C148.774 49.0442 149.211 49.1972 149.517 49.4805C149.834 49.7638 149.993 50.1322 149.993 50.5855C149.993 51.1862 149.777 51.6565 149.347 51.9965C148.927 52.3478 148.338 52.5235 147.579 52.5235C147.307 52.5235 146.87 52.4612 146.27 52.3365V51.3845ZM163.642 35.9485C164.56 35.9485 165.37 36.1015 166.073 36.4075C166.776 36.7135 167.371 37.1385 167.858 37.6825C168.345 38.2265 168.714 38.8782 168.963 39.6375C169.212 40.3968 169.337 41.2298 169.337 42.1365C169.337 43.0545 169.212 43.8932 168.963 44.6525C168.725 45.4118 168.362 46.0692 167.875 46.6245C167.399 47.1685 166.804 47.5935 166.09 47.8995C165.387 48.2055 164.571 48.3585 163.642 48.3585C162.656 48.3585 161.8 48.1942 161.075 47.8655C160.361 47.5368 159.772 47.0948 159.307 46.5395C158.842 45.9728 158.497 45.3098 158.27 44.5505C158.055 43.7912 157.947 42.9752 157.947 42.1025C157.947 41.2525 158.06 40.4592 158.287 39.7225C158.514 38.9745 158.859 38.3228 159.324 37.7675C159.789 37.2008 160.378 36.7588 161.092 36.4415C161.817 36.1128 162.667 35.9485 163.642 35.9485ZM163.642 36.9515C162.486 36.9515 161.608 37.4388 161.007 38.4135C160.418 39.3768 160.123 40.6235 160.123 42.1535C160.123 43.7742 160.435 45.0492 161.058 45.9785C161.693 46.8965 162.554 47.3555 163.642 47.3555C164.73 47.3555 165.586 46.8965 166.209 45.9785C166.844 45.0492 167.161 43.7742 167.161 42.1535C167.161 40.6235 166.861 39.3768 166.26 38.4135C165.671 37.4388 164.798 36.9515 163.642 36.9515ZM160.497 34.1125C160.814 33.6138 161.126 33.2398 161.432 32.9905C161.749 32.7412 162.14 32.5995 162.605 32.5655C163.013 32.5655 163.427 32.7298 163.846 33.0585C164.277 33.3758 164.639 33.5345 164.934 33.5345C165.285 33.5345 165.733 33.2965 166.277 32.8205L166.787 33.3135C166.606 33.7102 166.328 34.0728 165.954 34.4015C165.58 34.7302 165.161 34.8945 164.696 34.8945C164.367 34.8945 163.993 34.7358 163.574 34.4185C163.166 34.0898 162.758 33.9255 162.35 33.9255C162.055 33.9255 161.613 34.1635 161.024 34.6395L160.497 34.1125ZM174.977 48.1035V47.3215L176.541 46.9475V37.3595L174.977 36.9855V36.2035H183.834V39.6885H183.035L182.304 37.3425L178.632 37.2065V41.5755L182.304 41.2525V42.7655L178.632 42.4595V47.1005L182.627 46.9645L183.494 44.4315H184.293L184.157 48.1035H174.977ZM190.407 38.9235C190.407 37.9828 190.781 37.2518 191.529 36.7305C192.277 36.2092 193.246 35.9485 194.436 35.9485C195.705 35.9485 196.867 36.0788 197.921 36.3395L197.836 39.6035H197.071L196.221 37.1555C195.745 37.0648 195.263 37.0195 194.776 37.0195C193.994 37.0195 193.376 37.1725 192.923 37.4785C192.481 37.7845 192.26 38.2095 192.26 38.7535C192.26 39.2182 192.458 39.6092 192.855 39.9265C193.263 40.2325 193.966 40.5952 194.963 41.0145C195.496 41.2298 195.932 41.4338 196.272 41.6265C196.623 41.8078 196.997 42.0515 197.394 42.3575C197.791 42.6635 198.085 43.0318 198.278 43.4625C198.482 43.8932 198.584 44.3748 198.584 44.9075C198.584 46.0408 198.165 46.9135 197.326 47.5255C196.544 48.0922 195.564 48.3698 194.385 48.3585C194.068 48.3585 193.541 48.3302 192.804 48.2735C192.079 48.2168 191.291 48.0638 190.441 47.8145V44.4655H191.223L192.09 47.0155C192.566 47.1628 193.121 47.2365 193.756 47.2365C194.64 47.2365 195.354 47.0835 195.898 46.7775C196.442 46.4602 196.714 45.9672 196.714 45.2985C196.714 44.7885 196.47 44.3465 195.983 43.9725C195.496 43.5985 194.782 43.2075 193.841 42.7995C192.549 42.2442 191.654 41.7058 191.155 41.1845C190.656 40.6632 190.407 39.9095 190.407 38.9235ZM212.682 45.2815C212.682 43.9102 213.572 42.7542 215.351 41.8135C214.275 40.6462 213.736 39.5695 213.736 38.5835C213.736 37.7108 214.054 37.0535 214.688 36.6115C215.334 36.1695 216.128 35.9485 217.068 35.9485C217.986 35.9485 218.768 36.1752 219.414 36.6285C220.06 37.0818 220.383 37.7165 220.383 38.5325C220.383 39.8132 219.511 40.9012 217.765 41.7965L220.536 44.5505C220.808 43.9498 221.001 43.3038 221.114 42.6125L220.094 42.2385V41.4735H223.579V42.2385L222.117 42.6125C221.993 43.5758 221.726 44.4655 221.318 45.2815L223.035 46.9305L224.735 47.3385V48.1035H221.845L220.383 46.7095C219.397 47.8088 218.151 48.3585 216.643 48.3585C215.521 48.3585 214.581 48.0978 213.821 47.5765C213.062 47.0438 212.682 46.2788 212.682 45.2815ZM214.603 45.2815C214.603 45.8368 214.785 46.3185 215.147 46.7265C215.51 47.1345 216.037 47.3385 216.728 47.3385C217.896 47.3385 218.865 46.8852 219.635 45.9785L216.116 42.6125C215.108 43.4172 214.603 44.3068 214.603 45.2815ZM215.572 38.5665C215.572 38.8385 215.64 39.1275 215.776 39.4335C215.924 39.7395 216.167 40.0738 216.507 40.4365C216.847 40.7992 217.029 40.9918 217.051 41.0145C217.482 40.7538 217.833 40.4025 218.105 39.9605C218.389 39.5185 218.53 39.0482 218.53 38.5495C218.53 38.0395 218.389 37.6428 218.105 37.3595C217.822 37.0648 217.465 36.9175 217.034 36.9175C216.638 36.9175 216.292 37.0648 215.997 37.3595C215.714 37.6428 215.572 38.0452 215.572 38.5665ZM238.03 48.1035V47.3215L239.611 46.9475V37.3595L238.03 36.9855V36.2035H243.249V36.9855L241.685 37.3595V46.9475L243.249 47.3215V48.1035H238.03ZM248.987 48.1035V47.3215L250.551 46.9475V37.3595L248.987 36.9855V36.2035H251.741L258.83 44.6185V37.3595L257.266 36.9855V36.2035H261.635V36.9855L260.071 37.3595V48.1035H259.051L251.741 39.4845V46.9475L253.305 47.3215V48.1035H248.987ZM266.349 36.9855V36.2035H271.5V36.9855L270.106 37.2745L272.996 45.4345L275.716 37.3595L274.373 36.9855V36.2035H278.47V36.9855L276.906 37.3595L273.166 48.2225H271.823L267.862 37.3595L266.349 36.9855ZM283.402 48.1035V47.3215L284.966 46.9475V37.3595L283.402 36.9855V36.2035H292.259V39.6885H291.46L290.729 37.3425L287.057 37.2065V41.5755L290.729 41.2525V42.7655L287.057 42.4595V47.1005L291.052 46.9645L291.919 44.4315H292.718L292.582 48.1035H283.402ZM298.832 38.9235C298.832 37.9828 299.206 37.2518 299.954 36.7305C300.702 36.2092 301.671 35.9485 302.861 35.9485C304.13 35.9485 305.292 36.0788 306.346 36.3395L306.261 39.6035H305.496L304.646 37.1555C304.17 37.0648 303.688 37.0195 303.201 37.0195C302.419 37.0195 301.801 37.1725 301.348 37.4785C300.906 37.7845 300.685 38.2095 300.685 38.7535C300.685 39.2182 300.883 39.6092 301.28 39.9265C301.688 40.2325 302.391 40.5952 303.388 41.0145C303.921 41.2298 304.357 41.4338 304.697 41.6265C305.048 41.8078 305.422 42.0515 305.819 42.3575C306.216 42.6635 306.51 43.0318 306.703 43.4625C306.907 43.8932 307.009 44.3748 307.009 44.9075C307.009 46.0408 306.59 46.9135 305.751 47.5255C304.969 48.0922 303.989 48.3698 302.81 48.3585C302.493 48.3585 301.966 48.3302 301.229 48.2735C300.504 48.2168 299.716 48.0638 298.866 47.8145V44.4655H299.648L300.515 47.0155C300.991 47.1628 301.546 47.2365 302.181 47.2365C303.065 47.2365 303.779 47.0835 304.323 46.7775C304.867 46.4602 305.139 45.9672 305.139 45.2985C305.139 44.7885 304.895 44.3465 304.408 43.9725C303.921 43.5985 303.207 43.2075 302.266 42.7995C300.974 42.2442 300.079 41.7058 299.58 41.1845C299.081 40.6632 298.832 39.9095 298.832 38.9235ZM312.566 39.8075V36.2035H322.681V39.8075H321.882L321.117 37.3425L318.669 37.2065V46.9475L320.233 47.3215V48.1035H315.014V47.3215L316.578 46.9475V37.2065L314.113 37.3425L313.365 39.8075H312.566ZM328.193 48.1035V47.3215L329.774 46.9475V37.3595L328.193 36.9855V36.2035H333.412V36.9855L331.848 37.3595V46.9475L333.412 47.3215V48.1035H328.193ZM338.912 48.1035V47.3215L340.527 46.9305L341.071 37.3425L339.575 36.9855L339.592 36.2035H343.23L347.055 45.0775L350.914 36.2035H354.416V36.9855L352.886 37.3425L353.464 46.9475L355.096 47.3215V48.1035H349.928V47.3215L351.424 46.9645L350.965 38.9065L346.936 48.1885H346.188L342.108 38.8895L341.683 46.9645L343.196 47.3215V48.1035H338.912ZM360.566 48.1035V47.3215L362.13 46.9475V37.3595L360.566 36.9855V36.2035H369.423V39.6885H368.624L367.893 37.3425L364.221 37.2065V41.5755L367.893 41.2525V42.7655L364.221 42.4595V47.1005L368.216 46.9645L369.083 44.4315H369.882L369.746 48.1035H360.566ZM375.707 48.1035V47.3215L377.271 46.9475V37.3595L375.707 36.9855V36.2035H378.461L385.55 44.6185V37.3595L383.986 36.9855V36.2035H388.355V36.9855L386.791 37.3595V48.1035H385.771L378.461 39.4845V46.9475L380.025 47.3215V48.1035H375.707ZM393.698 39.8075V36.2035H403.812V39.8075H403.014L402.249 37.3425L399.801 37.2065V46.9475L401.365 47.3215V48.1035H396.146V47.3215L397.71 46.9475V37.2065L395.245 37.3425L394.497 39.8075H393.698ZM415.139 35.9485C416.057 35.9485 416.867 36.1015 417.57 36.4075C418.273 36.7135 418.868 37.1385 419.355 37.6825C419.842 38.2265 420.211 38.8782 420.46 39.6375C420.709 40.3968 420.834 41.2298 420.834 42.1365C420.834 43.0545 420.709 43.8932 420.46 44.6525C420.222 45.4118 419.859 46.0692 419.372 46.6245C418.896 47.1685 418.301 47.5935 417.587 47.8995C416.884 48.2055 416.068 48.3585 415.139 48.3585C414.153 48.3585 413.297 48.1942 412.572 47.8655C411.858 47.5368 411.269 47.0948 410.804 46.5395C410.339 45.9728 409.994 45.3098 409.767 44.5505C409.552 43.7912 409.444 42.9752 409.444 42.1025C409.444 41.2525 409.557 40.4592 409.784 39.7225C410.011 38.9745 410.356 38.3228 410.821 37.7675C411.286 37.2008 411.875 36.7588 412.589 36.4415C413.314 36.1128 414.164 35.9485 415.139 35.9485ZM415.139 36.9515C413.983 36.9515 413.105 37.4388 412.504 38.4135C411.915 39.3768 411.62 40.6235 411.62 42.1535C411.62 43.7742 411.932 45.0492 412.555 45.9785C413.19 46.8965 414.051 47.3555 415.139 47.3555C416.227 47.3555 417.083 46.8965 417.706 45.9785C418.341 45.0492 418.658 43.7742 418.658 42.1535C418.658 40.6235 418.358 39.3768 417.757 38.4135C417.168 37.4388 416.295 36.9515 415.139 36.9515ZM426.979 38.9235C426.979 37.9828 427.353 37.2518 428.101 36.7305C428.849 36.2092 429.818 35.9485 431.008 35.9485C432.278 35.9485 433.439 36.0788 434.493 36.3395L434.408 39.6035H433.643L432.793 37.1555C432.317 37.0648 431.836 37.0195 431.348 37.0195C430.566 37.0195 429.949 37.1725 429.495 37.4785C429.053 37.7845 428.832 38.2095 428.832 38.7535C428.832 39.2182 429.031 39.6092 429.427 39.9265C429.835 40.2325 430.538 40.5952 431.535 41.0145C432.068 41.2298 432.504 41.4338 432.844 41.6265C433.196 41.8078 433.57 42.0515 433.966 42.3575C434.363 42.6635 434.658 43.0318 434.85 43.4625C435.054 43.8932 435.156 44.3748 435.156 44.9075C435.156 46.0408 434.737 46.9135 433.898 47.5255C433.116 48.0922 432.136 48.3698 430.957 48.3585C430.64 48.3585 430.113 48.3302 429.376 48.2735C428.651 48.2168 427.863 48.0638 427.013 47.8145V44.4655H427.795L428.662 47.0155C429.138 47.1628 429.694 47.2365 430.328 47.2365C431.212 47.2365 431.926 47.0835 432.47 46.7775C433.014 46.4602 433.286 45.9672 433.286 45.2985C433.286 44.7885 433.043 44.3465 432.555 43.9725C432.068 43.5985 431.354 43.2075 430.413 42.7995C429.121 42.2442 428.226 41.7058 427.727 41.1845C427.229 40.6632 426.979 39.9095 426.979 38.9235Z" fill="white"/>
<defs>
<linearGradient id="paint0_linear_366_259" x1="56.0388" y1="12.1167" x2="45.2718" y2="63.533" gradientUnits="userSpaceOnUse">
<stop stop-color="#F8B179"/>
<stop offset="0.46875" stop-color="#7C5333"/>
<stop offset="1" stop-color="#F8B179"/>
</linearGradient>
<linearGradient id="paint1_linear_366_259" x1="53.4109" y1="17.0253" x2="45.8404" y2="67.4607" gradientUnits="userSpaceOnUse">
<stop stop-color="#F8B179"/>
<stop offset="0.46875" stop-color="#7C5333"/>
<stop offset="1" stop-color="#F8B179"/>
</linearGradient>
<radialGradient id="paint2_angular_366_259" cx="0" cy="0" r="1" gradientUnits="userSpaceOnUse" gradientTransform="translate(37.4226 35.8465) rotate(50.306) scale(22.0356 17.64)">
<stop offset="0.565241" stop-color="#D79766"/>
<stop offset="1" stop-color="#9A6A43"/>
</radialGradient>
<radialGradient id="paint3_angular_366_259" cx="0" cy="0" r="1" gradientUnits="userSpaceOnUse" gradientTransform="translate(48.2631 51.9977) rotate(-136.206) scale(21.9966 35.1036)">
<stop stop-color="#D79866"/>
<stop offset="1" stop-color="#8B5E3B"/>
</radialGradient>
<radialGradient id="paint4_angular_366_259" cx="0" cy="0" r="1" gradientUnits="userSpaceOnUse" gradientTransform="translate(8.99146 16.859) rotate(50.306) scale(22.0356 17.64)">
<stop offset="0.565241" stop-color="#D79766"/>
<stop offset="1" stop-color="#9A6A43"/>
</radialGradient>
<radialGradient id="paint5_angular_366_259" cx="0" cy="0" r="1" gradientUnits="userSpaceOnUse" gradientTransform="translate(19.8322 33.0104) rotate(-136.206) scale(21.9966 35.1036)">
<stop stop-color="#D79866"/>
<stop offset="1" stop-color="#8B5E3B"/>
</radialGradient>
</defs>
</svg>
