<svg width="auto" height="auto" viewBox="0 0 354 132" fill="none" xmlns="http://www.w3.org/2000/svg">
<line x1="131.713" y1="45.4307" x2="131.713" y2="97.4756" stroke="#CB8F60"/>
<path d="M27.2766 0.894531H30.5853V6.74532H27.2766V0.894531Z" fill="#D59665"/>
<path d="M77.2483 125.456H80.557V131.307H77.2483V125.456Z" fill="#D59665"/>
<path d="M27.2766 16.2845C28.6919 16.0506 29.3755 16.0984 30.5853 16.176V40.0384L27.2766 38.8265V16.2845Z" fill="#D59665"/>
<path d="M30.5854 80.2567C29.1702 80.4906 28.5711 80.6758 27.2768 80.6758L27.2768 56.3111L30.5854 57.5231L30.5854 80.2567Z" fill="#D59665"/>
<path d="M85.9746 29.4277L87.4347 31.7069L21.0944 88.6748L13.7524 88.4741L85.9746 29.4277Z" fill="url(#paint0_linear_1093_560)"/>
<path d="M29.6406 39.6908V16.1837V16.125C29.7493 16.125 30.3143 16.1641 30.5833 16.1837V40.0347L29.6406 39.6908Z" fill="#A7744B"/>
<path d="M27.2769 56.3098L28.2195 56.6101L28.2195 76.6469C28.0394 76.7901 27.8201 76.9737 27.2769 77.4072L27.2769 56.3098Z" fill="#A7744B"/>
<path d="M76.2433 43.2662L84.6118 43.2666L11.2153 102.933L9.91647 100.823L76.2433 43.2662Z" fill="url(#paint1_linear_1093_560)"/>
<path d="M77.24 51.2991C78.6552 51.0652 79.3389 51.1131 80.5487 51.1907V75.0531L77.24 73.8411V51.2991Z" fill="#D59665"/>
<path d="M80.5491 114.901C79.3105 115.266 78.5626 115.519 77.2404 115.688L77.2404 91.3238L80.5491 92.5358L80.5491 114.901Z" fill="#D59665"/>
<path d="M79.604 74.7035V51.1963V51.1377C79.7127 51.1377 80.2777 51.1768 80.5466 51.1963V75.0474L79.604 74.7035Z" fill="#A7744B"/>
<path d="M78.1826 91.6749L78.1826 115.629L78.1826 115.644C78.0739 115.644 77.5089 115.702 77.24 115.682L77.24 91.3244L78.1826 91.6749Z" fill="#A7744B"/>
<path fill-rule="evenodd" clip-rule="evenodd" d="M53.0706 68.904C53.8091 72.3472 55.2098 75.1639 57.2724 77.354C60.4856 80.7657 66.2547 84.2886 74.5797 87.9228C80.641 90.5928 85.2416 93.1516 88.3818 95.5991C91.5219 98.0466 93.092 100.939 93.092 104.277C93.092 108.653 91.3394 111.879 87.8341 113.955C84.3288 115.958 79.7281 116.959 74.032 116.959C69.9426 116.959 66.3642 116.477 63.2971 115.513L57.7106 98.8254H52.6718V120.742C58.1487 122.373 63.2241 123.375 67.8978 123.745C72.6445 124.116 76.0403 124.302 78.085 124.302C85.6798 124.376 91.9966 122.559 97.0354 118.85C102.439 114.845 105.141 109.135 105.141 101.718C105.141 98.232 104.484 95.0799 103.17 92.2616C101.928 89.4432 100.03 87.0328 97.4736 85.0303C94.9177 83.0278 92.5078 81.4332 90.244 80.2465C88.0532 78.9857 85.2416 77.6507 81.8094 76.2415C75.383 73.4973 70.8554 71.124 68.2264 69.1215C65.6705 67.0448 64.3925 64.486 64.3925 61.4452C64.3925 60.7952 64.44 60.1711 64.535 59.573L53.0706 68.904ZM75.7299 50.4612C77.2266 50.2188 78.8514 50.0977 80.6044 50.0977C83.7446 50.0977 86.8482 50.3943 89.9153 50.9876L95.3923 67.0077H100.322L100.869 45.6476C95.8227 44.38 90.393 43.5834 84.5803 43.2578L75.7299 50.4612Z" fill="url(#paint2_angular_1093_560)"/>
<path d="M93.2225 104.247C93.2225 87.7061 63.2472 76.587 64.423 60.9141C64.0693 69.8834 78.7738 74.8455 80.0065 75.4557C84.815 77.3141 89.4456 79.7786 91.1599 80.7786C101.098 85.7664 104.21 92.4781 104.99 98.8335C106.123 111.624 99.9392 116.391 96.9284 118.956C91.7485 122.408 86.4068 124.808 74.1694 124.184C64.1204 123.894 55.6497 121.763 52.6704 120.733V98.8223L57.7067 98.8065C58.9402 102.47 61.7788 110.95 63.2648 115.555C68.0276 117.054 76.6483 117.973 85.0784 115.264C91.8226 113.097 93.3179 107.017 93.2225 104.247Z" fill="url(#paint3_angular_1093_560)"/>
<path fill-rule="evenodd" clip-rule="evenodd" d="M8.06093 13.1927C3.24118 16.6044 0.831299 21.3882 0.831299 27.544C0.831299 33.9966 2.43789 38.9287 5.65106 42.3404C8.86423 45.752 14.6333 49.275 22.9584 52.9092C29.0196 55.5792 33.6203 58.1379 36.7604 60.5854C38.922 62.2703 40.3396 64.166 41.0132 66.2726L51.6978 57.5762C51.6489 57.4663 51.5991 57.3568 51.5483 57.2479C50.3068 54.4296 48.4082 52.0191 45.8522 50.0166C43.2963 48.0141 40.8864 46.4195 38.6226 45.2329C36.4318 43.972 33.6203 42.637 30.188 41.2278C23.7617 38.4837 19.234 36.1103 16.6051 34.1078C14.0491 32.0311 12.7712 29.4724 12.7712 26.4315C12.7712 22.8715 14.1952 20.0902 17.0432 18.0877C19.9643 16.0852 23.9442 15.084 28.9831 15.084C32.1232 15.084 35.2268 15.3806 38.294 15.974L43.771 31.9941H48.7003L49.248 10.634C42.4565 8.92812 34.9712 8.0752 26.7923 8.0752C19.1245 8.0752 12.8807 9.78104 8.06093 13.1927ZM13.737 88.4732L21.7621 81.9414C17.9417 81.8928 14.5796 81.4121 11.6758 80.4993L6.08922 63.8117H1.05038V85.728C5.55038 87.0687 9.77924 87.9837 13.737 88.4732Z" fill="url(#paint4_angular_1093_560)"/>
<path d="M45.3896 31.9772C44.2133 23.6418 43.4553 16.6868 37.9561 15.9492C41.2287 25.2318 43.4442 31.9772 43.4442 31.9772L45.3896 31.9772Z" fill="#976742"/>
<path fill-rule="evenodd" clip-rule="evenodd" d="M41.2407 66.088L51.7082 57.5684C49.8364 53.2756 46.2388 49.1289 39.5383 45.7659C37.8241 44.7659 33.1934 42.3014 28.3849 40.443C28.2628 40.3826 28.0084 40.2794 27.6495 40.1338C24.3863 38.8102 12.4828 33.982 12.8014 25.9014C12.2116 33.7639 19.4613 40.4803 26.8334 47.3102C33.2056 53.2136 39.6692 59.2018 41.2407 66.088ZM13.7582 88.4565C7.76661 87.6638 3.10274 86.4302 1.04883 85.7203V63.8096L6.08509 63.7938C7.31863 67.4577 10.1572 75.9369 11.6432 80.5419C14.1362 81.3268 17.6861 81.9526 21.7124 81.9824L13.7582 88.4565Z" fill="url(#paint5_angular_1093_560)"/>
<path d="M4.13762 63.8058C5.31388 72.1412 6.1961 79.7175 11.6953 80.4551C6.36028 64.5506 6.10271 63.8058 6.10271 63.8058L4.13762 63.8058Z" fill="#BB8256"/>
<path d="M55.7592 98.8233C56.9355 107.159 57.8177 114.735 63.3169 115.473C57.9819 99.5681 57.7243 98.8233 57.7243 98.8233L55.7592 98.8233Z" fill="#BB8256"/>
<path d="M97.2904 67.0104C96.1142 58.675 95.3561 51.72 89.8569 50.9824C93.1296 60.265 95.3451 67.0104 95.3451 67.0104L97.2904 67.0104Z" fill="#976742"/>
<path d="M158.423 55.2434C158.423 54.2723 158.809 53.5176 159.582 52.9794C160.354 52.4412 161.354 52.1721 162.583 52.1721C163.893 52.1721 165.092 52.3067 166.18 52.5758L166.093 55.9454H165.303L164.425 53.4182C163.934 53.3246 163.437 53.2778 162.934 53.2778C162.126 53.2778 161.489 53.4357 161.021 53.7516C160.564 54.0675 160.336 54.5063 160.336 55.0679C160.336 55.5476 160.541 55.9512 160.951 56.2788C161.372 56.5947 162.097 56.9691 163.127 57.402C163.677 57.6243 164.127 57.8349 164.478 58.0338C164.841 58.221 165.227 58.4726 165.636 58.7885C166.046 59.1044 166.35 59.4846 166.549 59.9292C166.76 60.3738 166.865 60.8711 166.865 61.421C166.865 62.591 166.432 63.4919 165.566 64.1237C164.759 64.7087 163.747 64.9953 162.53 64.9836C162.202 64.9836 161.658 64.9544 160.898 64.8959C160.149 64.8374 159.336 64.6794 158.458 64.422V60.9647H159.266L160.161 63.5972C160.652 63.7493 161.226 63.8253 161.881 63.8253C162.793 63.8253 163.53 63.6674 164.092 63.3515C164.654 63.0239 164.934 62.5149 164.934 61.8246C164.934 61.2981 164.683 60.8418 164.18 60.4557C163.677 60.0696 162.94 59.666 161.968 59.2448C160.635 58.6715 159.71 58.1157 159.196 57.5775C158.681 57.0393 158.423 56.2613 158.423 55.2434Z" fill="#D29463"/>
<path d="M178.2 52.1721C179.148 52.1721 179.984 52.3301 180.71 52.646C181.435 52.9619 182.049 53.4006 182.552 53.9622C183.055 54.5238 183.436 55.1966 183.693 55.9805C183.95 56.7644 184.079 57.6243 184.079 58.5603C184.079 59.508 183.95 60.3738 183.693 61.1577C183.447 61.9416 183.073 62.6202 182.57 63.1935C182.078 63.7551 181.464 64.1939 180.727 64.5098C180.002 64.8257 179.159 64.9836 178.2 64.9836C177.182 64.9836 176.299 64.814 175.55 64.4747C174.813 64.1354 174.204 63.6791 173.725 63.1058C173.245 62.5208 172.888 61.8363 172.654 61.0524C172.432 60.2685 172.321 59.4261 172.321 58.5252C172.321 57.6477 172.438 56.8287 172.672 56.0682C172.906 55.296 173.262 54.6233 173.742 54.05C174.222 53.465 174.83 53.0087 175.567 52.6811C176.316 52.3418 177.194 52.1721 178.2 52.1721ZM178.2 53.2076C177.006 53.2076 176.1 53.7107 175.48 54.7169C174.871 55.7114 174.567 56.9984 174.567 58.5779C174.567 60.251 174.889 61.5672 175.532 62.5266C176.187 63.4743 177.077 63.9482 178.2 63.9482C179.323 63.9482 180.206 63.4743 180.85 62.5266C181.505 61.5672 181.833 60.251 181.833 58.5779C181.833 56.9984 181.523 55.7114 180.903 54.7169C180.294 53.7107 179.393 53.2076 178.2 53.2076Z" fill="#D29463"/>
<path d="M189.253 64.7204V63.9131L190.867 63.527V53.6288L189.253 53.2427V52.4354H194.641V53.2427L193.026 53.6288V63.5445H197.15L198.098 60.9296H198.905L198.73 64.7204H189.253Z" fill="#D29463"/>
<path d="M203.162 53.2427V52.4354H208.55V53.2427L206.935 53.6288V60.1223C206.935 61.2923 207.222 62.1698 207.795 62.7548C208.38 63.3398 209.164 63.6323 210.147 63.6323C211.118 63.6323 211.902 63.3398 212.499 62.7548C213.095 62.1581 213.394 61.2806 213.394 60.1223V53.6288L211.762 53.2427V52.4354H216.254V53.2427L214.64 53.6288V60.1223C214.64 60.8945 214.517 61.5848 214.271 62.1932C214.037 62.8016 213.704 63.3105 213.271 63.72C212.838 64.1295 212.317 64.4454 211.709 64.6677C211.112 64.8783 210.457 64.9836 209.743 64.9836C209.018 64.9836 208.351 64.8783 207.743 64.6677C207.134 64.4571 206.608 64.1471 206.163 63.7376C205.73 63.3164 205.391 62.8074 205.145 62.2107C204.9 61.6023 204.777 60.9062 204.777 60.1223V53.6288L203.162 53.2427Z" fill="#D29463"/>
<path d="M225.244 68.1075C225.689 68.2011 226.051 68.2479 226.332 68.2479C226.671 68.2479 226.935 68.1602 227.122 67.9847C227.321 67.8209 227.42 67.5927 227.42 67.3002C227.42 66.6801 226.993 66.3408 226.139 66.2823L226.49 64.9485C224.84 64.8432 223.565 64.305 222.664 63.3339C221.646 62.2341 221.137 60.6488 221.137 58.5779C221.137 56.507 221.664 54.9216 222.717 53.8218C223.782 52.722 225.373 52.1721 227.49 52.1721C228.848 52.1721 229.988 52.3769 230.913 52.7864V56.1033H230.105L229.298 53.5059C228.842 53.4006 228.315 53.348 227.719 53.348C224.805 53.348 223.349 55.0913 223.349 58.5779C223.349 62.0645 224.688 63.8078 227.368 63.8078C227.765 63.8078 228.122 63.7961 228.438 63.7727C228.754 63.7493 229.041 63.7142 229.298 63.6674L230.316 60.8945H231.123L231 64.2114C230.837 64.305 230.603 64.3986 230.298 64.4922C229.994 64.5858 229.661 64.6677 229.298 64.7379C228.947 64.8081 228.579 64.8666 228.192 64.9134C227.912 64.9485 227.654 64.9719 227.42 64.9836L227.245 65.6681C227.83 65.6915 228.28 65.8494 228.596 66.1419C228.924 66.4344 229.087 66.8147 229.087 67.2827C229.087 67.9028 228.865 68.3883 228.421 68.7393C227.988 69.102 227.379 69.2834 226.595 69.2834C226.315 69.2834 225.864 69.219 225.244 69.0903V68.1075Z" fill="#D29463"/>
<path d="M242.529 52.1721C243.477 52.1721 244.313 52.3301 245.039 52.646C245.764 52.9619 246.378 53.4006 246.881 53.9622C247.384 54.5238 247.765 55.1966 248.022 55.9805C248.28 56.7644 248.408 57.6243 248.408 58.5603C248.408 59.508 248.28 60.3738 248.022 61.1577C247.776 61.9416 247.402 62.6202 246.899 63.1935C246.408 63.7551 245.793 64.1939 245.056 64.5098C244.331 64.8257 243.488 64.9836 242.529 64.9836C241.511 64.9836 240.628 64.814 239.879 64.4747C239.142 64.1354 238.533 63.6791 238.054 63.1058C237.574 62.5208 237.217 61.8363 236.983 61.0524C236.761 60.2685 236.65 59.4261 236.65 58.5252C236.65 57.6477 236.767 56.8287 237.001 56.0682C237.235 55.296 237.592 54.6233 238.071 54.05C238.551 53.465 239.159 53.0087 239.896 52.6811C240.645 52.3418 241.523 52.1721 242.529 52.1721ZM242.529 53.2076C241.336 53.2076 240.429 53.7107 239.809 54.7169C239.2 55.7114 238.896 56.9984 238.896 58.5779C238.896 60.251 239.218 61.5672 239.861 62.5266C240.517 63.4743 241.406 63.9482 242.529 63.9482C243.652 63.9482 244.536 63.4743 245.179 62.5266C245.834 61.5672 246.162 60.251 246.162 58.5779C246.162 56.9984 245.852 55.7114 245.232 54.7169C244.623 53.7107 243.722 53.2076 242.529 53.2076ZM239.282 50.2767C239.61 49.7619 239.932 49.3758 240.247 49.1184C240.575 48.861 240.979 48.7148 241.458 48.6797C241.88 48.6797 242.307 48.8493 242.74 49.1886C243.184 49.5162 243.559 49.68 243.863 49.68C244.225 49.68 244.688 49.4343 245.249 48.9429L245.776 49.4519C245.589 49.8614 245.302 50.2358 244.916 50.5751C244.53 50.9144 244.097 51.084 243.617 51.084C243.278 51.084 242.892 50.9202 242.459 50.5926C242.038 50.2533 241.616 50.0837 241.195 50.0837C240.891 50.0837 240.435 50.3294 239.826 50.8208L239.282 50.2767Z" fill="#D29463"/>
<path d="M253.582 64.7204V63.9131L255.196 63.527V53.6288L253.582 53.2427V52.4354H262.725V56.0331H261.9L261.146 53.6112L257.355 53.4708V57.9812L261.146 57.6477V59.2097L257.355 58.8938V63.6849L261.479 63.5445L262.374 60.9296H263.199L263.059 64.7204H253.582Z" fill="#D29463"/>
<path d="M268.861 55.2434C268.861 54.2723 269.247 53.5176 270.02 52.9794C270.792 52.4412 271.792 52.1721 273.021 52.1721C274.331 52.1721 275.53 52.3067 276.618 52.5758L276.531 55.9454H275.741L274.863 53.4182C274.372 53.3246 273.875 53.2778 273.372 53.2778C272.564 53.2778 271.927 53.4357 271.459 53.7516C271.002 54.0675 270.774 54.5063 270.774 55.0679C270.774 55.5476 270.979 55.9512 271.388 56.2788C271.81 56.5947 272.535 56.9691 273.565 57.402C274.115 57.6243 274.565 57.8349 274.916 58.0338C275.279 58.221 275.665 58.4726 276.074 58.7885C276.484 59.1044 276.788 59.4846 276.987 59.9292C277.197 60.3738 277.303 60.8711 277.303 61.421C277.303 62.591 276.87 63.4919 276.004 64.1237C275.197 64.7087 274.185 64.9953 272.968 64.9836C272.64 64.9836 272.096 64.9544 271.336 64.8959C270.587 64.8374 269.774 64.6794 268.896 64.422V60.9647H269.704L270.599 63.5972C271.09 63.7493 271.663 63.8253 272.319 63.8253C273.231 63.8253 273.968 63.6674 274.53 63.3515C275.091 63.0239 275.372 62.5149 275.372 61.8246C275.372 61.2981 275.121 60.8418 274.618 60.4557C274.115 60.0696 273.377 59.666 272.406 59.2448C271.073 58.6715 270.148 58.1157 269.633 57.5775C269.119 57.0393 268.861 56.2613 268.861 55.2434Z" fill="#D29463"/>
<path d="M290.559 61.8071C290.559 60.3914 291.477 59.198 293.314 58.2269C292.202 57.0218 291.647 55.9103 291.647 54.8924C291.647 53.9915 291.974 53.3129 292.629 52.8566C293.296 52.4003 294.115 52.1721 295.086 52.1721C296.034 52.1721 296.841 52.4061 297.508 52.8741C298.175 53.3421 298.509 53.9973 298.509 54.8397C298.509 56.1618 297.608 57.285 295.806 58.2093L298.667 61.0524C298.947 60.4323 299.146 59.7654 299.263 59.0517L298.21 58.6656V57.8759H301.808V58.6656L300.299 59.0517C300.17 60.0462 299.895 60.9647 299.474 61.8071L301.246 63.5094L303.001 63.9306V64.7204H300.018L298.509 63.2813C297.491 64.4162 296.204 64.9836 294.648 64.9836C293.489 64.9836 292.518 64.7145 291.734 64.1763C290.95 63.6264 290.559 62.8367 290.559 61.8071ZM292.542 61.8071C292.542 62.3804 292.729 62.8776 293.103 63.2988C293.478 63.72 294.022 63.9306 294.735 63.9306C295.941 63.9306 296.941 63.4626 297.736 62.5266L294.104 59.0517C293.062 59.8824 292.542 60.8009 292.542 61.8071ZM293.542 54.8748C293.542 55.1556 293.612 55.454 293.753 55.7699C293.905 56.0858 294.156 56.4309 294.507 56.8053C294.858 57.1797 295.045 57.3786 295.069 57.402C295.513 57.1329 295.876 56.7702 296.157 56.3139C296.449 55.8576 296.596 55.3721 296.596 54.8573C296.596 54.3308 296.449 53.9213 296.157 53.6288C295.864 53.3246 295.496 53.1725 295.051 53.1725C294.642 53.1725 294.285 53.3246 293.981 53.6288C293.688 53.9213 293.542 54.3366 293.542 54.8748Z" fill="#D29463"/>
<path d="M158.125 90.7204V89.9131L159.757 89.527V79.6288L158.125 79.2427V78.4354H163.513V79.2427L161.898 79.6288V89.527L163.513 89.9131V90.7204H158.125Z" fill="#D29463"/>
<path d="M168.787 90.7204V89.9131L170.402 89.527V79.6288L168.787 79.2427V78.4354H171.63L178.949 87.1226V79.6288L177.334 79.2427V78.4354H181.844V79.2427L180.23 79.6288V90.7204H179.177L171.63 81.8225V89.527L173.245 89.9131V90.7204H168.787Z" fill="#D29463"/>
<path d="M186.061 79.2427V78.4354H191.379V79.2427L189.94 79.541L192.923 87.965L195.731 79.6288L194.345 79.2427V78.4354H198.574V79.2427L196.96 79.6288L193.099 90.8432H191.712L187.623 79.6288L186.061 79.2427Z" fill="#D29463"/>
<path d="M203.017 90.7204V89.9131L204.632 89.527V79.6288L203.017 79.2427V78.4354H212.16V82.0331H211.336L210.581 79.6112L206.79 79.4708V83.9812L210.581 83.6477V85.2097L206.79 84.8938V89.6849L210.914 89.5445L211.809 86.9296H212.634L212.494 90.7204H203.017Z" fill="#D29463"/>
<path d="M218.296 81.2434C218.296 80.2723 218.683 79.5176 219.455 78.9794C220.227 78.4412 221.227 78.1721 222.456 78.1721C223.766 78.1721 224.965 78.3067 226.054 78.5758L225.966 81.9454H225.176L224.299 79.4182C223.807 79.3246 223.31 79.2778 222.807 79.2778C221.999 79.2778 221.362 79.4357 220.894 79.7516C220.438 80.0675 220.209 80.5063 220.209 81.0679C220.209 81.5476 220.414 81.9512 220.824 82.2788C221.245 82.5947 221.97 82.9691 223 83.402C223.55 83.6243 224 83.8349 224.351 84.0338C224.714 84.221 225.1 84.4726 225.509 84.7885C225.919 85.1044 226.223 85.4846 226.422 85.9292C226.633 86.3738 226.738 86.8711 226.738 87.421C226.738 88.591 226.305 89.4919 225.439 90.1237C224.632 90.7087 223.62 90.9953 222.403 90.9836C222.076 90.9836 221.531 90.9544 220.771 90.8959C220.022 90.8374 219.209 90.6794 218.332 90.422V86.9647H219.139L220.034 89.5972C220.525 89.7493 221.099 89.8253 221.754 89.8253C222.666 89.8253 223.403 89.6674 223.965 89.3515C224.527 89.0239 224.807 88.5149 224.807 87.8246C224.807 87.2981 224.556 86.8418 224.053 86.4557C223.55 86.0696 222.813 85.666 221.841 85.2448C220.508 84.6715 219.583 84.1157 219.069 83.5775C218.554 83.0393 218.296 82.2613 218.296 81.2434Z" fill="#D29463"/>
<path d="M231.825 82.156V78.4354H242.267V82.156H241.443L240.653 79.6112L238.126 79.4708V89.527L239.74 89.9131V90.7204H234.352V89.9131L235.967 89.527V79.4708L233.422 79.6112L232.65 82.156H231.825Z" fill="#D29463"/>
<path d="M247.309 90.7204V89.9131L248.941 89.527V79.6288L247.309 79.2427V78.4354H252.697V79.2427L251.082 79.6288V89.527L252.697 89.9131V90.7204H247.309Z" fill="#D29463"/>
<path d="M257.725 90.7204V89.9131L259.393 89.5094L259.954 79.6112L258.41 79.2427L258.427 78.4354H262.183L266.132 87.5965L270.116 78.4354H273.731V79.2427L272.152 79.6112L272.748 89.527L274.433 89.9131V90.7204H269.098V89.9131L270.642 89.5445L270.168 81.2258L266.009 90.8081H265.237L261.025 81.2083L260.586 89.5445L262.148 89.9131V90.7204H257.725Z" fill="#D29463"/>
<path d="M279.431 90.7204V89.9131L281.045 89.527V79.6288L279.431 79.2427V78.4354H288.574V82.0331H287.749L286.995 79.6112L283.204 79.4708V83.9812L286.995 83.6477V85.2097L283.204 84.8938V89.6849L287.328 89.5445L288.223 86.9296H289.048L288.908 90.7204H279.431Z" fill="#D29463"/>
<path d="M294.412 90.7204V89.9131L296.026 89.527V79.6288L294.412 79.2427V78.4354H297.255L304.573 87.1226V79.6288L302.959 79.2427V78.4354H307.469V79.2427L305.854 79.6288V90.7204H304.801L297.255 81.8225V89.527L298.87 89.9131V90.7204H294.412Z" fill="#D29463"/>
<path d="M312.335 82.156V78.4354H322.777V82.156H321.952L321.163 79.6112L318.636 79.4708V89.527L320.25 89.9131V90.7204H314.862V89.9131L316.477 89.527V79.4708L313.932 79.6112L313.16 82.156H312.335Z" fill="#D29463"/>
<path d="M333.821 78.1721C334.769 78.1721 335.605 78.3301 336.331 78.646C337.056 78.9619 337.67 79.4006 338.173 79.9622C338.677 80.5238 339.057 81.1966 339.314 81.9805C339.572 82.7644 339.7 83.6243 339.7 84.5603C339.7 85.508 339.572 86.3738 339.314 87.1577C339.069 87.9416 338.694 88.6202 338.191 89.1935C337.7 89.7551 337.085 90.1939 336.348 90.5098C335.623 90.8257 334.78 90.9836 333.821 90.9836C332.803 90.9836 331.92 90.814 331.171 90.4747C330.434 90.1354 329.826 89.6791 329.346 89.1058C328.866 88.5208 328.509 87.8363 328.275 87.0524C328.053 86.2685 327.942 85.4261 327.942 84.5252C327.942 83.6477 328.059 82.8287 328.293 82.0682C328.527 81.296 328.884 80.6233 329.363 80.05C329.843 79.465 330.451 79.0087 331.189 78.6811C331.937 78.3418 332.815 78.1721 333.821 78.1721ZM333.821 79.2076C332.628 79.2076 331.721 79.7107 331.101 80.7169C330.492 81.7114 330.188 82.9984 330.188 84.5779C330.188 86.251 330.51 87.5672 331.153 88.5266C331.809 89.4743 332.698 89.9482 333.821 89.9482C334.944 89.9482 335.828 89.4743 336.471 88.5266C337.126 87.5672 337.454 86.251 337.454 84.5779C337.454 82.9984 337.144 81.7114 336.524 80.7169C335.915 79.7107 335.014 79.2076 333.821 79.2076Z" fill="#D29463"/>
<path d="M345.395 81.2434C345.395 80.2723 345.781 79.5176 346.553 78.9794C347.326 78.4412 348.326 78.1721 349.554 78.1721C350.865 78.1721 352.064 78.3067 353.152 78.5758L353.064 81.9454H352.275L351.397 79.4182C350.906 79.3246 350.408 79.2778 349.905 79.2778C349.098 79.2778 348.46 79.4357 347.992 79.7516C347.536 80.0675 347.308 80.5063 347.308 81.0679C347.308 81.5476 347.513 81.9512 347.922 82.2788C348.343 82.5947 349.069 82.9691 350.098 83.402C350.648 83.6243 351.099 83.8349 351.45 84.0338C351.812 84.221 352.199 84.4726 352.608 84.7885C353.018 85.1044 353.322 85.4846 353.521 85.9292C353.731 86.3738 353.837 86.8711 353.837 87.421C353.837 88.591 353.404 89.4919 352.538 90.1237C351.731 90.7087 350.719 90.9953 349.502 90.9836C349.174 90.9836 348.63 90.9544 347.87 90.8959C347.121 90.8374 346.308 90.6794 345.43 90.422V86.9647H346.237L347.132 89.5972C347.624 89.7493 348.197 89.8253 348.852 89.8253C349.765 89.8253 350.502 89.6674 351.064 89.3515C351.625 89.0239 351.906 88.5149 351.906 87.8246C351.906 87.2981 351.655 86.8418 351.151 86.4557C350.648 86.0696 349.911 85.666 348.94 85.2448C347.606 84.6715 346.682 84.1157 346.167 83.5775C345.652 83.0393 345.395 82.2613 345.395 81.2434Z" fill="#D29463"/>
<defs>
<linearGradient id="paint0_linear_1093_560" x1="102.581" y1="23.2391" x2="82.4426" y2="117.929" gradientUnits="userSpaceOnUse">
<stop stop-color="#F8B179"/>
<stop offset="0.46875" stop-color="#7C5333"/>
<stop offset="1" stop-color="#F8B179"/>
</linearGradient>
<linearGradient id="paint1_linear_1093_560" x1="97.8097" y1="32.2903" x2="83.6411" y2="125.232" gradientUnits="userSpaceOnUse">
<stop stop-color="#F8B179"/>
<stop offset="0.46875" stop-color="#7C5333"/>
<stop offset="1" stop-color="#F8B179"/>
</linearGradient>
<radialGradient id="paint2_angular_1093_560" cx="0" cy="0" r="1" gradientUnits="userSpaceOnUse" gradientTransform="translate(68.7784 66.998) rotate(50.7417) scale(40.3814 32.2303)">
<stop offset="0.565241" stop-color="#D79766"/>
<stop offset="1" stop-color="#9A6A43"/>
</radialGradient>
<radialGradient id="paint3_angular_1093_560" cx="0" cy="0" r="1" gradientUnits="userSpaceOnUse" gradientTransform="translate(88.4622 96.7807) rotate(-135.762) scale(40.2393 64.2506)">
<stop stop-color="#D79866"/>
<stop offset="1" stop-color="#8B5E3B"/>
</radialGradient>
<radialGradient id="paint4_angular_1093_560" cx="0" cy="0" r="1" gradientUnits="userSpaceOnUse" gradientTransform="translate(17.157 31.9842) rotate(50.7418) scale(40.3812 32.2301)">
<stop offset="0.565241" stop-color="#D79766"/>
<stop offset="1" stop-color="#9A6A43"/>
</radialGradient>
<radialGradient id="paint5_angular_1093_560" cx="0" cy="0" r="1" gradientUnits="userSpaceOnUse" gradientTransform="translate(36.8405 61.768) rotate(-135.762) scale(40.2392 64.2505)">
<stop stop-color="#D79866"/>
<stop offset="1" stop-color="#8B5E3B"/>
</radialGradient>
</defs>
</svg>
