<svg width="auto" height="auto" viewBox="0 0 437 72" fill="none" xmlns="http://www.w3.org/2000/svg">
<path d="M15.0703 0.442383H16.8926V3.61516H15.0703V0.442383Z" fill="#D59665"/>
<path d="M42.5917 67.9893H44.4139V71.162H42.5917V67.9893Z" fill="#D59665"/>
<path d="M15.0703 8.78771C15.8498 8.66085 16.2263 8.68682 16.8926 8.72888V21.669L15.0703 21.0118V8.78771Z" fill="#D59665"/>
<path d="M16.8926 43.4788C16.1131 43.6056 15.7832 43.7061 15.0703 43.7061L15.0703 30.4935L16.8926 31.1508L16.8926 43.4788Z" fill="#D59665"/>
<path d="M47.3977 15.915L48.2019 17.151L11.6649 48.0437L7.62133 47.9348L47.3977 15.915Z" fill="url(#paint0_linear_813_551)"/>
<path d="M16.3721 21.4815V8.73395V8.70215C16.4319 8.70215 16.7431 8.72335 16.8912 8.73395V21.668L16.3721 21.4815Z" fill="#A7744B"/>
<path d="M15.07 30.4938L15.5891 30.6567L15.5891 41.5222C15.49 41.5999 15.3691 41.6995 15.07 41.9346L15.07 30.4938Z" fill="#A7744B"/>
<path d="M42.0381 23.4197L46.647 23.4199L6.22394 55.7761L5.50861 54.6319L42.0381 23.4197Z" fill="url(#paint1_linear_813_551)"/>
<path d="M42.5869 27.775C43.3664 27.6482 43.7429 27.6741 44.4092 27.7162V40.6563L42.5869 39.9991V27.775Z" fill="#D59665"/>
<path d="M44.4092 62.2671C43.727 62.4654 43.3151 62.6027 42.5869 62.6943L42.5869 49.4818L44.4092 50.139L44.4092 62.2671Z" fill="#D59665"/>
<path d="M43.8896 40.4678V27.7203V27.6885C43.9495 27.6885 44.2607 27.7097 44.4088 27.7203V40.6543L43.8896 40.4678Z" fill="#A7744B"/>
<path d="M43.1064 49.6713L43.1064 62.6614L43.1064 62.6692C43.0466 62.6692 42.7354 62.7009 42.5873 62.6901L42.5873 49.4813L43.1064 49.6713Z" fill="#A7744B"/>
<path fill-rule="evenodd" clip-rule="evenodd" d="M29.2762 37.3222C29.683 39.1896 30.4544 40.7171 31.5905 41.9048C33.3601 43.7549 36.5374 45.6653 41.1225 47.6361C44.4607 49.084 46.9945 50.4716 48.7239 51.7988C50.4534 53.126 51.3181 54.6946 51.3181 56.5045C51.3181 58.8774 50.3528 60.627 48.4223 61.7531C46.4917 62.839 43.9579 63.382 40.8208 63.382C38.5685 63.382 36.5978 63.1206 34.9086 62.5977L31.8318 53.5483H29.0566V65.4332C32.0731 66.318 34.8683 66.861 37.4424 67.0621C40.0566 67.2632 41.9268 67.3637 43.053 67.3637C47.2358 67.4039 50.7148 66.4185 53.4899 64.4076C56.4662 62.2357 57.9543 59.1388 57.9543 55.1169C57.9543 53.2266 57.5923 51.5173 56.8684 49.9889C56.1846 48.4606 55.1389 47.1535 53.7312 46.0675C52.3236 44.9816 50.9963 44.1169 49.7495 43.4734C48.5429 42.7897 46.9945 42.0657 45.1042 41.3015C41.5649 39.8134 39.0713 38.5264 37.6234 37.4405C36.2157 36.3143 35.5119 34.9268 35.5119 33.2778C35.5119 32.9251 35.538 32.5865 35.5904 32.2621L29.2762 37.3222ZM41.7553 27.3215C42.5798 27.19 43.4749 27.1242 44.4406 27.1242C46.17 27.1242 47.8793 27.2851 49.5685 27.6068L52.585 36.2942H55.2998L55.6014 24.711C52.8219 24.0236 49.8313 23.5916 46.6298 23.415L41.7553 27.3215Z" fill="url(#paint2_angular_813_551)"/>
<path d="M51.3897 56.489C51.3897 47.5191 34.8808 41.4894 35.5284 32.9902C35.3336 37.8541 43.4321 40.545 44.111 40.8759C46.7593 41.8836 49.3096 43.2201 50.2537 43.7624C55.727 46.4672 57.441 50.1068 57.8704 53.5532C58.4945 60.4891 55.0889 63.0745 53.4307 64.4652C50.5779 66.3374 47.636 67.639 40.8962 67.3002C35.3618 67.1433 30.6965 65.9873 29.0557 65.4289V53.5472L31.8294 53.5386C32.5088 55.5255 34.0721 60.1236 34.8905 62.6208C37.5136 63.4339 42.2615 63.9323 46.9044 62.4634C50.6187 61.2882 51.4422 57.9908 51.3897 56.489Z" fill="url(#paint3_angular_813_551)"/>
<path fill-rule="evenodd" clip-rule="evenodd" d="M4.4866 7.11108C1.83212 8.96117 0.504883 11.5553 0.504883 14.8935C0.504883 18.3926 1.38971 21.0672 3.15936 22.9173C4.92902 24.7674 8.10635 26.6778 12.6914 28.6486C16.0296 30.0965 18.5634 31.484 20.2928 32.8113C21.4835 33.725 22.2643 34.7532 22.6352 35.8957L28.5198 31.1798C28.4928 31.1201 28.4653 31.0606 28.4373 31.0014C27.7535 29.473 26.7078 28.1659 25.3001 27.08C23.8925 25.9941 22.5652 25.1294 21.3184 24.4858C20.1118 23.8021 18.5634 23.0782 16.6731 22.314C13.1338 20.8259 10.6402 19.5389 9.19227 18.4529C7.78459 17.3268 7.08075 15.9392 7.08075 14.2902C7.08075 12.3597 7.86503 10.8515 9.43359 9.76556C11.0424 8.67963 13.2343 8.13667 16.0095 8.13667C17.7389 8.13667 19.4482 8.29755 21.1374 8.6193L24.1539 17.3067H26.8687L27.1703 5.72351C23.4299 4.79846 19.3074 4.33594 14.8029 4.33594C10.5798 4.33594 7.14108 5.26098 4.4866 7.11108ZM7.61328 47.9343L12.0332 44.3922C9.92885 44.3659 8.07695 44.1052 6.47746 43.6102L3.40068 34.5608H0.625541V46.4456C3.10414 47.1727 5.43339 47.6689 7.61328 47.9343Z" fill="url(#paint4_angular_813_551)"/>
<path d="M25.0454 17.2981C24.3976 12.778 23.9801 9.00643 20.9514 8.60645C22.7538 13.6402 23.974 17.2981 23.974 17.2981L25.0454 17.2981Z" fill="#976742"/>
<path fill-rule="evenodd" clip-rule="evenodd" d="M22.7605 35.7958L28.5255 31.1757C27.4947 28.8477 25.5133 26.5989 21.8228 24.7751C20.8787 24.2328 18.3284 22.8963 15.6801 21.8886C15.6128 21.8558 15.4727 21.7999 15.2751 21.7209C13.4778 21.0031 6.922 18.3849 7.09748 14.0029C6.77262 18.2666 10.7654 21.9088 14.8256 25.6125C18.3352 28.814 21.8952 32.0614 22.7605 35.7958ZM7.62502 47.9255C4.32486 47.4956 1.75601 46.8266 0.624756 46.4416V34.5598L3.39848 34.5513C4.07785 36.5382 5.6412 41.1363 6.45961 43.6335C7.83274 44.0591 9.78809 44.3986 12.0058 44.4147L7.62502 47.9255Z" fill="url(#paint5_angular_813_551)"/>
<path d="M2.32589 34.5593C2.97371 39.0794 3.45959 43.1879 6.48828 43.5879C3.55001 34.9632 3.40816 34.5593 3.40816 34.5593L2.32589 34.5593Z" fill="#BB8256"/>
<path d="M30.7565 53.5466C31.4044 58.0667 31.8903 62.1752 34.9189 62.5752C31.9807 53.9505 31.8388 53.5466 31.8388 53.5466L30.7565 53.5466Z" fill="#BB8256"/>
<path d="M53.6301 36.2961C52.9823 31.776 52.5648 28.0045 49.5361 27.6045C51.3385 32.6383 52.5587 36.2961 52.5587 36.2961L53.6301 36.2961Z" fill="#976742"/>
<path d="M79.5321 39.3659C79.5321 38.4252 79.9061 37.6942 80.6541 37.1729C81.4021 36.6516 82.3711 36.3909 83.5611 36.3909C84.8305 36.3909 85.9921 36.5212 87.0461 36.7819L86.9611 40.0459H86.1961L85.3461 37.5979C84.8701 37.5072 84.3885 37.4619 83.9011 37.4619C83.1191 37.4619 82.5015 37.6149 82.0481 37.9209C81.6061 38.2269 81.3851 38.6519 81.3851 39.1959C81.3851 39.6606 81.5835 40.0516 81.9801 40.3689C82.3881 40.6749 83.0908 41.0376 84.0881 41.4569C84.6208 41.6722 85.0571 41.8762 85.3971 42.0689C85.7485 42.2502 86.1225 42.4939 86.5191 42.7999C86.9158 43.1059 87.2105 43.4742 87.4031 43.9049C87.6071 44.3356 87.7091 44.8172 87.7091 45.3499C87.7091 46.4832 87.2898 47.3559 86.4511 47.9679C85.6691 48.5346 84.6888 48.8122 83.5101 48.8009C83.1928 48.8009 82.6658 48.7726 81.9291 48.7159C81.2038 48.6592 80.4161 48.5062 79.5661 48.2569V44.9079H80.3481L81.2151 47.4579C81.6911 47.6052 82.2465 47.6789 82.8811 47.6789C83.7651 47.6789 84.4791 47.5259 85.0231 47.2199C85.5671 46.9026 85.8391 46.4096 85.8391 45.7409C85.8391 45.2309 85.5955 44.7889 85.1081 44.4149C84.6208 44.0409 83.9068 43.6499 82.9661 43.2419C81.6741 42.6866 80.7788 42.1482 80.2801 41.6269C79.7815 41.1056 79.5321 40.3519 79.5321 39.3659ZM99.3179 36.3909C100.236 36.3909 101.046 36.5439 101.749 36.8499C102.452 37.1559 103.047 37.5809 103.534 38.1249C104.021 38.6689 104.39 39.3206 104.639 40.0799C104.888 40.8392 105.013 41.6722 105.013 42.5789C105.013 43.4969 104.888 44.3356 104.639 45.0949C104.401 45.8542 104.038 46.5116 103.551 47.0669C103.075 47.6109 102.48 48.0359 101.766 48.3419C101.063 48.6479 100.247 48.8009 99.3179 48.8009C98.3319 48.8009 97.4762 48.6366 96.7509 48.3079C96.0369 47.9792 95.4475 47.5372 94.9829 46.9819C94.5182 46.4152 94.1725 45.7522 93.9459 44.9929C93.7305 44.2336 93.6229 43.4176 93.6229 42.5449C93.6229 41.6949 93.7362 40.9016 93.9629 40.1649C94.1895 39.4169 94.5352 38.7652 94.9999 38.2099C95.4645 37.6432 96.0539 37.2012 96.7679 36.8839C97.4932 36.5552 98.3432 36.3909 99.3179 36.3909ZM99.3179 37.3939C98.1619 37.3939 97.2835 37.8812 96.6829 38.8559C96.0935 39.8192 95.7989 41.0659 95.7989 42.5959C95.7989 44.2166 96.1105 45.4916 96.7339 46.4209C97.3685 47.3389 98.2299 47.7979 99.3179 47.7979C100.406 47.7979 101.262 47.3389 101.885 46.4209C102.52 45.4916 102.837 44.2166 102.837 42.5959C102.837 41.0659 102.537 39.8192 101.936 38.8559C101.347 37.8812 100.474 37.3939 99.3179 37.3939ZM110.653 48.5459V47.7639L112.217 47.3899V37.8019L110.653 37.4279V36.6459H115.872V37.4279L114.308 37.8019V47.4069H118.303L119.221 44.8739H120.003L119.833 48.5459H110.653ZM124.756 37.4279V36.6459H129.975V37.4279L128.411 37.8019V44.0919C128.411 45.2252 128.689 46.0752 129.244 46.6419C129.811 47.2086 130.57 47.4919 131.522 47.4919C132.463 47.4919 133.222 47.2086 133.8 46.6419C134.378 46.0639 134.667 45.2139 134.667 44.0919V37.8019L133.086 37.4279V36.6459H137.438V37.4279L135.874 37.8019V44.0919C135.874 44.8399 135.755 45.5086 135.517 46.0979C135.29 46.6872 134.967 47.1802 134.548 47.5769C134.129 47.9736 133.624 48.2796 133.035 48.4949C132.457 48.6989 131.822 48.8009 131.131 48.8009C130.428 48.8009 129.782 48.6989 129.193 48.4949C128.604 48.2909 128.094 47.9906 127.663 47.5939C127.244 47.1859 126.915 46.6929 126.677 46.1149C126.439 45.5256 126.32 44.8512 126.32 44.0919V37.8019L124.756 37.4279ZM146.775 51.8269C147.205 51.9176 147.557 51.9629 147.829 51.9629C148.157 51.9629 148.412 51.8779 148.594 51.7079C148.786 51.5492 148.883 51.3282 148.883 51.0449C148.883 50.4442 148.469 50.1156 147.642 50.0589L147.982 48.7669C146.384 48.6649 145.148 48.1436 144.276 47.2029C143.29 46.1376 142.797 44.6019 142.797 42.5959C142.797 40.5899 143.307 39.0542 144.327 37.9889C145.358 36.9236 146.899 36.3909 148.951 36.3909C150.265 36.3909 151.37 36.5892 152.266 36.9859V40.1989H151.484L150.702 37.6829C150.26 37.5809 149.75 37.5299 149.172 37.5299C146.35 37.5299 144.939 39.2186 144.939 42.5959C144.939 45.9732 146.236 47.6619 148.832 47.6619C149.217 47.6619 149.563 47.6506 149.869 47.6279C150.175 47.6052 150.452 47.5712 150.702 47.5259L151.688 44.8399H152.47L152.351 48.0529C152.192 48.1436 151.965 48.2342 151.671 48.3249C151.376 48.4156 151.053 48.4949 150.702 48.5629C150.362 48.6309 150.005 48.6876 149.631 48.7329C149.359 48.7669 149.109 48.7896 148.883 48.8009L148.713 49.4639C149.279 49.4866 149.716 49.6396 150.022 49.9229C150.339 50.2062 150.498 50.5746 150.498 51.0279C150.498 51.6286 150.282 52.0989 149.852 52.4389C149.432 52.7902 148.843 52.9659 148.084 52.9659C147.812 52.9659 147.375 52.9036 146.775 52.7789V51.8269ZM164.147 36.3909C165.065 36.3909 165.875 36.5439 166.578 36.8499C167.281 37.1559 167.876 37.5809 168.363 38.1249C168.85 38.6689 169.219 39.3206 169.468 40.0799C169.717 40.8392 169.842 41.6722 169.842 42.5789C169.842 43.4969 169.717 44.3356 169.468 45.0949C169.23 45.8542 168.867 46.5116 168.38 47.0669C167.904 47.6109 167.309 48.0359 166.595 48.3419C165.892 48.6479 165.076 48.8009 164.147 48.8009C163.161 48.8009 162.305 48.6366 161.58 48.3079C160.866 47.9792 160.277 47.5372 159.812 46.9819C159.347 46.4152 159.002 45.7522 158.775 44.9929C158.56 44.2336 158.452 43.4176 158.452 42.5449C158.452 41.6949 158.565 40.9016 158.792 40.1649C159.019 39.4169 159.364 38.7652 159.829 38.2099C160.294 37.6432 160.883 37.2012 161.597 36.8839C162.322 36.5552 163.172 36.3909 164.147 36.3909ZM164.147 37.3939C162.991 37.3939 162.113 37.8812 161.512 38.8559C160.923 39.8192 160.628 41.0659 160.628 42.5959C160.628 44.2166 160.94 45.4916 161.563 46.4209C162.198 47.3389 163.059 47.7979 164.147 47.7979C165.235 47.7979 166.091 47.3389 166.714 46.4209C167.349 45.4916 167.666 44.2166 167.666 42.5959C167.666 41.0659 167.366 39.8192 166.765 38.8559C166.176 37.8812 165.303 37.3939 164.147 37.3939ZM161.002 34.5549C161.319 34.0562 161.631 33.6822 161.937 33.4329C162.254 33.1836 162.645 33.0419 163.11 33.0079C163.518 33.0079 163.932 33.1722 164.351 33.5009C164.782 33.8182 165.144 33.9769 165.439 33.9769C165.79 33.9769 166.238 33.7389 166.782 33.2629L167.292 33.7559C167.111 34.1526 166.833 34.5152 166.459 34.8439C166.085 35.1726 165.666 35.3369 165.201 35.3369C164.872 35.3369 164.498 35.1782 164.079 34.8609C163.671 34.5322 163.263 34.3679 162.855 34.3679C162.56 34.3679 162.118 34.6059 161.529 35.0819L161.002 34.5549ZM175.482 48.5459V47.7639L177.046 47.3899V37.8019L175.482 37.4279V36.6459H184.339V40.1309H183.54L182.809 37.7849L179.137 37.6489V42.0179L182.809 41.6949V43.2079L179.137 42.9019V47.5429L183.132 47.4069L183.999 44.8739H184.798L184.662 48.5459H175.482ZM190.912 39.3659C190.912 38.4252 191.286 37.6942 192.034 37.1729C192.782 36.6516 193.751 36.3909 194.941 36.3909C196.21 36.3909 197.372 36.5212 198.426 36.7819L198.341 40.0459H197.576L196.726 37.5979C196.25 37.5072 195.768 37.4619 195.281 37.4619C194.499 37.4619 193.881 37.6149 193.428 37.9209C192.986 38.2269 192.765 38.6519 192.765 39.1959C192.765 39.6606 192.963 40.0516 193.36 40.3689C193.768 40.6749 194.471 41.0376 195.468 41.4569C196.001 41.6722 196.437 41.8762 196.777 42.0689C197.128 42.2502 197.502 42.4939 197.899 42.7999C198.296 43.1059 198.59 43.4742 198.783 43.9049C198.987 44.3356 199.089 44.8172 199.089 45.3499C199.089 46.4832 198.67 47.3559 197.831 47.9679C197.049 48.5346 196.069 48.8122 194.89 48.8009C194.573 48.8009 194.046 48.7726 193.309 48.7159C192.584 48.6592 191.796 48.5062 190.946 48.2569V44.9079H191.728L192.595 47.4579C193.071 47.6052 193.626 47.6789 194.261 47.6789C195.145 47.6789 195.859 47.5259 196.403 47.2199C196.947 46.9026 197.219 46.4096 197.219 45.7409C197.219 45.2309 196.975 44.7889 196.488 44.4149C196.001 44.0409 195.287 43.6499 194.346 43.2419C193.054 42.6866 192.159 42.1482 191.66 41.6269C191.161 41.1056 190.912 40.3519 190.912 39.3659ZM213.187 45.7239C213.187 44.3526 214.077 43.1966 215.856 42.2559C214.78 41.0886 214.241 40.0119 214.241 39.0259C214.241 38.1532 214.559 37.4959 215.193 37.0539C215.839 36.6119 216.633 36.3909 217.573 36.3909C218.491 36.3909 219.273 36.6176 219.919 37.0709C220.565 37.5242 220.888 38.1589 220.888 38.9749C220.888 40.2556 220.016 41.3436 218.27 42.2389L221.041 44.9929C221.313 44.3922 221.506 43.7462 221.619 43.0549L220.599 42.6809V41.9159H224.084V42.6809L222.622 43.0549C222.498 44.0182 222.231 44.9079 221.823 45.7239L223.54 47.3729L225.24 47.7809V48.5459H222.35L220.888 47.1519C219.902 48.2512 218.656 48.8009 217.148 48.8009C216.026 48.8009 215.086 48.5402 214.326 48.0189C213.567 47.4862 213.187 46.7212 213.187 45.7239ZM215.108 45.7239C215.108 46.2792 215.29 46.7609 215.652 47.1689C216.015 47.5769 216.542 47.7809 217.233 47.7809C218.401 47.7809 219.37 47.3276 220.14 46.4209L216.621 43.0549C215.613 43.8596 215.108 44.7492 215.108 45.7239ZM216.077 39.0089C216.077 39.2809 216.145 39.5699 216.281 39.8759C216.429 40.1819 216.672 40.5162 217.012 40.8789C217.352 41.2416 217.534 41.4342 217.556 41.4569C217.987 41.1962 218.338 40.8449 218.61 40.4029C218.894 39.9609 219.035 39.4906 219.035 38.9919C219.035 38.4819 218.894 38.0852 218.61 37.8019C218.327 37.5072 217.97 37.3599 217.539 37.3599C217.143 37.3599 216.797 37.5072 216.502 37.8019C216.219 38.0852 216.077 38.4876 216.077 39.0089ZM238.535 48.5459V47.7639L240.116 47.3899V37.8019L238.535 37.4279V36.6459H243.754V37.4279L242.19 37.8019V47.3899L243.754 47.7639V48.5459H238.535ZM249.492 48.5459V47.7639L251.056 47.3899V37.8019L249.492 37.4279V36.6459H252.246L259.335 45.0609V37.8019L257.771 37.4279V36.6459H262.14V37.4279L260.576 37.8019V48.5459H259.556L252.246 39.9269V47.3899L253.81 47.7639V48.5459H249.492ZM266.854 37.4279V36.6459H272.005V37.4279L270.611 37.7169L273.501 45.8769L276.221 37.8019L274.878 37.4279V36.6459H278.975V37.4279L277.411 37.8019L273.671 48.6649H272.328L268.367 37.8019L266.854 37.4279ZM283.907 48.5459V47.7639L285.471 47.3899V37.8019L283.907 37.4279V36.6459H292.764V40.1309H291.965L291.234 37.7849L287.562 37.6489V42.0179L291.234 41.6949V43.2079L287.562 42.9019V47.5429L291.557 47.4069L292.424 44.8739H293.223L293.087 48.5459H283.907ZM299.337 39.3659C299.337 38.4252 299.711 37.6942 300.459 37.1729C301.207 36.6516 302.176 36.3909 303.366 36.3909C304.635 36.3909 305.797 36.5212 306.851 36.7819L306.766 40.0459H306.001L305.151 37.5979C304.675 37.5072 304.193 37.4619 303.706 37.4619C302.924 37.4619 302.306 37.6149 301.853 37.9209C301.411 38.2269 301.19 38.6519 301.19 39.1959C301.19 39.6606 301.388 40.0516 301.785 40.3689C302.193 40.6749 302.895 41.0376 303.893 41.4569C304.425 41.6722 304.862 41.8762 305.202 42.0689C305.553 42.2502 305.927 42.4939 306.324 42.7999C306.72 43.1059 307.015 43.4742 307.208 43.9049C307.412 44.3356 307.514 44.8172 307.514 45.3499C307.514 46.4832 307.094 47.3559 306.256 47.9679C305.474 48.5346 304.493 48.8122 303.315 48.8009C302.997 48.8009 302.47 48.7726 301.734 48.7159C301.008 48.6592 300.221 48.5062 299.371 48.2569V44.9079H300.153L301.02 47.4579C301.496 47.6052 302.051 47.6789 302.686 47.6789C303.57 47.6789 304.284 47.5259 304.828 47.2199C305.372 46.9026 305.644 46.4096 305.644 45.7409C305.644 45.2309 305.4 44.7889 304.913 44.4149C304.425 44.0409 303.711 43.6499 302.771 43.2419C301.479 42.6866 300.583 42.1482 300.085 41.6269C299.586 41.1056 299.337 40.3519 299.337 39.3659ZM313.071 40.2499V36.6459H323.186V40.2499H322.387L321.622 37.7849L319.174 37.6489V47.3899L320.738 47.7639V48.5459H315.519V47.7639L317.083 47.3899V37.6489L314.618 37.7849L313.87 40.2499H313.071ZM328.698 48.5459V47.7639L330.279 47.3899V37.8019L328.698 37.4279V36.6459H333.917V37.4279L332.353 37.8019V47.3899L333.917 47.7639V48.5459H328.698ZM339.417 48.5459V47.7639L341.032 47.3729L341.576 37.7849L340.08 37.4279L340.097 36.6459H343.735L347.56 45.5199L351.419 36.6459H354.921V37.4279L353.391 37.7849L353.969 47.3899L355.601 47.7639V48.5459H350.433V47.7639L351.929 47.4069L351.47 39.3489L347.441 48.6309H346.693L342.613 39.3319L342.188 47.4069L343.701 47.7639V48.5459H339.417ZM361.071 48.5459V47.7639L362.635 47.3899V37.8019L361.071 37.4279V36.6459H369.928V40.1309H369.129L368.398 37.7849L364.726 37.6489V42.0179L368.398 41.6949V43.2079L364.726 42.9019V47.5429L368.721 47.4069L369.588 44.8739H370.387L370.251 48.5459H361.071ZM376.212 48.5459V47.7639L377.776 47.3899V37.8019L376.212 37.4279V36.6459H378.966L386.055 45.0609V37.8019L384.491 37.4279V36.6459H388.86V37.4279L387.296 37.8019V48.5459H386.276L378.966 39.9269V47.3899L380.53 47.7639V48.5459H376.212ZM394.202 40.2499V36.6459H404.317V40.2499H403.518L402.753 37.7849L400.305 37.6489V47.3899L401.869 47.7639V48.5459H396.65V47.7639L398.214 47.3899V37.6489L395.749 37.7849L395.001 40.2499H394.202ZM415.644 36.3909C416.562 36.3909 417.372 36.5439 418.075 36.8499C418.778 37.1559 419.373 37.5809 419.86 38.1249C420.347 38.6689 420.716 39.3206 420.965 40.0799C421.214 40.8392 421.339 41.6722 421.339 42.5789C421.339 43.4969 421.214 44.3356 420.965 45.0949C420.727 45.8542 420.364 46.5116 419.877 47.0669C419.401 47.6109 418.806 48.0359 418.092 48.3419C417.389 48.6479 416.573 48.8009 415.644 48.8009C414.658 48.8009 413.802 48.6366 413.077 48.3079C412.363 47.9792 411.774 47.5372 411.309 46.9819C410.844 46.4152 410.499 45.7522 410.272 44.9929C410.057 44.2336 409.949 43.4176 409.949 42.5449C409.949 41.6949 410.062 40.9016 410.289 40.1649C410.516 39.4169 410.861 38.7652 411.326 38.2099C411.791 37.6432 412.38 37.2012 413.094 36.8839C413.819 36.5552 414.669 36.3909 415.644 36.3909ZM415.644 37.3939C414.488 37.3939 413.61 37.8812 413.009 38.8559C412.42 39.8192 412.125 41.0659 412.125 42.5959C412.125 44.2166 412.437 45.4916 413.06 46.4209C413.695 47.3389 414.556 47.7979 415.644 47.7979C416.732 47.7979 417.588 47.3389 418.211 46.4209C418.846 45.4916 419.163 44.2166 419.163 42.5959C419.163 41.0659 418.863 39.8192 418.262 38.8559C417.673 37.8812 416.8 37.3939 415.644 37.3939ZM427.484 39.3659C427.484 38.4252 427.858 37.6942 428.606 37.1729C429.354 36.6516 430.323 36.3909 431.513 36.3909C432.783 36.3909 433.944 36.5212 434.998 36.7819L434.913 40.0459H434.148L433.298 37.5979C432.822 37.5072 432.341 37.4619 431.853 37.4619C431.071 37.4619 430.454 37.6149 430 37.9209C429.558 38.2269 429.337 38.6519 429.337 39.1959C429.337 39.6606 429.536 40.0516 429.932 40.3689C430.34 40.6749 431.043 41.0376 432.04 41.4569C432.573 41.6722 433.009 41.8762 433.349 42.0689C433.701 42.2502 434.075 42.4939 434.471 42.7999C434.868 43.1059 435.163 43.4742 435.355 43.9049C435.559 44.3356 435.661 44.8172 435.661 45.3499C435.661 46.4832 435.242 47.3559 434.403 47.9679C433.621 48.5346 432.641 48.8122 431.462 48.8009C431.145 48.8009 430.618 48.7726 429.881 48.7159C429.156 48.6592 428.368 48.5062 427.518 48.2569V44.9079H428.3L429.167 47.4579C429.643 47.6052 430.199 47.6789 430.833 47.6789C431.717 47.6789 432.431 47.5259 432.975 47.2199C433.519 46.9026 433.791 46.4096 433.791 45.7409C433.791 45.2309 433.548 44.7889 433.06 44.4149C432.573 44.0409 431.859 43.6499 430.918 43.2419C429.626 42.6866 428.731 42.1482 428.232 41.6269C427.734 41.1056 427.484 40.3519 427.484 39.3659Z" fill="#2D3250"/>
<defs>
<linearGradient id="paint0_linear_813_551" x1="56.5437" y1="12.5591" x2="45.7767" y2="63.9754" gradientUnits="userSpaceOnUse">
<stop stop-color="#F8B179"/>
<stop offset="0.46875" stop-color="#7C5333"/>
<stop offset="1" stop-color="#F8B179"/>
</linearGradient>
<linearGradient id="paint1_linear_813_551" x1="53.9158" y1="17.4677" x2="46.3453" y2="67.9031" gradientUnits="userSpaceOnUse">
<stop stop-color="#F8B179"/>
<stop offset="0.46875" stop-color="#7C5333"/>
<stop offset="1" stop-color="#F8B179"/>
</linearGradient>
<radialGradient id="paint2_angular_813_551" cx="0" cy="0" r="1" gradientUnits="userSpaceOnUse" gradientTransform="translate(37.9274 36.2889) rotate(50.306) scale(22.0356 17.64)">
<stop offset="0.565241" stop-color="#D79766"/>
<stop offset="1" stop-color="#9A6A43"/>
</radialGradient>
<radialGradient id="paint3_angular_813_551" cx="0" cy="0" r="1" gradientUnits="userSpaceOnUse" gradientTransform="translate(48.768 52.44) rotate(-136.206) scale(21.9966 35.1036)">
<stop stop-color="#D79866"/>
<stop offset="1" stop-color="#8B5E3B"/>
</radialGradient>
<radialGradient id="paint4_angular_813_551" cx="0" cy="0" r="1" gradientUnits="userSpaceOnUse" gradientTransform="translate(9.49634 17.3014) rotate(50.306) scale(22.0356 17.64)">
<stop offset="0.565241" stop-color="#D79766"/>
<stop offset="1" stop-color="#9A6A43"/>
</radialGradient>
<radialGradient id="paint5_angular_813_551" cx="0" cy="0" r="1" gradientUnits="userSpaceOnUse" gradientTransform="translate(20.3371 33.4527) rotate(-136.206) scale(21.9966 35.1036)">
<stop stop-color="#D79866"/>
<stop offset="1" stop-color="#8B5E3B"/>
</radialGradient>
</defs>
</svg>
