<svg width="93" height="104" viewBox="0 0 93 104" fill="none" xmlns="http://www.w3.org/2000/svg">
<path d="M23.3674 47.2988H26.2909V52.2365H23.3674V47.2988Z" fill="#D59665"/>
<path d="M67.5214 99.0635H70.4449V104.001H67.5214V99.0635Z" fill="#D59665"/>
<path d="M23.3674 6.93046C24.6179 6.73305 25.222 6.77346 26.2909 6.83892V26.9771L23.3674 25.9543V6.93046Z" fill="#D59665"/>
<path d="M26.2913 60.9188C25.0408 61.1162 24.5114 61.2725 23.3678 61.2725L23.3678 40.7104L26.2913 41.7332L26.2913 60.9188Z" fill="#D59665"/>
<path d="M75.2314 18.0215L76.5216 19.945L17.9042 68.0219L11.4169 67.8525L75.2314 18.0215Z" fill="url(#paint0_linear_366_394)"/>
<path d="M25.4562 26.6838V6.8454V6.7959C25.5522 6.7959 26.0515 6.8289 26.2891 6.8454V26.9741L25.4562 26.6838Z" fill="#A7744B"/>
<path d="M23.3672 40.7099L24.2001 40.9633L24.2001 57.8729C24.041 57.9938 23.8472 58.1488 23.3672 58.5146L23.3672 40.7099Z" fill="#A7744B"/>
<path d="M66.6328 29.7004L74.0271 29.7007L9.17501 80.0553L8.02739 78.2747L66.6328 29.7004Z" fill="url(#paint1_linear_366_394)"/>
<path d="M67.514 36.4773C68.7645 36.2799 69.3686 36.3203 70.4375 36.3858V56.524L67.514 55.5012V36.4773Z" fill="#D59665"/>
<path d="M70.4368 90.1583C69.3423 90.4669 68.6816 90.6806 67.5133 90.8232L67.5133 70.2612L70.4368 71.284L70.4368 90.1583Z" fill="#D59665"/>
<path d="M69.6035 56.2317V36.3932V36.3438C69.6996 36.3438 70.1988 36.3767 70.4364 36.3932V56.5219L69.6035 56.2317Z" fill="#A7744B"/>
<path d="M68.3473 70.5562L68.3473 90.772L68.3473 90.7843C68.2512 90.7843 67.752 90.8336 67.5144 90.8168L67.5144 70.2604L68.3473 70.5562Z" fill="#A7744B"/>
<path fill-rule="evenodd" clip-rule="evenodd" d="M46.159 51.3367C46.8116 54.2417 48.0491 56.6182 49.8712 58.4661C52.7104 61.3453 57.8078 64.3185 65.1637 67.3855C70.5193 69.6388 74.5844 71.7982 77.359 73.8637C80.1336 75.9292 81.5209 78.3703 81.5209 81.1869C81.5209 84.8799 79.9723 87.6026 76.8751 89.3552C73.7778 91.0451 69.7128 91.8901 64.6798 91.8901C61.0664 91.8901 57.9046 91.4833 55.1946 90.6696L50.2584 76.5864H45.8062V95.0823C50.6455 96.4593 55.1301 97.3043 59.2597 97.6173C63.4538 97.9302 66.4542 98.0867 68.2609 98.0867C74.9716 98.1493 80.553 96.6158 85.0052 93.4862C89.7801 90.1063 92.1675 85.2867 92.1675 79.0275C92.1675 76.0857 91.5868 73.4256 90.4254 71.0471C89.3284 68.6686 87.6508 66.6344 85.3924 64.9444C83.134 63.2544 81.0047 61.9087 79.0044 60.9072C77.0686 59.8431 74.5844 58.7165 71.5517 57.5273C65.8735 55.2114 61.8729 53.2084 59.55 51.5184C57.2916 49.7659 56.1625 47.6065 56.1625 45.0402C56.1625 44.4925 56.2043 43.9666 56.2879 43.4626L46.159 51.3367ZM66.1834 35.77C67.5049 35.5658 68.9394 35.4637 70.4871 35.4637C73.2616 35.4637 76.004 35.714 78.714 36.2148L83.5534 49.7346H87.9089L88.3928 31.7082C83.9344 30.6386 79.1377 29.9663 74.0026 29.6914L66.1834 35.77Z" fill="url(#paint2_angular_366_394)"/>
<path d="M81.6359 81.1638C81.6359 67.2044 55.1502 57.8206 56.1891 44.5938C55.8766 52.1632 68.8693 56.3509 69.9585 56.8659C74.2072 58.4342 78.2987 60.5141 79.8134 61.358C88.5944 65.5674 91.3442 71.2316 92.0331 76.5951C93.0343 87.3891 87.5707 91.4126 84.9104 93.577C80.3335 96.4905 75.6136 98.5162 64.8008 97.9889C55.9218 97.7448 48.4371 95.9458 45.8047 95.0768V76.5856L50.2547 76.5723C51.3446 79.6644 53.8527 86.8202 55.1657 90.7065C59.3741 91.972 66.9912 92.7477 74.44 90.4616C80.399 88.6328 81.7202 83.5011 81.6359 81.1638Z" fill="url(#paint3_angular_366_394)"/>
<path fill-rule="evenodd" clip-rule="evenodd" d="M6.388 4.31883C2.12933 7.19805 0 11.2352 0 16.4303C0 21.8758 1.41956 26.0382 4.25867 28.9174C7.09778 31.7966 12.1953 34.7697 19.5511 37.8367C24.9067 40.09 28.9718 42.2494 31.7464 44.315C33.6568 45.7371 34.9095 47.3374 35.5045 49.1156L44.9454 41.7764C44.902 41.6833 44.8578 41.5906 44.8128 41.4983C43.7159 39.1198 42.0382 37.0856 39.7798 35.3956C37.5214 33.7057 35.3921 32.3599 33.3918 31.3585C31.4561 30.2944 28.9718 29.1678 25.9392 27.9785C20.2609 25.6626 16.2604 23.6597 13.9375 21.9697C11.6791 20.2171 10.5499 18.0577 10.5499 15.4915C10.5499 12.4871 11.8081 10.1399 14.3246 8.44989C16.9056 6.75991 20.4222 5.91492 24.8745 5.91492C27.6491 5.91492 30.3914 6.16529 33.1015 6.66602L37.9408 20.1858H42.2963L42.7802 2.15942C36.7794 0.719805 30.1656 0 22.9387 0C16.1636 0 10.6467 1.43961 6.388 4.31883ZM11.4048 67.8505L18.4959 62.338C15.1196 62.2971 12.1483 61.8914 9.582 61.1209L4.64582 47.0377H0.193576V65.5336C4.1703 66.6651 7.90739 67.4374 11.4048 67.8505Z" fill="url(#paint4_angular_366_394)"/>
<path d="M39.371 20.1739C38.3317 13.1394 37.6619 7.26994 32.8029 6.64746C35.6945 14.4813 37.6521 20.1739 37.6521 20.1739L39.371 20.1739Z" fill="#976742"/>
<path fill-rule="evenodd" clip-rule="evenodd" d="M35.7064 48.9624L44.9554 41.7723C43.3016 38.1493 40.1228 34.6495 34.202 31.8112C32.6873 30.9673 28.5957 28.8873 24.347 27.319C24.2391 27.268 24.0143 27.1809 23.6972 27.0581C20.8139 25.941 10.2961 21.8664 10.5776 15.0469C10.0565 21.6823 16.4622 27.3505 22.9761 33.1144C28.6067 38.0968 34.3181 43.1506 35.7064 48.9624ZM11.4241 67.8391C6.1295 67.1702 2.00816 66.129 0.193237 65.5299V47.0388L4.64321 47.0254C5.73315 50.1176 8.24128 57.2734 9.55428 61.1597C11.7573 61.8221 14.8944 62.3504 18.4524 62.3754L11.4241 67.8391Z" fill="url(#paint5_angular_366_394)"/>
<path d="M2.92126 47.037C3.96058 54.0715 4.7401 60.4654 9.59912 61.0879C4.88516 47.6656 4.65758 47.037 4.65758 47.037L2.92126 47.037Z" fill="#BB8256"/>
<path d="M48.5338 76.5839C49.5731 83.6184 50.3526 90.0123 55.2117 90.6348C50.4977 77.2125 50.2701 76.5839 50.2701 76.5839L48.5338 76.5839Z" fill="#BB8256"/>
<path d="M85.2307 49.7394C84.1914 42.7049 83.5216 36.8354 78.6626 36.2129C81.5543 44.0467 83.5119 49.7394 83.5119 49.7394L85.2307 49.7394Z" fill="#976742"/>
<defs>
<linearGradient id="paint0_linear_366_394" x1="89.9046" y1="12.7987" x2="73.6101" y2="93.0148" gradientUnits="userSpaceOnUse">
<stop stop-color="#F8B179"/>
<stop offset="0.46875" stop-color="#7C5333"/>
<stop offset="1" stop-color="#F8B179"/>
</linearGradient>
<linearGradient id="paint1_linear_366_394" x1="85.6886" y1="20.4374" x2="74.245" y2="99.0303" gradientUnits="userSpaceOnUse">
<stop stop-color="#F8B179"/>
<stop offset="0.46875" stop-color="#7C5333"/>
<stop offset="1" stop-color="#F8B179"/>
</linearGradient>
<radialGradient id="paint2_angular_366_394" cx="0" cy="0" r="1" gradientUnits="userSpaceOnUse" gradientTransform="translate(60.0379 49.7265) rotate(49.4471) scale(34.7292 27.9451)">
<stop offset="0.565241" stop-color="#D79766"/>
<stop offset="1" stop-color="#9A6A43"/>
</radialGradient>
<radialGradient id="paint3_angular_366_394" cx="0" cy="0" r="1" gradientUnits="userSpaceOnUse" gradientTransform="translate(77.4298 74.8627) rotate(-137.076) scale(34.7874 55.4193)">
<stop stop-color="#D79866"/>
<stop offset="1" stop-color="#8B5E3B"/>
</radialGradient>
<radialGradient id="paint4_angular_366_394" cx="0" cy="0" r="1" gradientUnits="userSpaceOnUse" gradientTransform="translate(14.4253 20.1776) rotate(49.4471) scale(34.7292 27.9451)">
<stop offset="0.565241" stop-color="#D79766"/>
<stop offset="1" stop-color="#9A6A43"/>
</radialGradient>
<radialGradient id="paint5_angular_366_394" cx="0" cy="0" r="1" gradientUnits="userSpaceOnUse" gradientTransform="translate(31.8183 45.3158) rotate(-137.076) scale(34.7874 55.4193)">
<stop stop-color="#D79866"/>
<stop offset="1" stop-color="#8B5E3B"/>
</radialGradient>
</defs>
</svg>
