<svg width="27" height="33" viewBox="0 0 27 33" fill="none" xmlns="http://www.w3.org/2000/svg">
<path fill-rule="evenodd" clip-rule="evenodd" d="M1.92985 2.18961C2.74282 1.37664 3.84544 0.919922 4.99516 0.919922H16.3352H16.3352C16.7531 0.919922 17.131 1.09079 17.403 1.36646L25.8935 9.85699C26.1693 10.129 26.3402 10.507 26.3402 10.9249L26.3402 10.9372V27.9349C26.3402 29.0846 25.8834 30.1873 25.0705 31.0002C24.2575 31.8132 23.1549 32.2699 22.0052 32.2699H4.99516C3.84544 32.2699 2.74282 31.8132 1.92985 31.0002C1.11688 30.1873 0.660156 29.0846 0.660156 27.9349V5.25492C0.660156 4.10521 1.11688 3.00258 1.92985 2.18961ZM4.99516 3.91992H14.8352V7.92492C14.8352 10.4102 16.8499 12.4249 19.3352 12.4249H23.3402V27.9349C23.3402 28.289 23.1995 28.6285 22.9491 28.8789C22.6988 29.1293 22.3592 29.2699 22.0052 29.2699H4.99516C4.64109 29.2699 4.30153 29.1293 4.05117 28.8789C3.80081 28.6285 3.66016 28.289 3.66016 27.9349V5.25492C3.66016 4.90086 3.80081 4.5613 4.05117 4.31093C4.30153 4.06057 4.64109 3.91992 4.99516 3.91992ZM17.8352 6.04129L21.2188 9.42492H19.3352C18.5068 9.42492 17.8352 8.75335 17.8352 7.92492V6.04129ZM7.83008 16.5127C7.00165 16.5127 6.33008 17.1843 6.33008 18.0127C6.33008 18.8411 7.00165 19.5127 7.83008 19.5127H19.1701C19.9985 19.5127 20.6701 18.8411 20.6701 18.0127C20.6701 17.1843 19.9985 16.5127 19.1701 16.5127H7.83008ZM6.33008 23.6826C6.33008 22.8542 7.00165 22.1826 7.83008 22.1826H19.1701C19.9985 22.1826 20.6701 22.8542 20.6701 23.6826C20.6701 24.511 19.9985 25.1826 19.1701 25.1826H7.83008C7.00165 25.1826 6.33008 24.511 6.33008 23.6826ZM7.83008 10.8428C7.00165 10.8428 6.33008 11.5143 6.33008 12.3428C6.33008 13.1712 7.00165 13.8428 7.83008 13.8428H9.24758H10.6651C11.4935 13.8428 12.1651 13.1712 12.1651 12.3428C12.1651 11.5143 11.4935 10.8428 10.6651 10.8428H9.24758H7.83008Z" fill="url(#paint0_linear_372_179)"/>
<defs>
<linearGradient id="paint0_linear_372_179" x1="-5.5679" y1="-16.787" x2="32.4115" y2="-15.5225" gradientUnits="userSpaceOnUse">
<stop stop-color="#F8B179"/>
<stop offset="0.365248" stop-color="#7C5333"/>
<stop offset="1" stop-color="#F8B179"/>
</linearGradient>
</defs>
</svg>
