<svg width="40" height="34" viewBox="0 0 40 34" fill="none" xmlns="http://www.w3.org/2000/svg">
<path fill-rule="evenodd" clip-rule="evenodd" d="M9.97656 8.787C9.97656 6.0251 12.2155 3.78613 14.9774 3.78613C17.7393 3.78613 19.9783 6.0251 19.9783 8.787C19.9783 11.5489 17.7393 13.7879 14.9774 13.7879C12.2155 13.7879 9.97656 11.5489 9.97656 8.787ZM14.9774 0.786133C10.5587 0.786133 6.97656 4.36824 6.97656 8.787C6.97656 13.2058 10.5587 16.7879 14.9774 16.7879C19.3962 16.7879 22.9783 13.2058 22.9783 8.787C22.9783 4.36824 19.3962 0.786133 14.9774 0.786133ZM8.47743 20.2891C6.35547 20.2891 4.32042 21.132 2.81996 22.6325C1.31951 24.1329 0.476562 26.168 0.476562 28.2899V31.5404C0.476562 32.3688 1.14814 33.0404 1.97656 33.0404C2.80499 33.0404 3.47656 32.3688 3.47656 31.5404V28.2899C3.47656 26.9636 4.00344 25.6916 4.94128 24.7538C5.87913 23.8159 7.15112 23.2891 8.47743 23.2891H21.4792C22.8055 23.2891 24.0775 23.8159 25.0153 24.7538C25.9532 25.6916 26.48 26.9636 26.48 28.2899V31.5404C26.48 32.3688 27.1516 33.0404 27.98 33.0404C28.8085 33.0404 29.48 32.3688 29.48 31.5404V28.2899C29.48 26.168 28.6371 24.1329 27.1366 22.6325C25.6362 21.132 23.6011 20.2891 21.4792 20.2891H8.47743ZM31.4031 21.625C31.6102 20.8229 32.4283 20.3405 33.2305 20.5476C34.9469 20.9908 36.4676 21.9915 37.5537 23.3926C38.6398 24.7936 39.2298 26.5157 39.2311 28.2885L39.2311 28.2896V31.54C39.2311 32.3685 38.5595 33.04 37.7311 33.04C36.9027 33.04 36.2311 32.3685 36.2311 31.54V28.2901C36.2302 27.1823 35.8614 26.1061 35.1826 25.2306C34.5038 24.3548 33.5533 23.7294 32.4805 23.4524C31.6783 23.2453 31.196 22.4271 31.4031 21.625ZM26.7275 1.04395C25.925 0.838463 25.1078 1.32247 24.9023 2.12501C24.6969 2.92755 25.1809 3.74471 25.9834 3.9502C27.0591 4.22562 28.0126 4.85123 28.6934 5.72839C29.3743 6.60556 29.7439 7.68438 29.7439 8.79479C29.7439 9.90519 29.3743 10.984 28.6934 11.8612C28.0126 12.7383 27.0591 13.364 25.9834 13.6394C25.1809 13.8449 24.6969 14.662 24.9023 15.4646C25.1078 16.2671 25.925 16.7511 26.7275 16.5456C28.4485 16.105 29.974 15.1041 31.0633 13.7007C32.1526 12.2973 32.7439 10.5713 32.7439 8.79479C32.7439 7.01825 32.1526 5.29224 31.0633 3.88887C29.974 2.4855 28.4485 1.4846 26.7275 1.04395Z" fill="url(#paint0_linear_1273_533)"/>
<defs>
<linearGradient id="paint0_linear_1273_533" x1="39.2318" y1="16.9127" x2="0.479561" y2="17.2537" gradientUnits="userSpaceOnUse">
<stop stop-color="#F8B179"/>
<stop offset="0.46875" stop-color="#7C5333"/>
<stop offset="1" stop-color="#F8B179"/>
</linearGradient>
</defs>
</svg>
