<svg width="52" height="37" viewBox="0 0 52 37" fill="none" xmlns="http://www.w3.org/2000/svg">
<path d="M19.5938 0.197362L12.5844 25.6861L10.2479 16.1278C13.2924 16.1278 15.7705 17.0128 17.6821 18.7829C19.5938 20.5529 20.5496 22.9956 20.5496 26.1109C20.5496 29.1554 19.5584 31.6335 17.5759 33.5451C15.6643 35.386 13.257 36.3064 10.3541 36.3064C7.38045 36.3064 4.90238 35.386 2.91993 33.5451C1.00827 31.6335 0.0524461 29.1554 0.0524461 26.1109C0.0524461 25.1905 0.123248 24.3054 0.264852 23.4558C0.406456 22.5354 0.689664 21.4734 1.11448 20.2697C1.53929 19.0661 2.14111 17.4731 2.91993 15.4906L9.0797 0.197362H19.5938ZM50.9154 0.197362L43.906 25.6861L41.5695 16.1278C44.614 16.1278 47.0921 17.0128 49.0037 18.7829C50.9154 20.5529 51.8712 22.9956 51.8712 26.1109C51.8712 29.1554 50.88 31.6335 48.8975 33.5451C46.9859 35.386 44.5786 36.3064 41.6757 36.3064C38.702 36.3064 36.224 35.386 34.2415 33.5451C32.3299 31.6335 31.374 29.1554 31.374 26.1109C31.374 25.1905 31.4448 24.3054 31.5864 23.4558C31.7281 22.5354 32.0113 21.4734 32.4361 20.2697C32.8609 19.0661 33.4627 17.4731 34.2415 15.4906L40.4013 0.197362H50.9154Z" fill="url(#paint0_linear_366_330)"/>
<defs>
<linearGradient id="paint0_linear_366_330" x1="-302.196" y1="-96.8611" x2="339.772" y2="-7.45568" gradientUnits="userSpaceOnUse">
<stop stop-color="#F8B179"/>
<stop offset="0.365248" stop-color="#7C5333"/>
<stop offset="1" stop-color="#F8B179"/>
</linearGradient>
</defs>
</svg>
