<svg width="241" height="81" viewBox="0 0 241 81" fill="none" xmlns="http://www.w3.org/2000/svg">
<g opacity="0.7">
<mask id="path-1-inside-1_733_529" fill="white">
<path d="M53.4504 5.73568C54.2506 4.75477 55.7494 4.75477 56.5497 5.73568L60.3004 10.3329C60.7919 10.9353 61.5881 11.1983 62.3418 11.0071L67.9672 9.5801C69.1742 9.27393 70.3645 10.1332 70.4538 11.3752L70.8985 17.5562C70.9524 18.3044 71.4203 18.9595 72.1106 19.2531L77.6205 21.5966C78.7353 22.0708 79.1759 23.4193 78.5562 24.4602L75.3692 29.8131C74.9938 30.4436 74.9938 31.2289 75.3692 31.8594L78.5562 37.2123C79.1759 38.2532 78.7353 39.6017 77.6205 40.0759L72.1106 42.4194C71.4203 42.713 70.9524 43.3681 70.8985 44.1163L70.4538 50.2973C70.3645 51.5393 69.1742 52.3986 67.9672 52.0924L62.3418 50.6654C61.5881 50.4742 60.7919 50.7372 60.3004 51.3396L56.5497 55.9368C55.7494 56.9177 54.2506 56.9177 53.4504 55.9368L49.6997 51.3396C49.2081 50.7372 48.4119 50.4742 47.6582 50.6654L42.0328 52.0924C40.8259 52.3986 39.6356 51.5393 39.5462 50.2973L39.1015 44.1163C39.0477 43.3681 38.5797 42.713 37.8895 42.4194L32.3796 40.0759C31.2648 39.6017 30.8242 38.2532 31.4439 37.2123L34.6309 31.8594C35.0062 31.2289 35.0062 30.4436 34.6309 29.8131L31.4439 24.4602C30.8242 23.4193 31.2648 22.0708 32.3796 21.5966L37.8895 19.2531C38.5797 18.9595 39.0477 18.3044 39.1015 17.5562L39.5462 11.3752C39.6356 10.1332 40.8259 9.27393 42.0328 9.5801L47.6582 11.0071C48.4119 11.1983 49.2081 10.9353 49.6997 10.3329L53.4504 5.73568Z"/>
</mask>
<path d="M53.4504 5.73568L54.2252 6.36784V6.36784L53.4504 5.73568ZM56.5497 5.73568L55.7749 6.36784L56.5497 5.73568ZM60.3004 10.3328L59.5255 10.965V10.965L60.3004 10.3328ZM62.3418 11.0071L62.5877 11.9764H62.5877L62.3418 11.0071ZM67.9672 9.5801L67.7213 8.6108V8.6108L67.9672 9.5801ZM70.4538 11.3752L69.4564 11.4469V11.4469L70.4538 11.3752ZM70.8985 17.5562L71.896 17.4844V17.4844L70.8985 17.5562ZM72.1106 19.2531L71.7192 20.1733L72.1106 19.2531ZM77.6205 21.5966L78.0119 20.6764L77.6205 21.5966ZM78.5562 24.4602L77.6969 23.9486H77.6969L78.5562 24.4602ZM75.3692 29.8131L76.2284 30.3247L75.3692 29.8131ZM75.3692 31.8594L76.2284 31.3478L75.3692 31.8594ZM78.5562 37.2123L77.6969 37.7239L78.5562 37.2123ZM77.6205 40.0759L77.2291 39.1557L77.6205 40.0759ZM72.1106 42.4194L72.502 43.3396L72.1106 42.4194ZM70.8985 44.1163L71.896 44.1881V44.1881L70.8985 44.1163ZM70.4538 50.2973L69.4564 50.2256L70.4538 50.2973ZM67.9672 52.0924L67.7213 53.0617L67.9672 52.0924ZM62.3418 50.6654L62.0959 51.6347H62.0959L62.3418 50.6654ZM60.3004 51.3396L59.5255 50.7075H59.5255L60.3004 51.3396ZM56.5497 55.9368L57.3245 56.569L56.5497 55.9368ZM53.4504 55.9368L54.2252 55.3047L53.4504 55.9368ZM49.6997 51.3396L50.4745 50.7075H50.4745L49.6997 51.3396ZM47.6582 50.6654L47.9041 51.6347H47.9041L47.6582 50.6654ZM42.0328 52.0924L42.2787 53.0617H42.2787L42.0328 52.0924ZM39.5462 50.2973L38.5488 50.3691L39.5462 50.2973ZM39.1015 44.1163L40.099 44.0445L39.1015 44.1163ZM37.8895 42.4194L37.4981 43.3396H37.4981L37.8895 42.4194ZM32.3796 40.0759L32.771 39.1557H32.771L32.3796 40.0759ZM31.4439 37.2123L32.3031 37.7239H32.3031L31.4439 37.2123ZM34.6309 31.8594L33.7716 31.3478L34.6309 31.8594ZM34.6309 29.8131L33.7716 30.3247L34.6309 29.8131ZM31.4439 24.4602L32.3031 23.9486L31.4439 24.4602ZM32.3796 21.5966L32.771 22.5168H32.771L32.3796 21.5966ZM37.8895 19.2531L37.4981 18.3329H37.4981L37.8895 19.2531ZM39.1015 17.5562L40.099 17.628V17.6279L39.1015 17.5562ZM39.5462 11.3752L40.5436 11.4469V11.4469L39.5462 11.3752ZM42.0328 9.5801L41.7869 10.5494H41.7869L42.0328 9.5801ZM47.6582 11.0071L47.4124 11.9764L47.6582 11.0071ZM49.6997 10.3328L48.9249 9.70069L49.6997 10.3328ZM54.2252 6.36784C54.6253 5.87739 55.3747 5.87739 55.7749 6.36784L57.3245 5.10352C56.1241 3.63216 53.8759 3.63216 52.6755 5.10352L54.2252 6.36784ZM55.7749 6.36784L59.5255 10.965L61.0752 9.70069L57.3245 5.10352L55.7749 6.36784ZM59.5255 10.965C60.2628 11.8687 61.4571 12.2632 62.5877 11.9764L62.0959 10.0378C61.7191 10.1334 61.321 10.0019 61.0752 9.70069L59.5255 10.965ZM62.5877 11.9764L68.2131 10.5494L67.7213 8.6108L62.0959 10.0378L62.5877 11.9764ZM68.2131 10.5494C68.8166 10.3963 69.4117 10.826 69.4564 11.4469L71.4513 11.3034C71.3172 9.44047 69.5318 8.15154 67.7213 8.6108L68.2131 10.5494ZM69.4564 11.4469L69.9011 17.628L71.896 17.4844L71.4513 11.3034L69.4564 11.4469ZM69.9011 17.628C69.9818 18.7502 70.6838 19.733 71.7192 20.1733L72.502 18.3329C72.1568 18.1861 71.9229 17.8585 71.896 17.4844L69.9011 17.628ZM71.7192 20.1733L77.2291 22.5168L78.0119 20.6764L72.502 18.3329L71.7192 20.1733ZM77.2291 22.5168C77.7865 22.7539 78.0068 23.4282 77.6969 23.9486L79.4154 24.9718C80.345 23.4104 79.684 21.3876 78.0119 20.6764L77.2291 22.5168ZM77.6969 23.9486L74.5099 29.3015L76.2284 30.3247L79.4154 24.9718L77.6969 23.9486ZM74.5099 29.3015C73.9469 30.2472 73.9469 31.4253 74.5099 32.371L76.2284 31.3478C76.0407 31.0326 76.0407 30.6399 76.2284 30.3247L74.5099 29.3015ZM74.5099 32.371L77.6969 37.7239L79.4154 36.7007L76.2284 31.3478L74.5099 32.371ZM77.6969 37.7239C78.0068 38.2443 77.7865 38.9186 77.2291 39.1557L78.0119 40.9961C79.684 40.2849 80.345 38.2621 79.4154 36.7007L77.6969 37.7239ZM77.2291 39.1557L71.7192 41.4992L72.502 43.3396L78.0119 40.9961L77.2291 39.1557ZM71.7192 41.4992C70.6838 41.9395 69.9818 42.9223 69.9011 44.0446L71.896 44.1881C71.9229 43.814 72.1568 43.4864 72.502 43.3396L71.7192 41.4992ZM69.9011 44.0445L69.4564 50.2256L71.4513 50.3691L71.896 44.1881L69.9011 44.0445ZM69.4564 50.2256C69.4117 50.8465 68.8166 51.2762 68.2131 51.1231L67.7213 53.0617C69.5318 53.521 71.3172 52.232 71.4513 50.3691L69.4564 50.2256ZM68.2131 51.1231L62.5877 49.6961L62.0959 51.6347L67.7213 53.0617L68.2131 51.1231ZM62.5877 49.6961C61.4571 49.4093 60.2628 49.8038 59.5255 50.7075L61.0752 51.9718C61.321 51.6706 61.7191 51.5391 62.0959 51.6347L62.5877 49.6961ZM59.5255 50.7075L55.7749 55.3047L57.3245 56.569L61.0752 51.9718L59.5255 50.7075ZM55.7749 55.3047C55.3747 55.7951 54.6253 55.7951 54.2252 55.3047L52.6755 56.569C53.8759 58.0403 56.1241 58.0403 57.3245 56.569L55.7749 55.3047ZM54.2252 55.3047L50.4745 50.7075L48.9249 51.9718L52.6755 56.569L54.2252 55.3047ZM50.4745 50.7075C49.7372 49.8038 48.5429 49.4093 47.4124 49.6961L47.9041 51.6347C48.281 51.5391 48.6791 51.6706 48.9249 51.9718L50.4745 50.7075ZM47.4124 49.6961L41.7869 51.1231L42.2787 53.0617L47.9041 51.6347L47.4124 49.6961ZM41.7869 51.1231C41.1835 51.2762 40.5883 50.8465 40.5436 50.2256L38.5488 50.3691C38.6828 52.232 40.4683 53.521 42.2787 53.0617L41.7869 51.1231ZM40.5436 50.2256L40.099 44.0445L38.1041 44.1881L38.5488 50.3691L40.5436 50.2256ZM40.099 44.0445C40.0182 42.9223 39.3163 41.9395 38.2809 41.4992L37.4981 43.3396C37.8432 43.4864 38.0772 43.814 38.1041 44.1881L40.099 44.0445ZM38.2809 41.4992L32.771 39.1557L31.9882 40.9961L37.4981 43.3396L38.2809 41.4992ZM32.771 39.1557C32.2136 38.9186 31.9933 38.2443 32.3031 37.7239L30.5847 36.7007C29.6551 38.2621 30.316 40.2849 31.9882 40.9961L32.771 39.1557ZM32.3031 37.7239L35.4901 32.371L33.7716 31.3478L30.5847 36.7007L32.3031 37.7239ZM35.4901 32.371C36.0532 31.4253 36.0531 30.2472 35.4901 29.3015L33.7716 30.3247C33.9593 30.6399 33.9593 31.0326 33.7716 31.3478L35.4901 32.371ZM35.4901 29.3015L32.3031 23.9486L30.5847 24.9718L33.7716 30.3247L35.4901 29.3015ZM32.3031 23.9486C31.9933 23.4282 32.2136 22.7539 32.771 22.5168L31.9882 20.6764C30.316 21.3876 29.6551 23.4104 30.5847 24.9718L32.3031 23.9486ZM32.771 22.5168L38.2809 20.1733L37.4981 18.3329L31.9882 20.6764L32.771 22.5168ZM38.2809 20.1733C39.3163 19.733 40.0182 18.7502 40.099 17.628L38.1041 17.4844C38.0772 17.8585 37.8432 18.1861 37.4981 18.3329L38.2809 20.1733ZM40.099 17.6279L40.5436 11.4469L38.5488 11.3034L38.1041 17.4844L40.099 17.6279ZM40.5436 11.4469C40.5883 10.826 41.1835 10.3963 41.7869 10.5494L42.2787 8.6108C40.4683 8.15154 38.6828 9.44047 38.5488 11.3034L40.5436 11.4469ZM41.7869 10.5494L47.4124 11.9764L47.9041 10.0378L42.2787 8.6108L41.7869 10.5494ZM47.4124 11.9764C48.5429 12.2632 49.7372 11.8687 50.4745 10.965L48.9249 9.70069C48.6791 10.0019 48.281 10.1334 47.9041 10.0378L47.4124 11.9764ZM50.4745 10.965L54.2252 6.36784L52.6755 5.10352L48.9249 9.70069L50.4745 10.965Z" fill="url(#paint0_linear_733_529)" mask="url(#path-1-inside-1_733_529)"/>
</g>
<path d="M131.882 36V26.984H138.168V28.174H133.408V30.904H137.65V32.08H133.408V34.824H138.168V36H131.882ZM139.579 36V26.984H140.923L145.627 33.62V26.984H147.139V36H145.795L141.105 29.378V36H139.579ZM151.255 36V28.174H148.371V26.984H155.651V28.174H152.781V36H151.255ZM156.874 36V26.984H161.018C162.026 26.984 162.759 27.2453 163.216 27.768C163.683 28.2813 163.916 28.9813 163.916 29.868C163.916 30.5027 163.758 31.044 163.44 31.492C163.123 31.94 162.666 32.2527 162.068 32.43C162.236 32.5513 162.367 32.682 162.46 32.822C162.554 32.962 162.647 33.1487 162.74 33.382L163.874 36H162.306L161.2 33.48C161.098 33.2373 160.972 33.0647 160.822 32.962C160.682 32.8593 160.44 32.808 160.094 32.808H158.4V36H156.874ZM158.4 31.576H160.612C161.163 31.576 161.597 31.4407 161.914 31.17C162.232 30.8993 162.39 30.4653 162.39 29.868C162.39 28.7387 161.844 28.174 160.752 28.174H158.4V31.576ZM165.419 36V26.984H171.705V28.174H166.945V30.904H171.187V32.08H166.945V34.824H171.705V36H165.419ZM176.077 36L179.521 26.984H181.229L184.645 36H183.077L182.181 33.676H178.555L177.659 36H176.077ZM178.793 32.5H181.929L180.361 28.37L178.793 32.5ZM188.11 36.14C186.943 36.14 186.005 35.9907 185.296 35.692V34.348C185.697 34.4973 186.127 34.6187 186.584 34.712C187.051 34.8053 187.513 34.852 187.97 34.852C188.689 34.852 189.225 34.768 189.58 34.6C189.944 34.432 190.126 34.096 190.126 33.592C190.126 33.284 190.051 33.0367 189.902 32.85C189.753 32.6633 189.505 32.5047 189.16 32.374C188.815 32.234 188.339 32.0893 187.732 31.94C186.761 31.688 186.08 31.3707 185.688 30.988C185.296 30.596 185.1 30.0593 185.1 29.378C185.1 28.5847 185.389 27.964 185.968 27.516C186.547 27.068 187.41 26.844 188.558 26.844C189.081 26.844 189.571 26.8813 190.028 26.956C190.495 27.0307 190.859 27.1147 191.12 27.208V28.552C190.411 28.2813 189.627 28.146 188.768 28.146C188.096 28.146 187.573 28.2347 187.2 28.412C186.827 28.5893 186.64 28.9113 186.64 29.378C186.64 29.6487 186.705 29.868 186.836 30.036C186.967 30.204 187.191 30.3487 187.508 30.47C187.835 30.5913 188.283 30.7267 188.852 30.876C189.589 31.0627 190.159 31.2867 190.56 31.548C190.971 31.8 191.255 32.0987 191.414 32.444C191.582 32.78 191.666 33.1627 191.666 33.592C191.666 34.3853 191.372 35.0107 190.784 35.468C190.196 35.916 189.305 36.14 188.11 36.14ZM134.248 55.14C133.987 55.14 133.679 55.1213 133.324 55.084C132.969 55.0467 132.619 54.9953 132.274 54.93C131.938 54.8553 131.658 54.7713 131.434 54.678V52.802C131.817 52.9793 132.227 53.1053 132.666 53.18C133.105 53.2547 133.515 53.292 133.898 53.292C134.486 53.292 134.925 53.2127 135.214 53.054C135.513 52.8953 135.662 52.606 135.662 52.186C135.662 51.8593 135.536 51.6213 135.284 51.472C135.041 51.3227 134.687 51.248 134.22 51.248H132.75L132.904 49.666H134.122C134.598 49.666 134.943 49.5913 135.158 49.442C135.373 49.2833 135.48 49.0313 135.48 48.686C135.48 48.3593 135.349 48.112 135.088 47.944C134.836 47.776 134.425 47.692 133.856 47.692C133.455 47.692 133.049 47.7387 132.638 47.832C132.227 47.916 131.873 48.028 131.574 48.168V46.32C131.901 46.1893 132.307 46.0773 132.792 45.984C133.287 45.8907 133.781 45.844 134.276 45.844C135.415 45.844 136.283 46.0867 136.88 46.572C137.487 47.048 137.79 47.6593 137.79 48.406C137.79 48.8353 137.697 49.2367 137.51 49.61C137.333 49.9833 137.057 50.2633 136.684 50.45C137.113 50.5993 137.431 50.842 137.636 51.178C137.851 51.514 137.958 51.92 137.958 52.396C137.958 53.0213 137.799 53.5393 137.482 53.95C137.165 54.3513 136.726 54.65 136.166 54.846C135.615 55.042 134.976 55.14 134.248 55.14ZM142.132 55V45.984H144.358L146.808 50.982L149.244 45.984H151.456V55H149.202V49.82L147.424 53.46H146.178L144.386 49.82V55H142.132ZM152.598 55L156.042 45.984H158.478L161.922 55H159.57L158.758 52.956H155.748L154.95 55H152.598ZM156.056 51.29H158.45L157.246 48.154L156.056 51.29ZM163.064 55V45.984H165.318V55H163.064ZM170.955 55.14C169.49 55.14 168.375 54.7667 167.609 54.02C166.844 53.2733 166.461 52.1113 166.461 50.534C166.461 48.8633 166.844 47.664 167.609 46.936C168.375 46.208 169.49 45.844 170.955 45.844C172.421 45.844 173.536 46.208 174.301 46.936C175.067 47.664 175.449 48.8633 175.449 50.534C175.449 52.1113 175.067 53.2733 174.301 54.02C173.536 54.7667 172.421 55.14 170.955 55.14ZM170.955 53.222C171.711 53.222 172.262 53.0073 172.607 52.578C172.962 52.1393 173.139 51.458 173.139 50.534C173.139 49.526 172.962 48.8167 172.607 48.406C172.262 47.986 171.711 47.776 170.955 47.776C170.19 47.776 169.63 47.986 169.275 48.406C168.93 48.8167 168.757 49.526 168.757 50.534C168.757 51.458 168.93 52.1393 169.275 52.578C169.63 53.0073 170.19 53.222 170.955 53.222ZM176.599 55V45.984H181.107C182.171 45.984 182.955 46.264 183.459 46.824C183.963 47.384 184.215 48.1353 184.215 49.078C184.215 49.6847 184.061 50.2167 183.753 50.674C183.445 51.1313 183.025 51.472 182.493 51.696C182.623 51.7987 182.726 51.9153 182.801 52.046C182.885 52.1673 182.973 52.34 183.067 52.564L184.131 55H181.779L180.771 52.704C180.687 52.508 180.579 52.368 180.449 52.284C180.318 52.1907 180.131 52.144 179.889 52.144H178.853V55H176.599ZM178.853 50.408H180.519C180.957 50.408 181.298 50.3007 181.541 50.086C181.793 49.862 181.919 49.526 181.919 49.078C181.919 48.1727 181.485 47.72 180.617 47.72H178.853V50.408ZM185.362 55V45.984H192.012V47.72H187.616V49.61H191.494V51.374H187.616V53.264H192.012V55H185.362ZM195.957 55.14C195.36 55.14 194.8 55.0933 194.277 55C193.764 54.916 193.32 54.79 192.947 54.622V52.704C193.358 52.8813 193.81 53.026 194.305 53.138C194.809 53.25 195.285 53.306 195.733 53.306C196.293 53.306 196.708 53.2547 196.979 53.152C197.259 53.0493 197.399 52.8253 197.399 52.48C197.399 52.2467 197.329 52.06 197.189 51.92C197.058 51.78 196.839 51.6587 196.531 51.556C196.232 51.444 195.822 51.3133 195.299 51.164C194.683 50.9773 194.193 50.772 193.829 50.548C193.465 50.3147 193.204 50.0347 193.045 49.708C192.886 49.3813 192.807 48.98 192.807 48.504C192.807 47.6453 193.115 46.9873 193.731 46.53C194.347 46.0727 195.257 45.844 196.461 45.844C196.984 45.844 197.492 45.886 197.987 45.97C198.482 46.0447 198.883 46.1333 199.191 46.236V48.168C198.79 48.0093 198.384 47.8927 197.973 47.818C197.572 47.7433 197.18 47.706 196.797 47.706C196.293 47.706 195.882 47.7527 195.565 47.846C195.257 47.9393 195.103 48.154 195.103 48.49C195.103 48.686 195.159 48.8447 195.271 48.966C195.383 49.078 195.574 49.1807 195.845 49.274C196.125 49.3673 196.503 49.4793 196.979 49.61C197.716 49.806 198.281 50.044 198.673 50.324C199.065 50.5947 199.336 50.912 199.485 51.276C199.634 51.6307 199.709 52.032 199.709 52.48C199.709 53.2733 199.401 53.9173 198.785 54.412C198.169 54.8973 197.226 55.14 195.957 55.14ZM131.882 75V65.984H135.536C136.871 65.984 137.86 66.3387 138.504 67.048C139.148 67.748 139.47 68.9147 139.47 70.548C139.47 72.088 139.153 73.2173 138.518 73.936C137.883 74.6453 136.889 75 135.536 75H131.882ZM133.408 73.824H135.298C135.886 73.824 136.376 73.74 136.768 73.572C137.16 73.3947 137.454 73.068 137.65 72.592C137.846 72.116 137.944 71.4347 137.944 70.548C137.944 69.6613 137.855 68.9753 137.678 68.49C137.501 68.0047 137.216 67.664 136.824 67.468C136.441 67.272 135.933 67.174 135.298 67.174H133.408V73.824ZM144.964 75.14C143.536 75.14 142.467 74.7667 141.758 74.02C141.048 73.264 140.694 72.0973 140.694 70.52C140.694 68.8773 141.048 67.6873 141.758 66.95C142.467 66.2127 143.536 65.844 144.964 65.844C146.401 65.844 147.47 66.2127 148.17 66.95C148.879 67.6873 149.234 68.8773 149.234 70.52C149.234 72.0973 148.879 73.264 148.17 74.02C147.47 74.7667 146.401 75.14 144.964 75.14ZM144.964 73.852C145.906 73.852 146.597 73.5953 147.036 73.082C147.484 72.5593 147.708 71.7053 147.708 70.52C147.708 69.2693 147.484 68.3967 147.036 67.902C146.597 67.398 145.906 67.146 144.964 67.146C144.03 67.146 143.34 67.398 142.892 67.902C142.453 68.3967 142.234 69.2693 142.234 70.52C142.234 71.7053 142.453 72.5593 142.892 73.082C143.34 73.5953 144.03 73.852 144.964 73.852ZM153.948 75V65.984H158.316C159.212 65.984 159.875 66.194 160.304 66.614C160.734 67.034 160.948 67.6267 160.948 68.392C160.948 68.8773 160.85 69.288 160.654 69.624C160.458 69.9507 160.197 70.198 159.87 70.366C160.309 70.4873 160.654 70.7067 160.906 71.024C161.168 71.332 161.298 71.7893 161.298 72.396C161.298 73.2733 161.06 73.9267 160.584 74.356C160.118 74.7853 159.427 75 158.512 75H153.948ZM155.474 69.834H158.106C158.62 69.834 158.984 69.7173 159.198 69.484C159.422 69.2413 159.534 68.9193 159.534 68.518C159.534 68.0513 159.422 67.706 159.198 67.482C158.974 67.2487 158.554 67.132 157.938 67.132H155.474V69.834ZM155.474 73.88H158.19C158.732 73.88 159.128 73.768 159.38 73.544C159.632 73.3107 159.758 72.9093 159.758 72.34C159.758 71.8733 159.632 71.528 159.38 71.304C159.138 71.0707 158.69 70.954 158.036 70.954H155.474V73.88ZM162.78 75V65.984H166.924C167.932 65.984 168.665 66.2453 169.122 66.768C169.589 67.2813 169.822 67.9813 169.822 68.868C169.822 69.5027 169.664 70.044 169.346 70.492C169.029 70.94 168.572 71.2527 167.974 71.43C168.142 71.5513 168.273 71.682 168.366 71.822C168.46 71.962 168.553 72.1487 168.646 72.382L169.78 75H168.212L167.106 72.48C167.004 72.2373 166.878 72.0647 166.728 71.962C166.588 71.8593 166.346 71.808 166 71.808H164.306V75H162.78ZM164.306 70.576H166.518C167.069 70.576 167.503 70.4407 167.82 70.17C168.138 69.8993 168.296 69.4653 168.296 68.868C168.296 67.7387 167.75 67.174 166.658 67.174H164.306V70.576ZM170.43 75L173.874 65.984H175.582L178.998 75H177.43L176.534 72.676H172.908L172.012 75H170.43ZM173.146 71.5H176.282L174.714 67.37L173.146 71.5ZM182.464 75.14C181.297 75.14 180.359 74.9907 179.65 74.692V73.348C180.051 73.4973 180.48 73.6187 180.938 73.712C181.404 73.8053 181.866 73.852 182.324 73.852C183.042 73.852 183.579 73.768 183.934 73.6C184.298 73.432 184.48 73.096 184.48 72.592C184.48 72.284 184.405 72.0367 184.256 71.85C184.106 71.6633 183.859 71.5047 183.514 71.374C183.168 71.234 182.692 71.0893 182.086 70.94C181.115 70.688 180.434 70.3707 180.042 69.988C179.65 69.596 179.454 69.0593 179.454 68.378C179.454 67.5847 179.743 66.964 180.322 66.516C180.9 66.068 181.764 65.844 182.912 65.844C183.434 65.844 183.924 65.8813 184.382 65.956C184.848 66.0307 185.212 66.1147 185.474 66.208V67.552C184.764 67.2813 183.98 67.146 183.122 67.146C182.45 67.146 181.927 67.2347 181.554 67.412C181.18 67.5893 180.994 67.9113 180.994 68.378C180.994 68.6487 181.059 68.868 181.19 69.036C181.32 69.204 181.544 69.3487 181.862 69.47C182.188 69.5913 182.636 69.7267 183.206 69.876C183.943 70.0627 184.512 70.2867 184.914 70.548C185.324 70.8 185.609 71.0987 185.768 71.444C185.936 71.78 186.02 72.1627 186.02 72.592C186.02 73.3853 185.726 74.0107 185.138 74.468C184.55 74.916 183.658 75.14 182.464 75.14ZM187.499 75V65.984H189.025V75H187.499ZM190.794 75V65.984H192.32V73.824H196.94V75H190.794Z" fill="white"/>
<path opacity="0.9" d="M130.57 13V6.56H131.92V9.26H134.73V6.56H136.08V13H134.73V10.3H131.92V13H130.57ZM139.22 13.1C138.807 13.1 138.42 13.07 138.06 13.01C137.707 12.95 137.4 12.8633 137.14 12.75V11.56C137.434 11.68 137.75 11.7767 138.09 11.85C138.43 11.9233 138.764 11.96 139.09 11.96C139.557 11.96 139.9 11.9167 140.12 11.83C140.34 11.7433 140.45 11.5467 140.45 11.24C140.45 11.0467 140.404 10.8933 140.31 10.78C140.217 10.6667 140.054 10.5667 139.82 10.48C139.594 10.3867 139.27 10.2833 138.85 10.17C138.177 9.98333 137.704 9.75 137.43 9.47C137.157 9.19 137.02 8.80333 137.02 8.31C137.02 7.71667 137.237 7.26 137.67 6.94C138.104 6.62 138.734 6.46 139.56 6.46C139.947 6.46 140.307 6.48667 140.64 6.54C140.974 6.59333 141.244 6.65667 141.45 6.73V7.92C140.904 7.71333 140.334 7.61 139.74 7.61C139.32 7.61 138.99 7.65667 138.75 7.75C138.51 7.83667 138.39 8.02333 138.39 8.31C138.39 8.47667 138.434 8.61 138.52 8.71C138.607 8.81 138.754 8.9 138.96 8.98C139.174 9.06 139.47 9.15 139.85 9.25C140.377 9.39 140.784 9.55667 141.07 9.75C141.357 9.94333 141.554 10.1633 141.66 10.41C141.774 10.6567 141.83 10.9333 141.83 11.24C141.83 11.8 141.617 12.25 141.19 12.59C140.764 12.93 140.107 13.1 139.22 13.1ZM148.105 13.1C147.025 13.1 146.198 12.81 145.625 12.23C145.051 11.6433 144.765 10.8467 144.765 9.84C144.765 8.77333 145.041 7.94333 145.595 7.35C146.155 6.75667 146.988 6.46 148.095 6.46C148.481 6.46 148.828 6.49 149.135 6.55C149.448 6.60333 149.741 6.68 150.015 6.78V7.96C149.448 7.72667 148.841 7.61 148.195 7.61C147.461 7.61 146.935 7.79333 146.615 8.16C146.295 8.52667 146.135 9.08667 146.135 9.84C146.135 11.2533 146.828 11.96 148.215 11.96C148.528 11.96 148.838 11.9333 149.145 11.88C149.451 11.82 149.745 11.7333 150.025 11.62V12.81C149.751 12.8967 149.458 12.9667 149.145 13.02C148.838 13.0733 148.491 13.1 148.105 13.1ZM153.695 13.1C151.609 13.1 150.565 12.0033 150.565 9.81C150.565 8.63 150.829 7.77667 151.355 7.25C151.882 6.72333 152.662 6.46 153.695 6.46C154.729 6.46 155.509 6.72333 156.035 7.25C156.562 7.77667 156.825 8.63 156.825 9.81C156.825 12.0033 155.782 13.1 153.695 13.1ZM153.695 11.95C154.302 11.95 154.745 11.7767 155.025 11.43C155.312 11.0767 155.455 10.5367 155.455 9.81C155.455 9.00333 155.312 8.43667 155.025 8.11C154.745 7.77667 154.302 7.61 153.695 7.61C153.089 7.61 152.642 7.77667 152.355 8.11C152.075 8.43667 151.935 9.00333 151.935 9.81C151.935 10.5367 152.075 11.0767 152.355 11.43C152.642 11.7767 153.089 11.95 153.695 11.95ZM157.767 13V6.56H158.937L161.987 10.85V6.56H163.337V13H162.167L159.117 8.71V13H157.767ZM166.476 13.1C166.063 13.1 165.676 13.07 165.316 13.01C164.963 12.95 164.656 12.8633 164.396 12.75V11.56C164.69 11.68 165.006 11.7767 165.346 11.85C165.686 11.9233 166.02 11.96 166.346 11.96C166.813 11.96 167.156 11.9167 167.376 11.83C167.596 11.7433 167.706 11.5467 167.706 11.24C167.706 11.0467 167.66 10.8933 167.566 10.78C167.473 10.6667 167.31 10.5667 167.076 10.48C166.85 10.3867 166.526 10.2833 166.106 10.17C165.433 9.98333 164.96 9.75 164.686 9.47C164.413 9.19 164.276 8.80333 164.276 8.31C164.276 7.71667 164.493 7.26 164.926 6.94C165.36 6.62 165.99 6.46 166.816 6.46C167.203 6.46 167.563 6.48667 167.896 6.54C168.23 6.59333 168.5 6.65667 168.706 6.73V7.92C168.16 7.71333 167.59 7.61 166.996 7.61C166.576 7.61 166.246 7.65667 166.006 7.75C165.766 7.83667 165.646 8.02333 165.646 8.31C165.646 8.47667 165.69 8.61 165.776 8.71C165.863 8.81 166.01 8.9 166.216 8.98C166.43 9.06 166.726 9.15 167.106 9.25C167.633 9.39 168.04 9.55667 168.326 9.75C168.613 9.94333 168.81 10.1633 168.916 10.41C169.03 10.6567 169.086 10.9333 169.086 11.24C169.086 11.8 168.873 12.25 168.446 12.59C168.02 12.93 167.363 13.1 166.476 13.1ZM172.333 6.12L173.133 4.25H174.303L173.423 6.12H172.333ZM172.953 13.1C170.866 13.1 169.823 12.0033 169.823 9.81C169.823 8.63 170.086 7.77667 170.613 7.25C171.14 6.72333 171.92 6.46 172.953 6.46C173.986 6.46 174.766 6.72333 175.293 7.25C175.82 7.77667 176.083 8.63 176.083 9.81C176.083 12.0033 175.04 13.1 172.953 13.1ZM172.953 11.95C173.56 11.95 174.003 11.7767 174.283 11.43C174.57 11.0767 174.713 10.5367 174.713 9.81C174.713 9.00333 174.57 8.43667 174.283 8.11C174.003 7.77667 173.56 7.61 172.953 7.61C172.346 7.61 171.9 7.77667 171.613 8.11C171.333 8.43667 171.193 9.00333 171.193 9.81C171.193 10.5367 171.333 11.0767 171.613 11.43C171.9 11.7767 172.346 11.95 172.953 11.95ZM177.025 13V6.56H180.115C180.855 6.56 181.398 6.75667 181.745 7.15C182.092 7.53667 182.265 8.06 182.265 8.72C182.265 9.15333 182.152 9.52667 181.925 9.84C181.705 10.1533 181.392 10.38 180.985 10.52C181.092 10.6067 181.175 10.7 181.235 10.8C181.302 10.9 181.368 11.0333 181.435 11.2L182.215 13H180.815L180.055 11.27C179.988 11.1233 179.915 11.02 179.835 10.96C179.755 10.9 179.622 10.87 179.435 10.87H178.375V13H177.025ZM178.375 9.75H179.765C180.118 9.75 180.395 9.67333 180.595 9.52C180.795 9.36 180.895 9.09333 180.895 8.72C180.895 8.36 180.808 8.09667 180.635 7.93C180.462 7.76333 180.198 7.68 179.845 7.68H178.375V9.75ZM186.2 13.1C185.12 13.1 184.294 12.81 183.72 12.23C183.147 11.6433 182.86 10.8467 182.86 9.84C182.86 8.77333 183.137 7.94333 183.69 7.35C184.25 6.75667 185.084 6.46 186.19 6.46C186.577 6.46 186.924 6.49 187.23 6.55C187.544 6.60333 187.837 6.68 188.11 6.78V7.96C187.544 7.72667 186.937 7.61 186.29 7.61C185.557 7.61 185.03 7.79333 184.71 8.16C184.39 8.52667 184.23 9.08667 184.23 9.84C184.23 11.2533 184.924 11.96 186.31 11.96C186.624 11.96 186.934 11.9333 187.24 11.88C187.547 11.82 187.84 11.7333 188.12 11.62V12.81C187.847 12.8967 187.554 12.9667 187.24 13.02C186.934 13.0733 186.587 13.1 186.2 13.1ZM189.056 13V6.56H190.406V13H189.056ZM194.477 13.1C192.39 13.1 191.347 12.0033 191.347 9.81C191.347 8.63 191.61 7.77667 192.137 7.25C192.663 6.72333 193.443 6.46 194.477 6.46C195.51 6.46 196.29 6.72333 196.817 7.25C197.343 7.77667 197.607 8.63 197.607 9.81C197.607 12.0033 196.563 13.1 194.477 13.1ZM194.477 11.95C195.083 11.95 195.527 11.7767 195.807 11.43C196.093 11.0767 196.237 10.5367 196.237 9.81C196.237 9.00333 196.093 8.43667 195.807 8.11C195.527 7.77667 195.083 7.61 194.477 7.61C193.87 7.61 193.423 7.77667 193.137 8.11C192.857 8.43667 192.717 9.00333 192.717 9.81C192.717 10.5367 192.857 11.0767 193.137 11.43C193.423 11.7767 193.87 11.95 194.477 11.95ZM200.549 13.1C200.135 13.1 199.749 13.07 199.389 13.01C199.035 12.95 198.729 12.8633 198.469 12.75V11.56C198.762 11.68 199.079 11.7767 199.419 11.85C199.759 11.9233 200.092 11.96 200.419 11.96C200.885 11.96 201.229 11.9167 201.449 11.83C201.669 11.7433 201.779 11.5467 201.779 11.24C201.779 11.0467 201.732 10.8933 201.639 10.78C201.545 10.6667 201.382 10.5667 201.149 10.48C200.922 10.3867 200.599 10.2833 200.179 10.17C199.505 9.98333 199.032 9.75 198.759 9.47C198.485 9.19 198.349 8.80333 198.349 8.31C198.349 7.71667 198.565 7.26 198.999 6.94C199.432 6.62 200.062 6.46 200.889 6.46C201.275 6.46 201.635 6.48667 201.969 6.54C202.302 6.59333 202.572 6.65667 202.779 6.73V7.92C202.232 7.71333 201.662 7.61 201.069 7.61C200.649 7.61 200.319 7.65667 200.079 7.75C199.839 7.83667 199.719 8.02333 199.719 8.31C199.719 8.47667 199.762 8.61 199.849 8.71C199.935 8.81 200.082 8.9 200.289 8.98C200.502 9.06 200.799 9.15 201.179 9.25C201.705 9.39 202.112 9.55667 202.399 9.75C202.685 9.94333 202.882 10.1633 202.989 10.41C203.102 10.6567 203.159 10.9333 203.159 11.24C203.159 11.8 202.945 12.25 202.519 12.59C202.092 12.93 201.435 13.1 200.549 13.1Z" fill="url(#paint1_linear_733_529)"/>
<path d="M23.4955 75.12C22.9915 75.12 22.5395 75.032 22.1395 74.856C21.7475 74.672 21.4395 74.376 21.2155 73.968C20.9915 73.552 20.8795 73.004 20.8795 72.324C20.8795 71.644 21.0035 71.072 21.2515 70.608C21.4995 70.144 21.8315 69.792 22.2475 69.552C22.6635 69.312 23.1195 69.192 23.6155 69.192C24.2395 69.192 24.7715 69.336 25.2115 69.624V66.912H26.8315V75H25.4395L25.3435 74.472C25.0955 74.688 24.8235 74.852 24.5275 74.964C24.2395 75.068 23.8955 75.12 23.4955 75.12ZM23.9395 73.932C24.4435 73.932 24.8675 73.76 25.2115 73.416V70.824C24.8755 70.528 24.4835 70.38 24.0355 70.38C23.0275 70.38 22.5235 71.028 22.5235 72.324C22.5235 72.932 22.6475 73.352 22.8955 73.584C23.1435 73.816 23.4915 73.932 23.9395 73.932ZM30.9245 75.12C29.8605 75.12 29.0805 74.864 28.5845 74.352C28.0885 73.832 27.8405 73.1 27.8405 72.156C27.8405 71.212 28.0885 70.484 28.5845 69.972C29.0885 69.452 29.8685 69.192 30.9245 69.192C31.9885 69.192 32.7685 69.452 33.2645 69.972C33.7685 70.484 34.0205 71.212 34.0205 72.156C34.0205 73.1 33.7725 73.832 33.2765 74.352C32.7805 74.864 31.9965 75.12 30.9245 75.12ZM30.9245 73.74C31.4445 73.74 31.8165 73.624 32.0405 73.392C32.2645 73.152 32.3765 72.74 32.3765 72.156C32.3765 71.572 32.2645 71.164 32.0405 70.932C31.8165 70.692 31.4445 70.572 30.9245 70.572C30.4125 70.572 30.0445 70.692 29.8205 70.932C29.5965 71.164 29.4845 71.572 29.4845 72.156C29.4845 72.74 29.5965 73.152 29.8205 73.392C30.0445 73.624 30.4125 73.74 30.9245 73.74ZM39.7876 75.12C39.3636 75.12 38.9596 75.088 38.5756 75.024C38.1916 74.968 37.8836 74.896 37.6516 74.808V73.464C37.9316 73.576 38.2476 73.664 38.5996 73.728C38.9516 73.784 39.2756 73.812 39.5716 73.812C39.9716 73.812 40.2516 73.788 40.4116 73.74C40.5796 73.692 40.6636 73.584 40.6636 73.416C40.6636 73.224 40.5356 73.084 40.2796 72.996C40.0316 72.908 39.6596 72.784 39.1636 72.624C38.6436 72.448 38.2436 72.236 37.9636 71.988C37.6836 71.74 37.5436 71.372 37.5436 70.884C37.5436 70.34 37.7396 69.924 38.1316 69.636C38.5316 69.34 39.1716 69.192 40.0516 69.192C40.4036 69.192 40.7356 69.22 41.0476 69.276C41.3596 69.324 41.6236 69.384 41.8396 69.456V70.788C41.6236 70.684 41.3756 70.608 41.0956 70.56C40.8156 70.504 40.5556 70.476 40.3156 70.476C39.9716 70.476 39.6956 70.5 39.4876 70.548C39.2876 70.596 39.1876 70.7 39.1876 70.86C39.1876 71.036 39.2956 71.16 39.5116 71.232C39.7356 71.304 40.0796 71.412 40.5436 71.556C40.9996 71.692 41.3556 71.84 41.6116 72C41.8676 72.16 42.0476 72.352 42.1516 72.576C42.2556 72.792 42.3076 73.064 42.3076 73.392C42.3076 74.544 41.4676 75.12 39.7876 75.12ZM45.532 75.12C44.852 75.12 44.32 74.932 43.936 74.556C43.56 74.172 43.372 73.612 43.372 72.876V69.312H44.992V72.84C44.992 73.224 45.084 73.504 45.268 73.68C45.452 73.848 45.728 73.932 46.096 73.932C46.376 73.932 46.632 73.876 46.864 73.764C47.104 73.652 47.308 73.512 47.476 73.344V69.312H49.096V75H47.596L47.536 74.46C47.296 74.652 47.012 74.812 46.684 74.94C46.364 75.06 45.98 75.12 45.532 75.12ZM52.059 75.12C51.507 75.12 51.103 74.992 50.847 74.736C50.599 74.48 50.475 74.072 50.475 73.512V66.912H52.095V73.38C52.095 73.58 52.135 73.72 52.215 73.8C52.295 73.872 52.411 73.908 52.563 73.908C52.771 73.908 52.959 73.88 53.127 73.824V74.94C52.823 75.06 52.467 75.12 52.059 75.12ZM59.062 75.12C58.558 75.12 58.106 75.032 57.706 74.856C57.314 74.672 57.006 74.376 56.782 73.968C56.558 73.552 56.446 73.004 56.446 72.324C56.446 71.644 56.57 71.072 56.818 70.608C57.066 70.144 57.398 69.792 57.814 69.552C58.23 69.312 58.686 69.192 59.182 69.192C59.806 69.192 60.338 69.336 60.778 69.624V66.912H62.398V75H61.006L60.91 74.472C60.662 74.688 60.39 74.852 60.094 74.964C59.806 75.068 59.462 75.12 59.062 75.12ZM59.506 73.932C60.01 73.932 60.434 73.76 60.778 73.416V70.824C60.442 70.528 60.05 70.38 59.602 70.38C58.594 70.38 58.09 71.028 58.09 72.324C58.09 72.932 58.214 73.352 58.462 73.584C58.71 73.816 59.058 73.932 59.506 73.932ZM66.4909 75.12C65.4269 75.12 64.6469 74.864 64.1509 74.352C63.6549 73.832 63.4069 73.1 63.4069 72.156C63.4069 71.212 63.6549 70.484 64.1509 69.972C64.6549 69.452 65.4349 69.192 66.4909 69.192C67.5549 69.192 68.3349 69.452 68.8309 69.972C69.3349 70.484 69.5869 71.212 69.5869 72.156C69.5869 73.1 69.3389 73.832 68.8429 74.352C68.3469 74.864 67.5629 75.12 66.4909 75.12ZM66.4909 73.74C67.0109 73.74 67.3829 73.624 67.6069 73.392C67.8309 73.152 67.9429 72.74 67.9429 72.156C67.9429 71.572 67.8309 71.164 67.6069 70.932C67.3829 70.692 67.0109 70.572 66.4909 70.572C65.9789 70.572 65.6109 70.692 65.3869 70.932C65.1629 71.164 65.0509 71.572 65.0509 72.156C65.0509 72.74 65.1629 73.152 65.3869 73.392C65.6109 73.624 65.9789 73.74 66.4909 73.74ZM73.35 77.592V69.312H74.754L74.838 69.84C75.086 69.632 75.358 69.472 75.654 69.36C75.95 69.248 76.298 69.192 76.698 69.192C77.53 69.192 78.17 69.42 78.618 69.876C79.074 70.324 79.302 71.06 79.302 72.084C79.302 73.108 79.058 73.872 78.57 74.376C78.09 74.872 77.434 75.12 76.602 75.12C75.962 75.12 75.418 74.976 74.97 74.688V77.592H73.35ZM76.194 73.932C76.674 73.932 77.038 73.784 77.286 73.488C77.534 73.192 77.658 72.728 77.658 72.096C77.658 71.488 77.546 71.052 77.322 70.788C77.098 70.516 76.738 70.38 76.242 70.38C75.746 70.38 75.322 70.552 74.97 70.896V73.5C75.138 73.628 75.314 73.732 75.498 73.812C75.69 73.892 75.922 73.932 76.194 73.932ZM82.2161 75.12C81.8561 75.12 81.5201 75.056 81.2081 74.928C80.9041 74.792 80.6561 74.596 80.4641 74.34C80.2801 74.076 80.1881 73.748 80.1881 73.356C80.1881 72.796 80.3841 72.348 80.7761 72.012C81.1761 71.676 81.7641 71.508 82.5401 71.508H84.2201V71.352C84.2201 71 84.1201 70.752 83.9201 70.608C83.7281 70.464 83.3361 70.392 82.7441 70.392C82.0961 70.392 81.4721 70.492 80.8721 70.692V69.552C81.1361 69.448 81.4561 69.364 81.8321 69.3C82.2161 69.228 82.6321 69.192 83.0801 69.192C83.9361 69.192 84.5961 69.368 85.0601 69.72C85.5321 70.064 85.7681 70.62 85.7681 71.388V75H84.3641L84.2801 74.484C84.0561 74.684 83.7801 74.84 83.4521 74.952C83.1241 75.064 82.7121 75.12 82.2161 75.12ZM82.6601 74.052C83.0201 74.052 83.3321 73.992 83.5961 73.872C83.8601 73.752 84.0681 73.6 84.2201 73.416V72.516H82.5761C81.9441 72.516 81.6281 72.776 81.6281 73.296C81.6281 73.8 81.9721 74.052 82.6601 74.052ZM87.5887 68.736L88.5487 66.492H89.9527L88.8967 68.736H87.5887ZM87.6007 75V70.512H86.7487L86.8927 69.312H89.2207V75H87.6007ZM92.604 75.12C92.18 75.12 91.776 75.088 91.392 75.024C91.008 74.968 90.7 74.896 90.468 74.808V73.464C90.748 73.576 91.064 73.664 91.416 73.728C91.768 73.784 92.092 73.812 92.388 73.812C92.788 73.812 93.068 73.788 93.228 73.74C93.396 73.692 93.48 73.584 93.48 73.416C93.48 73.224 93.352 73.084 93.096 72.996C92.848 72.908 92.476 72.784 91.98 72.624C91.46 72.448 91.06 72.236 90.78 71.988C90.5 71.74 90.36 71.372 90.36 70.884C90.36 70.34 90.556 69.924 90.948 69.636C91.348 69.34 91.988 69.192 92.868 69.192C93.22 69.192 93.552 69.22 93.864 69.276C94.176 69.324 94.44 69.384 94.656 69.456V70.788C94.44 70.684 94.192 70.608 93.912 70.56C93.632 70.504 93.372 70.476 93.132 70.476C92.788 70.476 92.512 70.5 92.304 70.548C92.104 70.596 92.004 70.7 92.004 70.86C92.004 71.036 92.112 71.16 92.328 71.232C92.552 71.304 92.896 71.412 93.36 71.556C93.816 71.692 94.172 71.84 94.428 72C94.684 72.16 94.864 72.352 94.968 72.576C95.072 72.792 95.124 73.064 95.124 73.392C95.124 74.544 94.284 75.12 92.604 75.12Z" fill="white"/>
<path d="M51.1044 39.8359V27.9319L48.5604 28.3399V25.0999L54.9684 24.1399V39.8359H51.1044Z" fill="white"/>
<line x1="112.5" y1="80.0064" x2="111.5" y2="2.00641" stroke="url(#paint2_linear_733_529)"/>
<path d="M61.1206 29.2359C60.614 29.2359 60.174 29.1093 59.8006 28.8559C59.4406 28.5893 59.2606 28.1693 59.2606 27.5959C59.2606 26.4093 59.9873 25.8159 61.4406 25.8159H62.9006V25.7359C62.9006 25.4959 62.814 25.3293 62.6406 25.2359C62.4673 25.1293 62.1473 25.0759 61.6806 25.0759C61.094 25.0759 60.5073 25.1693 59.9206 25.3559V24.1159C60.1873 24.0093 60.514 23.9226 60.9006 23.8559C61.3006 23.7893 61.694 23.7559 62.0806 23.7559C62.8806 23.7559 63.5206 23.9226 64.0006 24.2559C64.494 24.5893 64.7406 25.1226 64.7406 25.8559V29.1159H63.0806L62.9806 28.6959C62.754 28.8693 62.494 29.0026 62.2006 29.0959C61.9073 29.1893 61.5473 29.2359 61.1206 29.2359ZM61.7606 28.0759C61.9873 28.0759 62.2006 28.0359 62.4006 27.9559C62.6006 27.8626 62.7673 27.7226 62.9006 27.5359V26.9159H61.8806C61.5873 26.9159 61.3673 26.9559 61.2206 27.0359C61.074 27.1159 61.0006 27.2759 61.0006 27.5159C61.0006 27.7293 61.0673 27.8759 61.2006 27.9559C61.334 28.0359 61.5206 28.0759 61.7606 28.0759Z" fill="white"/>
<defs>
<linearGradient id="paint0_linear_733_529" x1="37.1944" y1="12.7842" x2="75.666" y2="50.6594" gradientUnits="userSpaceOnUse">
<stop stop-color="white"/>
<stop offset="1" stop-color="white" stop-opacity="0"/>
</linearGradient>
<linearGradient id="paint1_linear_733_529" x1="135.27" y1="1.33555e-05" x2="219.985" y2="13" gradientUnits="userSpaceOnUse">
<stop stop-color="#D9D9D9"/>
<stop offset="1" stop-color="#D9D9D9" stop-opacity="0"/>
</linearGradient>
<linearGradient id="paint2_linear_733_529" x1="115.5" y1="1.95513" x2="114.288" y2="84.0389" gradientUnits="userSpaceOnUse">
<stop stop-color="white" stop-opacity="0.1"/>
<stop offset="0.515625" stop-color="white"/>
<stop offset="1" stop-color="white" stop-opacity="0"/>
</linearGradient>
</defs>
</svg>
