<svg width="241" height="81" viewBox="0 0 241 81" fill="none" xmlns="http://www.w3.org/2000/svg">
<g opacity="0.7">
<mask id="path-1-inside-1_733_529" fill="white">
<path d="M53.4504 5.73568C54.2506 4.75477 55.7494 4.75477 56.5497 5.73568L60.3004 10.3328C60.7919 10.9353 61.5881 11.1983 62.3418 11.0071L67.9672 9.5801C69.1742 9.27393 70.3645 10.1332 70.4538 11.3752L70.8985 17.5562C70.9524 18.3044 71.4203 18.9595 72.1106 19.2531L77.6205 21.5966C78.7353 22.0708 79.1759 23.4193 78.5562 24.4602L75.3692 29.8131C74.9938 30.4436 74.9938 31.2289 75.3692 31.8594L78.5562 37.2123C79.1759 38.2532 78.7353 39.6017 77.6205 40.0759L72.1106 42.4194C71.4203 42.713 70.9524 43.3681 70.8985 44.1163L70.4538 50.2973C70.3645 51.5393 69.1742 52.3986 67.9672 52.0924L62.3418 50.6654C61.5881 50.4742 60.7919 50.7372 60.3004 51.3396L56.5497 55.9368C55.7494 56.9177 54.2506 56.9177 53.4504 55.9368L49.6997 51.3396C49.2081 50.7372 48.4119 50.4742 47.6582 50.6654L42.0328 52.0924C40.8259 52.3986 39.6356 51.5393 39.5462 50.2973L39.1015 44.1163C39.0477 43.3681 38.5797 42.713 37.8895 42.4194L32.3796 40.0759C31.2648 39.6017 30.8242 38.2532 31.4439 37.2123L34.6309 31.8594C35.0062 31.2289 35.0062 30.4436 34.6309 29.8131L31.4439 24.4602C30.8242 23.4193 31.2648 22.0708 32.3796 21.5966L37.8895 19.2531C38.5797 18.9595 39.0477 18.3044 39.1015 17.5562L39.5462 11.3752C39.6356 10.1332 40.8259 9.27393 42.0328 9.5801L47.6582 11.0071C48.4119 11.1983 49.2081 10.9353 49.6997 10.3328L53.4504 5.73568Z"/>
</mask>
<path d="M53.4504 5.73568L54.2252 6.36784V6.36784L53.4504 5.73568ZM56.5497 5.73568L55.7749 6.36784L56.5497 5.73568ZM60.3004 10.3328L59.5255 10.965V10.965L60.3004 10.3328ZM62.3418 11.0071L62.5877 11.9764H62.5877L62.3418 11.0071ZM67.9672 9.5801L67.7213 8.6108V8.6108L67.9672 9.5801ZM70.4538 11.3752L69.4564 11.4469V11.4469L70.4538 11.3752ZM70.8985 17.5562L71.896 17.4844V17.4844L70.8985 17.5562ZM72.1106 19.2531L71.7192 20.1733L72.1106 19.2531ZM77.6205 21.5966L78.0119 20.6764L77.6205 21.5966ZM78.5562 24.4602L77.6969 23.9486H77.6969L78.5562 24.4602ZM75.3692 29.8131L76.2284 30.3247L75.3692 29.8131ZM75.3692 31.8594L76.2284 31.3478L75.3692 31.8594ZM78.5562 37.2123L77.6969 37.7239L78.5562 37.2123ZM77.6205 40.0759L77.2291 39.1557L77.6205 40.0759ZM72.1106 42.4194L72.502 43.3396L72.1106 42.4194ZM70.8985 44.1163L71.896 44.1881V44.1881L70.8985 44.1163ZM70.4538 50.2973L69.4564 50.2256L70.4538 50.2973ZM67.9672 52.0924L67.7213 53.0617L67.9672 52.0924ZM62.3418 50.6654L62.0959 51.6347H62.0959L62.3418 50.6654ZM60.3004 51.3396L59.5255 50.7075H59.5255L60.3004 51.3396ZM56.5497 55.9368L57.3245 56.569L56.5497 55.9368ZM53.4504 55.9368L54.2252 55.3047L53.4504 55.9368ZM49.6997 51.3396L50.4745 50.7075H50.4745L49.6997 51.3396ZM47.6582 50.6654L47.9041 51.6347H47.9041L47.6582 50.6654ZM42.0328 52.0924L42.2787 53.0617H42.2787L42.0328 52.0924ZM39.5462 50.2973L38.5488 50.3691L39.5462 50.2973ZM39.1015 44.1163L40.099 44.0445L39.1015 44.1163ZM37.8895 42.4194L37.4981 43.3396H37.4981L37.8895 42.4194ZM32.3796 40.0759L32.771 39.1557H32.771L32.3796 40.0759ZM31.4439 37.2123L32.3031 37.7239H32.3031L31.4439 37.2123ZM34.6309 31.8594L33.7716 31.3478L34.6309 31.8594ZM34.6309 29.8131L33.7716 30.3247L34.6309 29.8131ZM31.4439 24.4602L32.3031 23.9486L31.4439 24.4602ZM32.3796 21.5966L32.771 22.5168H32.771L32.3796 21.5966ZM37.8895 19.2531L37.4981 18.3329H37.4981L37.8895 19.2531ZM39.1015 17.5562L40.099 17.628V17.6279L39.1015 17.5562ZM39.5462 11.3752L40.5436 11.4469V11.4469L39.5462 11.3752ZM42.0328 9.5801L41.7869 10.5494H41.7869L42.0328 9.5801ZM47.6582 11.0071L47.4124 11.9764L47.6582 11.0071ZM49.6997 10.3328L48.9249 9.70069L49.6997 10.3328ZM54.2252 6.36784C54.6253 5.87739 55.3747 5.87739 55.7749 6.36784L57.3245 5.10352C56.1241 3.63216 53.8759 3.63216 52.6755 5.10352L54.2252 6.36784ZM55.7749 6.36784L59.5255 10.965L61.0752 9.70069L57.3245 5.10352L55.7749 6.36784ZM59.5255 10.965C60.2628 11.8687 61.4571 12.2632 62.5877 11.9764L62.0959 10.0378C61.7191 10.1334 61.321 10.0019 61.0752 9.70069L59.5255 10.965ZM62.5877 11.9764L68.2131 10.5494L67.7213 8.6108L62.0959 10.0378L62.5877 11.9764ZM68.2131 10.5494C68.8166 10.3963 69.4117 10.826 69.4564 11.4469L71.4513 11.3034C71.3172 9.44047 69.5318 8.15154 67.7213 8.6108L68.2131 10.5494ZM69.4564 11.4469L69.9011 17.628L71.896 17.4844L71.4513 11.3034L69.4564 11.4469ZM69.9011 17.628C69.9818 18.7502 70.6838 19.733 71.7192 20.1733L72.502 18.3329C72.1568 18.1861 71.9229 17.8585 71.896 17.4844L69.9011 17.628ZM71.7192 20.1733L77.2291 22.5168L78.0119 20.6764L72.502 18.3329L71.7192 20.1733ZM77.2291 22.5168C77.7865 22.7539 78.0068 23.4282 77.6969 23.9486L79.4154 24.9718C80.345 23.4104 79.684 21.3876 78.0119 20.6764L77.2291 22.5168ZM77.6969 23.9486L74.5099 29.3015L76.2284 30.3247L79.4154 24.9718L77.6969 23.9486ZM74.5099 29.3015C73.9469 30.2472 73.9469 31.4253 74.5099 32.371L76.2284 31.3478C76.0407 31.0326 76.0407 30.6399 76.2284 30.3247L74.5099 29.3015ZM74.5099 32.371L77.6969 37.7239L79.4154 36.7007L76.2284 31.3478L74.5099 32.371ZM77.6969 37.7239C78.0068 38.2443 77.7865 38.9186 77.2291 39.1557L78.0119 40.9961C79.684 40.2849 80.345 38.2621 79.4154 36.7007L77.6969 37.7239ZM77.2291 39.1557L71.7192 41.4992L72.502 43.3396L78.0119 40.9961L77.2291 39.1557ZM71.7192 41.4992C70.6838 41.9395 69.9818 42.9223 69.9011 44.0446L71.896 44.1881C71.9229 43.814 72.1568 43.4864 72.502 43.3396L71.7192 41.4992ZM69.9011 44.0445L69.4564 50.2256L71.4513 50.3691L71.896 44.1881L69.9011 44.0445ZM69.4564 50.2256C69.4117 50.8465 68.8166 51.2762 68.2131 51.1231L67.7213 53.0617C69.5318 53.521 71.3172 52.232 71.4513 50.3691L69.4564 50.2256ZM68.2131 51.1231L62.5877 49.6961L62.0959 51.6347L67.7213 53.0617L68.2131 51.1231ZM62.5877 49.6961C61.4571 49.4093 60.2628 49.8038 59.5255 50.7075L61.0752 51.9718C61.321 51.6706 61.7191 51.5391 62.0959 51.6347L62.5877 49.6961ZM59.5255 50.7075L55.7749 55.3047L57.3245 56.569L61.0752 51.9718L59.5255 50.7075ZM55.7749 55.3047C55.3747 55.7951 54.6253 55.7951 54.2252 55.3047L52.6755 56.569C53.8759 58.0403 56.1241 58.0403 57.3245 56.569L55.7749 55.3047ZM54.2252 55.3047L50.4745 50.7075L48.9249 51.9718L52.6755 56.569L54.2252 55.3047ZM50.4745 50.7075C49.7372 49.8038 48.5429 49.4093 47.4124 49.6961L47.9041 51.6347C48.281 51.5391 48.6791 51.6706 48.9249 51.9718L50.4745 50.7075ZM47.4124 49.6961L41.7869 51.1231L42.2787 53.0617L47.9041 51.6347L47.4124 49.6961ZM41.7869 51.1231C41.1835 51.2762 40.5883 50.8465 40.5436 50.2256L38.5488 50.3691C38.6828 52.232 40.4683 53.521 42.2787 53.0617L41.7869 51.1231ZM40.5436 50.2256L40.099 44.0445L38.1041 44.1881L38.5488 50.3691L40.5436 50.2256ZM40.099 44.0445C40.0182 42.9223 39.3163 41.9395 38.2809 41.4992L37.4981 43.3396C37.8432 43.4864 38.0772 43.814 38.1041 44.1881L40.099 44.0445ZM38.2809 41.4992L32.771 39.1557L31.9882 40.9961L37.4981 43.3396L38.2809 41.4992ZM32.771 39.1557C32.2136 38.9186 31.9933 38.2443 32.3031 37.7239L30.5847 36.7007C29.6551 38.2621 30.316 40.2849 31.9882 40.9961L32.771 39.1557ZM32.3031 37.7239L35.4901 32.371L33.7716 31.3478L30.5847 36.7007L32.3031 37.7239ZM35.4901 32.371C36.0532 31.4253 36.0531 30.2472 35.4901 29.3015L33.7716 30.3247C33.9593 30.6399 33.9593 31.0326 33.7716 31.3478L35.4901 32.371ZM35.4901 29.3015L32.3031 23.9486L30.5847 24.9718L33.7716 30.3247L35.4901 29.3015ZM32.3031 23.9486C31.9933 23.4282 32.2136 22.7539 32.771 22.5168L31.9882 20.6764C30.316 21.3876 29.6551 23.4104 30.5847 24.9718L32.3031 23.9486ZM32.771 22.5168L38.2809 20.1733L37.4981 18.3329L31.9882 20.6764L32.771 22.5168ZM38.2809 20.1733C39.3163 19.733 40.0182 18.7502 40.099 17.628L38.1041 17.4844C38.0772 17.8585 37.8432 18.1861 37.4981 18.3329L38.2809 20.1733ZM40.099 17.6279L40.5436 11.4469L38.5488 11.3034L38.1041 17.4844L40.099 17.6279ZM40.5436 11.4469C40.5883 10.826 41.1835 10.3963 41.7869 10.5494L42.2787 8.6108C40.4683 8.15154 38.6828 9.44047 38.5488 11.3034L40.5436 11.4469ZM41.7869 10.5494L47.4124 11.9764L47.9041 10.0378L42.2787 8.6108L41.7869 10.5494ZM47.4124 11.9764C48.5429 12.2632 49.7372 11.8687 50.4745 10.965L48.9249 9.70069C48.6791 10.0019 48.281 10.1334 47.9041 10.0378L47.4124 11.9764ZM50.4745 10.965L54.2252 6.36784L52.6755 5.10352L48.9249 9.70069L50.4745 10.965Z" fill="url(#paint0_linear_733_529)" mask="url(#path-1-inside-1_733_529)"/>
</g>
<path d="M131.882 36V26.984H138.168V28.174H133.408V30.904H137.65V32.08H133.408V34.824H138.168V36H131.882ZM139.579 36V26.984H140.923L145.627 33.62V26.984H147.139V36H145.795L141.105 29.378V36H139.579ZM151.255 36V28.174H148.371V26.984H155.651V28.174H152.781V36H151.255ZM156.874 36V26.984H161.018C162.026 26.984 162.759 27.2453 163.216 27.768C163.683 28.2813 163.916 28.9813 163.916 29.868C163.916 30.5027 163.758 31.044 163.44 31.492C163.123 31.94 162.666 32.2527 162.068 32.43C162.236 32.5513 162.367 32.682 162.46 32.822C162.554 32.962 162.647 33.1487 162.74 33.382L163.874 36H162.306L161.2 33.48C161.098 33.2373 160.972 33.0647 160.822 32.962C160.682 32.8593 160.44 32.808 160.094 32.808H158.4V36H156.874ZM158.4 31.576H160.612C161.163 31.576 161.597 31.4407 161.914 31.17C162.232 30.8993 162.39 30.4653 162.39 29.868C162.39 28.7387 161.844 28.174 160.752 28.174H158.4V31.576ZM165.419 36V26.984H171.705V28.174H166.945V30.904H171.187V32.08H166.945V34.824H171.705V36H165.419ZM176.077 36L179.521 26.984H181.229L184.645 36H183.077L182.181 33.676H178.555L177.659 36H176.077ZM178.793 32.5H181.929L180.361 28.37L178.793 32.5ZM188.11 36.14C186.943 36.14 186.005 35.9907 185.296 35.692V34.348C185.697 34.4973 186.127 34.6187 186.584 34.712C187.051 34.8053 187.513 34.852 187.97 34.852C188.689 34.852 189.225 34.768 189.58 34.6C189.944 34.432 190.126 34.096 190.126 33.592C190.126 33.284 190.051 33.0367 189.902 32.85C189.753 32.6633 189.505 32.5047 189.16 32.374C188.815 32.234 188.339 32.0893 187.732 31.94C186.761 31.688 186.08 31.3707 185.688 30.988C185.296 30.596 185.1 30.0593 185.1 29.378C185.1 28.5847 185.389 27.964 185.968 27.516C186.547 27.068 187.41 26.844 188.558 26.844C189.081 26.844 189.571 26.8813 190.028 26.956C190.495 27.0307 190.859 27.1147 191.12 27.208V28.552C190.411 28.2813 189.627 28.146 188.768 28.146C188.096 28.146 187.573 28.2347 187.2 28.412C186.827 28.5893 186.64 28.9113 186.64 29.378C186.64 29.6487 186.705 29.868 186.836 30.036C186.967 30.204 187.191 30.3487 187.508 30.47C187.835 30.5913 188.283 30.7267 188.852 30.876C189.589 31.0627 190.159 31.2867 190.56 31.548C190.971 31.8 191.255 32.0987 191.414 32.444C191.582 32.78 191.666 33.1627 191.666 33.592C191.666 34.3853 191.372 35.0107 190.784 35.468C190.196 35.916 189.305 36.14 188.11 36.14ZM134.248 55.14C133.987 55.14 133.679 55.1213 133.324 55.084C132.969 55.0467 132.619 54.9953 132.274 54.93C131.938 54.8553 131.658 54.7713 131.434 54.678V52.802C131.817 52.9793 132.227 53.1053 132.666 53.18C133.105 53.2547 133.515 53.292 133.898 53.292C134.486 53.292 134.925 53.2127 135.214 53.054C135.513 52.8953 135.662 52.606 135.662 52.186C135.662 51.8593 135.536 51.6213 135.284 51.472C135.041 51.3227 134.687 51.248 134.22 51.248H132.75L132.904 49.666H134.122C134.598 49.666 134.943 49.5913 135.158 49.442C135.373 49.2833 135.48 49.0313 135.48 48.686C135.48 48.3593 135.349 48.112 135.088 47.944C134.836 47.776 134.425 47.692 133.856 47.692C133.455 47.692 133.049 47.7387 132.638 47.832C132.227 47.916 131.873 48.028 131.574 48.168V46.32C131.901 46.1893 132.307 46.0773 132.792 45.984C133.287 45.8907 133.781 45.844 134.276 45.844C135.415 45.844 136.283 46.0867 136.88 46.572C137.487 47.048 137.79 47.6593 137.79 48.406C137.79 48.8353 137.697 49.2367 137.51 49.61C137.333 49.9833 137.057 50.2633 136.684 50.45C137.113 50.5993 137.431 50.842 137.636 51.178C137.851 51.514 137.958 51.92 137.958 52.396C137.958 53.0213 137.799 53.5393 137.482 53.95C137.165 54.3513 136.726 54.65 136.166 54.846C135.615 55.042 134.976 55.14 134.248 55.14ZM142.132 55V45.984H144.358L146.808 50.982L149.244 45.984H151.456V55H149.202V49.82L147.424 53.46H146.178L144.386 49.82V55H142.132ZM152.598 55L156.042 45.984H158.478L161.922 55H159.57L158.758 52.956H155.748L154.95 55H152.598ZM156.056 51.29H158.45L157.246 48.154L156.056 51.29ZM163.064 55V45.984H165.318V55H163.064ZM170.955 55.14C169.49 55.14 168.375 54.7667 167.609 54.02C166.844 53.2733 166.461 52.1113 166.461 50.534C166.461 48.8633 166.844 47.664 167.609 46.936C168.375 46.208 169.49 45.844 170.955 45.844C172.421 45.844 173.536 46.208 174.301 46.936C175.067 47.664 175.449 48.8633 175.449 50.534C175.449 52.1113 175.067 53.2733 174.301 54.02C173.536 54.7667 172.421 55.14 170.955 55.14ZM170.955 53.222C171.711 53.222 172.262 53.0073 172.607 52.578C172.962 52.1393 173.139 51.458 173.139 50.534C173.139 49.526 172.962 48.8167 172.607 48.406C172.262 47.986 171.711 47.776 170.955 47.776C170.19 47.776 169.63 47.986 169.275 48.406C168.93 48.8167 168.757 49.526 168.757 50.534C168.757 51.458 168.93 52.1393 169.275 52.578C169.63 53.0073 170.19 53.222 170.955 53.222ZM176.599 55V45.984H181.107C182.171 45.984 182.955 46.264 183.459 46.824C183.963 47.384 184.215 48.1353 184.215 49.078C184.215 49.6847 184.061 50.2167 183.753 50.674C183.445 51.1313 183.025 51.472 182.493 51.696C182.623 51.7987 182.726 51.9153 182.801 52.046C182.885 52.1673 182.973 52.34 183.067 52.564L184.131 55H181.779L180.771 52.704C180.687 52.508 180.579 52.368 180.449 52.284C180.318 52.1907 180.131 52.144 179.889 52.144H178.853V55H176.599ZM178.853 50.408H180.519C180.957 50.408 181.298 50.3007 181.541 50.086C181.793 49.862 181.919 49.526 181.919 49.078C181.919 48.1727 181.485 47.72 180.617 47.72H178.853V50.408ZM185.362 55V45.984H192.012V47.72H187.616V49.61H191.494V51.374H187.616V53.264H192.012V55H185.362ZM195.957 55.14C195.36 55.14 194.8 55.0933 194.277 55C193.764 54.916 193.32 54.79 192.947 54.622V52.704C193.358 52.8813 193.81 53.026 194.305 53.138C194.809 53.25 195.285 53.306 195.733 53.306C196.293 53.306 196.708 53.2547 196.979 53.152C197.259 53.0493 197.399 52.8253 197.399 52.48C197.399 52.2467 197.329 52.06 197.189 51.92C197.058 51.78 196.839 51.6587 196.531 51.556C196.232 51.444 195.822 51.3133 195.299 51.164C194.683 50.9773 194.193 50.772 193.829 50.548C193.465 50.3147 193.204 50.0347 193.045 49.708C192.886 49.3813 192.807 48.98 192.807 48.504C192.807 47.6453 193.115 46.9873 193.731 46.53C194.347 46.0727 195.257 45.844 196.461 45.844C196.984 45.844 197.492 45.886 197.987 45.97C198.482 46.0447 198.883 46.1333 199.191 46.236V48.168C198.79 48.0093 198.384 47.8927 197.973 47.818C197.572 47.7433 197.18 47.706 196.797 47.706C196.293 47.706 195.882 47.7527 195.565 47.846C195.257 47.9393 195.103 48.154 195.103 48.49C195.103 48.686 195.159 48.8447 195.271 48.966C195.383 49.078 195.574 49.1807 195.845 49.274C196.125 49.3673 196.503 49.4793 196.979 49.61C197.716 49.806 198.281 50.044 198.673 50.324C199.065 50.5947 199.336 50.912 199.485 51.276C199.634 51.6307 199.709 52.032 199.709 52.48C199.709 53.2733 199.401 53.9173 198.785 54.412C198.169 54.8973 197.226 55.14 195.957 55.14ZM131.882 75V65.984H135.536C136.871 65.984 137.86 66.3387 138.504 67.048C139.148 67.748 139.47 68.9147 139.47 70.548C139.47 72.088 139.153 73.2173 138.518 73.936C137.883 74.6453 136.889 75 135.536 75H131.882ZM133.408 73.824H135.298C135.886 73.824 136.376 73.74 136.768 73.572C137.16 73.3947 137.454 73.068 137.65 72.592C137.846 72.116 137.944 71.4347 137.944 70.548C137.944 69.6613 137.855 68.9753 137.678 68.49C137.501 68.0047 137.216 67.664 136.824 67.468C136.441 67.272 135.933 67.174 135.298 67.174H133.408V73.824ZM144.964 75.14C143.536 75.14 142.467 74.7667 141.758 74.02C141.048 73.264 140.694 72.0973 140.694 70.52C140.694 68.8773 141.048 67.6873 141.758 66.95C142.467 66.2127 143.536 65.844 144.964 65.844C146.401 65.844 147.47 66.2127 148.17 66.95C148.879 67.6873 149.234 68.8773 149.234 70.52C149.234 72.0973 148.879 73.264 148.17 74.02C147.47 74.7667 146.401 75.14 144.964 75.14ZM144.964 73.852C145.906 73.852 146.597 73.5953 147.036 73.082C147.484 72.5593 147.708 71.7053 147.708 70.52C147.708 69.2693 147.484 68.3967 147.036 67.902C146.597 67.398 145.906 67.146 144.964 67.146C144.03 67.146 143.34 67.398 142.892 67.902C142.453 68.3967 142.234 69.2693 142.234 70.52C142.234 71.7053 142.453 72.5593 142.892 73.082C143.34 73.5953 144.03 73.852 144.964 73.852ZM153.948 75V65.984H158.316C159.212 65.984 159.875 66.194 160.304 66.614C160.734 67.034 160.948 67.6267 160.948 68.392C160.948 68.8773 160.85 69.288 160.654 69.624C160.458 69.9507 160.197 70.198 159.87 70.366C160.309 70.4873 160.654 70.7067 160.906 71.024C161.168 71.332 161.298 71.7893 161.298 72.396C161.298 73.2733 161.06 73.9267 160.584 74.356C160.118 74.7853 159.427 75 158.512 75H153.948ZM155.474 69.834H158.106C158.62 69.834 158.984 69.7173 159.198 69.484C159.422 69.2413 159.534 68.9193 159.534 68.518C159.534 68.0513 159.422 67.706 159.198 67.482C158.974 67.2487 158.554 67.132 157.938 67.132H155.474V69.834ZM155.474 73.88H158.19C158.732 73.88 159.128 73.768 159.38 73.544C159.632 73.3107 159.758 72.9093 159.758 72.34C159.758 71.8733 159.632 71.528 159.38 71.304C159.138 71.0707 158.69 70.954 158.036 70.954H155.474V73.88ZM162.78 75V65.984H166.924C167.932 65.984 168.665 66.2453 169.122 66.768C169.589 67.2813 169.822 67.9813 169.822 68.868C169.822 69.5027 169.664 70.044 169.346 70.492C169.029 70.94 168.572 71.2527 167.974 71.43C168.142 71.5513 168.273 71.682 168.366 71.822C168.46 71.962 168.553 72.1487 168.646 72.382L169.78 75H168.212L167.106 72.48C167.004 72.2373 166.878 72.0647 166.728 71.962C166.588 71.8593 166.346 71.808 166 71.808H164.306V75H162.78ZM164.306 70.576H166.518C167.069 70.576 167.503 70.4407 167.82 70.17C168.138 69.8993 168.296 69.4653 168.296 68.868C168.296 67.7387 167.75 67.174 166.658 67.174H164.306V70.576ZM170.43 75L173.874 65.984H175.582L178.998 75H177.43L176.534 72.676H172.908L172.012 75H170.43ZM173.146 71.5H176.282L174.714 67.37L173.146 71.5ZM182.464 75.14C181.297 75.14 180.359 74.9907 179.65 74.692V73.348C180.051 73.4973 180.48 73.6187 180.938 73.712C181.404 73.8053 181.866 73.852 182.324 73.852C183.042 73.852 183.579 73.768 183.934 73.6C184.298 73.432 184.48 73.096 184.48 72.592C184.48 72.284 184.405 72.0367 184.256 71.85C184.106 71.6633 183.859 71.5047 183.514 71.374C183.168 71.234 182.692 71.0893 182.086 70.94C181.115 70.688 180.434 70.3707 180.042 69.988C179.65 69.596 179.454 69.0593 179.454 68.378C179.454 67.5847 179.743 66.964 180.322 66.516C180.9 66.068 181.764 65.844 182.912 65.844C183.434 65.844 183.924 65.8813 184.382 65.956C184.848 66.0307 185.212 66.1147 185.474 66.208V67.552C184.764 67.2813 183.98 67.146 183.122 67.146C182.45 67.146 181.927 67.2347 181.554 67.412C181.18 67.5893 180.994 67.9113 180.994 68.378C180.994 68.6487 181.059 68.868 181.19 69.036C181.32 69.204 181.544 69.3487 181.862 69.47C182.188 69.5913 182.636 69.7267 183.206 69.876C183.943 70.0627 184.512 70.2867 184.914 70.548C185.324 70.8 185.609 71.0987 185.768 71.444C185.936 71.78 186.02 72.1627 186.02 72.592C186.02 73.3853 185.726 74.0107 185.138 74.468C184.55 74.916 183.658 75.14 182.464 75.14ZM187.499 75V65.984H189.025V75H187.499ZM190.794 75V65.984H192.32V73.824H196.94V75H190.794Z" fill="white"/>
<path opacity="0.7" d="M130.57 13H129.57V14H130.57V13ZM130.57 6.56V5.56H129.57V6.56H130.57ZM131.92 6.56H132.92V5.56H131.92V6.56ZM131.92 9.26H130.92V10.26H131.92V9.26ZM134.73 9.26V10.26H135.73V9.26H134.73ZM134.73 6.56V5.56H133.73V6.56H134.73ZM136.08 6.56H137.08V5.56H136.08V6.56ZM136.08 13V14H137.08V13H136.08ZM134.73 13H133.73V14H134.73V13ZM134.73 10.3H135.73V9.3H134.73V10.3ZM131.92 10.3V9.3H130.92V10.3H131.92ZM131.92 13V14H132.92V13H131.92ZM131.57 13V6.56H129.57V13H131.57ZM130.57 7.56H131.92V5.56H130.57V7.56ZM130.92 6.56V9.26H132.92V6.56H130.92ZM131.92 10.26H134.73V8.26H131.92V10.26ZM135.73 9.26V6.56H133.73V9.26H135.73ZM134.73 7.56H136.08V5.56H134.73V7.56ZM135.08 6.56V13H137.08V6.56H135.08ZM136.08 12H134.73V14H136.08V12ZM135.73 13V10.3H133.73V13H135.73ZM134.73 9.3H131.92V11.3H134.73V9.3ZM130.92 10.3V13H132.92V10.3H130.92ZM131.92 12H130.57V14H131.92V12ZM138.06 13.01L137.893 13.9959L137.896 13.9964L138.06 13.01ZM137.14 12.75H136.14V13.405L136.741 13.6667L137.14 12.75ZM137.14 11.56L137.519 10.6345L136.14 10.0705V11.56H137.14ZM138.09 11.85L138.301 10.8725L138.09 11.85ZM140.12 11.83L139.754 10.8996L140.12 11.83ZM140.31 10.78L141.082 10.1443L140.31 10.78ZM139.82 10.48L139.44 11.4047L139.456 11.4113L139.472 11.4174L139.82 10.48ZM138.85 10.17L138.583 11.1337L138.59 11.1355L138.85 10.17ZM137.67 6.94L138.264 7.74443V7.74443L137.67 6.94ZM141.45 6.73H142.45V6.02375L141.785 5.78757L141.45 6.73ZM141.45 7.92L141.097 8.85539L142.45 9.36712V7.92H141.45ZM138.75 7.75L139.09 8.69055L139.101 8.68642L139.113 8.682L138.75 7.75ZM138.52 8.71L137.765 9.36493H137.765L138.52 8.71ZM138.96 8.98L138.599 9.91262L138.609 9.91633L138.96 8.98ZM139.85 9.25L140.107 8.28356L140.105 8.28292L139.85 9.25ZM141.07 9.75L141.63 8.92093L141.63 8.92093L141.07 9.75ZM141.66 10.41L140.743 10.8069L140.747 10.8173L140.752 10.8275L141.66 10.41ZM141.19 12.59L141.814 13.3721L141.19 12.59ZM139.22 12.1C138.855 12.1 138.524 12.0735 138.225 12.0236L137.896 13.9964C138.317 14.0665 138.759 14.1 139.22 14.1V12.1ZM138.228 12.0241C137.934 11.9743 137.709 11.9071 137.54 11.8333L136.741 13.6667C137.092 13.8196 137.48 13.9257 137.893 13.9959L138.228 12.0241ZM138.14 12.75V11.56H136.14V12.75H138.14ZM136.762 12.4855C137.114 12.6298 137.488 12.743 137.88 12.8275L138.301 10.8725C138.013 10.8103 137.753 10.7302 137.519 10.6345L136.762 12.4855ZM137.88 12.8275C138.284 12.9148 138.688 12.96 139.09 12.96V10.96C138.839 10.96 138.576 10.9318 138.301 10.8725L137.88 12.8275ZM139.09 12.96C139.585 12.96 140.085 12.9189 140.487 12.7604L139.754 10.8996C139.754 10.8994 139.751 10.9008 139.743 10.9033C139.735 10.9057 139.723 10.9089 139.707 10.9125C139.676 10.9198 139.631 10.928 139.573 10.9354C139.454 10.9504 139.295 10.96 139.09 10.96V12.96ZM140.487 12.7604C140.8 12.637 141.067 12.4159 141.241 12.1057C141.404 11.8139 141.45 11.5052 141.45 11.24H139.45C139.45 11.2815 139.442 11.2244 139.495 11.1293C139.523 11.0798 139.562 11.0295 139.613 10.9857C139.664 10.9423 139.714 10.9153 139.754 10.8996L140.487 12.7604ZM141.45 11.24C141.45 10.8889 141.364 10.4866 141.082 10.1443L139.538 11.4157C139.494 11.3618 139.47 11.3088 139.459 11.2712C139.448 11.2363 139.45 11.2224 139.45 11.24H141.45ZM141.082 10.1443C140.824 9.83039 140.466 9.65305 140.169 9.54257L139.472 11.4174C139.508 11.4306 139.535 11.4424 139.556 11.4523C139.578 11.4623 139.59 11.4694 139.596 11.4729C139.601 11.4763 139.598 11.4747 139.588 11.4665C139.578 11.4584 139.56 11.4419 139.538 11.4157L141.082 10.1443ZM140.201 9.55532C139.916 9.43809 139.546 9.32186 139.111 9.20453L138.59 11.1355C138.995 11.2448 139.271 11.3352 139.44 11.4047L140.201 9.55532ZM139.118 9.20635C138.499 9.03495 138.233 8.86061 138.146 8.77146L136.715 10.1685C137.174 10.6394 137.855 10.9317 138.583 11.1337L139.118 9.20635ZM138.146 8.77146C138.099 8.7238 138.02 8.61372 138.02 8.31H136.02C136.02 8.99294 136.215 9.6562 136.715 10.1685L138.146 8.77146ZM138.02 8.31C138.02 7.99678 138.115 7.85481 138.264 7.74443L137.076 6.13557C136.359 6.66519 136.02 7.43655 136.02 8.31H138.02ZM138.264 7.74443C138.456 7.60314 138.84 7.46 139.56 7.46V5.46C138.627 5.46 137.752 5.63686 137.076 6.13557L138.264 7.74443ZM139.56 7.46C139.902 7.46 140.208 7.48357 140.482 7.52744L140.798 5.55256C140.406 5.48977 139.993 5.46 139.56 5.46V7.46ZM140.482 7.52744C140.784 7.57571 140.989 7.6272 141.116 7.67243L141.785 5.78757C141.499 5.68613 141.163 5.61096 140.798 5.55256L140.482 7.52744ZM140.45 6.73V7.92H142.45V6.73H140.45ZM141.804 6.98461C141.143 6.73456 140.453 6.61 139.74 6.61V8.61C140.215 8.61 140.665 8.6921 141.097 8.85539L141.804 6.98461ZM139.74 6.61C139.265 6.61 138.794 6.66027 138.388 6.818L139.113 8.682C139.187 8.65306 139.376 8.61 139.74 8.61V6.61ZM138.411 6.80945C138.117 6.91569 137.835 7.10922 137.639 7.41424C137.449 7.70978 137.39 8.03015 137.39 8.31H139.39C139.39 8.30318 139.392 8.38689 139.322 8.49576C139.245 8.61411 139.144 8.67098 139.09 8.69055L138.411 6.80945ZM137.39 8.31C137.39 8.65285 137.483 9.03973 137.765 9.36493L139.276 8.05507C139.325 8.11206 139.357 8.17308 139.374 8.22591C139.39 8.27585 139.39 8.30761 139.39 8.31H137.39ZM137.765 9.36493C138.008 9.64511 138.331 9.80859 138.599 9.91257L139.321 8.04743C139.291 8.03575 139.268 8.02546 139.25 8.017C139.233 8.0085 139.222 8.00266 139.218 8.00018C139.214 7.99765 139.218 7.99979 139.228 8.00769C139.238 8.01558 139.255 8.03093 139.276 8.05507L137.765 9.36493ZM138.609 9.91633C138.869 10.0137 139.203 10.1137 139.596 10.2171L140.105 8.28292C139.738 8.18634 139.479 8.10631 139.312 8.04367L138.609 9.91633ZM139.593 10.2164C140.067 10.3423 140.354 10.4733 140.511 10.5791L141.63 8.92093C141.213 8.64003 140.687 8.43766 140.107 8.28356L139.593 10.2164ZM140.511 10.5791C140.684 10.6958 140.731 10.7794 140.743 10.8069L142.578 10.0131C142.377 9.54725 142.03 9.19084 141.63 8.92093L140.511 10.5791ZM140.752 10.8275C140.798 10.9272 140.83 11.0587 140.83 11.24H142.83C142.83 10.8079 142.75 10.3861 142.569 9.9925L140.752 10.8275ZM140.83 11.24C140.83 11.5049 140.749 11.6634 140.567 11.8079L141.814 13.3721C142.486 12.8366 142.83 12.0951 142.83 11.24H140.83ZM140.567 11.8079C140.398 11.9425 140.012 12.1 139.22 12.1V14.1C140.202 14.1 141.129 13.9175 141.814 13.3721L140.567 11.8079ZM145.625 12.23L144.909 12.9289L144.913 12.933L145.625 12.23ZM145.595 7.35L144.867 6.6636L144.863 6.66797L145.595 7.35ZM149.135 6.55L148.943 7.53139L148.955 7.53376L148.967 7.53582L149.135 6.55ZM150.015 6.78H151.015V6.08103L150.358 5.84088L150.015 6.78ZM150.015 7.96L149.634 8.88468L151.015 9.45322V7.96H150.015ZM146.615 8.16L147.368 8.81753V8.81753L146.615 8.16ZM149.145 11.88L149.316 12.8652L149.326 12.8634L149.337 12.8614L149.145 11.88ZM150.025 11.62H151.025V10.1364L149.649 10.6931L150.025 11.62ZM150.025 12.81L150.327 13.7632L151.025 13.542V12.81H150.025ZM149.145 13.02L148.977 12.0342L148.973 12.0348L149.145 13.02ZM148.105 12.1C147.202 12.1 146.666 11.8613 146.336 11.527L144.913 12.933C145.73 13.7587 146.847 14.1 148.105 14.1V12.1ZM146.34 11.5311C145.989 11.1718 145.765 10.6483 145.765 9.84H143.765C143.765 11.0451 144.114 12.1148 144.909 12.9289L146.34 11.5311ZM145.765 9.84C145.765 8.94463 145.994 8.38797 146.326 8.03203L144.863 6.66797C144.088 7.4987 143.765 8.60204 143.765 9.84H145.765ZM146.322 8.03638C146.633 7.70676 147.161 7.46 148.095 7.46V5.46C146.814 5.46 145.676 5.80657 144.867 6.66362L146.322 8.03638ZM148.095 7.46C148.431 7.46 148.712 7.48627 148.943 7.53139L149.327 5.56861C148.944 5.49373 148.531 5.46 148.095 5.46V7.46ZM148.967 7.53582C149.226 7.57988 149.46 7.6418 149.671 7.71912L150.358 5.84088C150.023 5.7182 149.67 5.62678 149.302 5.56418L148.967 7.53582ZM149.015 6.78V7.96H151.015V6.78H149.015ZM150.395 7.03532C149.701 6.74954 148.964 6.61 148.195 6.61V8.61C148.718 8.61 149.194 8.70379 149.634 8.88468L150.395 7.03532ZM148.195 6.61C147.32 6.61 146.45 6.8274 145.861 7.50247L147.368 8.81753C147.419 8.75926 147.602 8.61 148.195 8.61V6.61ZM145.861 7.50247C145.315 8.12828 145.135 8.97164 145.135 9.84H147.135C147.135 9.20169 147.274 8.92505 147.368 8.81753L145.861 7.50247ZM145.135 9.84C145.135 10.6961 145.345 11.5227 145.941 12.1303C146.54 12.7415 147.362 12.96 148.215 12.96V10.96C147.68 10.96 147.462 10.8252 147.368 10.7297C147.271 10.6306 147.135 10.3973 147.135 9.84H145.135ZM148.215 12.96C148.585 12.96 148.952 12.9285 149.316 12.8652L148.973 10.8948C148.723 10.9382 148.471 10.96 148.215 10.96V12.96ZM149.337 12.8614C149.704 12.7896 150.059 12.685 150.4 12.5469L149.649 10.6931C149.431 10.7816 149.199 10.8504 148.953 10.8986L149.337 12.8614ZM149.025 11.62V12.81H151.025V11.62H149.025ZM149.722 11.8568C149.497 11.9281 149.249 11.9878 148.977 12.0342L149.312 14.0058C149.666 13.9456 150.005 13.8653 150.327 13.7632L149.722 11.8568ZM148.973 12.0348C148.735 12.0763 148.447 12.1 148.105 12.1V14.1C148.535 14.1 148.941 14.0704 149.316 14.0052L148.973 12.0348ZM151.355 7.25L150.648 6.54289H150.648L151.355 7.25ZM156.035 7.25L156.742 6.54289V6.54289L156.035 7.25ZM155.025 11.43L154.249 10.8L154.247 10.8017L155.025 11.43ZM155.025 8.11L154.26 8.75319L154.267 8.76147L154.274 8.76959L155.025 8.11ZM152.355 8.11L151.597 7.45796L151.596 7.45921L152.355 8.11ZM152.355 11.43L151.572 12.0511L151.578 12.0592L151.585 12.0673L152.355 11.43ZM153.695 12.1C152.819 12.1 152.343 11.8723 152.072 11.5882C151.793 11.2949 151.565 10.7646 151.565 9.81H149.565C149.565 11.0487 149.859 12.1635 150.623 12.9668C151.396 13.7794 152.485 14.1 153.695 14.1V12.1ZM151.565 9.81C151.565 8.74547 151.808 8.21182 152.062 7.95711L150.648 6.54289C149.85 7.34151 149.565 8.51453 149.565 9.81H151.565ZM152.062 7.95711C152.339 7.68086 152.823 7.46 153.695 7.46V5.46C152.501 5.46 151.425 5.7658 150.648 6.54289L152.062 7.95711ZM153.695 7.46C154.568 7.46 155.052 7.68086 155.328 7.95711L156.742 6.54289C155.965 5.7658 154.889 5.46 153.695 5.46V7.46ZM155.328 7.95711C155.583 8.21182 155.825 8.74547 155.825 9.81H157.825C157.825 8.51453 157.541 7.34152 156.742 6.54289L155.328 7.95711ZM155.825 9.81C155.825 10.7646 155.597 11.2949 155.318 11.5882C155.048 11.8723 154.571 12.1 153.695 12.1V14.1C154.906 14.1 155.994 13.7794 156.767 12.9668C157.532 12.1635 157.825 11.0487 157.825 9.81H155.825ZM153.695 12.95C154.488 12.95 155.271 12.7175 155.803 12.0583L154.247 10.8017C154.22 10.8359 154.116 10.95 153.695 10.95V12.95ZM155.802 12.06C156.297 11.4495 156.455 10.6379 156.455 9.81H154.455C154.455 10.4354 154.327 10.7038 154.249 10.8L155.802 12.06ZM156.455 9.81C156.455 8.94428 156.313 8.06167 155.777 7.45041L154.274 8.76959C154.311 8.81166 154.455 9.06239 154.455 9.81H156.455ZM155.791 7.46681C155.255 6.82829 154.476 6.61 153.695 6.61V8.61C154.128 8.61 154.236 8.72504 154.26 8.75319L155.791 7.46681ZM153.695 6.61C152.913 6.61 152.138 6.82894 151.597 7.45796L153.113 8.76204C153.146 8.72439 153.264 8.61 153.695 8.61V6.61ZM151.596 7.45921C151.073 8.06955 150.935 8.94778 150.935 9.81H152.935C152.935 9.05888 153.078 8.80378 153.115 8.76079L151.596 7.45921ZM150.935 9.81C150.935 10.634 151.089 11.4416 151.572 12.0511L153.139 10.8089C153.062 10.7117 152.935 10.4394 152.935 9.81H150.935ZM151.585 12.0673C152.122 12.717 152.901 12.95 153.695 12.95V10.95C153.276 10.95 153.162 10.8364 153.126 10.7927L151.585 12.0673ZM157.767 13H156.767V14H157.767V13ZM157.767 6.56V5.56H156.767V6.56H157.767ZM158.937 6.56L159.752 5.98056L159.453 5.56H158.937V6.56ZM161.987 10.85L161.172 11.4294L162.987 13.9824V10.85H161.987ZM161.987 6.56V5.56H160.987V6.56H161.987ZM163.337 6.56H164.337V5.56H163.337V6.56ZM163.337 13V14H164.337V13H163.337ZM162.167 13L161.352 13.5794L161.651 14H162.167V13ZM159.117 8.71L159.932 8.13056L158.117 5.57764V8.71H159.117ZM159.117 13V14H160.117V13H159.117ZM158.767 13V6.56H156.767V13H158.767ZM157.767 7.56H158.937V5.56H157.767V7.56ZM158.122 7.13944L161.172 11.4294L162.802 10.2706L159.752 5.98056L158.122 7.13944ZM162.987 10.85V6.56H160.987V10.85H162.987ZM161.987 7.56H163.337V5.56H161.987V7.56ZM162.337 6.56V13H164.337V6.56H162.337ZM163.337 12H162.167V14H163.337V12ZM162.982 12.4206L159.932 8.13056L158.302 9.28944L161.352 13.5794L162.982 12.4206ZM158.117 8.71V13H160.117V8.71H158.117ZM159.117 12H157.767V14H159.117V12ZM165.316 13.01L165.149 13.9959L165.152 13.9964L165.316 13.01ZM164.396 12.75H163.396V13.405L163.997 13.6667L164.396 12.75ZM164.396 11.56L164.775 10.6345L163.396 10.0705V11.56H164.396ZM165.346 11.85L165.557 10.8725L165.346 11.85ZM167.376 11.83L167.01 10.8996H167.01L167.376 11.83ZM167.566 10.78L168.338 10.1443L167.566 10.78ZM167.076 10.48L166.695 11.4047L166.712 11.4113L166.728 11.4174L167.076 10.48ZM166.106 10.17L165.839 11.1337L165.846 11.1355L166.106 10.17ZM164.926 6.94L165.52 7.74443V7.74443L164.926 6.94ZM168.706 6.73H169.706V6.02375L169.041 5.78757L168.706 6.73ZM168.706 7.92L168.353 8.85539L169.706 9.36712V7.92H168.706ZM166.006 7.75L166.346 8.69055L166.357 8.68642L166.369 8.682L166.006 7.75ZM165.776 8.71L165.021 9.36493L165.776 8.71ZM166.216 8.98L165.855 9.91262L165.865 9.91633L166.216 8.98ZM167.106 9.25L167.363 8.28356L167.361 8.28292L167.106 9.25ZM168.326 9.75L168.885 8.92093V8.92093L168.326 9.75ZM168.916 10.41L167.998 10.8069L168.003 10.8173L168.008 10.8275L168.916 10.41ZM168.446 12.59L169.069 13.3721L168.446 12.59ZM166.476 12.1C166.111 12.1 165.78 12.0735 165.481 12.0236L165.152 13.9964C165.573 14.0665 166.015 14.1 166.476 14.1V12.1ZM165.484 12.0241C165.19 11.9743 164.965 11.9071 164.796 11.8333L163.997 13.6667C164.347 13.8196 164.736 13.9257 165.149 13.9959L165.484 12.0241ZM165.396 12.75V11.56H163.396V12.75H165.396ZM164.018 12.4855C164.37 12.6298 164.744 12.743 165.135 12.8275L165.557 10.8725C165.269 10.8103 165.009 10.7302 164.775 10.6345L164.018 12.4855ZM165.135 12.8275C165.54 12.9148 165.944 12.96 166.346 12.96V10.96C166.095 10.96 165.832 10.9318 165.557 10.8725L165.135 12.8275ZM166.346 12.96C166.84 12.96 167.341 12.9189 167.743 12.7604L167.01 10.8996C167.01 10.8994 167.007 10.9008 166.999 10.9033C166.991 10.9057 166.979 10.9089 166.963 10.9125C166.931 10.9198 166.887 10.928 166.829 10.9354C166.71 10.9504 166.551 10.96 166.346 10.96V12.96ZM167.743 12.7604C168.056 12.637 168.323 12.4159 168.497 12.1057C168.66 11.8139 168.706 11.5052 168.706 11.24H166.706C166.706 11.2815 166.698 11.2244 166.751 11.1293C166.779 11.0798 166.818 11.0295 166.869 10.9857C166.92 10.9423 166.97 10.9153 167.01 10.8996L167.743 12.7604ZM168.706 11.24C168.706 10.8889 168.62 10.4866 168.338 10.1443L166.794 11.4157C166.75 11.3618 166.726 11.3088 166.715 11.2712C166.704 11.2363 166.706 11.2224 166.706 11.24H168.706ZM168.338 10.1443C168.08 9.83039 167.722 9.65305 167.424 9.54257L166.728 11.4174C166.764 11.4306 166.791 11.4424 166.812 11.4523C166.833 11.4623 166.846 11.4694 166.852 11.4729C166.857 11.4763 166.854 11.4747 166.844 11.4665C166.834 11.4584 166.816 11.4419 166.794 11.4157L168.338 10.1443ZM167.457 9.55532C167.172 9.43809 166.802 9.32186 166.367 9.20453L165.846 11.1355C166.251 11.2448 166.527 11.3352 166.695 11.4047L167.457 9.55532ZM166.373 9.20635C165.755 9.03495 165.489 8.86061 165.402 8.77146L163.971 10.1685C164.43 10.6394 165.111 10.9317 165.839 11.1337L166.373 9.20635ZM165.402 8.77146C165.355 8.7238 165.276 8.61372 165.276 8.31H163.276C163.276 8.99294 163.471 9.6562 163.971 10.1685L165.402 8.77146ZM165.276 8.31C165.276 7.99678 165.371 7.85481 165.52 7.74443L164.332 6.13557C163.615 6.66519 163.276 7.43655 163.276 8.31H165.276ZM165.52 7.74443C165.712 7.60314 166.096 7.46 166.816 7.46V5.46C165.883 5.46 165.008 5.63686 164.332 6.13557L165.52 7.74443ZM166.816 7.46C167.157 7.46 167.464 7.48357 167.738 7.52744L168.054 5.55256C167.662 5.48977 167.248 5.46 166.816 5.46V7.46ZM167.738 7.52744C168.04 7.57571 168.244 7.6272 168.372 7.67243L169.041 5.78757C168.755 5.68613 168.419 5.61096 168.054 5.55256L167.738 7.52744ZM167.706 6.73V7.92H169.706V6.73H167.706ZM169.06 6.98461C168.398 6.73456 167.709 6.61 166.996 6.61V8.61C167.471 8.61 167.921 8.6921 168.353 8.85539L169.06 6.98461ZM166.996 6.61C166.521 6.61 166.049 6.66027 165.644 6.818L166.369 8.682C166.443 8.65306 166.632 8.61 166.996 8.61V6.61ZM165.667 6.80945C165.372 6.91569 165.091 7.10922 164.895 7.41424C164.705 7.70978 164.646 8.03015 164.646 8.31H166.646C166.646 8.30318 166.647 8.38689 166.577 8.49576C166.501 8.61411 166.4 8.67098 166.346 8.69055L165.667 6.80945ZM164.646 8.31C164.646 8.65285 164.739 9.03973 165.021 9.36493L166.532 8.05507C166.581 8.11206 166.613 8.17308 166.63 8.22591C166.646 8.27585 166.646 8.30761 166.646 8.31H164.646ZM165.021 9.36493C165.263 9.64511 165.587 9.80859 165.855 9.91257L166.577 8.04743C166.547 8.03575 166.524 8.02546 166.506 8.017C166.488 8.0085 166.478 8.00266 166.474 8.00018C166.47 7.99765 166.474 7.99979 166.484 8.00769C166.494 8.01558 166.511 8.03093 166.532 8.05507L165.021 9.36493ZM165.865 9.91633C166.125 10.0137 166.459 10.1137 166.852 10.2171L167.361 8.28292C166.994 8.18634 166.734 8.10631 166.567 8.04367L165.865 9.91633ZM166.849 10.2164C167.323 10.3423 167.61 10.4733 167.767 10.5791L168.885 8.92093C168.469 8.64003 167.943 8.43766 167.363 8.28356L166.849 10.2164ZM167.767 10.5791C167.94 10.6958 167.987 10.7794 167.998 10.8069L169.834 10.0131C169.633 9.54725 169.286 9.19084 168.885 8.92093L167.767 10.5791ZM168.008 10.8275C168.053 10.9272 168.086 11.0587 168.086 11.24H170.086C170.086 10.8079 170.006 10.3861 169.825 9.9925L168.008 10.8275ZM168.086 11.24C168.086 11.5049 168.004 11.6634 167.823 11.8079L169.069 13.3721C169.741 12.8366 170.086 12.0951 170.086 11.24H168.086ZM167.823 11.8079C167.654 11.9425 167.268 12.1 166.476 12.1V14.1C167.458 14.1 168.385 13.9175 169.069 13.3721L167.823 11.8079ZM172.333 6.12L171.414 5.72667L170.818 7.12H172.333V6.12ZM173.133 4.25V3.25H172.473L172.214 3.85667L173.133 4.25ZM174.303 4.25L175.208 4.6758L175.879 3.25H174.303V4.25ZM173.423 6.12V7.12H174.058L174.328 6.5458L173.423 6.12ZM170.613 7.25L169.906 6.54289L170.613 7.25ZM175.293 7.25L176 6.54289V6.54289L175.293 7.25ZM174.283 11.43L173.507 10.8L173.505 10.8017L174.283 11.43ZM174.283 8.11L173.517 8.75319L173.524 8.76147L173.531 8.76959L174.283 8.11ZM171.613 8.11L170.855 7.45796L170.854 7.45921L171.613 8.11ZM171.613 11.43L170.829 12.0511L170.836 12.0592L170.842 12.0673L171.613 11.43ZM173.253 6.51333L174.053 4.64333L172.214 3.85667L171.414 5.72667L173.253 6.51333ZM173.133 5.25H174.303V3.25H173.133V5.25ZM173.398 3.8242L172.518 5.6942L174.328 6.5458L175.208 4.6758L173.398 3.8242ZM173.423 5.12H172.333V7.12H173.423V5.12ZM172.953 12.1C172.077 12.1 171.6 11.8723 171.33 11.5882C171.051 11.2949 170.823 10.7646 170.823 9.81H168.823C168.823 11.0487 169.117 12.1635 169.881 12.9668C170.654 13.7794 171.743 14.1 172.953 14.1V12.1ZM170.823 9.81C170.823 8.74547 171.066 8.21182 171.32 7.95711L169.906 6.54289C169.107 7.34151 168.823 8.51453 168.823 9.81H170.823ZM171.32 7.95711C171.596 7.68086 172.08 7.46 172.953 7.46V5.46C171.759 5.46 170.683 5.7658 169.906 6.54289L171.32 7.95711ZM172.953 7.46C173.826 7.46 174.31 7.68086 174.586 7.95711L176 6.54289C175.223 5.7658 174.147 5.46 172.953 5.46V7.46ZM174.586 7.95711C174.841 8.21182 175.083 8.74547 175.083 9.81H177.083C177.083 8.51453 176.799 7.34152 176 6.54289L174.586 7.95711ZM175.083 9.81C175.083 10.7646 174.855 11.2949 174.576 11.5882C174.306 11.8723 173.829 12.1 172.953 12.1V14.1C174.164 14.1 175.252 13.7794 176.025 12.9668C176.789 12.1635 177.083 11.0487 177.083 9.81H175.083ZM172.953 12.95C173.746 12.95 174.529 12.7175 175.061 12.0583L173.505 10.8017C173.478 10.8359 173.374 10.95 172.953 10.95V12.95ZM175.06 12.06C175.555 11.4495 175.713 10.6379 175.713 9.81H173.713C173.713 10.4354 173.585 10.7038 173.507 10.8L175.06 12.06ZM175.713 9.81C175.713 8.94428 175.571 8.06167 175.035 7.45041L173.531 8.76959C173.568 8.81166 173.713 9.06239 173.713 9.81H175.713ZM175.049 7.46681C174.512 6.82829 173.734 6.61 172.953 6.61V8.61C173.386 8.61 173.494 8.72504 173.517 8.75319L175.049 7.46681ZM172.953 6.61C172.171 6.61 171.396 6.82894 170.855 7.45796L172.371 8.76204C172.404 8.72439 172.522 8.61 172.953 8.61V6.61ZM170.854 7.45921C170.331 8.06955 170.193 8.94778 170.193 9.81H172.193C172.193 9.05888 172.336 8.80378 172.372 8.76079L170.854 7.45921ZM170.193 9.81C170.193 10.634 170.346 11.4416 170.829 12.0511L172.397 10.8089C172.32 10.7117 172.193 10.4394 172.193 9.81H170.193ZM170.842 12.0673C171.38 12.717 172.159 12.95 172.953 12.95V10.95C172.534 10.95 172.42 10.8364 172.384 10.7927L170.842 12.0673ZM177.025 13H176.025V14H177.025V13ZM177.025 6.56V5.56H176.025V6.56H177.025ZM181.745 7.15L180.995 7.81122L181.001 7.81754L181.745 7.15ZM181.925 9.84L181.115 9.25382L181.107 9.26537L181.925 9.84ZM180.985 10.52L180.66 9.57446L178.957 10.1606L180.354 11.2961L180.985 10.52ZM181.235 10.8L180.378 11.3145L180.39 11.3349L180.403 11.3547L181.235 10.8ZM181.435 11.2L180.507 11.5714L180.512 11.5846L180.518 11.5976L181.435 11.2ZM182.215 13V14H183.738L183.133 12.6024L182.215 13ZM180.815 13L179.9 13.4022L180.162 14H180.815V13ZM180.055 11.27L180.971 10.8678L180.965 10.8562L180.055 11.27ZM179.835 10.96L180.435 10.16L179.835 10.96ZM178.375 10.87V9.87H177.375V10.87H178.375ZM178.375 13V14H179.375V13H178.375ZM178.375 9.75H177.375V10.75H178.375V9.75ZM180.595 9.52L181.204 10.3136L181.212 10.3073L181.22 10.3009L180.595 9.52ZM180.635 7.93L181.328 7.20917L180.635 7.93ZM178.375 7.68V6.68H177.375V7.68H178.375ZM178.025 13V6.56H176.025V13H178.025ZM177.025 7.56H180.115V5.56H177.025V7.56ZM180.115 7.56C180.69 7.56 180.906 7.71039 180.995 7.8112L182.495 6.4888C181.891 5.80294 181.02 5.56 180.115 5.56V7.56ZM181.001 7.81754C181.142 7.97518 181.265 8.2374 181.265 8.72H183.265C183.265 7.88259 183.042 7.09815 182.49 6.48245L181.001 7.81754ZM181.265 8.72C181.265 8.96938 181.203 9.13138 181.115 9.25388L182.735 10.4261C183.1 9.92195 183.265 9.33729 183.265 8.72H181.265ZM181.107 9.26537C181.023 9.38523 180.893 9.49422 180.66 9.57446L181.311 11.4655C181.891 11.2658 182.388 10.9214 182.743 10.4146L181.107 9.26537ZM180.354 11.2961C180.387 11.3222 180.387 11.3303 180.378 11.3145L182.093 10.2855C181.963 10.0697 181.797 9.8911 181.616 9.74389L180.354 11.2961ZM180.403 11.3547C180.417 11.3764 180.454 11.4408 180.507 11.5714L182.364 10.8286C182.282 10.6259 182.186 10.4236 182.067 10.2453L180.403 11.3547ZM180.518 11.5976L181.298 13.3976L183.133 12.6024L182.353 10.8024L180.518 11.5976ZM182.215 12H180.815V14H182.215V12ZM181.731 12.5978L180.971 10.8678L179.14 11.6722L179.9 13.4022L181.731 12.5978ZM180.965 10.8562C180.867 10.6404 180.707 10.3642 180.435 10.16L179.235 11.76C179.174 11.7138 179.143 11.6726 179.135 11.6612C179.126 11.6493 179.131 11.6536 179.145 11.6838L180.965 10.8562ZM180.435 10.16C180.086 9.89837 179.676 9.87 179.435 9.87V11.87C179.479 11.87 179.482 11.874 179.456 11.8681C179.432 11.8628 179.341 11.8398 179.235 11.76L180.435 10.16ZM179.435 9.87H178.375V11.87H179.435V9.87ZM177.375 10.87V13H179.375V10.87H177.375ZM178.375 12H177.025V14H178.375V12ZM178.375 10.75H179.765V8.75H178.375V10.75ZM179.765 10.75C180.252 10.75 180.771 10.6453 181.204 10.3136L179.987 8.72639C180.019 8.70138 179.985 8.75 179.765 8.75V10.75ZM181.22 10.3009C181.75 9.87637 181.895 9.253 181.895 8.72H179.895C179.895 8.76927 179.892 8.80371 179.888 8.82562C179.885 8.84743 179.882 8.85384 179.884 8.84888C179.886 8.84337 179.893 8.8269 179.908 8.80482C179.924 8.78222 179.945 8.75929 179.97 8.73913L181.22 10.3009ZM181.895 8.72C181.895 8.22253 181.777 7.64077 181.328 7.20917L179.942 8.65083C179.92 8.62942 179.904 8.60805 179.893 8.59054C179.883 8.57355 179.88 8.5636 179.88 8.56512C179.881 8.56696 179.885 8.57952 179.888 8.60584C179.892 8.63218 179.895 8.66965 179.895 8.72H181.895ZM181.328 7.20917C180.897 6.79454 180.337 6.68 179.845 6.68V8.68C179.946 8.68 179.995 8.69235 180.006 8.6959C180.013 8.69808 179.982 8.6889 179.942 8.65083L181.328 7.20917ZM179.845 6.68H178.375V8.68H179.845V6.68ZM177.375 7.68V9.75H179.375V7.68H177.375ZM183.72 12.23L183.005 12.9289L183.009 12.933L183.72 12.23ZM183.69 7.35L182.963 6.6636L182.959 6.66797L183.69 7.35ZM187.23 6.55L187.038 7.53139L187.05 7.53376L187.062 7.53582L187.23 6.55ZM188.11 6.78H189.11V6.08103L188.454 5.84088L188.11 6.78ZM188.11 7.96L187.729 8.88468L189.11 9.45322V7.96H188.11ZM184.71 8.16L185.464 8.81753L185.464 8.81753L184.71 8.16ZM187.24 11.88L187.412 12.8652L187.422 12.8634L187.432 12.8614L187.24 11.88ZM188.12 11.62H189.12V10.1364L187.745 10.6931L188.12 11.62ZM188.12 12.81L188.422 13.7632L189.12 13.542V12.81H188.12ZM187.24 13.02L187.072 12.0342L187.069 12.0348L187.24 13.02ZM186.2 12.1C185.298 12.1 184.762 11.8613 184.431 11.527L183.009 12.933C183.825 13.7587 184.943 14.1 186.2 14.1V12.1ZM184.435 11.5311C184.084 11.1718 183.86 10.6483 183.86 9.84H181.86C181.86 11.0451 182.209 12.1148 183.005 12.9289L184.435 11.5311ZM183.86 9.84C183.86 8.94463 184.09 8.38797 184.422 8.03203L182.959 6.66797C182.184 7.4987 181.86 8.60204 181.86 9.84H183.86ZM184.417 8.03638C184.729 7.70676 185.257 7.46 186.19 7.46V5.46C184.91 5.46 183.772 5.80657 182.963 6.66362L184.417 8.03638ZM186.19 7.46C186.527 7.46 186.808 7.48627 187.038 7.53139L187.422 5.56861C187.04 5.49373 186.627 5.46 186.19 5.46V7.46ZM187.062 7.53582C187.321 7.57988 187.555 7.6418 187.767 7.71912L188.454 5.84088C188.118 5.7182 187.766 5.62678 187.398 5.56418L187.062 7.53582ZM187.11 6.78V7.96H189.11V6.78H187.11ZM188.491 7.03532C187.797 6.74954 187.06 6.61 186.29 6.61V8.61C186.814 8.61 187.29 8.70379 187.729 8.88468L188.491 7.03532ZM186.29 6.61C185.416 6.61 184.546 6.8274 183.957 7.50247L185.464 8.81753C185.515 8.75926 185.698 8.61 186.29 8.61V6.61ZM183.957 7.50247C183.411 8.12828 183.23 8.97164 183.23 9.84H185.23C185.23 9.20169 185.37 8.92505 185.464 8.81753L183.957 7.50247ZM183.23 9.84C183.23 10.6961 183.44 11.5227 184.036 12.1303C184.636 12.7415 185.458 12.96 186.31 12.96V10.96C185.776 10.96 185.558 10.8252 185.464 10.7297C185.367 10.6306 185.23 10.3973 185.23 9.84H183.23ZM186.31 12.96C186.681 12.96 187.048 12.9285 187.412 12.8652L187.069 10.8948C186.819 10.9382 186.567 10.96 186.31 10.96V12.96ZM187.432 12.8614C187.799 12.7896 188.154 12.685 188.495 12.5469L187.745 10.6931C187.526 10.7816 187.294 10.8504 187.048 10.8986L187.432 12.8614ZM187.12 11.62V12.81H189.12V11.62H187.12ZM187.818 11.8568C187.593 11.9281 187.345 11.9878 187.072 12.0342L187.408 14.0058C187.762 13.9456 188.101 13.8653 188.422 13.7632L187.818 11.8568ZM187.069 12.0348C186.83 12.0763 186.543 12.1 186.2 12.1V14.1C186.631 14.1 187.037 14.0704 187.412 14.0052L187.069 12.0348ZM189.056 13H188.056V14H189.056V13ZM189.056 6.56V5.56H188.056V6.56H189.056ZM190.406 6.56H191.406V5.56H190.406V6.56ZM190.406 13V14H191.406V13H190.406ZM190.056 13V6.56H188.056V13H190.056ZM189.056 7.56H190.406V5.56H189.056V7.56ZM189.406 6.56V13H191.406V6.56H189.406ZM190.406 12H189.056V14H190.406V12ZM192.137 7.25L191.429 6.54289L192.137 7.25ZM196.817 7.25L197.524 6.54289V6.54289L196.817 7.25ZM195.807 11.43L195.03 10.8L195.029 10.8017L195.807 11.43ZM195.807 8.11L195.041 8.75319L195.048 8.76147L195.055 8.76959L195.807 8.11ZM193.137 8.11L192.378 7.45796L192.377 7.45921L193.137 8.11ZM193.137 11.43L192.353 12.0511L192.359 12.0592L192.366 12.0673L193.137 11.43ZM194.477 12.1C193.6 12.1 193.124 11.8723 192.854 11.5882C192.574 11.2949 192.347 10.7646 192.347 9.81H190.347C190.347 11.0487 190.64 12.1635 191.405 12.9668C192.178 13.7794 193.266 14.1 194.477 14.1V12.1ZM192.347 9.81C192.347 8.74547 192.589 8.21182 192.844 7.95711L191.429 6.54289C190.631 7.34151 190.347 8.51453 190.347 9.81H192.347ZM192.844 7.95711C193.12 7.68086 193.604 7.46 194.477 7.46V5.46C193.283 5.46 192.207 5.7658 191.429 6.54289L192.844 7.95711ZM194.477 7.46C195.349 7.46 195.833 7.68086 196.109 7.95711L197.524 6.54289C196.747 5.7658 195.67 5.46 194.477 5.46V7.46ZM196.109 7.95711C196.364 8.21182 196.607 8.74547 196.607 9.81H198.607C198.607 8.51453 198.322 7.34152 197.524 6.54289L196.109 7.95711ZM196.607 9.81C196.607 10.7646 196.379 11.2949 196.1 11.5882C195.829 11.8723 195.353 12.1 194.477 12.1V14.1C195.687 14.1 196.775 13.7794 197.549 12.9668C198.313 12.1635 198.607 11.0487 198.607 9.81H196.607ZM194.477 12.95C195.269 12.95 196.052 12.7175 196.585 12.0583L195.029 10.8017C195.001 10.8359 194.897 10.95 194.477 10.95V12.95ZM196.583 12.06C197.078 11.4495 197.237 10.6379 197.237 9.81H195.237C195.237 10.4354 195.108 10.7038 195.03 10.8L196.583 12.06ZM197.237 9.81C197.237 8.94428 197.095 8.06167 196.558 7.45041L195.055 8.76959C195.092 8.81166 195.237 9.06239 195.237 9.81H197.237ZM196.572 7.46681C196.036 6.82829 195.257 6.61 194.477 6.61V8.61C194.909 8.61 195.017 8.72504 195.041 8.75319L196.572 7.46681ZM194.477 6.61C193.694 6.61 192.919 6.82894 192.378 7.45796L193.895 8.76204C193.927 8.72439 194.046 8.61 194.477 8.61V6.61ZM192.377 7.45921C191.854 8.06955 191.717 8.94778 191.717 9.81H193.717C193.717 9.05888 193.859 8.80378 193.896 8.76079L192.377 7.45921ZM191.717 9.81C191.717 10.634 191.87 11.4416 192.353 12.0511L193.92 10.8089C193.843 10.7117 193.717 10.4394 193.717 9.81H191.717ZM192.366 12.0673C192.903 12.717 193.682 12.95 194.477 12.95V10.95C194.058 10.95 193.943 10.8364 193.907 10.7927L192.366 12.0673ZM199.389 13.01L199.221 13.9959L199.224 13.9964L199.389 13.01ZM198.469 12.75H197.469V13.405L198.069 13.6667L198.469 12.75ZM198.469 11.56L198.847 10.6345L197.469 10.0705V11.56H198.469ZM199.419 11.85L199.629 10.8725L199.419 11.85ZM201.449 11.83L201.082 10.8996L201.449 11.83ZM201.639 10.78L202.41 10.1443L201.639 10.78ZM201.149 10.48L200.768 11.4047L200.784 11.4113L200.8 11.4174L201.149 10.48ZM200.179 10.17L199.911 11.1337L199.918 11.1355L200.179 10.17ZM198.999 6.94L199.593 7.74443V7.74443L198.999 6.94ZM202.779 6.73H203.779V6.02375L203.113 5.78757L202.779 6.73ZM202.779 7.92L202.425 8.85539L203.779 9.36712V7.92H202.779ZM200.079 7.75L200.418 8.69055L200.43 8.68642L200.441 8.682L200.079 7.75ZM199.849 8.71L199.093 9.36493L199.849 8.71ZM200.289 8.98L199.927 9.91262L199.937 9.91633L200.289 8.98ZM201.179 9.25L201.435 8.28356L201.433 8.28292L201.179 9.25ZM202.399 9.75L202.958 8.92093V8.92093L202.399 9.75ZM202.989 10.41L202.071 10.8069L202.075 10.8173L202.08 10.8275L202.989 10.41ZM202.519 12.59L203.142 13.3721L202.519 12.59ZM200.549 12.1C200.183 12.1 199.852 12.0735 199.553 12.0236L199.224 13.9964C199.645 14.0665 200.087 14.1 200.549 14.1V12.1ZM199.556 12.0241C199.263 11.9743 199.037 11.9071 198.868 11.8333L198.069 13.6667C198.42 13.8196 198.808 13.9257 199.221 13.9959L199.556 12.0241ZM199.469 12.75V11.56H197.469V12.75H199.469ZM198.09 12.4855C198.442 12.6298 198.816 12.743 199.208 12.8275L199.629 10.8725C199.341 10.8103 199.081 10.7302 198.847 10.6345L198.09 12.4855ZM199.208 12.8275C199.613 12.9148 200.017 12.96 200.419 12.96V10.96C200.167 10.96 199.905 10.9318 199.629 10.8725L199.208 12.8275ZM200.419 12.96C200.913 12.96 201.413 12.9189 201.815 12.7604L201.082 10.8996C201.082 10.8994 201.079 10.9008 201.071 10.9033C201.063 10.9057 201.051 10.9089 201.036 10.9125C201.004 10.9198 200.959 10.928 200.901 10.9354C200.782 10.9504 200.623 10.96 200.419 10.96V12.96ZM201.815 12.7604C202.128 12.637 202.395 12.4159 202.569 12.1057C202.732 11.8139 202.779 11.5052 202.779 11.24H200.779C200.779 11.2815 200.77 11.2244 200.823 11.1293C200.851 11.0798 200.89 11.0295 200.941 10.9857C200.992 10.9423 201.042 10.9153 201.082 10.8996L201.815 12.7604ZM202.779 11.24C202.779 10.8889 202.692 10.4866 202.41 10.1443L200.867 11.4157C200.822 11.3618 200.798 11.3088 200.787 11.2712C200.776 11.2363 200.779 11.2224 200.779 11.24H202.779ZM202.41 10.1443C202.152 9.83039 201.794 9.65305 201.497 9.54257L200.8 11.4174C200.836 11.4306 200.864 11.4424 200.885 11.4523C200.906 11.4623 200.918 11.4694 200.924 11.4729C200.93 11.4763 200.926 11.4747 200.916 11.4665C200.906 11.4584 200.888 11.4419 200.867 11.4157L202.41 10.1443ZM201.529 9.55532C201.245 9.43809 200.874 9.32186 200.439 9.20453L199.918 11.1355C200.323 11.2448 200.599 11.3352 200.768 11.4047L201.529 9.55532ZM200.446 9.20635C199.827 9.03495 199.561 8.86061 199.474 8.77146L198.043 10.1685C198.503 10.6394 199.183 10.9317 199.911 11.1337L200.446 9.20635ZM199.474 8.77146C199.428 8.7238 199.349 8.61372 199.349 8.31H197.349C197.349 8.99294 197.543 9.6562 198.043 10.1685L199.474 8.77146ZM199.349 8.31C199.349 7.99678 199.443 7.85481 199.593 7.74443L198.404 6.13557C197.687 6.66519 197.349 7.43655 197.349 8.31H199.349ZM199.593 7.74443C199.784 7.60314 200.168 7.46 200.889 7.46V5.46C199.955 5.46 199.08 5.63686 198.404 6.13557L199.593 7.74443ZM200.889 7.46C201.23 7.46 201.536 7.48357 201.811 7.52744L202.127 5.55256C201.734 5.48977 201.321 5.46 200.889 5.46V7.46ZM201.811 7.52744C202.112 7.57571 202.317 7.6272 202.444 7.67243L203.113 5.78757C202.827 5.68613 202.492 5.61096 202.127 5.55256L201.811 7.52744ZM201.779 6.73V7.92H203.779V6.73H201.779ZM203.132 6.98461C202.471 6.73456 201.781 6.61 201.069 6.61V8.61C201.543 8.61 201.993 8.6921 202.425 8.85539L203.132 6.98461ZM201.069 6.61C200.593 6.61 200.122 6.66027 199.716 6.818L200.441 8.682C200.515 8.65306 200.704 8.61 201.069 8.61V6.61ZM199.739 6.80945C199.445 6.91569 199.163 7.10922 198.967 7.41424C198.777 7.70978 198.719 8.03015 198.719 8.31H200.719C200.719 8.30318 200.72 8.38689 200.65 8.49576C200.574 8.61411 200.472 8.67098 200.418 8.69055L199.739 6.80945ZM198.719 8.31C198.719 8.65285 198.811 9.03973 199.093 9.36493L200.604 8.05507C200.654 8.11206 200.685 8.17308 200.702 8.22591C200.718 8.27585 200.719 8.30761 200.719 8.31H198.719ZM199.093 9.36493C199.336 9.64511 199.659 9.80859 199.928 9.91257L200.65 8.04743C200.619 8.03575 200.596 8.02546 200.578 8.017C200.561 8.0085 200.551 8.00266 200.547 8.00018C200.542 7.99765 200.546 7.99979 200.556 8.00769C200.566 8.01558 200.583 8.03093 200.604 8.05507L199.093 9.36493ZM199.937 9.91633C200.197 10.0137 200.531 10.1137 200.924 10.2171L201.433 8.28292C201.066 8.18634 200.807 8.10631 200.64 8.04367L199.937 9.91633ZM200.922 10.2164C201.395 10.3423 201.683 10.4733 201.839 10.5791L202.958 8.92093C202.541 8.64003 202.015 8.43766 201.435 8.28356L200.922 10.2164ZM201.839 10.5791C202.012 10.6958 202.059 10.7794 202.071 10.8069L203.906 10.0131C203.705 9.54725 203.358 9.19084 202.958 8.92093L201.839 10.5791ZM202.08 10.8275C202.126 10.9272 202.159 11.0587 202.159 11.24H204.159C204.159 10.8079 204.078 10.3861 203.897 9.9925L202.08 10.8275ZM202.159 11.24C202.159 11.5049 202.077 11.6634 201.895 11.8079L203.142 13.3721C203.814 12.8366 204.159 12.0951 204.159 11.24H202.159ZM201.895 11.8079C201.727 11.9425 201.34 12.1 200.549 12.1V14.1C201.53 14.1 202.457 13.9175 203.142 13.3721L201.895 11.8079Z" fill="url(#paint1_linear_733_529)"/>
<path d="M23.4955 75.12C22.9915 75.12 22.5395 75.032 22.1395 74.856C21.7475 74.672 21.4395 74.376 21.2155 73.968C20.9915 73.552 20.8795 73.004 20.8795 72.324C20.8795 71.644 21.0035 71.072 21.2515 70.608C21.4995 70.144 21.8315 69.792 22.2475 69.552C22.6635 69.312 23.1195 69.192 23.6155 69.192C24.2395 69.192 24.7715 69.336 25.2115 69.624V66.912H26.8315V75H25.4395L25.3435 74.472C25.0955 74.688 24.8235 74.852 24.5275 74.964C24.2395 75.068 23.8955 75.12 23.4955 75.12ZM23.9395 73.932C24.4435 73.932 24.8675 73.76 25.2115 73.416V70.824C24.8755 70.528 24.4835 70.38 24.0355 70.38C23.0275 70.38 22.5235 71.028 22.5235 72.324C22.5235 72.932 22.6475 73.352 22.8955 73.584C23.1435 73.816 23.4915 73.932 23.9395 73.932ZM30.9245 75.12C29.8605 75.12 29.0805 74.864 28.5845 74.352C28.0885 73.832 27.8405 73.1 27.8405 72.156C27.8405 71.212 28.0885 70.484 28.5845 69.972C29.0885 69.452 29.8685 69.192 30.9245 69.192C31.9885 69.192 32.7685 69.452 33.2645 69.972C33.7685 70.484 34.0205 71.212 34.0205 72.156C34.0205 73.1 33.7725 73.832 33.2765 74.352C32.7805 74.864 31.9965 75.12 30.9245 75.12ZM30.9245 73.74C31.4445 73.74 31.8165 73.624 32.0405 73.392C32.2645 73.152 32.3765 72.74 32.3765 72.156C32.3765 71.572 32.2645 71.164 32.0405 70.932C31.8165 70.692 31.4445 70.572 30.9245 70.572C30.4125 70.572 30.0445 70.692 29.8205 70.932C29.5965 71.164 29.4845 71.572 29.4845 72.156C29.4845 72.74 29.5965 73.152 29.8205 73.392C30.0445 73.624 30.4125 73.74 30.9245 73.74ZM39.7876 75.12C39.3636 75.12 38.9596 75.088 38.5756 75.024C38.1916 74.968 37.8836 74.896 37.6516 74.808V73.464C37.9316 73.576 38.2476 73.664 38.5996 73.728C38.9516 73.784 39.2756 73.812 39.5716 73.812C39.9716 73.812 40.2516 73.788 40.4116 73.74C40.5796 73.692 40.6636 73.584 40.6636 73.416C40.6636 73.224 40.5356 73.084 40.2796 72.996C40.0316 72.908 39.6596 72.784 39.1636 72.624C38.6436 72.448 38.2436 72.236 37.9636 71.988C37.6836 71.74 37.5436 71.372 37.5436 70.884C37.5436 70.34 37.7396 69.924 38.1316 69.636C38.5316 69.34 39.1716 69.192 40.0516 69.192C40.4036 69.192 40.7356 69.22 41.0476 69.276C41.3596 69.324 41.6236 69.384 41.8396 69.456V70.788C41.6236 70.684 41.3756 70.608 41.0956 70.56C40.8156 70.504 40.5556 70.476 40.3156 70.476C39.9716 70.476 39.6956 70.5 39.4876 70.548C39.2876 70.596 39.1876 70.7 39.1876 70.86C39.1876 71.036 39.2956 71.16 39.5116 71.232C39.7356 71.304 40.0796 71.412 40.5436 71.556C40.9996 71.692 41.3556 71.84 41.6116 72C41.8676 72.16 42.0476 72.352 42.1516 72.576C42.2556 72.792 42.3076 73.064 42.3076 73.392C42.3076 74.544 41.4676 75.12 39.7876 75.12ZM45.532 75.12C44.852 75.12 44.32 74.932 43.936 74.556C43.56 74.172 43.372 73.612 43.372 72.876V69.312H44.992V72.84C44.992 73.224 45.084 73.504 45.268 73.68C45.452 73.848 45.728 73.932 46.096 73.932C46.376 73.932 46.632 73.876 46.864 73.764C47.104 73.652 47.308 73.512 47.476 73.344V69.312H49.096V75H47.596L47.536 74.46C47.296 74.652 47.012 74.812 46.684 74.94C46.364 75.06 45.98 75.12 45.532 75.12ZM52.059 75.12C51.507 75.12 51.103 74.992 50.847 74.736C50.599 74.48 50.475 74.072 50.475 73.512V66.912H52.095V73.38C52.095 73.58 52.135 73.72 52.215 73.8C52.295 73.872 52.411 73.908 52.563 73.908C52.771 73.908 52.959 73.88 53.127 73.824V74.94C52.823 75.06 52.467 75.12 52.059 75.12ZM59.062 75.12C58.558 75.12 58.106 75.032 57.706 74.856C57.314 74.672 57.006 74.376 56.782 73.968C56.558 73.552 56.446 73.004 56.446 72.324C56.446 71.644 56.57 71.072 56.818 70.608C57.066 70.144 57.398 69.792 57.814 69.552C58.23 69.312 58.686 69.192 59.182 69.192C59.806 69.192 60.338 69.336 60.778 69.624V66.912H62.398V75H61.006L60.91 74.472C60.662 74.688 60.39 74.852 60.094 74.964C59.806 75.068 59.462 75.12 59.062 75.12ZM59.506 73.932C60.01 73.932 60.434 73.76 60.778 73.416V70.824C60.442 70.528 60.05 70.38 59.602 70.38C58.594 70.38 58.09 71.028 58.09 72.324C58.09 72.932 58.214 73.352 58.462 73.584C58.71 73.816 59.058 73.932 59.506 73.932ZM66.4909 75.12C65.4269 75.12 64.6469 74.864 64.1509 74.352C63.6549 73.832 63.4069 73.1 63.4069 72.156C63.4069 71.212 63.6549 70.484 64.1509 69.972C64.6549 69.452 65.4349 69.192 66.4909 69.192C67.5549 69.192 68.3349 69.452 68.8309 69.972C69.3349 70.484 69.5869 71.212 69.5869 72.156C69.5869 73.1 69.3389 73.832 68.8429 74.352C68.3469 74.864 67.5629 75.12 66.4909 75.12ZM66.4909 73.74C67.0109 73.74 67.3829 73.624 67.6069 73.392C67.8309 73.152 67.9429 72.74 67.9429 72.156C67.9429 71.572 67.8309 71.164 67.6069 70.932C67.3829 70.692 67.0109 70.572 66.4909 70.572C65.9789 70.572 65.6109 70.692 65.3869 70.932C65.1629 71.164 65.0509 71.572 65.0509 72.156C65.0509 72.74 65.1629 73.152 65.3869 73.392C65.6109 73.624 65.9789 73.74 66.4909 73.74ZM73.35 77.592V69.312H74.754L74.838 69.84C75.086 69.632 75.358 69.472 75.654 69.36C75.95 69.248 76.298 69.192 76.698 69.192C77.53 69.192 78.17 69.42 78.618 69.876C79.074 70.324 79.302 71.06 79.302 72.084C79.302 73.108 79.058 73.872 78.57 74.376C78.09 74.872 77.434 75.12 76.602 75.12C75.962 75.12 75.418 74.976 74.97 74.688V77.592H73.35ZM76.194 73.932C76.674 73.932 77.038 73.784 77.286 73.488C77.534 73.192 77.658 72.728 77.658 72.096C77.658 71.488 77.546 71.052 77.322 70.788C77.098 70.516 76.738 70.38 76.242 70.38C75.746 70.38 75.322 70.552 74.97 70.896V73.5C75.138 73.628 75.314 73.732 75.498 73.812C75.69 73.892 75.922 73.932 76.194 73.932ZM82.2161 75.12C81.8561 75.12 81.5201 75.056 81.2081 74.928C80.9041 74.792 80.6561 74.596 80.4641 74.34C80.2801 74.076 80.1881 73.748 80.1881 73.356C80.1881 72.796 80.3841 72.348 80.7761 72.012C81.1761 71.676 81.7641 71.508 82.5401 71.508H84.2201V71.352C84.2201 71 84.1201 70.752 83.9201 70.608C83.7281 70.464 83.3361 70.392 82.7441 70.392C82.0961 70.392 81.4721 70.492 80.8721 70.692V69.552C81.1361 69.448 81.4561 69.364 81.8321 69.3C82.2161 69.228 82.6321 69.192 83.0801 69.192C83.9361 69.192 84.5961 69.368 85.0601 69.72C85.5321 70.064 85.7681 70.62 85.7681 71.388V75H84.3641L84.2801 74.484C84.0561 74.684 83.7801 74.84 83.4521 74.952C83.1241 75.064 82.7121 75.12 82.2161 75.12ZM82.6601 74.052C83.0201 74.052 83.3321 73.992 83.5961 73.872C83.8601 73.752 84.0681 73.6 84.2201 73.416V72.516H82.5761C81.9441 72.516 81.6281 72.776 81.6281 73.296C81.6281 73.8 81.9721 74.052 82.6601 74.052ZM87.5887 68.736L88.5487 66.492H89.9527L88.8967 68.736H87.5887ZM87.6007 75V70.512H86.7487L86.8927 69.312H89.2207V75H87.6007ZM92.604 75.12C92.18 75.12 91.776 75.088 91.392 75.024C91.008 74.968 90.7 74.896 90.468 74.808V73.464C90.748 73.576 91.064 73.664 91.416 73.728C91.768 73.784 92.092 73.812 92.388 73.812C92.788 73.812 93.068 73.788 93.228 73.74C93.396 73.692 93.48 73.584 93.48 73.416C93.48 73.224 93.352 73.084 93.096 72.996C92.848 72.908 92.476 72.784 91.98 72.624C91.46 72.448 91.06 72.236 90.78 71.988C90.5 71.74 90.36 71.372 90.36 70.884C90.36 70.34 90.556 69.924 90.948 69.636C91.348 69.34 91.988 69.192 92.868 69.192C93.22 69.192 93.552 69.22 93.864 69.276C94.176 69.324 94.44 69.384 94.656 69.456V70.788C94.44 70.684 94.192 70.608 93.912 70.56C93.632 70.504 93.372 70.476 93.132 70.476C92.788 70.476 92.512 70.5 92.304 70.548C92.104 70.596 92.004 70.7 92.004 70.86C92.004 71.036 92.112 71.16 92.328 71.232C92.552 71.304 92.896 71.412 93.36 71.556C93.816 71.692 94.172 71.84 94.428 72C94.684 72.16 94.864 72.352 94.968 72.576C95.072 72.792 95.124 73.064 95.124 73.392C95.124 74.544 94.284 75.12 92.604 75.12Z" fill="white"/>
<path d="M51.1044 39.8359V27.9319L48.5604 28.3399V25.0999L54.9684 24.1399V39.8359H51.1044Z" fill="white"/>
<line x1="112.5" y1="80.0064" x2="111.5" y2="2.00641" stroke="url(#paint2_linear_733_529)"/>
<path d="M61.1206 29.2359C60.614 29.2359 60.174 29.1093 59.8006 28.8559C59.4406 28.5893 59.2606 28.1693 59.2606 27.5959C59.2606 26.4093 59.9873 25.8159 61.4406 25.8159H62.9006V25.7359C62.9006 25.4959 62.814 25.3293 62.6406 25.2359C62.4673 25.1293 62.1473 25.0759 61.6806 25.0759C61.094 25.0759 60.5073 25.1693 59.9206 25.3559V24.1159C60.1873 24.0093 60.514 23.9226 60.9006 23.8559C61.3006 23.7893 61.694 23.7559 62.0806 23.7559C62.8806 23.7559 63.5206 23.9226 64.0006 24.2559C64.494 24.5893 64.7406 25.1226 64.7406 25.8559V29.1159H63.0806L62.9806 28.6959C62.754 28.8693 62.494 29.0026 62.2006 29.0959C61.9073 29.1893 61.5473 29.2359 61.1206 29.2359ZM61.7606 28.0759C61.9873 28.0759 62.2006 28.0359 62.4006 27.9559C62.6006 27.8626 62.7673 27.7226 62.9006 27.5359V26.9159H61.8806C61.5873 26.9159 61.3673 26.9559 61.2206 27.0359C61.074 27.1159 61.0006 27.2759 61.0006 27.5159C61.0006 27.7293 61.0673 27.8759 61.2006 27.9559C61.334 28.0359 61.5206 28.0759 61.7606 28.0759Z" fill="white"/>
<defs>
<linearGradient id="paint0_linear_733_529" x1="37.1944" y1="12.7842" x2="75.666" y2="50.6594" gradientUnits="userSpaceOnUse">
<stop stop-color="white"/>
<stop offset="1" stop-color="white" stop-opacity="0"/>
</linearGradient>
<linearGradient id="paint1_linear_733_529" x1="144.045" y1="2.86227" x2="148.47" y2="30.4479" gradientUnits="userSpaceOnUse">
<stop stop-color="white"/>
<stop offset="1" stop-color="white" stop-opacity="0"/>
</linearGradient>
<linearGradient id="paint2_linear_733_529" x1="115.5" y1="1.95513" x2="114.288" y2="84.0389" gradientUnits="userSpaceOnUse">
<stop stop-color="white" stop-opacity="0.1"/>
<stop offset="0.515625" stop-color="white"/>
<stop offset="1" stop-color="white" stop-opacity="0"/>
</linearGradient>
</defs>
</svg>
