<svg width="33" height="33" viewBox="0 0 33 33" fill="none" xmlns="http://www.w3.org/2000/svg">
<path fill-rule="evenodd" clip-rule="evenodd" d="M3.14062 16.6492C3.14062 9.475 8.95645 3.65918 16.1306 3.65918C23.3048 3.65918 29.1206 9.475 29.1206 16.6492C29.1206 23.8234 23.3048 29.6392 16.1306 29.6392C8.95645 29.6392 3.14062 23.8234 3.14062 16.6492ZM16.1306 0.65918C7.29959 0.65918 0.140625 7.81815 0.140625 16.6492C0.140625 25.4802 7.29959 32.6392 16.1306 32.6392C24.9617 32.6392 32.1206 25.4802 32.1206 16.6492C32.1206 7.81815 24.9617 0.65918 16.1306 0.65918ZM11.5303 18.6404C11.032 17.9833 10.0958 17.8514 9.43521 18.3469C8.77246 18.8439 8.63815 19.7841 9.13521 20.4469L10.3352 19.5469C9.13521 20.4469 9.13557 20.4474 9.13593 20.4478L9.13672 20.4489L9.13844 20.4512L9.14251 20.4565L9.15315 20.4704L9.16626 20.4874L9.18443 20.5105C9.2097 20.5424 9.24385 20.5846 9.28671 20.6357C9.37234 20.7377 9.49334 20.8757 9.64843 21.0375C9.95738 21.3599 10.4087 21.7844 10.9925 22.209C12.1544 23.054 13.9067 23.9449 16.1312 23.9449C18.3558 23.9449 20.1081 23.054 21.2699 22.209C21.8537 21.7844 22.305 21.3599 22.614 21.0375C22.7691 20.8757 22.8901 20.7377 22.9757 20.6357C23.0186 20.5846 23.0527 20.5424 23.078 20.5105L23.0916 20.4931L23.1093 20.4704L23.1199 20.4565L23.124 20.4512L23.1257 20.4489L23.1265 20.4478C23.1268 20.4474 23.1272 20.4469 21.9272 19.5469L23.1272 20.4469C23.6243 19.7841 23.4899 18.8439 22.8272 18.3469C22.1666 17.8514 21.2304 17.9833 20.7321 18.6404L20.7258 18.6484C20.7175 18.6589 20.7014 18.6789 20.6778 18.7071C20.6304 18.7636 20.5533 18.852 20.448 18.9618C20.2362 19.1828 19.9178 19.4829 19.5054 19.7828C18.6749 20.3868 17.5292 20.9449 16.1312 20.9449C14.7333 20.9449 13.5876 20.3868 12.757 19.7828C12.3446 19.4829 12.0262 19.1828 11.8144 18.9618C11.7091 18.852 11.632 18.7636 11.5846 18.7071C11.561 18.6789 11.5449 18.6589 11.5366 18.6484L11.5303 18.6404ZM10.2834 12.3018C10.2834 11.4733 10.955 10.8018 11.7834 10.8018H11.7971C12.6255 10.8018 13.2971 11.4733 13.2971 12.3018C13.2971 13.1302 12.6255 13.8018 11.7971 13.8018H11.7834C10.955 13.8018 10.2834 13.1302 10.2834 12.3018ZM20.4775 10.8018C19.6491 10.8018 18.9775 11.4733 18.9775 12.3018C18.9775 13.1302 19.6491 13.8018 20.4775 13.8018H20.4912C21.3196 13.8018 21.9912 13.1302 21.9912 12.3018C21.9912 11.4733 21.3196 10.8018 20.4912 10.8018H20.4775Z" fill="url(#paint0_linear_372_178)"/>
<defs>
<linearGradient id="paint0_linear_372_178" x1="-7.61532" y1="-17.4036" x2="39.6557" y2="-15.4822" gradientUnits="userSpaceOnUse">
<stop stop-color="#F8B179"/>
<stop offset="0.365248" stop-color="#7C5333"/>
<stop offset="1" stop-color="#F8B179"/>
</linearGradient>
</defs>
</svg>
