<svg width="auto" height="auto" viewBox="0 0 59 71" fill="none" xmlns="http://www.w3.org/2000/svg">
<path d="M15.2441 0.280273H17.0664V3.45305H15.2441V0.280273Z" fill="#D59665"/>
<path d="M42.7654 67.8271H44.5876V70.9999H42.7654V67.8271Z" fill="#D59665"/>
<path d="M15.2441 8.6256C16.0236 8.49874 16.4001 8.52471 17.0664 8.56677V21.5069L15.2441 20.8497V8.6256Z" fill="#D59665"/>
<path d="M17.0664 43.3167C16.287 43.4435 15.957 43.5439 15.2442 43.5439L15.2442 30.3314L17.0664 30.9887L17.0664 43.3167Z" fill="#D59665"/>
<path d="M47.5715 15.7529L48.3757 16.9889L11.8388 47.8815L7.79516 47.7727L47.5715 15.7529Z" fill="url(#paint0_linear_1092_531)"/>
<path d="M16.5459 21.3194V8.57184V8.54004C16.6058 8.54004 16.9169 8.56124 17.0651 8.57184V21.5059L16.5459 21.3194Z" fill="#A7744B"/>
<path d="M15.2438 30.3317L15.7629 30.4946L15.7629 41.3601C15.6638 41.4378 15.543 41.5374 15.2438 41.7725L15.2438 30.3317Z" fill="#A7744B"/>
<path d="M42.2119 23.2576L46.8209 23.2578L6.39776 55.614L5.68244 54.4698L42.2119 23.2576Z" fill="url(#paint1_linear_1092_531)"/>
<path d="M42.7607 27.6129C43.5402 27.486 43.9167 27.512 44.583 27.5541V40.4942L42.7607 39.837V27.6129Z" fill="#D59665"/>
<path d="M44.583 62.1049C43.9008 62.3033 43.489 62.4405 42.7608 62.5322L42.7608 49.3197L44.583 49.9769L44.583 62.1049Z" fill="#D59665"/>
<path d="M44.0635 40.3057V27.5582V27.5264C44.1233 27.5264 44.4345 27.5476 44.5826 27.5582V40.4922L44.0635 40.3057Z" fill="#A7744B"/>
<path d="M43.2803 49.5092L43.2803 62.4992L43.2803 62.5071C43.2204 62.5071 42.9092 62.5388 42.7611 62.528L42.7611 49.3192L43.2803 49.5092Z" fill="#A7744B"/>
<path fill-rule="evenodd" clip-rule="evenodd" d="M29.4501 37.1601C29.8568 39.0275 30.6282 40.555 31.7643 41.7427C33.5339 43.5928 36.7113 45.5032 41.2963 47.474C44.6345 48.9219 47.1683 50.3094 48.8978 51.6367C50.6272 52.9639 51.4919 54.5325 51.4919 56.3424C51.4919 58.7153 50.5266 60.4648 48.5961 61.591C46.6656 62.6769 44.1318 63.2199 40.9946 63.2199C38.7424 63.2199 36.7716 62.9584 35.0824 62.4356L32.0056 53.3862H29.2305V65.2711C32.2469 66.1559 35.0422 66.6989 37.6162 66.8999C40.2305 67.101 42.1007 67.2016 43.2268 67.2016C47.4096 67.2418 50.8886 66.2564 53.6637 64.2455C56.64 62.0736 58.1281 58.9767 58.1281 54.9548C58.1281 53.0645 57.7661 51.3551 57.0422 49.8268C56.3585 48.2985 55.3127 46.9913 53.9051 45.9054C52.4974 44.8195 51.1701 43.9548 49.9233 43.3113C48.7168 42.6275 47.1683 41.9036 45.278 41.1394C41.7387 39.6513 39.2451 38.3643 37.7972 37.2784C36.3895 36.1522 35.6857 34.7647 35.6857 33.1157C35.6857 32.763 35.7119 32.4244 35.7642 32.1L29.4501 37.1601ZM41.9292 27.1593C42.7536 27.0278 43.6487 26.9621 44.6144 26.9621C46.3438 26.9621 48.0531 27.123 49.7424 27.4447L52.7588 36.1321H55.4736L55.7753 24.5489C52.9957 23.8615 50.0052 23.4295 46.8036 23.2529L41.9292 27.1593Z" fill="url(#paint2_angular_1092_531)"/>
<path d="M51.5635 56.3269C51.5635 47.357 35.0547 41.3273 35.7022 32.8281C35.5074 37.692 43.6059 40.3829 44.2848 40.7138C46.9331 41.7215 49.4834 43.058 50.4276 43.6003C55.9008 46.3051 57.6149 49.9447 58.0442 53.3911C58.6683 60.327 55.2627 62.9124 53.6045 64.3031C50.7517 66.1753 47.8098 67.4769 41.07 67.1381C35.5356 66.9812 30.8703 65.8252 29.2295 65.2668V53.385L32.0032 53.3765C32.6826 55.3634 34.2459 59.9615 35.0643 62.4587C37.6875 63.2718 42.4353 63.7702 47.0782 62.3013C50.7925 61.1261 51.6161 57.8287 51.5635 56.3269Z" fill="url(#paint3_angular_1092_531)"/>
<path fill-rule="evenodd" clip-rule="evenodd" d="M4.66043 6.94897C2.00595 8.79906 0.678711 11.3932 0.678711 14.7314C0.678711 18.2305 1.56354 20.9051 3.33319 22.7552C5.10284 24.6053 8.28018 26.5157 12.8652 28.4865C16.2034 29.9343 18.7372 31.3219 20.4667 32.6492C21.6573 33.5629 22.4381 34.5911 22.809 35.7336L28.6936 31.0177C28.6666 30.958 28.6391 30.8985 28.6111 30.8393C27.9274 29.3109 26.8816 28.0038 25.474 26.9179C24.0663 25.832 22.739 24.9673 21.4922 24.3237C20.2857 23.64 18.7372 22.9161 16.8469 22.1519C13.3076 20.6638 10.814 19.3768 9.3661 18.2908C7.95842 17.1647 7.25458 15.7771 7.25458 14.1281C7.25458 12.1976 8.03886 10.6894 9.60742 9.60345C11.2162 8.51752 13.4081 7.97456 16.1833 7.97456C17.9127 7.97456 19.622 8.13544 21.3113 8.45719L24.3277 17.1446H27.0425L27.3442 5.5614C23.6038 4.63635 19.4813 4.17383 14.9767 4.17383C10.7537 4.17383 7.31491 5.09887 4.66043 6.94897ZM7.7871 47.7722L12.207 44.2301C10.1027 44.2038 8.25077 43.9431 6.65129 43.4481L3.57451 34.3987H0.799369V46.2835C3.27797 47.0106 5.60721 47.5068 7.7871 47.7722Z" fill="url(#paint4_angular_1092_531)"/>
<path d="M25.2193 17.136C24.5714 12.6159 24.1539 8.84432 21.1252 8.44434C22.9277 13.4781 24.1479 17.136 24.1479 17.136L25.2193 17.136Z" fill="#976742"/>
<path fill-rule="evenodd" clip-rule="evenodd" d="M22.9344 35.6337L28.6994 31.0136C27.6685 28.6856 25.6872 26.4368 21.9967 24.613C21.0525 24.0707 18.5022 22.7342 15.8539 21.7265C15.7867 21.6937 15.6466 21.6377 15.4489 21.5588C13.6517 20.841 7.09583 18.2228 7.27131 13.8408C6.94645 18.1045 10.9392 21.7467 14.9994 25.4504C18.509 28.6519 22.069 31.8993 22.9344 35.6337ZM7.79885 47.7634C4.49869 47.3335 1.92984 46.6645 0.798584 46.2795V34.3977L3.5723 34.3892C4.25168 36.3761 5.81503 40.9742 6.63344 43.4714C8.00657 43.897 9.96192 44.2364 12.1797 44.2526L7.79885 47.7634Z" fill="url(#paint5_angular_1092_531)"/>
<path d="M2.49971 34.3972C3.14754 38.9173 3.63342 43.0258 6.66211 43.4258C3.72384 34.8011 3.58198 34.3972 3.58198 34.3972L2.49971 34.3972Z" fill="#BB8256"/>
<path d="M30.9304 53.3845C31.5782 57.9046 32.0641 62.0131 35.0928 62.4131C32.1545 53.7884 32.0126 53.3845 32.0126 53.3845L30.9304 53.3845Z" fill="#BB8256"/>
<path d="M53.804 36.134C53.1561 31.6139 52.7386 27.8424 49.71 27.4424C51.5124 32.4761 52.7326 36.134 52.7326 36.134L53.804 36.134Z" fill="#976742"/>
<defs>
<linearGradient id="paint0_linear_1092_531" x1="56.7175" y1="12.397" x2="45.9505" y2="63.8133" gradientUnits="userSpaceOnUse">
<stop stop-color="#F8B179"/>
<stop offset="0.46875" stop-color="#7C5333"/>
<stop offset="1" stop-color="#F8B179"/>
</linearGradient>
<linearGradient id="paint1_linear_1092_531" x1="54.0896" y1="17.3056" x2="46.5191" y2="67.741" gradientUnits="userSpaceOnUse">
<stop stop-color="#F8B179"/>
<stop offset="0.46875" stop-color="#7C5333"/>
<stop offset="1" stop-color="#F8B179"/>
</linearGradient>
<radialGradient id="paint2_angular_1092_531" cx="0" cy="0" r="1" gradientUnits="userSpaceOnUse" gradientTransform="translate(38.1013 36.1268) rotate(50.306) scale(22.0356 17.64)">
<stop offset="0.565241" stop-color="#D79766"/>
<stop offset="1" stop-color="#9A6A43"/>
</radialGradient>
<radialGradient id="paint3_angular_1092_531" cx="0" cy="0" r="1" gradientUnits="userSpaceOnUse" gradientTransform="translate(48.9418 52.2779) rotate(-136.206) scale(21.9966 35.1036)">
<stop stop-color="#D79866"/>
<stop offset="1" stop-color="#8B5E3B"/>
</radialGradient>
<radialGradient id="paint4_angular_1092_531" cx="0" cy="0" r="1" gradientUnits="userSpaceOnUse" gradientTransform="translate(9.67017 17.1393) rotate(50.306) scale(22.0356 17.64)">
<stop offset="0.565241" stop-color="#D79766"/>
<stop offset="1" stop-color="#9A6A43"/>
</radialGradient>
<radialGradient id="paint5_angular_1092_531" cx="0" cy="0" r="1" gradientUnits="userSpaceOnUse" gradientTransform="translate(20.5109 33.2906) rotate(-136.206) scale(21.9966 35.1036)">
<stop stop-color="#D79866"/>
<stop offset="1" stop-color="#8B5E3B"/>
</radialGradient>
</defs>
</svg>
