<svg width="auto" height="auto" viewBox="0 0 440 104" fill="none" xmlns="http://www.w3.org/2000/svg">
<path d="M150.85 65.4312V59.3495H144.51V55.6832H150.85V49.3858H154.603V55.6832H160.943V59.3495H154.603V65.4312H150.85Z" fill="url(#paint0_linear_372_181)"/>
<path d="M225.629 86.6216L224.408 92.9055C224.32 93.3464 224.274 93.7941 224.269 94.243C224.229 94.5133 224.254 94.7888 224.34 95.0486C224.427 95.3083 224.574 95.5454 224.769 95.7419C224.965 95.9384 225.204 96.089 225.468 96.1824C225.733 96.2758 226.016 96.3095 226.295 96.2808C227.785 96.2808 228.887 95.3023 229.34 92.9414L230.58 86.6575H231.922L230.682 92.9414C230.053 96.1192 228.433 97.3939 226.12 97.3939C225.688 97.4336 225.253 97.3796 224.846 97.2361C224.438 97.0926 224.069 96.8631 223.764 96.5641C223.46 96.2651 223.227 95.9042 223.084 95.5074C222.941 95.1107 222.89 94.688 222.936 94.27C222.938 93.7792 222.985 93.2896 223.075 92.8067L224.287 86.6216H225.629ZM232.561 97.2234L233.606 91.8372C233.773 90.9934 233.884 90.2573 233.967 89.6289H235.143L234.93 91.0562H234.985C235.27 90.5824 235.674 90.1864 236.16 89.9053C236.645 89.6243 237.196 89.4674 237.761 89.4494C238.001 89.429 238.243 89.458 238.47 89.5347C238.697 89.6114 238.905 89.734 239.08 89.8943C239.255 90.0546 239.393 90.249 239.484 90.4648C239.576 90.6805 239.62 90.9127 239.612 91.146C239.895 90.6481 240.307 90.23 240.807 89.9326C241.306 89.6353 241.877 89.4687 242.463 89.4494C242.724 89.4478 242.982 89.4999 243.221 89.6022C243.46 89.7045 243.674 89.8548 243.849 90.043C244.024 90.2312 244.156 90.4532 244.236 90.6944C244.316 90.9355 244.342 91.1904 244.313 91.4422C244.309 91.876 244.266 92.3085 244.184 92.7349L243.314 97.2234H242.018L242.861 92.8426C242.932 92.5179 242.969 92.1871 242.972 91.8552C242.972 91.0562 242.666 90.5356 241.796 90.5356C240.926 90.5356 239.686 91.6308 239.344 93.3274L238.585 97.2234H237.299L238.169 92.7349C238.231 92.4393 238.265 92.1388 238.27 91.8372C238.27 91.1999 238.085 90.5356 237.104 90.5356C236.123 90.5356 234.902 91.7923 234.597 93.4082L233.865 97.2234H232.561ZM251.994 90.5984C251.692 90.5248 251.381 90.4886 251.069 90.4907C249.042 90.4907 247.367 92.5464 247.367 94.647C247.367 95.4908 247.682 96.3257 248.718 96.3257C249.755 96.3257 251.152 94.9163 251.495 92.8875L251.948 90.5984H251.994ZM251.125 97.2234C251.125 96.7656 251.208 96.0474 251.3 95.2574C250.431 96.8284 249.366 97.3939 248.247 97.3939C247.924 97.3861 247.606 97.313 247.314 97.1795C247.022 97.0459 246.762 96.8548 246.551 96.6183C246.339 96.3818 246.181 96.1051 246.085 95.8059C245.99 95.5066 245.96 95.1914 245.998 94.8804C245.988 94.181 246.121 93.4866 246.388 92.837C246.656 92.1875 247.053 91.5955 247.556 91.0951C248.06 90.5947 248.661 90.1957 249.324 89.921C249.987 89.6463 250.7 89.5013 251.421 89.4942C252.132 89.4975 252.84 89.6003 253.521 89.7995L252.726 93.7493C252.489 94.9079 252.377 96.0872 252.392 97.2683L251.125 97.2234ZM263.322 91.4333C263.322 90.8139 262.84 90.4727 262.119 90.4727C260.842 90.4727 259.888 91.6846 259.564 92.8786C261.665 92.8786 263.322 92.6182 263.322 91.4422V91.4333ZM263.609 96.8194C262.815 97.2304 261.927 97.4403 261.027 97.4299C258.954 97.4299 258.047 96.0474 258.047 94.3687C258.047 92.0796 259.796 89.4853 262.313 89.4853C262.601 89.4417 262.894 89.4583 263.175 89.5337C263.455 89.6092 263.716 89.7419 263.939 89.9229C264.163 90.1039 264.344 90.329 264.47 90.5833C264.597 90.8376 264.666 91.1151 264.673 91.3974C264.673 93.3902 262.359 93.9289 259.463 93.875C259.399 94.3621 259.453 94.8568 259.62 95.3203C259.77 95.6431 260.017 95.9139 260.33 96.0968C260.642 96.2796 261.005 96.3657 261.369 96.3436C262.106 96.3368 262.831 96.155 263.479 95.814L263.664 96.7835L263.609 96.8194ZM265.617 97.2593L266.672 91.8731C266.829 91.0293 266.949 90.2932 267.023 89.6648H268.208L267.995 91.0921C268.282 90.62 268.686 90.2253 269.171 89.9445C269.657 89.6637 270.207 89.5058 270.771 89.4853C271.011 89.4649 271.252 89.494 271.48 89.5706C271.707 89.6473 271.915 89.7699 272.09 89.9302C272.265 90.0905 272.403 90.2849 272.494 90.5007C272.586 90.7164 272.63 90.9486 272.622 91.1819C272.907 90.6796 273.323 90.2585 273.828 89.9608C274.333 89.6631 274.909 89.4991 275.5 89.4853C275.761 89.4837 276.02 89.5358 276.259 89.6381C276.498 89.7405 276.712 89.8907 276.887 90.0789C277.061 90.2671 277.193 90.4891 277.273 90.7303C277.353 90.9715 277.38 91.2263 277.351 91.4781C277.345 91.9114 277.305 92.3436 277.231 92.7708L276.352 97.2593H275.102L275.944 92.8786C276.011 92.5531 276.048 92.2227 276.056 91.8911C276.056 91.0921 275.75 90.5715 274.871 90.5715C273.992 90.5715 272.752 91.6667 272.428 93.3633L271.669 97.2593H270.373L271.299 92.7708C271.358 92.475 271.389 92.1745 271.391 91.8731C271.391 91.2358 271.216 90.5715 270.225 90.5715C269.235 90.5715 268.032 91.8282 267.717 93.4441L266.996 97.2593H265.617ZM280.516 95.9846C280.95 96.2823 281.475 96.4279 282.006 96.3975C283.737 96.3975 285.189 94.3238 285.189 92.331C285.189 91.532 284.819 90.5356 283.69 90.5356C282.561 90.5356 281.33 91.7115 280.923 93.8032L280.535 95.9217L280.516 95.9846ZM278.314 100.365L279.887 92.3579C280.044 91.4602 280.211 90.4189 280.322 89.6648H281.553L281.33 91.0562C281.629 90.5945 282.037 90.2081 282.519 89.9288C283.002 89.6495 283.546 89.4852 284.107 89.4494C285.809 89.4494 286.513 90.8049 286.513 92.1963C286.513 94.8894 284.542 97.3939 281.941 97.3939C281.352 97.4231 280.765 97.3024 280.238 97.0438V97.0438L279.609 100.329L278.314 100.365ZM287.808 97.2234L288.734 92.322C288.928 91.3345 289.058 90.3291 289.141 89.6289H290.326C290.252 90.1585 290.196 90.6882 290.113 91.2717C290.296 90.783 290.619 90.3549 291.043 90.0371C291.467 89.7193 291.976 89.5248 292.51 89.4763C292.633 89.467 292.757 89.467 292.88 89.4763L292.621 90.76C292.503 90.7529 292.386 90.7529 292.269 90.76C291.103 90.76 290.066 92.1245 289.724 93.8929L289.076 97.2413L287.808 97.2234ZM298.534 91.4333C298.534 90.8139 298.053 90.4727 297.34 90.4727C296.054 90.4727 295.11 91.6846 294.786 92.8786C296.887 92.8786 298.488 92.6182 298.488 91.4422L298.534 91.4333ZM298.821 96.8194C298.027 97.2315 297.139 97.4415 296.239 97.4299C294.166 97.4299 293.259 96.0474 293.259 94.3687C293.259 92.0796 295.008 89.4853 297.535 89.4853C297.818 89.4486 298.107 89.4703 298.381 89.5491C298.655 89.6278 298.91 89.7617 299.127 89.9421C299.344 90.1225 299.52 90.3454 299.643 90.5961C299.765 90.8469 299.832 91.1199 299.839 91.3974C299.839 93.3902 297.525 93.9289 294.629 93.875C294.564 94.3627 294.621 94.8585 294.795 95.3203C294.942 95.6431 295.188 95.9144 295.499 96.0974C295.81 96.2805 296.172 96.3664 296.535 96.3436C297.272 96.3368 297.997 96.155 298.645 95.814L298.83 96.7835L298.821 96.8194ZM300.894 95.9217C301.407 96.2088 301.986 96.3691 302.578 96.3885C302.761 96.4071 302.945 96.3893 303.121 96.3362C303.296 96.2832 303.458 96.196 303.598 96.0801C303.737 95.9642 303.851 95.8219 303.932 95.6619C304.013 95.5019 304.059 95.3277 304.068 95.1497C304.068 94.5572 303.79 94.1982 302.985 93.7583C302.59 93.5933 302.248 93.326 301.999 92.9856C301.749 92.6453 301.601 92.2449 301.569 91.8282C301.585 91.4827 301.673 91.1439 301.83 90.8333C301.987 90.5227 302.209 90.247 302.481 90.0235C302.753 89.8 303.07 89.6336 303.411 89.5348C303.753 89.436 304.112 89.4069 304.466 89.4494C305.038 89.4325 305.604 89.5658 306.104 89.8354L305.734 90.8139C305.317 90.5925 304.849 90.4753 304.373 90.4727C304.203 90.4541 304.031 90.4696 303.868 90.5182C303.704 90.5667 303.553 90.6474 303.422 90.7551C303.292 90.8628 303.186 90.9954 303.111 91.1444C303.036 91.2935 302.993 91.456 302.985 91.6218C302.985 92.1694 303.356 92.5195 304.05 92.8875C304.457 93.0605 304.809 93.3369 305.068 93.6877C305.327 94.0385 305.483 94.4505 305.521 94.8804C305.521 96.4783 304.179 97.3939 302.532 97.3939C301.844 97.4012 301.169 97.214 300.588 96.8553L300.959 95.9038L300.894 95.9217ZM313.248 90.6164C312.946 90.5428 312.635 90.5066 312.323 90.5086C310.296 90.5086 308.621 92.5644 308.621 94.665C308.621 95.5088 308.927 96.3436 309.963 96.3436C311 96.3436 312.406 94.9343 312.795 92.9055L313.239 90.6164H313.248ZM312.378 97.2413C312.404 96.5833 312.466 95.9271 312.563 95.2754V95.2754C311.703 96.8464 310.639 97.4119 309.519 97.4119C309.192 97.408 308.87 97.3373 308.573 97.2043C308.276 97.0713 308.012 96.879 307.797 96.6401C307.582 96.4011 307.422 96.1209 307.326 95.8176C307.23 95.5144 307.202 95.1951 307.242 94.8804C307.233 94.181 307.365 93.4866 307.633 92.837C307.9 92.1875 308.297 91.5955 308.801 91.0951C309.305 90.5947 309.905 90.1957 310.569 89.921C311.232 89.6463 311.944 89.5013 312.665 89.4942C313.377 89.4975 314.085 89.6003 314.766 89.7995L313.979 93.7493C313.74 94.9076 313.625 96.0869 313.637 97.2683L312.378 97.2413ZM325.334 90.8318C324.94 90.6141 324.492 90.5055 324.039 90.5176C322.188 90.5176 320.707 92.4477 320.707 94.4764C320.707 95.3741 321.031 96.3436 322.179 96.3436C323.326 96.3436 324.464 95.2036 324.798 93.489L325.334 90.7959V90.8318ZM327.602 86.083L325.89 94.8176C325.72 95.6112 325.606 96.4149 325.547 97.2234H324.316L324.529 95.7153C324.255 96.2036 323.855 96.6149 323.369 96.9091C322.882 97.2032 322.326 97.3703 321.753 97.3939C320.235 97.3939 319.412 96.1821 319.412 94.6291C319.412 91.936 321.475 89.4494 324.242 89.4494C324.722 89.4454 325.198 89.5371 325.64 89.7187L326.334 86.1279L327.602 86.083ZM329.591 94.2251C329.591 95.4639 330.285 96.3616 331.442 96.3616C333.025 96.3616 334.218 94.3777 334.218 92.6092C334.252 92.3502 334.23 92.0872 334.153 91.837C334.076 91.5868 333.947 91.3547 333.773 91.1555C333.599 90.9564 333.384 90.7944 333.142 90.68C332.9 90.5655 332.636 90.5011 332.368 90.4907C330.683 90.4907 329.591 92.4836 329.591 94.2251V94.2251ZM335.597 92.6182C335.597 94.9612 333.876 97.3939 331.257 97.3939C330.838 97.4053 330.421 97.331 330.034 97.1759C329.646 97.0208 329.297 96.7884 329.008 96.4939C328.719 96.1993 328.497 95.849 328.357 95.4659C328.217 95.0828 328.161 94.6753 328.194 94.27C328.194 91.7744 329.989 89.4494 332.534 89.4494C332.957 89.4374 333.378 89.5128 333.769 89.6705C334.16 89.8283 334.512 90.0648 334.802 90.3644C335.091 90.664 335.312 91.0198 335.449 91.4084C335.586 91.7969 335.637 92.2093 335.597 92.6182V92.6182ZM348.192 96.7656C347.212 97.1349 346.171 97.3266 345.12 97.3311C344.463 97.376 343.804 97.2811 343.188 97.0532C342.573 96.8252 342.016 96.4697 341.557 96.0115C340.802 95.1457 340.407 94.0386 340.447 92.9055C340.422 92.0609 340.576 91.2205 340.899 90.4358C341.222 89.6511 341.707 88.9387 342.324 88.3426C342.941 87.7464 343.677 87.279 344.488 86.9692C345.298 86.6593 346.165 86.5136 347.036 86.5408C347.92 86.5006 348.801 86.6636 349.608 87.0166L349.173 88.1208C348.454 87.8023 347.669 87.6458 346.878 87.663C345.623 87.6508 344.413 88.1109 343.5 88.9466C342.977 89.4565 342.564 90.0616 342.282 90.7271C342.001 91.3926 341.859 92.1055 341.862 92.8247C341.862 94.8714 342.917 96.218 345.342 96.218C345.913 96.2261 346.479 96.1223 347.008 95.9128L347.619 92.7618H345.407L345.62 91.7026H349.136L348.155 96.7656H348.192ZM350.524 97.2234L351.45 92.322C351.644 91.3345 351.774 90.3291 351.857 89.6289H353.032C352.967 90.1585 352.903 90.6882 352.819 91.2717C353.006 90.7848 353.329 90.3583 353.753 90.0409C354.176 89.7235 354.684 89.5279 355.216 89.4763C355.343 89.4666 355.469 89.4666 355.596 89.4763L355.364 90.769C355.244 90.762 355.124 90.762 355.003 90.769C353.837 90.769 352.801 92.1335 352.468 93.9019L351.82 97.2503L350.524 97.2234ZM363.619 89.6289L362.573 95.0151C362.407 95.9128 362.296 96.604 362.222 97.2324H361L361.213 95.805C360.917 96.2681 360.51 96.6551 360.026 96.9332C359.543 97.2114 358.998 97.3725 358.437 97.4029C357.428 97.4029 356.373 96.9361 356.373 95.2036C356.385 94.7754 356.435 94.3489 356.521 93.9289L357.363 89.6379H358.705L357.881 93.875C357.792 94.24 357.743 94.6131 357.733 94.9881C357.733 95.7691 358.076 96.2988 359.001 96.2988C359.927 96.2988 361.213 95.2036 361.537 93.5249L362.296 89.6379L363.619 89.6289ZM366.331 95.9128C366.761 96.2105 367.284 96.3562 367.811 96.3257C369.542 96.3257 370.995 94.252 370.995 92.2591C370.995 91.4602 370.625 90.4638 369.496 90.4638C368.367 90.4638 367.117 91.6397 366.719 93.7583L366.331 95.8768V95.9128ZM364.128 100.294L365.692 92.2861C365.859 91.3884 366.016 90.3471 366.136 89.593H367.395L367.173 91.0383C367.472 90.5766 367.879 90.1902 368.362 89.9109C368.844 89.6315 369.388 89.4672 369.949 89.4314C371.652 89.4314 372.364 90.7869 372.364 92.1784C372.364 94.8714 370.384 97.376 367.784 97.376C367.197 97.4066 366.613 97.2858 366.09 97.0259V97.0259L365.461 100.311L364.128 100.294ZM375.187 94.1892C375.187 95.428 375.881 96.3257 377.038 96.3257C378.62 96.3257 379.814 94.3418 379.814 92.5733C379.814 91.6756 379.398 90.4548 377.963 90.4548C376.279 90.4548 375.141 92.4477 375.187 94.1892ZM381.193 92.5823C381.193 94.9253 379.481 97.358 376.853 97.358C376.434 97.3681 376.019 97.2928 375.632 97.1372C375.246 96.9815 374.898 96.749 374.61 96.4545C374.322 96.1601 374.101 95.8103 373.961 95.4278C373.822 95.0453 373.766 94.6386 373.799 94.2341C373.799 91.7385 375.594 89.4135 378.13 89.4135C378.553 89.4015 378.974 89.4769 379.365 89.6346C379.756 89.7924 380.108 90.0289 380.397 90.3285C380.687 90.628 380.908 90.9839 381.045 91.3725C381.182 91.761 381.232 92.1734 381.193 92.5823V92.5823ZM389.189 86.6216L388.263 91.1101H393.307L394.177 86.6216H395.537L393.446 97.2054H392.104L393.029 92.2232H388.013L387.088 97.2054H385.746L387.847 86.6216H389.189ZM401.524 91.4153C401.524 90.7959 401.043 90.4548 400.331 90.4548C399.054 90.4548 398.1 91.6667 397.777 92.8606C399.877 92.8606 401.478 92.6003 401.478 91.4243L401.524 91.4153ZM401.821 96.8015C401.024 97.2135 400.132 97.4235 399.229 97.4119C397.156 97.4119 396.259 96.0295 396.259 94.3508C396.259 92.0616 398.008 89.4673 400.525 89.4673C400.811 89.4317 401.101 89.4554 401.377 89.5369C401.653 89.6184 401.908 89.7557 402.125 89.9399C402.342 90.124 402.516 90.3508 402.636 90.6052C402.756 90.8595 402.818 91.1356 402.82 91.4153C402.82 93.4082 400.507 93.9468 397.619 93.8929C397.551 94.38 397.605 94.8758 397.777 95.3382C397.925 95.6618 398.173 95.9334 398.485 96.1164C398.798 96.2994 399.161 96.385 399.526 96.3616C400.26 96.3537 400.981 96.1719 401.626 95.832L401.821 96.8015V96.8015ZM403.829 97.2413L404.754 92.3399C404.949 91.3525 405.078 90.3471 405.161 89.6469H406.337C406.272 90.1765 406.207 90.7061 406.133 91.2896H406.179C406.363 90.801 406.685 90.3729 407.11 90.055C407.534 89.7372 408.042 89.5427 408.576 89.4942C408.699 89.4849 408.823 89.4849 408.946 89.4942L408.687 90.7779C408.567 90.771 408.447 90.771 408.326 90.7779C407.16 90.7779 406.133 92.1424 405.791 93.9109L405.143 97.2593L403.829 97.2413ZM411.362 89.6469L412.047 93.9737C412.158 94.8714 412.259 95.419 412.287 95.8409H412.333C412.5 95.437 412.713 94.9432 413.157 94.0455L415.517 89.6289H416.988L412.639 97.2234H411.352L409.964 89.6289L411.362 89.6469ZM423.096 90.6164C422.793 90.5439 422.483 90.5077 422.171 90.5086C420.153 90.5086 418.469 92.5644 418.469 94.665C418.469 95.5088 418.774 96.3436 419.811 96.3436C420.847 96.3436 422.254 94.9343 422.643 92.9055L423.096 90.6164ZM422.217 97.2413C422.217 96.7835 422.3 96.0654 422.393 95.2754C421.532 96.8464 420.468 97.4119 419.348 97.4119C419.026 97.4028 418.71 97.3289 418.419 97.1948C418.128 97.0607 417.869 96.8694 417.658 96.633C417.448 96.3967 417.29 96.1204 417.195 95.8218C417.101 95.5231 417.071 95.2087 417.109 94.8984C417.098 94.1994 417.229 93.5052 417.496 92.8557C417.762 92.2062 418.158 91.6141 418.661 91.1136C419.164 90.6131 419.764 90.214 420.427 89.9391C421.09 89.6643 421.802 89.5192 422.522 89.5122C423.234 89.5144 423.942 89.6173 424.623 89.8174L423.836 93.7673C423.592 94.9249 423.478 96.1047 423.494 97.2862L422.217 97.2413ZM425.808 97.2413L427.992 86.092H429.333L427.14 97.2413H425.808Z" fill="url(#paint1_linear_372_181)"/>
<path fill-rule="evenodd" clip-rule="evenodd" d="M305.272 49.1494C302.856 49.1494 300.385 49.6072 300.385 52.9826V55.0383C300.385 57.5429 301.801 58.8714 304.494 58.8714H308.085C311.13 58.8714 312.379 57.9019 312.379 55.5141V55.1101H310.611V55.559C310.611 56.7529 309.769 57.3543 308.029 57.3543H305.392C303.541 57.3543 302.31 56.9504 302.31 54.9754V53.0364C302.31 50.864 303.615 50.6845 305.087 50.6845H308.011C309.806 50.6845 310.5 51.1692 310.5 52.426V52.7851H312.268V52.3901C312.268 50.2446 310.824 49.1494 307.992 49.1494H305.272Z" fill="url(#paint2_linear_372_181)"/>
<path fill-rule="evenodd" clip-rule="evenodd" d="M336.958 49.1494C335.181 49.1494 333.941 49.4457 333.256 50.6037V49.293H331.489V58.7278H333.34V53.4045C333.34 51.4206 334.006 50.7114 337.773 50.7114H338.18C341.271 50.7114 341.52 51.6091 341.52 52.7941V58.7547H343.371V52.3901C343.371 51.1782 342.844 49.1494 339.299 49.1494H336.958Z" fill="url(#paint3_linear_372_181)"/>
<path fill-rule="evenodd" clip-rule="evenodd" d="M351.775 49.1494C348.175 49.1494 346.843 49.8137 346.843 51.6001V52.1387C346.843 53.9341 347.768 54.7241 350.054 54.7241H354.959C356.856 54.7241 356.985 55.1909 356.985 55.945C356.985 57.2287 356.458 57.3364 353.978 57.3364H350.572C348.823 57.3364 348.471 56.7798 348.471 55.8731V55.2896H346.704V55.9809C346.704 58.8714 349.091 58.8714 351.405 58.8714H354.329C356.023 58.8714 358.855 58.8714 358.855 56.0796C358.855 53.2878 357.059 53.189 354.7 53.189H350.498C348.842 53.189 348.712 52.7492 348.712 52.1387V51.7976C348.712 50.8999 349.036 50.6845 351.349 50.6845H354.126C355.903 50.6845 356.689 50.7294 356.689 51.9772V52.1118L356.828 52.2016H358.457V51.6091C358.457 50.1459 357.735 49.1763 354.218 49.1763L351.775 49.1494Z" fill="url(#paint4_linear_372_181)"/>
<path fill-rule="evenodd" clip-rule="evenodd" d="M369.468 44.5646L366.498 48.1554H368.034C368.136 48.1554 371.541 44.798 371.541 44.798L371.782 44.5557L369.468 44.5646Z" fill="url(#paint5_linear_372_181)"/>
<path fill-rule="evenodd" clip-rule="evenodd" d="M382.85 49.1513C382.309 49.1135 381.768 49.2149 381.281 49.445C380.793 49.6751 380.377 50.0259 380.074 50.4619V49.2949H378.306V58.7296H380.157V52.769C380.153 52.476 380.214 52.1858 380.336 51.9177C380.458 51.6497 380.638 51.4101 380.863 51.2152C381.089 51.0203 381.355 50.8747 381.643 50.7881C381.932 50.7015 382.236 50.676 382.535 50.7132H383.516C386.293 50.7132 386.691 51.0095 386.691 53.1999V53.7295H388.449V52.5086C388.449 50.1208 387.301 49.1961 384.349 49.1961L382.85 49.1513Z" fill="url(#paint6_linear_372_181)"/>
<path fill-rule="evenodd" clip-rule="evenodd" d="M395.445 49.1494C393.03 49.1494 390.559 49.6072 390.559 52.9826V55.0383C390.559 57.5429 391.975 58.8714 394.668 58.8714H398.259C401.303 58.8714 402.553 57.9019 402.553 55.5141V55.1101H400.785V55.559C400.785 56.7529 399.934 57.3543 398.203 57.3543H395.519C393.669 57.3543 392.438 56.9504 392.438 54.9754V53.0364C392.438 50.864 393.743 50.6845 395.214 50.6845H398.138C399.924 50.6845 400.628 51.1692 400.628 52.426V52.7851H402.386V52.3901C402.386 50.2446 400.952 49.1494 398.12 49.1494H395.445Z" fill="url(#paint7_linear_372_181)"/>
<path fill-rule="evenodd" clip-rule="evenodd" d="M405.857 45.4521V47.4181H407.735V45.4521H405.857Z" fill="url(#paint8_linear_372_181)"/>
<path fill-rule="evenodd" clip-rule="evenodd" d="M405.857 49.2959V58.7307H407.735V49.2959H405.857Z" fill="url(#paint9_linear_372_181)"/>
<path fill-rule="evenodd" clip-rule="evenodd" d="M418.923 49.1494H416.646C414.157 49.1494 411.279 49.5893 411.279 53.0005V55.0203C411.279 58.4405 414.157 58.8714 416.646 58.8714H418.923C421.421 58.8714 424.29 58.4405 424.29 55.0203V53.0005C424.29 49.5893 421.421 49.1494 418.923 49.1494ZM422.411 54.9306C422.411 56.9324 421.264 57.3364 419.404 57.3364H416.165C414.314 57.3364 413.157 56.9324 413.157 54.9306V53.0903C413.157 51.0884 414.314 50.6845 416.165 50.6845H419.404C421.255 50.6845 422.411 51.0884 422.411 53.0903V54.9306V54.9306Z" fill="url(#paint10_linear_372_181)"/>
<path fill-rule="evenodd" clip-rule="evenodd" d="M369.478 49.1494H367.201C364.703 49.1494 361.834 49.5893 361.834 53.0005V55.0203C361.834 58.4405 364.703 58.8714 367.201 58.8714H369.478C371.977 58.8714 374.845 58.4405 374.845 55.0203V53.0005C374.845 49.5893 371.977 49.1494 369.478 49.1494ZM372.948 54.9306C372.948 56.9324 371.801 57.3364 369.941 57.3364H366.702C364.851 57.3364 363.694 56.9324 363.694 54.9306V53.0903C363.694 51.0884 364.841 50.6845 366.702 50.6845H369.941C371.791 50.6845 372.948 51.0884 372.948 53.0903V54.9306Z" fill="url(#paint11_linear_372_181)"/>
<path fill-rule="evenodd" clip-rule="evenodd" d="M322.79 49.1494H320.514C318.015 49.1494 315.146 49.5893 315.146 53.0005V55.0203C315.146 58.4405 318.015 58.8714 320.514 58.8714H322.79C325.289 58.8714 328.158 58.4405 328.158 55.0203V53.0005C328.158 49.5893 325.289 49.1494 322.79 49.1494ZM326.279 54.9306C326.279 56.9324 325.132 57.3364 323.272 57.3364H320.033C318.182 57.3364 317.025 56.9324 317.025 54.9306V53.0903C317.025 51.0884 318.173 50.6845 320.033 50.6845H323.272C325.123 50.6845 326.279 51.0884 326.279 53.0903V54.9306V54.9306Z" fill="url(#paint12_linear_372_181)"/>
<path fill-rule="evenodd" clip-rule="evenodd" d="M432.332 49.1494C428.732 49.1494 427.4 49.8137 427.4 51.6001V52.1387C427.4 53.9341 428.325 54.7241 430.611 54.7241H435.516C437.367 54.7241 437.542 55.1909 437.542 55.945C437.542 57.2287 437.015 57.3364 434.535 57.3364H431.129C429.38 57.3364 429.029 56.7798 429.029 55.8731V55.2896H427.261V55.9809C427.261 58.8714 429.649 58.8714 431.962 58.8714H434.886C436.58 58.8714 439.421 58.8714 439.421 56.0796C439.421 53.2878 437.57 53.189 435.257 53.189H431.055C429.399 53.189 429.269 52.7492 429.269 52.1387V51.7976C429.269 50.8999 429.602 50.6845 431.907 50.6845H434.683C436.46 50.6845 437.246 50.7294 437.246 51.9772V52.1118L437.385 52.2016H439.014V51.6091C439.014 50.1459 438.292 49.1763 434.775 49.1763L432.332 49.1494Z" fill="url(#paint13_linear_372_181)"/>
<path fill-rule="evenodd" clip-rule="evenodd" d="M297.489 22.5167C275.659 9.18598 231.905 9.01542 219.051 11.6546C213.979 12.696 212.434 16.2957 212.943 21.3318C214.46 36.2515 240.271 59.5646 265.599 65.4983C268.302 66.1357 274.548 66.2703 278.259 64.2954C289.17 58.4963 297.582 48.1369 301.395 35.659C303.708 27.9298 302.191 25.3804 297.489 22.5167ZM268.579 49.0346H264.878V41.7364H251.718V49.0526H248.016V30.4524H251.718V38.5316H264.85V30.4524H268.551L268.579 49.0346ZM283.904 49.277H272.392V46.1171H283.349C287.227 46.1171 287.717 45.8927 287.717 44.0434C287.717 43.0111 287.717 42.248 284.876 42.248H277.232C273.53 42.248 271.902 40.8476 271.902 37.589V36.6913C271.902 33.4955 274.15 32.2477 279.916 32.2477H290.947V35.4525H279.249C275.455 35.4525 275.455 35.9193 275.455 37.0594V37.6429C275.455 38.4688 275.455 39.1331 277.926 39.1331H284.478C288.18 39.1331 291.271 39.5191 291.271 44.3038C291.271 49.277 286.477 49.277 283.904 49.277V49.277Z" fill="url(#paint14_linear_372_181)"/>
<path d="M23.3674 47.2988H26.2909V52.2365H23.3674V47.2988Z" fill="#D59665"/>
<path d="M67.5214 99.0635H70.4449V104.001H67.5214V99.0635Z" fill="#D59665"/>
<path d="M23.3674 6.93046C24.6179 6.73305 25.222 6.77346 26.2909 6.83892V26.9771L23.3674 25.9543V6.93046Z" fill="#D59665"/>
<path d="M26.2913 60.9188C25.0408 61.1162 24.5114 61.2725 23.3678 61.2725L23.3678 40.7104L26.2913 41.7332L26.2913 60.9188Z" fill="#D59665"/>
<path d="M75.2314 18.0215L76.5216 19.945L17.9042 68.0219L11.4169 67.8525L75.2314 18.0215Z" fill="url(#paint15_linear_372_181)"/>
<path d="M25.4562 26.6838V6.8454V6.7959C25.5522 6.7959 26.0515 6.8289 26.2891 6.8454V26.9741L25.4562 26.6838Z" fill="#A7744B"/>
<path d="M23.3672 40.7099L24.2001 40.9633L24.2001 57.8729C24.041 57.9938 23.8472 58.1488 23.3672 58.5146L23.3672 40.7099Z" fill="#A7744B"/>
<path d="M66.6328 29.7004L74.0271 29.7007L9.17501 80.0553L8.02739 78.2747L66.6328 29.7004Z" fill="url(#paint16_linear_372_181)"/>
<path d="M67.514 36.4773C68.7645 36.2799 69.3686 36.3203 70.4375 36.3858V56.524L67.514 55.5012V36.4773Z" fill="#D59665"/>
<path d="M70.4368 90.1583C69.3423 90.4669 68.6816 90.6806 67.5133 90.8232L67.5133 70.2612L70.4368 71.284L70.4368 90.1583Z" fill="#D59665"/>
<path d="M69.6035 56.2317V36.3932V36.3438C69.6996 36.3438 70.1988 36.3767 70.4364 36.3932V56.5219L69.6035 56.2317Z" fill="#A7744B"/>
<path d="M68.3473 70.5562L68.3473 90.772L68.3473 90.7843C68.2512 90.7843 67.752 90.8336 67.5144 90.8168L67.5144 70.2604L68.3473 70.5562Z" fill="#A7744B"/>
<path fill-rule="evenodd" clip-rule="evenodd" d="M46.159 51.3367C46.8116 54.2418 48.0491 56.6182 49.8712 58.4662C52.7104 61.3454 57.8078 64.3185 65.1637 67.3855C70.5193 69.6388 74.5844 71.7982 77.359 73.8637C80.1336 75.9293 81.5209 78.3703 81.5209 81.187C81.5209 84.8799 79.9723 87.6026 76.8751 89.3552C73.7778 91.0452 69.7128 91.8902 64.6798 91.8902C61.0664 91.8902 57.9046 91.4833 55.1946 90.6696L50.2584 76.5865H45.8062V95.0823C50.6455 96.4594 55.1301 97.3043 59.2597 97.6173C63.4538 97.9303 66.4542 98.0867 68.2609 98.0867C74.9716 98.1493 80.553 96.6158 85.0052 93.4862C89.7801 90.1063 92.1675 85.2867 92.1675 79.0275C92.1675 76.0857 91.5868 73.4256 90.4254 71.0471C89.3284 68.6686 87.6508 66.6344 85.3924 64.9444C83.134 63.2544 81.0047 61.9087 79.0044 60.9072C77.0686 59.8432 74.5844 58.7165 71.5517 57.5273C65.8735 55.2114 61.8729 53.2084 59.55 51.5185C57.2916 49.7659 56.1625 47.6065 56.1625 45.0402C56.1625 44.4925 56.2043 43.9666 56.2879 43.4626L46.159 51.3367ZM66.1834 35.77C67.5049 35.5658 68.9394 35.4637 70.4871 35.4637C73.2616 35.4637 76.004 35.714 78.714 36.2148L83.5534 49.7346H87.9089L88.3928 31.7082C83.9344 30.6386 79.1377 29.9664 74.0026 29.6914L66.1834 35.77Z" fill="url(#paint17_angular_372_181)"/>
<path d="M81.6359 81.1638C81.6359 67.2044 55.1502 57.8206 56.1891 44.5938C55.8766 52.1632 68.8693 56.3509 69.9585 56.8659C74.2072 58.4342 78.2987 60.5141 79.8134 61.358C88.5944 65.5674 91.3442 71.2316 92.0331 76.5951C93.0343 87.3891 87.5707 91.4126 84.9104 93.577C80.3335 96.4905 75.6136 98.5162 64.8008 97.9889C55.9218 97.7448 48.4371 95.9458 45.8047 95.0768V76.5856L50.2547 76.5723C51.3446 79.6644 53.8527 86.8202 55.1657 90.7065C59.3741 91.972 66.9912 92.7477 74.44 90.4616C80.399 88.6328 81.7202 83.5011 81.6359 81.1638Z" fill="url(#paint18_angular_372_181)"/>
<path fill-rule="evenodd" clip-rule="evenodd" d="M6.388 4.31883C2.12933 7.19805 0 11.2352 0 16.4303C0 21.8758 1.41956 26.0382 4.25867 28.9174C7.09778 31.7966 12.1953 34.7697 19.5511 37.8367C24.9067 40.09 28.9718 42.2494 31.7464 44.315C33.6568 45.7371 34.9095 47.3374 35.5045 49.1156L44.9454 41.7764C44.902 41.6833 44.8578 41.5906 44.8128 41.4983C43.7159 39.1198 42.0382 37.0856 39.7798 35.3956C37.5214 33.7057 35.3921 32.3599 33.3918 31.3585C31.4561 30.2944 28.9718 29.1678 25.9392 27.9785C20.2609 25.6626 16.2604 23.6597 13.9375 21.9697C11.6791 20.2171 10.5499 18.0577 10.5499 15.4915C10.5499 12.4871 11.8081 10.1399 14.3246 8.44989C16.9056 6.75991 20.4222 5.91492 24.8745 5.91492C27.6491 5.91492 30.3914 6.16529 33.1015 6.66602L37.9408 20.1858H42.2963L42.7802 2.15942C36.7794 0.719805 30.1656 0 22.9387 0C16.1636 0 10.6467 1.43961 6.388 4.31883ZM11.4048 67.8505L18.4959 62.338C15.1196 62.2971 12.1483 61.8914 9.582 61.1209L4.64582 47.0377H0.193576V65.5336C4.1703 66.6651 7.90739 67.4374 11.4048 67.8505Z" fill="url(#paint19_angular_372_181)"/>
<path d="M39.371 20.1739C38.3317 13.1394 37.6619 7.26994 32.8029 6.64746C35.6945 14.4813 37.6521 20.1739 37.6521 20.1739L39.371 20.1739Z" fill="#976742"/>
<path fill-rule="evenodd" clip-rule="evenodd" d="M35.7064 48.9624L44.9554 41.7723C43.3016 38.1493 40.1228 34.6495 34.202 31.8112C32.6873 30.9673 28.5957 28.8873 24.347 27.319C24.2391 27.268 24.0143 27.1809 23.6972 27.0581C20.8139 25.941 10.2961 21.8664 10.5776 15.0469C10.0565 21.6823 16.4622 27.3505 22.9761 33.1144C28.6067 38.0968 34.3181 43.1506 35.7064 48.9624ZM11.4241 67.8391C6.1295 67.1702 2.00816 66.129 0.193237 65.5299V47.0388L4.64321 47.0254C5.73315 50.1176 8.24128 57.2734 9.55428 61.1597C11.7573 61.8221 14.8944 62.3504 18.4524 62.3754L11.4241 67.8391Z" fill="url(#paint20_angular_372_181)"/>
<path d="M2.92126 47.037C3.96058 54.0715 4.7401 60.4654 9.59912 61.0879C4.88516 47.6656 4.65758 47.037 4.65758 47.037L2.92126 47.037Z" fill="#BB8256"/>
<path d="M48.5338 76.5839C49.5731 83.6184 50.3526 90.0123 55.2117 90.6348C50.4977 77.2125 50.2701 76.5839 50.2701 76.5839L48.5338 76.5839Z" fill="#BB8256"/>
<path d="M85.2307 49.7394C84.1914 42.7049 83.5216 36.8354 78.6626 36.2129C81.5543 44.0467 83.5119 49.7394 83.5119 49.7394L85.2307 49.7394Z" fill="#976742"/>
<defs>
<linearGradient id="paint0_linear_372_181" x1="137.523" y1="-13.3074" x2="168.06" y2="-12.8994" gradientUnits="userSpaceOnUse">
<stop stop-color="#F8B179"/>
<stop offset="0.365248" stop-color="#7C5333"/>
<stop offset="1" stop-color="#F8B179"/>
</linearGradient>
<linearGradient id="paint1_linear_372_181" x1="172.859" y1="78.0161" x2="400.068" y2="211.486" gradientUnits="userSpaceOnUse">
<stop stop-color="#F8B179"/>
<stop offset="0.365248" stop-color="#7C5333"/>
<stop offset="1" stop-color="#F8B179"/>
</linearGradient>
<linearGradient id="paint2_linear_372_181" x1="297.477" y1="43.6583" x2="315.19" y2="44.5464" gradientUnits="userSpaceOnUse">
<stop stop-color="#F8B179"/>
<stop offset="0.365248" stop-color="#7C5333"/>
<stop offset="1" stop-color="#F8B179"/>
</linearGradient>
<linearGradient id="paint3_linear_372_181" x1="328.607" y1="43.7242" x2="346.156" y2="44.6066" gradientUnits="userSpaceOnUse">
<stop stop-color="#F8B179"/>
<stop offset="0.365248" stop-color="#7C5333"/>
<stop offset="1" stop-color="#F8B179"/>
</linearGradient>
<linearGradient id="paint4_linear_372_181" x1="343.757" y1="43.6583" x2="361.701" y2="44.5698" gradientUnits="userSpaceOnUse">
<stop stop-color="#F8B179"/>
<stop offset="0.365248" stop-color="#7C5333"/>
<stop offset="1" stop-color="#F8B179"/>
</linearGradient>
<linearGradient id="paint5_linear_372_181" x1="365.216" y1="42.5225" x2="373.012" y2="42.9876" gradientUnits="userSpaceOnUse">
<stop stop-color="#F8B179"/>
<stop offset="0.365248" stop-color="#7C5333"/>
<stop offset="1" stop-color="#F8B179"/>
</linearGradient>
<linearGradient id="paint6_linear_372_181" x1="375.846" y1="43.7292" x2="390.836" y2="44.3738" gradientUnits="userSpaceOnUse">
<stop stop-color="#F8B179"/>
<stop offset="0.365248" stop-color="#7C5333"/>
<stop offset="1" stop-color="#F8B179"/>
</linearGradient>
<linearGradient id="paint7_linear_372_181" x1="387.65" y1="43.6583" x2="405.363" y2="44.5464" gradientUnits="userSpaceOnUse">
<stop stop-color="#F8B179"/>
<stop offset="0.365248" stop-color="#7C5333"/>
<stop offset="1" stop-color="#F8B179"/>
</linearGradient>
<linearGradient id="paint8_linear_372_181" x1="405.401" y1="44.3417" x2="408.178" y2="44.4496" gradientUnits="userSpaceOnUse">
<stop stop-color="#F8B179"/>
<stop offset="0.365248" stop-color="#7C5333"/>
<stop offset="1" stop-color="#F8B179"/>
</linearGradient>
<linearGradient id="paint9_linear_372_181" x1="405.401" y1="43.967" x2="408.182" y2="43.9895" gradientUnits="userSpaceOnUse">
<stop stop-color="#F8B179"/>
<stop offset="0.365248" stop-color="#7C5333"/>
<stop offset="1" stop-color="#F8B179"/>
</linearGradient>
<linearGradient id="paint10_linear_372_181" x1="408.123" y1="43.6583" x2="427.331" y2="44.7031" gradientUnits="userSpaceOnUse">
<stop stop-color="#F8B179"/>
<stop offset="0.365248" stop-color="#7C5333"/>
<stop offset="1" stop-color="#F8B179"/>
</linearGradient>
<linearGradient id="paint11_linear_372_181" x1="358.678" y1="43.6583" x2="377.886" y2="44.7031" gradientUnits="userSpaceOnUse">
<stop stop-color="#F8B179"/>
<stop offset="0.365248" stop-color="#7C5333"/>
<stop offset="1" stop-color="#F8B179"/>
</linearGradient>
<linearGradient id="paint12_linear_372_181" x1="311.991" y1="43.6583" x2="331.199" y2="44.7031" gradientUnits="userSpaceOnUse">
<stop stop-color="#F8B179"/>
<stop offset="0.365248" stop-color="#7C5333"/>
<stop offset="1" stop-color="#F8B179"/>
</linearGradient>
<linearGradient id="paint13_linear_372_181" x1="424.312" y1="43.6583" x2="442.269" y2="44.5712" gradientUnits="userSpaceOnUse">
<stop stop-color="#F8B179"/>
<stop offset="0.365248" stop-color="#7C5333"/>
<stop offset="1" stop-color="#F8B179"/>
</linearGradient>
<linearGradient id="paint14_linear_372_181" x1="191.118" y1="-21.0874" x2="323.227" y2="-12.4334" gradientUnits="userSpaceOnUse">
<stop stop-color="#F8B179"/>
<stop offset="0.365248" stop-color="#7C5333"/>
<stop offset="1" stop-color="#F8B179"/>
</linearGradient>
<linearGradient id="paint15_linear_372_181" x1="89.9046" y1="12.7987" x2="73.6101" y2="93.0148" gradientUnits="userSpaceOnUse">
<stop stop-color="#F8B179"/>
<stop offset="0.46875" stop-color="#7C5333"/>
<stop offset="1" stop-color="#F8B179"/>
</linearGradient>
<linearGradient id="paint16_linear_372_181" x1="85.6886" y1="20.4374" x2="74.245" y2="99.0303" gradientUnits="userSpaceOnUse">
<stop stop-color="#F8B179"/>
<stop offset="0.46875" stop-color="#7C5333"/>
<stop offset="1" stop-color="#F8B179"/>
</linearGradient>
<radialGradient id="paint17_angular_372_181" cx="0" cy="0" r="1" gradientUnits="userSpaceOnUse" gradientTransform="translate(60.0379 49.7265) rotate(49.4471) scale(34.7292 27.9451)">
<stop offset="0.565241" stop-color="#D79766"/>
<stop offset="1" stop-color="#9A6A43"/>
</radialGradient>
<radialGradient id="paint18_angular_372_181" cx="0" cy="0" r="1" gradientUnits="userSpaceOnUse" gradientTransform="translate(77.4298 74.8627) rotate(-137.076) scale(34.7874 55.4193)">
<stop stop-color="#D79866"/>
<stop offset="1" stop-color="#8B5E3B"/>
</radialGradient>
<radialGradient id="paint19_angular_372_181" cx="0" cy="0" r="1" gradientUnits="userSpaceOnUse" gradientTransform="translate(14.4253 20.1776) rotate(49.4471) scale(34.7292 27.9451)">
<stop offset="0.565241" stop-color="#D79766"/>
<stop offset="1" stop-color="#9A6A43"/>
</radialGradient>
<radialGradient id="paint20_angular_372_181" cx="0" cy="0" r="1" gradientUnits="userSpaceOnUse" gradientTransform="translate(31.8183 45.3158) rotate(-137.076) scale(34.7874 55.4193)">
<stop stop-color="#D79866"/>
<stop offset="1" stop-color="#8B5E3B"/>
</radialGradient>
</defs>
</svg>
