<svg width="auto" height="auto" viewBox="0 0 423 100" fill="none" xmlns="http://www.w3.org/2000/svg">
<path d="M133.85 64.4332V58.3514H127.51V54.6852H133.85V48.3878H137.603V54.6852H143.943V58.3514H137.603V64.4332H133.85Z" fill="url(#paint0_linear_372_181)"/>
<path d="M20.7924 0.838867H23.3311V5.25915H20.7924V0.838867Z" fill="#D59665"/>
<path d="M59.1349 94.9453H61.6736V99.3656H59.1349V94.9453Z" fill="#D59665"/>
<path d="M20.7924 12.466C21.8783 12.2893 22.4029 12.3255 23.3311 12.3841V30.4122L20.7924 29.4966V12.466Z" fill="#D59665"/>
<path d="M23.3312 60.7967C22.2453 60.9734 21.7856 61.1133 20.7924 61.1133L20.7924 42.7057L23.3312 43.6213L23.3312 60.7967Z" fill="#D59665"/>
<path d="M65.8307 22.3955L66.951 24.1174L16.0481 67.1569L10.4145 67.0052L65.8307 22.3955Z" fill="url(#paint1_linear_372_181)"/>
<path d="M22.606 30.1507V12.391V12.3467C22.6894 12.3467 23.1229 12.3762 23.3292 12.391V30.4106L22.606 30.1507Z" fill="#A7744B"/>
<path d="M20.7917 42.7073L21.515 42.9342L21.515 58.072C21.3769 58.1802 21.2085 58.319 20.7917 58.6465L20.7917 42.7073Z" fill="#A7744B"/>
<path d="M58.3637 32.8514L64.7848 32.8517L8.46766 77.9301L7.47108 76.336L58.3637 32.8514Z" fill="url(#paint2_linear_372_181)"/>
<path d="M59.1283 38.9191C60.2142 38.7424 60.7388 38.7786 61.667 38.8372V56.8653L59.1283 55.9497V38.9191Z" fill="#D59665"/>
<path d="M61.667 86.9721C60.7166 87.2484 60.1428 87.4397 59.1282 87.5674L59.1282 69.1598L61.667 70.0754L61.667 86.9721Z" fill="#D59665"/>
<path d="M60.9431 56.6019V38.8422V38.7979C61.0265 38.7979 61.4601 38.8274 61.6664 38.8422V56.8617L60.9431 56.6019Z" fill="#A7744B"/>
<path d="M59.8521 69.4246L59.8521 87.5222L59.8521 87.5332C59.7686 87.5332 59.3351 87.5774 59.1288 87.5623L59.1288 69.1598L59.8521 69.4246Z" fill="#A7744B"/>
<path fill-rule="evenodd" clip-rule="evenodd" d="M40.5838 52.2203C41.1505 54.8218 42.2252 56.9499 43.8079 58.6045C46.2734 61.1821 50.7 63.8437 57.0878 66.5893C61.7386 68.6065 65.2687 70.5397 67.6781 72.3887C70.0876 74.2379 71.2923 76.4232 71.2923 78.9447C71.2923 82.2506 69.9475 84.6881 67.2579 86.257C64.5683 87.7699 61.0382 88.5264 56.6676 88.5264C53.5297 88.5264 50.7841 88.1621 48.4307 87.4337L44.1441 74.8262H40.2778V91.3841C44.4803 92.6168 48.3747 93.3732 51.9608 93.6534C55.603 93.9336 58.2085 94.0737 59.7774 94.0737C65.6049 94.1297 70.4518 92.7569 74.3181 89.9552C78.4646 86.9294 80.5378 82.6148 80.5378 77.0115C80.5378 74.3779 80.0335 71.9965 79.0249 69.8672C78.0723 67.738 76.6155 65.9169 74.6543 64.404C72.6931 62.8911 70.844 61.6864 69.107 60.7898C67.426 59.8373 65.2687 58.8287 62.6351 57.764C57.7042 55.6908 54.2301 53.8977 52.2129 52.3848C50.2518 50.8159 49.2712 48.8828 49.2712 46.5854C49.2712 46.0942 49.3076 45.6226 49.3805 45.1706L40.5838 52.2203ZM57.9699 38.287C59.1185 38.1039 60.3653 38.0123 61.7106 38.0123C64.12 38.0123 66.5014 38.2364 68.8548 38.6847L73.0573 50.7879H76.8396L77.2598 34.6503C73.3875 33.6926 69.2212 33.0908 64.7609 32.8447L57.9699 38.287Z" fill="url(#paint3_angular_372_181)"/>
<path d="M71.3922 78.9228C71.3922 66.426 48.3922 58.0255 49.2944 46.1846C49.023 52.9609 60.3058 56.7098 61.2516 57.1708C64.9412 58.5748 68.4943 60.4368 69.8096 61.1923C77.4349 64.9606 79.8229 70.0313 80.4211 74.8328C81.2905 84.4958 76.5459 88.0977 74.2358 90.0353C70.2612 92.6436 66.1625 94.4569 56.7728 93.985C49.0622 93.7664 42.5626 92.1559 40.2766 91.3779V74.8243L44.1409 74.8124C45.0874 77.5805 47.2655 83.9865 48.4057 87.4656C52.0602 88.5985 58.6748 89.2929 65.1433 87.2463C70.3181 85.6091 71.4654 81.0152 71.3922 78.9228Z" fill="url(#paint4_angular_372_181)"/>
<path fill-rule="evenodd" clip-rule="evenodd" d="M6.04718 10.129C2.34898 12.7065 0.499878 16.3207 0.499878 20.9715C0.499878 25.8464 1.73261 29.5726 4.19808 32.1501C6.66355 34.7276 11.0902 37.3892 17.478 40.1349C22.1288 42.1521 25.6589 44.0852 28.0683 45.9343C29.7272 47.2074 30.815 48.6399 31.3318 50.2318L39.5301 43.6616C39.4925 43.5783 39.4542 43.4954 39.415 43.4128C38.4625 41.2835 37.0056 39.4625 35.0444 37.9496C33.0833 36.4367 31.2342 35.2319 29.4971 34.3354C27.8161 33.3828 25.6589 32.3742 23.0253 31.3096C18.0944 29.2364 14.6203 27.4433 12.6031 25.9304C10.6419 24.3615 9.66133 22.4283 9.66133 20.131C9.66133 17.4413 10.754 15.3401 12.9393 13.8272C15.1806 12.3143 18.2344 11.5578 22.1007 11.5578C24.5102 11.5578 26.8916 11.782 29.245 12.2302L33.4475 24.3335H37.2297L37.65 8.19585C32.4389 6.90708 26.6955 6.2627 20.4197 6.2627C14.5362 6.2627 9.74538 7.55146 6.04718 10.129ZM10.4035 67.0037L16.5613 62.0688C13.6294 62.0322 11.0493 61.669 8.82083 60.9793L4.53428 48.3718H0.667978V64.9296C4.12124 65.9426 7.36642 66.6339 10.4035 67.0037Z" fill="url(#paint5_angular_372_181)"/>
<path d="M34.6896 24.322C33.787 18.0246 33.2054 12.7701 28.9858 12.2129C31.4969 19.2259 33.1969 24.322 33.1969 24.322L34.6896 24.322Z" fill="#976742"/>
<path fill-rule="evenodd" clip-rule="evenodd" d="M31.5066 50.0943L39.5383 43.6576C38.1022 40.4142 35.3418 37.2811 30.2001 34.7401C28.8848 33.9846 25.3317 32.1227 21.6421 30.7187C21.5484 30.673 21.3532 30.595 21.0779 30.4851C18.5739 29.4851 9.44039 25.8374 9.68486 19.7324C9.23228 25.6726 14.795 30.7469 20.4517 35.9069C25.3413 40.3671 30.301 44.8914 31.5066 50.0943ZM10.42 66.9931C5.82218 66.3942 2.24319 65.4621 0.667114 64.9258V48.3722L4.53144 48.3602C5.47794 51.1284 7.65599 57.5344 8.79619 61.0135C10.7093 61.6065 13.4335 62.0794 16.5234 62.1018L10.42 66.9931Z" fill="url(#paint6_angular_372_181)"/>
<path d="M3.03704 48.3706C3.93959 54.668 4.61651 60.392 8.83606 60.9492C4.74248 48.9333 4.54485 48.3706 4.54485 48.3706L3.03704 48.3706Z" fill="#BB8256"/>
<path d="M42.6463 74.8228C43.5488 81.1202 44.2258 86.8441 48.4453 87.4014C44.3517 75.3855 44.1541 74.8228 44.1541 74.8228L42.6463 74.8228Z" fill="#BB8256"/>
<path d="M74.5136 50.7898C73.611 44.4924 73.0294 39.2379 68.8098 38.6807C71.3209 45.6937 73.0209 50.7898 73.0209 50.7898L74.5136 50.7898Z" fill="#976742"/>
<path d="M208.629 85.6226L207.407 91.9065C207.32 92.3474 207.274 92.795 207.269 93.244C207.229 93.5143 207.254 93.7898 207.34 94.0495C207.427 94.3093 207.574 94.5464 207.769 94.7429C207.965 94.9393 208.204 95.09 208.468 95.1834C208.733 95.2768 209.015 95.3104 209.295 95.2818C210.785 95.2818 211.887 94.3033 212.34 91.9424L213.58 85.6585H214.922L213.682 91.9424C213.053 95.1202 211.433 96.3949 209.12 96.3949C208.688 96.4345 208.253 96.3806 207.846 96.2371C207.438 96.0936 207.069 95.864 206.764 95.5651C206.46 95.2661 206.227 94.9052 206.084 94.5084C205.941 94.1117 205.89 93.689 205.936 93.2709C205.938 92.7802 205.985 92.2906 206.075 91.8077L207.287 85.6226H208.629ZM215.56 96.2244L216.606 90.8382C216.773 89.9944 216.884 89.2583 216.967 88.6299H218.142L217.93 90.0572H217.985C218.27 89.5834 218.674 89.1874 219.159 88.9063C219.645 88.6253 220.196 88.4684 220.761 88.4503C221.001 88.4299 221.242 88.459 221.47 88.5357C221.697 88.6124 221.905 88.7349 222.08 88.8953C222.255 89.0556 222.393 89.25 222.484 89.4658C222.576 89.6815 222.62 89.9137 222.612 90.147C222.895 89.6491 223.307 89.231 223.806 88.9336C224.306 88.6362 224.877 88.4697 225.463 88.4503C225.724 88.4488 225.982 88.5009 226.221 88.6032C226.46 88.7055 226.674 88.8557 226.849 89.044C227.024 89.2322 227.155 89.4542 227.236 89.6954C227.316 89.9365 227.342 90.1914 227.313 90.4432C227.309 90.8769 227.266 91.3095 227.184 91.7359L226.314 96.2244H225.018L225.86 91.8436C225.931 91.5189 225.969 91.1881 225.971 90.8562C225.971 90.0572 225.666 89.5365 224.796 89.5365C223.926 89.5365 222.686 90.6317 222.344 92.3284L221.585 96.2244H220.299L221.169 91.7359C221.231 91.4403 221.265 91.1398 221.27 90.8382C221.27 90.2008 221.085 89.5365 220.104 89.5365C219.123 89.5365 217.902 90.7933 217.596 92.4092L216.865 96.2244H215.56ZM234.994 89.5994C234.692 89.5258 234.381 89.4896 234.069 89.4917C232.042 89.4917 230.367 91.5474 230.367 93.648C230.367 94.4918 230.682 95.3267 231.718 95.3267C232.755 95.3267 234.152 93.9173 234.495 91.8885L234.948 89.5994H234.994ZM234.124 96.2244C234.124 95.7665 234.208 95.0484 234.3 94.2584C233.43 95.8294 232.366 96.3949 231.246 96.3949C230.924 96.3871 230.606 96.314 230.314 96.1805C230.022 96.0469 229.762 95.8558 229.551 95.6193C229.339 95.3828 229.18 95.1061 229.085 94.8068C228.99 94.5076 228.96 94.1924 228.998 93.8814C228.988 93.182 229.12 92.4876 229.388 91.838C229.655 91.1885 230.052 90.5965 230.556 90.0961C231.06 89.5957 231.661 89.1967 232.324 88.922C232.987 88.6473 233.7 88.5022 234.421 88.4952C235.132 88.4985 235.84 88.6013 236.521 88.8004L235.725 92.7503C235.488 93.9088 235.377 95.0882 235.392 96.2692L234.124 96.2244ZM246.322 90.4342C246.322 89.8148 245.84 89.4737 245.119 89.4737C243.841 89.4737 242.888 90.6856 242.564 91.8795C244.665 91.8795 246.322 91.6192 246.322 90.4432V90.4342ZM246.608 95.8204C245.814 96.2313 244.926 96.4413 244.027 96.4308C241.954 96.4308 241.047 95.0484 241.047 93.3697C241.047 91.0806 242.796 88.4862 245.313 88.4862C245.6 88.4427 245.894 88.4592 246.175 88.5347C246.455 88.6102 246.716 88.7428 246.939 88.9238C247.163 89.1048 247.344 89.33 247.47 89.5843C247.597 89.8385 247.666 90.1161 247.673 90.3983C247.673 92.3912 245.359 92.9298 242.463 92.876C242.399 93.363 242.453 93.8578 242.62 94.3213C242.77 94.6441 243.017 94.9149 243.33 95.0977C243.642 95.2806 244.005 95.3667 244.369 95.3446C245.106 95.3378 245.831 95.156 246.479 94.815L246.664 95.7845L246.608 95.8204ZM248.617 96.2603L249.672 90.8741C249.829 90.0303 249.949 89.2942 250.023 88.6658H251.208L250.995 90.0931C251.282 89.6209 251.686 89.2263 252.171 88.9455C252.657 88.6647 253.207 88.5068 253.771 88.4862C254.011 88.4658 254.252 88.4949 254.48 88.5716C254.707 88.6483 254.915 88.7709 255.09 88.9312C255.265 89.0915 255.402 89.2859 255.494 89.5017C255.586 89.7174 255.63 89.9496 255.622 90.1829C255.907 89.6806 256.323 89.2595 256.828 88.9618C257.333 88.6641 257.909 88.5001 258.5 88.4862C258.761 88.4847 259.02 88.5368 259.259 88.6391C259.498 88.7414 259.712 88.8916 259.886 89.0799C260.061 89.2681 260.193 89.4901 260.273 89.7313C260.353 89.9724 260.38 90.2273 260.351 90.4791C260.345 90.9124 260.305 91.3446 260.231 91.7718L259.352 96.2603H258.102L258.944 91.8795C259.011 91.5541 259.048 91.2237 259.055 90.8921C259.055 90.0931 258.75 89.5725 257.871 89.5725C256.992 89.5725 255.752 90.6676 255.428 92.3643L254.669 96.2603H253.373L254.299 91.7718C254.358 91.476 254.389 91.1755 254.391 90.8741C254.391 90.2367 254.215 89.5725 253.225 89.5725C252.235 89.5725 251.032 90.8292 250.717 92.4451L249.995 96.2603H248.617ZM263.516 94.9855C263.95 95.2832 264.475 95.4289 265.006 95.3985C266.736 95.3985 268.189 93.3248 268.189 91.3319C268.189 90.533 267.819 89.5365 266.69 89.5365C265.561 89.5365 264.33 90.7125 263.923 92.8042L263.534 94.9227L263.516 94.9855ZM261.313 99.3663L262.887 91.3589C263.044 90.4612 263.211 89.4198 263.322 88.6658H264.552L264.33 90.0572C264.629 89.5955 265.037 89.2091 265.519 88.9298C266.002 88.6505 266.546 88.4861 267.107 88.4503C268.809 88.4503 269.513 89.8059 269.513 91.1973C269.513 93.8904 267.542 96.3949 264.941 96.3949C264.352 96.4241 263.765 96.3034 263.238 96.0448L262.609 99.3304L261.313 99.3663ZM270.808 96.2244L271.734 91.323C271.928 90.3355 272.058 89.3301 272.141 88.6299H273.325C273.251 89.1595 273.196 89.6892 273.113 90.2727C273.296 89.784 273.619 89.3559 274.043 89.0381C274.467 88.7202 274.976 88.5258 275.509 88.4773C275.633 88.468 275.756 88.468 275.88 88.4773L275.62 89.761C275.503 89.7539 275.386 89.7539 275.269 89.761C274.103 89.761 273.066 91.1255 272.724 92.8939L272.076 96.2423L270.808 96.2244ZM281.534 90.4342C281.534 89.8148 281.053 89.4737 280.34 89.4737C279.054 89.4737 278.11 90.6856 277.786 91.8795C279.887 91.8795 281.488 91.6192 281.488 90.4432L281.534 90.4342ZM281.821 95.8204C281.027 96.2324 280.139 96.4425 279.239 96.4308C277.166 96.4308 276.259 95.0484 276.259 93.3697C276.259 91.0806 278.008 88.4862 280.534 88.4862C280.818 88.4496 281.106 88.4713 281.381 88.55C281.655 88.6288 281.909 88.7627 282.127 88.9431C282.344 89.1235 282.52 89.3464 282.643 89.5971C282.765 89.8478 282.832 90.1209 282.839 90.3983C282.839 92.3912 280.525 92.9298 277.629 92.876C277.564 93.3637 277.621 93.8595 277.795 94.3213C277.942 94.6441 278.188 94.9154 278.499 95.0984C278.81 95.2814 279.172 95.3674 279.535 95.3446C280.272 95.3378 280.997 95.156 281.645 94.815L281.83 95.7845L281.821 95.8204ZM283.894 94.9227C284.407 95.2098 284.986 95.3701 285.578 95.3895C285.761 95.408 285.945 95.3902 286.121 95.3372C286.296 95.2842 286.458 95.197 286.598 95.0811C286.737 94.9651 286.851 94.8228 286.932 94.6629C287.013 94.5029 287.059 94.3286 287.068 94.1507C287.068 93.5582 286.79 93.1991 285.985 92.7593C285.59 92.5942 285.248 92.327 284.999 91.9866C284.749 91.6462 284.6 91.2459 284.569 90.8292C284.585 90.4837 284.673 90.1449 284.83 89.8343C284.987 89.5237 285.208 89.2479 285.481 89.0245C285.753 88.801 286.07 88.6346 286.411 88.5358C286.753 88.437 287.112 88.4079 287.466 88.4503C288.038 88.4335 288.604 88.5668 289.104 88.8363L288.734 89.8148C288.316 89.5935 287.849 89.4763 287.373 89.4737C287.203 89.4551 287.031 89.4706 286.868 89.5191C286.704 89.5677 286.552 89.6483 286.422 89.7561C286.292 89.8638 286.186 89.9963 286.111 90.1454C286.036 90.2945 285.993 90.457 285.985 90.6228C285.985 91.1703 286.355 91.5205 287.049 91.8885C287.457 92.0615 287.809 92.3379 288.068 92.6887C288.327 93.0394 288.483 93.4515 288.521 93.8814C288.521 95.4793 287.179 96.3949 285.532 96.3949C284.844 96.4022 284.169 96.215 283.588 95.8563L283.959 94.9048L283.894 94.9227ZM296.248 89.6173C295.946 89.5437 295.635 89.5076 295.323 89.5096C293.296 89.5096 291.621 91.5653 291.621 93.6659C291.621 94.5098 291.926 95.3446 292.963 95.3446C293.999 95.3446 295.406 93.9352 295.795 91.9065L296.239 89.6173H296.248ZM295.378 96.2423C295.404 95.5843 295.466 94.9281 295.563 94.2764C294.703 95.8473 293.638 96.4129 292.519 96.4129C292.192 96.409 291.87 96.3382 291.573 96.2052C291.276 96.0722 291.012 95.88 290.797 95.641C290.582 95.4021 290.421 95.1218 290.326 94.8186C290.23 94.5154 290.202 94.196 290.242 93.8814C290.232 93.182 290.365 92.4876 290.633 91.838C290.9 91.1885 291.297 90.5965 291.801 90.0961C292.305 89.5957 292.905 89.1967 293.568 88.922C294.232 88.6473 294.944 88.5022 295.665 88.4952C296.377 88.4985 297.084 88.6013 297.766 88.8004L296.979 92.7503C296.74 93.9086 296.625 95.0879 296.637 96.2692L295.378 96.2423ZM308.334 89.8328C307.94 89.6151 307.492 89.5064 307.039 89.5186C305.188 89.5186 303.707 91.4486 303.707 93.4774C303.707 94.3751 304.031 95.3446 305.179 95.3446C306.326 95.3446 307.464 94.2046 307.797 92.49L308.334 89.7969V89.8328ZM310.601 85.084L308.889 93.8185C308.72 94.6122 308.606 95.4159 308.547 96.2244H307.316L307.529 94.7162C307.255 95.2046 306.855 95.6159 306.369 95.91C305.882 96.2042 305.326 96.3712 304.753 96.3949C303.235 96.3949 302.411 95.183 302.411 93.63C302.411 90.9369 304.475 88.4503 307.242 88.4503C307.722 88.4464 308.198 88.5381 308.64 88.7196L309.334 85.1289L310.601 85.084ZM312.591 93.2261C312.591 94.4649 313.285 95.3626 314.442 95.3626C316.024 95.3626 317.218 93.3787 317.218 91.6102C317.252 91.3512 317.23 91.0882 317.153 90.838C317.076 90.5877 316.947 90.3557 316.773 90.1565C316.599 89.9574 316.384 89.7954 316.142 89.681C315.9 89.5665 315.636 89.5021 315.367 89.4917C313.683 89.4917 312.591 91.4845 312.591 93.2261ZM318.597 91.6192C318.597 93.9622 316.876 96.3949 314.257 96.3949C313.838 96.4062 313.421 96.3319 313.034 96.1769C312.646 96.0218 312.297 95.7894 312.008 95.4948C311.719 95.2002 311.497 94.85 311.357 94.4669C311.217 94.0837 311.161 93.6763 311.194 93.2709C311.194 90.7754 312.989 88.4503 315.534 88.4503C315.957 88.4384 316.378 88.5138 316.769 88.6715C317.16 88.8292 317.512 89.0657 317.802 89.3653C318.091 89.6649 318.312 90.0208 318.449 90.4093C318.586 90.7979 318.637 91.2103 318.597 91.6192ZM331.192 95.7665C330.212 96.1359 329.171 96.3276 328.12 96.3321C327.463 96.3769 326.803 96.2821 326.188 96.0541C325.573 95.8262 325.016 95.4707 324.557 95.0125C323.802 94.1466 323.406 93.0396 323.446 91.9065C323.422 91.0619 323.576 90.2214 323.899 89.4367C324.222 88.652 324.706 87.9397 325.324 87.3435C325.941 86.7474 326.677 86.28 327.488 85.9702C328.298 85.6603 329.165 85.5145 330.035 85.5418C330.92 85.5016 331.801 85.6646 332.608 86.0176L332.173 87.1217C331.453 86.8033 330.669 86.6468 329.878 86.6639C328.623 86.6518 327.413 87.1119 326.5 87.9476C325.977 88.4575 325.563 89.0625 325.282 89.7281C325.001 90.3936 324.858 91.1065 324.862 91.8257C324.862 93.8724 325.917 95.2189 328.342 95.2189C328.913 95.2271 329.479 95.1232 330.008 94.9137L330.618 91.7628H328.407L328.619 90.7035H332.136L331.155 95.7665H331.192ZM333.524 96.2244L334.45 91.323C334.644 90.3355 334.774 89.3301 334.857 88.6299H336.032C335.967 89.1595 335.903 89.6892 335.819 90.2727C336.005 89.7857 336.329 89.3593 336.753 89.0419C337.176 88.7245 337.683 88.5289 338.216 88.4773C338.342 88.4675 338.469 88.4675 338.596 88.4773L338.364 89.7699C338.244 89.763 338.123 89.763 338.003 89.7699C336.837 89.7699 335.801 91.1344 335.468 92.9029L334.82 96.2513L333.524 96.2244ZM346.619 88.6299L345.573 94.016C345.407 94.9137 345.296 95.605 345.222 96.2333H344L344.213 94.806C343.916 95.2691 343.509 95.656 343.026 95.9342C342.543 96.2123 341.998 96.3734 341.437 96.4039C340.428 96.4039 339.373 95.9371 339.373 94.2046C339.385 93.7763 339.434 93.3499 339.521 92.9298L340.363 88.6389H341.705L340.881 92.876C340.792 93.241 340.743 93.6141 340.733 93.9891C340.733 94.7701 341.076 95.2997 342.001 95.2997C342.927 95.2997 344.213 94.2046 344.537 92.5259L345.296 88.6389L346.619 88.6299ZM349.33 94.9137C349.761 95.2114 350.283 95.3572 350.811 95.3267C352.542 95.3267 353.995 93.253 353.995 91.2601C353.995 90.4612 353.624 89.4647 352.495 89.4647C351.366 89.4647 350.117 90.6407 349.719 92.7593L349.33 94.8778V94.9137ZM347.128 99.2945L348.692 91.287C348.859 90.3894 349.016 89.348 349.136 88.594H350.395L350.173 90.0393C350.471 89.5775 350.879 89.1912 351.361 88.9118C351.844 88.6325 352.388 88.4682 352.949 88.4324C354.652 88.4324 355.364 89.7879 355.364 91.1793C355.364 93.8724 353.384 96.377 350.783 96.377C350.197 96.4075 349.613 96.2867 349.09 96.0269L348.461 99.3124L347.128 99.2945ZM358.187 93.1902C358.187 94.429 358.881 95.3267 360.038 95.3267C361.62 95.3267 362.814 93.3428 362.814 91.5743C362.814 90.6766 362.397 89.4557 360.963 89.4557C359.279 89.4557 358.141 91.4486 358.187 93.1902ZM364.193 91.5833C364.193 93.9263 362.481 96.359 359.853 96.359C359.434 96.369 359.019 96.2938 358.632 96.1382C358.246 95.9825 357.898 95.75 357.61 95.4555C357.322 95.1611 357.101 94.8113 356.961 94.4288C356.822 94.0463 356.766 93.6396 356.799 93.235C356.799 90.7395 358.594 88.4144 361.13 88.4144C361.553 88.4025 361.974 88.4778 362.365 88.6356C362.756 88.7933 363.108 89.0298 363.397 89.3294C363.687 89.629 363.907 89.9849 364.045 90.3734C364.182 90.762 364.232 91.1744 364.193 91.5833ZM372.188 85.6226L371.263 90.1111H376.307L377.176 85.6226H378.537L376.445 96.2064H375.104L376.029 91.2242H371.013L370.088 96.2064H368.746L370.847 85.6226H372.188ZM384.524 90.4163C384.524 89.7969 384.043 89.4557 383.331 89.4557C382.053 89.4557 381.1 90.6676 380.776 91.8616C382.877 91.8616 384.478 91.6012 384.478 90.4253L384.524 90.4163ZM384.82 95.8024C384.024 96.2145 383.132 96.4245 382.229 96.4129C380.156 96.4129 379.259 95.0304 379.259 93.3517C379.259 91.0626 381.008 88.4683 383.525 88.4683C383.811 88.4327 384.101 88.4564 384.377 88.5379C384.653 88.6193 384.908 88.7567 385.125 88.9409C385.342 89.125 385.516 89.3518 385.636 89.6061C385.756 89.8605 385.818 90.1366 385.82 90.4163C385.82 92.4092 383.506 92.9478 380.619 92.8939C380.551 93.3809 380.605 93.8768 380.776 94.3392C380.925 94.6628 381.172 94.9344 381.485 95.1174C381.798 95.3003 382.161 95.3859 382.525 95.3626C383.26 95.3547 383.981 95.1729 384.626 94.8329L384.82 95.8024ZM386.829 96.2423L387.754 91.3409C387.948 90.3534 388.078 89.348 388.161 88.6478H389.337C389.272 89.1775 389.207 89.7071 389.133 90.2906H389.179C389.363 89.802 389.685 89.3738 390.109 89.056C390.534 88.7382 391.042 88.5437 391.576 88.4952C391.699 88.4859 391.823 88.4859 391.946 88.4952L391.687 89.7789C391.567 89.772 391.446 89.772 391.326 89.7789C390.16 89.7789 389.133 91.1434 388.791 92.9119L388.143 96.2603L386.829 96.2423ZM394.362 88.6478L395.046 92.9747C395.157 93.8724 395.259 94.42 395.287 94.8419H395.333C395.5 94.438 395.713 93.9442 396.157 93.0465L398.517 88.6299H399.988L395.639 96.2244H394.352L392.964 88.6299L394.362 88.6478ZM406.096 89.6173C405.793 89.5448 405.482 89.5087 405.171 89.5096C403.153 89.5096 401.469 91.5653 401.469 93.6659C401.469 94.5098 401.774 95.3446 402.811 95.3446C403.847 95.3446 405.254 93.9352 405.643 91.9065L406.096 89.6173ZM405.217 96.2423C405.217 95.7845 405.3 95.0663 405.393 94.2764C404.532 95.8473 403.468 96.4129 402.348 96.4129C402.026 96.4038 401.71 96.3298 401.419 96.1958C401.128 96.0617 400.869 95.8704 400.658 95.634C400.448 95.3976 400.29 95.1214 400.195 94.8227C400.101 94.5241 400.071 94.2097 400.108 93.8993C400.097 93.2004 400.229 92.5062 400.495 91.8567C400.762 91.2072 401.158 90.6151 401.661 90.1146C402.164 89.6141 402.764 89.2149 403.427 88.9401C404.09 88.6653 404.802 88.5202 405.522 88.5132C406.234 88.5154 406.942 88.6182 407.623 88.8184L406.836 92.7682C406.592 93.9259 406.477 95.1057 406.494 96.2872L405.217 96.2423ZM408.807 96.2423L410.991 85.093H412.333L410.14 96.2423H408.807Z" fill="url(#paint7_linear_372_181)"/>
<path fill-rule="evenodd" clip-rule="evenodd" d="M288.272 48.1504C285.856 48.1504 283.385 48.6082 283.385 51.9835V54.0393C283.385 56.5438 284.801 57.8724 287.494 57.8724H291.085C294.13 57.8724 295.379 56.9029 295.379 54.515V54.1111H293.611V54.5599C293.611 55.7539 292.769 56.3553 291.029 56.3553H288.392C286.541 56.3553 285.31 55.9514 285.31 53.9764V52.0374C285.31 49.865 286.615 49.6854 288.087 49.6854H291.011C292.806 49.6854 293.5 50.1702 293.5 51.427V51.7861H295.268V51.3911C295.268 49.2456 293.824 48.1504 290.992 48.1504H288.272Z" fill="url(#paint8_linear_372_181)"/>
<path fill-rule="evenodd" clip-rule="evenodd" d="M319.958 48.1504C318.181 48.1504 316.941 48.4466 316.256 49.6047V48.294H314.489V57.7288H316.34V52.4055C316.34 50.4216 317.006 49.7124 320.772 49.7124H321.18C324.27 49.7124 324.52 50.6101 324.52 51.795V57.7557H326.371V51.3911C326.371 50.1792 325.844 48.1504 322.299 48.1504H319.958Z" fill="url(#paint9_linear_372_181)"/>
<path fill-rule="evenodd" clip-rule="evenodd" d="M334.775 48.1504C331.175 48.1504 329.843 48.8147 329.843 50.6011V51.1397C329.843 52.9351 330.768 53.7251 333.054 53.7251H337.959C339.856 53.7251 339.985 54.1919 339.985 54.9459C339.985 56.2296 339.458 56.3374 336.978 56.3374H333.572C331.823 56.3374 331.471 55.7808 331.471 54.8741V54.2906H329.704V54.9818C329.704 57.8724 332.091 57.8724 334.405 57.8724H337.329C339.023 57.8724 341.855 57.8724 341.855 55.0806C341.855 52.2888 340.059 52.19 337.699 52.19H333.498C331.841 52.19 331.712 51.7501 331.712 51.1397V50.7986C331.712 49.9009 332.036 49.6854 334.349 49.6854H337.126C338.902 49.6854 339.689 49.7303 339.689 50.9781V51.1128L339.828 51.2026H341.457V50.6101C341.457 49.1468 340.735 48.1773 337.218 48.1773L334.775 48.1504Z" fill="url(#paint10_linear_372_181)"/>
<path fill-rule="evenodd" clip-rule="evenodd" d="M352.468 43.5656L349.497 47.1564H351.034C351.135 47.1564 354.541 43.799 354.541 43.799L354.782 43.5566L352.468 43.5656Z" fill="url(#paint11_linear_372_181)"/>
<path fill-rule="evenodd" clip-rule="evenodd" d="M365.85 48.1522C365.309 48.1145 364.768 48.2158 364.28 48.4459C363.793 48.6761 363.377 49.0268 363.074 49.4629V48.2959H361.306V57.7306H363.157V51.7699C363.153 51.477 363.214 51.1867 363.336 50.9187C363.458 50.6506 363.638 50.4111 363.863 50.2162C364.089 50.0213 364.355 49.8757 364.643 49.7891C364.932 49.7025 365.236 49.6769 365.535 49.7142H366.516C369.293 49.7142 369.691 50.0105 369.691 52.2008V52.7305H371.449V51.5096C371.449 49.1217 370.301 48.1971 367.349 48.1971L365.85 48.1522Z" fill="url(#paint12_linear_372_181)"/>
<path fill-rule="evenodd" clip-rule="evenodd" d="M378.445 48.1504C376.03 48.1504 373.559 48.6082 373.559 51.9835V54.0393C373.559 56.5438 374.975 57.8724 377.668 57.8724H381.259C384.303 57.8724 385.553 56.9029 385.553 54.515V54.1111H383.785V54.5599C383.785 55.7539 382.934 56.3553 381.203 56.3553H378.519C376.669 56.3553 375.438 55.9514 375.438 53.9764V52.0374C375.438 49.865 376.743 49.6854 378.214 49.6854H381.138C382.924 49.6854 383.628 50.1702 383.628 51.427V51.7861H385.386V51.3911C385.386 49.2456 383.952 48.1504 381.12 48.1504H378.445Z" fill="url(#paint13_linear_372_181)"/>
<path fill-rule="evenodd" clip-rule="evenodd" d="M388.857 44.4531V46.4191H390.735V44.4531H388.857Z" fill="url(#paint14_linear_372_181)"/>
<path fill-rule="evenodd" clip-rule="evenodd" d="M388.857 48.2969V57.7316H390.735V48.2969H388.857Z" fill="url(#paint15_linear_372_181)"/>
<path fill-rule="evenodd" clip-rule="evenodd" d="M401.922 48.1504H399.646C397.157 48.1504 394.278 48.5903 394.278 52.0015V54.0213C394.278 57.4415 397.157 57.8724 399.646 57.8724H401.922C404.421 57.8724 407.29 57.4415 407.29 54.0213V52.0015C407.29 48.5903 404.421 48.1504 401.922 48.1504ZM405.411 53.9315C405.411 55.9334 404.264 56.3374 402.404 56.3374H399.165C397.314 56.3374 396.157 55.9334 396.157 53.9315V52.0913C396.157 50.0894 397.314 49.6854 399.165 49.6854H402.404C404.255 49.6854 405.411 50.0894 405.411 52.0913V53.9315Z" fill="url(#paint16_linear_372_181)"/>
<path fill-rule="evenodd" clip-rule="evenodd" d="M352.478 48.1504H350.201C347.703 48.1504 344.834 48.5903 344.834 52.0015V54.0213C344.834 57.4415 347.703 57.8724 350.201 57.8724H352.478C354.976 57.8724 357.845 57.4415 357.845 54.0213V52.0015C357.845 48.5903 354.976 48.1504 352.478 48.1504ZM355.948 53.9315C355.948 55.9334 354.801 56.3374 352.94 56.3374H349.701C347.851 56.3374 346.694 55.9334 346.694 53.9315V52.0913C346.694 50.0894 347.841 49.6854 349.701 49.6854H352.94C354.791 49.6854 355.948 50.0894 355.948 52.0913V53.9315Z" fill="url(#paint17_linear_372_181)"/>
<path fill-rule="evenodd" clip-rule="evenodd" d="M305.79 48.1504H303.514C301.015 48.1504 298.146 48.5903 298.146 52.0015V54.0213C298.146 57.4415 301.015 57.8724 303.514 57.8724H305.79C308.289 57.8724 311.158 57.4415 311.158 54.0213V52.0015C311.158 48.5903 308.289 48.1504 305.79 48.1504ZM309.279 53.9315C309.279 55.9334 308.132 56.3374 306.272 56.3374H303.033C301.182 56.3374 300.025 55.9334 300.025 53.9315V52.0913C300.025 50.0894 301.172 49.6854 303.033 49.6854H306.272C308.122 49.6854 309.279 50.0894 309.279 52.0913V53.9315Z" fill="url(#paint18_linear_372_181)"/>
<path fill-rule="evenodd" clip-rule="evenodd" d="M415.332 48.1504C411.732 48.1504 410.4 48.8147 410.4 50.6011V51.1397C410.4 52.9351 411.325 53.7251 413.611 53.7251H418.516C420.366 53.7251 420.542 54.1919 420.542 54.9459C420.542 56.2296 420.015 56.3374 417.535 56.3374H414.129C412.38 56.3374 412.028 55.7808 412.028 54.8741V54.2906H410.261V54.9818C410.261 57.8724 412.648 57.8724 414.962 57.8724H417.886C419.58 57.8724 422.421 57.8724 422.421 55.0806C422.421 52.2888 420.57 52.19 418.257 52.19H414.055C412.399 52.19 412.269 51.7501 412.269 51.1397V50.7986C412.269 49.9009 412.602 49.6854 414.906 49.6854H417.683C419.46 49.6854 420.246 49.7303 420.246 50.9781V51.1128L420.385 51.2026H422.014V50.6101C422.014 49.1468 421.292 48.1773 417.775 48.1773L415.332 48.1504Z" fill="url(#paint19_linear_372_181)"/>
<path fill-rule="evenodd" clip-rule="evenodd" d="M280.489 21.5177C258.659 8.18696 214.905 8.0164 202.05 10.6556C196.979 11.6969 195.434 15.2967 195.943 20.3328C197.46 35.2524 223.27 58.5655 248.599 64.4993C251.302 65.1367 257.548 65.2713 261.259 63.2964C272.17 57.4973 280.582 47.1379 284.395 34.66C286.708 26.9308 285.191 24.3814 280.489 21.5177ZM251.579 48.0356H247.877V40.7373H234.718V48.0535H231.016V29.4533H234.718V37.5326H247.85V29.4533H251.551L251.579 48.0356ZM266.904 48.278H255.392V45.1181H266.349C270.226 45.1181 270.717 44.8937 270.717 43.0444C270.717 42.0121 270.717 41.249 267.876 41.249H260.232C256.53 41.249 254.901 39.8486 254.901 36.59V35.6923C254.901 32.4965 257.15 31.2487 262.916 31.2487H273.947V34.4535H262.249C258.455 34.4535 258.455 34.9203 258.455 36.0604V36.6439C258.455 37.4697 258.455 38.134 260.926 38.134H267.478C271.18 38.134 274.271 38.52 274.271 43.3047C274.271 48.278 269.477 48.278 266.904 48.278Z" fill="url(#paint20_linear_372_181)"/>
<defs>
<linearGradient id="paint0_linear_372_181" x1="120.523" y1="-14.3055" x2="151.06" y2="-13.8975" gradientUnits="userSpaceOnUse">
<stop stop-color="#F8B179"/>
<stop offset="0.365248" stop-color="#7C5333"/>
<stop offset="1" stop-color="#F8B179"/>
</linearGradient>
<linearGradient id="paint1_linear_372_181" x1="78.5728" y1="17.72" x2="63.5723" y2="89.3528" gradientUnits="userSpaceOnUse">
<stop stop-color="#F8B179"/>
<stop offset="0.46875" stop-color="#7C5333"/>
<stop offset="1" stop-color="#F8B179"/>
</linearGradient>
<linearGradient id="paint2_linear_372_181" x1="74.9116" y1="24.5591" x2="64.3644" y2="94.8254" gradientUnits="userSpaceOnUse">
<stop stop-color="#F8B179"/>
<stop offset="0.46875" stop-color="#7C5333"/>
<stop offset="1" stop-color="#F8B179"/>
</linearGradient>
<radialGradient id="paint3_angular_372_181" cx="0" cy="0" r="1" gradientUnits="userSpaceOnUse" gradientTransform="translate(52.6366 50.7805) rotate(50.306) scale(30.6999 24.5759)">
<stop offset="0.565241" stop-color="#D79766"/>
<stop offset="1" stop-color="#9A6A43"/>
</radialGradient>
<radialGradient id="paint4_angular_372_181" cx="0" cy="0" r="1" gradientUnits="userSpaceOnUse" gradientTransform="translate(67.7396 73.2819) rotate(-136.206) scale(30.6455 48.906)">
<stop stop-color="#D79866"/>
<stop offset="1" stop-color="#8B5E3B"/>
</radialGradient>
<radialGradient id="paint5_angular_372_181" cx="0" cy="0" r="1" gradientUnits="userSpaceOnUse" gradientTransform="translate(13.0267 24.3261) rotate(50.306) scale(30.6999 24.5759)">
<stop offset="0.565241" stop-color="#D79766"/>
<stop offset="1" stop-color="#9A6A43"/>
</radialGradient>
<radialGradient id="paint6_angular_372_181" cx="0" cy="0" r="1" gradientUnits="userSpaceOnUse" gradientTransform="translate(28.1301 46.8298) rotate(-136.206) scale(30.6455 48.906)">
<stop stop-color="#D79866"/>
<stop offset="1" stop-color="#8B5E3B"/>
</radialGradient>
<linearGradient id="paint7_linear_372_181" x1="155.859" y1="77.0171" x2="383.068" y2="210.487" gradientUnits="userSpaceOnUse">
<stop stop-color="#F8B179"/>
<stop offset="0.365248" stop-color="#7C5333"/>
<stop offset="1" stop-color="#F8B179"/>
</linearGradient>
<linearGradient id="paint8_linear_372_181" x1="280.477" y1="42.6592" x2="298.19" y2="43.5474" gradientUnits="userSpaceOnUse">
<stop stop-color="#F8B179"/>
<stop offset="0.365248" stop-color="#7C5333"/>
<stop offset="1" stop-color="#F8B179"/>
</linearGradient>
<linearGradient id="paint9_linear_372_181" x1="311.607" y1="42.7252" x2="329.156" y2="43.6075" gradientUnits="userSpaceOnUse">
<stop stop-color="#F8B179"/>
<stop offset="0.365248" stop-color="#7C5333"/>
<stop offset="1" stop-color="#F8B179"/>
</linearGradient>
<linearGradient id="paint10_linear_372_181" x1="326.757" y1="42.6592" x2="344.701" y2="43.5708" gradientUnits="userSpaceOnUse">
<stop stop-color="#F8B179"/>
<stop offset="0.365248" stop-color="#7C5333"/>
<stop offset="1" stop-color="#F8B179"/>
</linearGradient>
<linearGradient id="paint11_linear_372_181" x1="348.216" y1="41.5234" x2="356.012" y2="41.9886" gradientUnits="userSpaceOnUse">
<stop stop-color="#F8B179"/>
<stop offset="0.365248" stop-color="#7C5333"/>
<stop offset="1" stop-color="#F8B179"/>
</linearGradient>
<linearGradient id="paint12_linear_372_181" x1="358.846" y1="42.7302" x2="373.836" y2="43.3748" gradientUnits="userSpaceOnUse">
<stop stop-color="#F8B179"/>
<stop offset="0.365248" stop-color="#7C5333"/>
<stop offset="1" stop-color="#F8B179"/>
</linearGradient>
<linearGradient id="paint13_linear_372_181" x1="370.65" y1="42.6592" x2="388.363" y2="43.5474" gradientUnits="userSpaceOnUse">
<stop stop-color="#F8B179"/>
<stop offset="0.365248" stop-color="#7C5333"/>
<stop offset="1" stop-color="#F8B179"/>
</linearGradient>
<linearGradient id="paint14_linear_372_181" x1="388.401" y1="43.3427" x2="391.178" y2="43.4506" gradientUnits="userSpaceOnUse">
<stop stop-color="#F8B179"/>
<stop offset="0.365248" stop-color="#7C5333"/>
<stop offset="1" stop-color="#F8B179"/>
</linearGradient>
<linearGradient id="paint15_linear_372_181" x1="388.401" y1="42.968" x2="391.182" y2="42.9905" gradientUnits="userSpaceOnUse">
<stop stop-color="#F8B179"/>
<stop offset="0.365248" stop-color="#7C5333"/>
<stop offset="1" stop-color="#F8B179"/>
</linearGradient>
<linearGradient id="paint16_linear_372_181" x1="391.123" y1="42.6592" x2="410.331" y2="43.7041" gradientUnits="userSpaceOnUse">
<stop stop-color="#F8B179"/>
<stop offset="0.365248" stop-color="#7C5333"/>
<stop offset="1" stop-color="#F8B179"/>
</linearGradient>
<linearGradient id="paint17_linear_372_181" x1="341.678" y1="42.6592" x2="360.886" y2="43.7041" gradientUnits="userSpaceOnUse">
<stop stop-color="#F8B179"/>
<stop offset="0.365248" stop-color="#7C5333"/>
<stop offset="1" stop-color="#F8B179"/>
</linearGradient>
<linearGradient id="paint18_linear_372_181" x1="294.991" y1="42.6592" x2="314.199" y2="43.7041" gradientUnits="userSpaceOnUse">
<stop stop-color="#F8B179"/>
<stop offset="0.365248" stop-color="#7C5333"/>
<stop offset="1" stop-color="#F8B179"/>
</linearGradient>
<linearGradient id="paint19_linear_372_181" x1="407.312" y1="42.6592" x2="425.269" y2="43.5722" gradientUnits="userSpaceOnUse">
<stop stop-color="#F8B179"/>
<stop offset="0.365248" stop-color="#7C5333"/>
<stop offset="1" stop-color="#F8B179"/>
</linearGradient>
<linearGradient id="paint20_linear_372_181" x1="174.118" y1="-22.0865" x2="306.227" y2="-13.4324" gradientUnits="userSpaceOnUse">
<stop stop-color="#F8B179"/>
<stop offset="0.365248" stop-color="#7C5333"/>
<stop offset="1" stop-color="#F8B179"/>
</linearGradient>
</defs>
</svg>
