<svg width="auto" height="auto" viewBox="0 0 354 131" fill="none" xmlns="http://www.w3.org/2000/svg">
<line x1="131.713" y1="45.0361" x2="131.713" y2="97.0811" stroke="#CB8F60"/>
<path d="M27.2766 0.5H30.5853V6.35079H27.2766V0.5Z" fill="#D59665"/>
<path d="M77.2483 125.062H80.557V130.912H77.2483V125.062Z" fill="#D59665"/>
<path d="M27.2766 15.89C28.6919 15.656 29.3755 15.7039 30.5853 15.7815V39.6439L27.2766 38.432V15.89Z" fill="#D59665"/>
<path d="M30.5854 79.8622C29.1702 80.0961 28.5711 80.2812 27.2768 80.2812L27.2768 55.9166L30.5854 57.1285L30.5854 79.8622Z" fill="#D59665"/>
<path d="M85.9746 29.0332L87.4347 31.3124L21.0944 88.2803L13.7524 88.0796L85.9746 29.0332Z" fill="url(#paint0_linear_1095_590)"/>
<path d="M29.6406 39.2963V15.7891V15.7305C29.7493 15.7305 30.3143 15.7696 30.5833 15.7891V39.6402L29.6406 39.2963Z" fill="#A7744B"/>
<path d="M27.2769 55.9153L28.2195 56.2156L28.2195 76.2523C28.0394 76.3955 27.8201 76.5792 27.2769 77.0127L27.2769 55.9153Z" fill="#A7744B"/>
<path d="M76.2433 42.8717L84.6118 42.8721L11.2153 102.539L9.91647 100.429L76.2433 42.8717Z" fill="url(#paint1_linear_1095_590)"/>
<path d="M77.24 50.9046C78.6552 50.6707 79.3389 50.7186 80.5487 50.7961V74.6586L77.24 73.4466V50.9046Z" fill="#D59665"/>
<path d="M80.5491 114.506C79.3105 114.872 78.5626 115.125 77.2404 115.294L77.2404 90.9293L80.5491 92.1412L80.5491 114.506Z" fill="#D59665"/>
<path d="M79.604 74.309V50.8018V50.7432C79.7127 50.7432 80.2777 50.7823 80.5466 50.8018V74.6529L79.604 74.309Z" fill="#A7744B"/>
<path d="M78.1826 91.2804L78.1826 115.235L78.1826 115.249C78.0739 115.249 77.5089 115.308 77.24 115.288L77.24 90.9299L78.1826 91.2804Z" fill="#A7744B"/>
<path fill-rule="evenodd" clip-rule="evenodd" d="M53.0705 68.5095C53.809 71.9528 55.2096 74.7694 57.2723 76.9595C60.4855 80.3712 66.2546 83.8942 74.5796 87.5283C80.6408 90.1984 85.2415 92.7571 88.3817 95.2046C91.5218 97.6521 93.0919 100.545 93.0919 103.882C93.0919 108.258 91.3392 111.484 87.834 113.561C84.3287 115.563 79.728 116.565 74.0319 116.565C69.9424 116.565 66.3641 116.083 63.297 115.118L57.7105 98.4309H52.6716V120.347C58.1486 121.979 63.224 122.98 67.8977 123.351C72.6444 123.722 76.0402 123.907 78.0849 123.907C85.6797 123.981 91.9965 122.164 97.0353 118.456C102.439 114.451 105.141 108.74 105.141 101.323C105.141 97.8376 104.484 94.6854 103.17 91.8671C101.928 89.0488 100.029 86.6383 97.4735 84.6358C94.9175 82.6333 92.5077 81.0387 90.2438 79.8521C88.053 78.5912 85.2415 77.2562 81.8093 75.847C75.3829 73.1029 70.8553 70.7295 68.2263 68.727C65.6704 66.6503 64.3924 64.0916 64.3924 61.0507C64.3924 60.4007 64.4399 59.7766 64.5348 59.1785L53.0705 68.5095ZM75.7298 50.0667C77.2265 49.8244 78.8513 49.7032 80.6043 49.7032C83.7445 49.7032 86.8481 49.9998 89.9152 50.5932L95.3922 66.6132H100.322L100.869 45.2531C95.8226 43.9856 90.3929 43.1889 84.5801 42.8633L75.7298 50.0667Z" fill="url(#paint2_angular_1095_590)"/>
<path d="M93.2225 103.853C93.2225 87.3116 63.2472 76.1925 64.423 60.5195C64.0693 69.4888 78.7738 74.451 80.0065 75.0612C84.815 76.9195 89.4456 79.3841 91.1599 80.3841C101.098 85.3719 104.21 92.0836 104.99 98.439C106.123 111.229 99.9392 115.997 96.9284 118.561C91.7485 122.014 86.4068 124.414 74.1694 123.789C64.1204 123.5 55.6497 121.368 52.6704 120.338V98.4277L57.7067 98.412C58.9402 102.076 61.7788 110.555 63.2648 115.16C68.0276 116.66 76.6483 117.579 85.0784 114.87C91.8226 112.703 93.3179 106.622 93.2225 103.853Z" fill="url(#paint3_angular_1095_590)"/>
<path fill-rule="evenodd" clip-rule="evenodd" d="M8.06093 12.7982C3.24118 16.2099 0.831299 20.9936 0.831299 27.1495C0.831299 33.602 2.43789 38.5341 5.65106 41.9458C8.86423 45.3575 14.6333 48.8804 22.9584 52.5146C29.0196 55.1846 33.6203 57.7434 36.7604 60.1909C38.922 61.8757 40.3396 63.7714 41.0132 65.878L51.6978 57.1817C51.6489 57.0718 51.5991 56.9623 51.5483 56.8534C50.3068 54.035 48.4082 51.6246 45.8522 49.6221C43.2963 47.6196 40.8864 46.025 38.6226 44.8383C36.4318 43.5775 33.6203 42.2425 30.188 40.8333C23.7617 38.0891 19.234 35.7158 16.6051 33.7133C14.0491 31.6366 12.7712 29.0778 12.7712 26.037C12.7712 22.477 14.1952 19.6957 17.0432 17.6932C19.9643 15.6907 23.9442 14.6894 28.9831 14.6894C32.1232 14.6894 35.2268 14.9861 38.294 15.5794L43.771 31.5995H48.7003L49.248 10.2394C42.4565 8.53358 34.9712 7.68066 26.7923 7.68066C19.1245 7.68066 12.8807 9.3865 8.06093 12.7982ZM13.737 88.0787L21.7621 81.5469C17.9417 81.4983 14.5796 81.0176 11.6758 80.1047L6.08922 63.4172H1.05038V85.3335C5.55038 86.6741 9.77924 87.5892 13.737 88.0787Z" fill="url(#paint4_angular_1095_590)"/>
<path d="M45.3896 31.5826C44.2133 23.2472 43.4553 16.2923 37.9561 15.5547C41.2287 24.8373 43.4442 31.5826 43.4442 31.5826L45.3896 31.5826Z" fill="#976742"/>
<path fill-rule="evenodd" clip-rule="evenodd" d="M41.2407 65.6935L51.7082 57.1738C49.8364 52.8811 46.2388 48.7344 39.5383 45.3714C37.8241 44.3714 33.1934 41.9068 28.3849 40.0485C28.2628 39.988 28.0084 39.8848 27.6495 39.7393C24.3863 38.4157 12.4828 33.5875 12.8014 25.5068C12.2116 33.3693 19.4613 40.0858 26.8334 46.9157C33.2056 52.8191 39.6692 58.8073 41.2407 65.6935ZM13.7582 88.0619C7.76661 87.2693 3.10274 86.0357 1.04883 85.3258V63.415L6.08509 63.3993C7.31863 67.0632 10.1572 75.5424 11.6432 80.1474C14.1362 80.9322 17.6861 81.5581 21.7124 81.5879L13.7582 88.0619Z" fill="url(#paint5_angular_1095_590)"/>
<path d="M4.13762 63.4112C5.31388 71.7466 6.1961 79.323 11.6953 80.0605C6.36028 64.156 6.10271 63.4112 6.10271 63.4112L4.13762 63.4112Z" fill="#BB8256"/>
<path d="M55.7592 98.4288C56.9355 106.764 57.8177 114.341 63.3169 115.078C57.9819 99.1736 57.7243 98.4288 57.7243 98.4288L55.7592 98.4288Z" fill="#BB8256"/>
<path d="M97.2904 66.6158C96.1142 58.2804 95.3561 51.3255 89.8569 50.5879C93.1296 59.8705 95.3451 66.6158 95.3451 66.6158L97.2904 66.6158Z" fill="#976742"/>
<path d="M158.423 54.8489C158.423 53.8778 158.809 53.1231 159.582 52.5849C160.354 52.0467 161.354 51.7776 162.583 51.7776C163.893 51.7776 165.092 51.9122 166.18 52.1813L166.093 55.5509H165.303L164.425 53.0237C163.934 52.9301 163.437 52.8833 162.934 52.8833C162.126 52.8833 161.489 53.0412 161.021 53.3571C160.564 53.673 160.336 54.1118 160.336 54.6734C160.336 55.1531 160.541 55.5567 160.951 55.8843C161.372 56.2002 162.097 56.5746 163.127 57.0075C163.677 57.2298 164.127 57.4404 164.478 57.6393C164.841 57.8265 165.227 58.0781 165.636 58.394C166.046 58.7099 166.35 59.0901 166.549 59.5347C166.76 59.9793 166.865 60.4766 166.865 61.0265C166.865 62.1965 166.432 63.0974 165.566 63.7292C164.759 64.3142 163.747 64.6008 162.53 64.5891C162.202 64.5891 161.658 64.5599 160.898 64.5014C160.149 64.4429 159.336 64.2849 158.458 64.0275V60.5702H159.266L160.161 63.2027C160.652 63.3548 161.226 63.4308 161.881 63.4308C162.793 63.4308 163.53 63.2729 164.092 62.957C164.654 62.6294 164.934 62.1204 164.934 61.4301C164.934 60.9036 164.683 60.4473 164.18 60.0612C163.677 59.6751 162.94 59.2715 161.968 58.8503C160.635 58.277 159.71 57.7212 159.196 57.183C158.681 56.6448 158.423 55.8668 158.423 54.8489Z" fill="#2D3250"/>
<path d="M178.2 51.7776C179.148 51.7776 179.984 51.9356 180.71 52.2515C181.435 52.5674 182.049 53.0061 182.552 53.5677C183.055 54.1293 183.436 54.8021 183.693 55.586C183.95 56.3699 184.079 57.2298 184.079 58.1658C184.079 59.1135 183.95 59.9793 183.693 60.7632C183.447 61.5471 183.073 62.2257 182.57 62.799C182.078 63.3606 181.464 63.7994 180.727 64.1153C180.002 64.4312 179.159 64.5891 178.2 64.5891C177.182 64.5891 176.299 64.4195 175.55 64.0802C174.813 63.7409 174.204 63.2846 173.725 62.7113C173.245 62.1263 172.888 61.4418 172.654 60.6579C172.432 59.874 172.321 59.0316 172.321 58.1307C172.321 57.2532 172.438 56.4342 172.672 55.6737C172.906 54.9015 173.262 54.2288 173.742 53.6555C174.222 53.0705 174.83 52.6142 175.567 52.2866C176.316 51.9473 177.194 51.7776 178.2 51.7776ZM178.2 52.8131C177.006 52.8131 176.1 53.3162 175.48 54.3224C174.871 55.3169 174.567 56.6039 174.567 58.1834C174.567 59.8565 174.889 61.1727 175.532 62.1321C176.187 63.0798 177.077 63.5537 178.2 63.5537C179.323 63.5537 180.206 63.0798 180.85 62.1321C181.505 61.1727 181.833 59.8565 181.833 58.1834C181.833 56.6039 181.523 55.3169 180.903 54.3224C180.294 53.3162 179.393 52.8131 178.2 52.8131Z" fill="#2D3250"/>
<path d="M189.253 64.3259V63.5186L190.867 63.1325V53.2343L189.253 52.8482V52.0409H194.641V52.8482L193.026 53.2343V63.15H197.15L198.098 60.5351H198.905L198.73 64.3259H189.253Z" fill="#2D3250"/>
<path d="M203.162 52.8482V52.0409H208.55V52.8482L206.935 53.2343V59.7278C206.935 60.8978 207.222 61.7753 207.795 62.3603C208.38 62.9453 209.164 63.2378 210.147 63.2378C211.118 63.2378 211.902 62.9453 212.499 62.3603C213.095 61.7636 213.394 60.8861 213.394 59.7278V53.2343L211.762 52.8482V52.0409H216.254V52.8482L214.64 53.2343V59.7278C214.64 60.5 214.517 61.1903 214.271 61.7987C214.037 62.4071 213.704 62.916 213.271 63.3255C212.838 63.735 212.317 64.0509 211.709 64.2732C211.112 64.4838 210.457 64.5891 209.743 64.5891C209.018 64.5891 208.351 64.4838 207.743 64.2732C207.134 64.0626 206.608 63.7526 206.163 63.3431C205.73 62.9219 205.391 62.4129 205.145 61.8162C204.9 61.2078 204.777 60.5117 204.777 59.7278V53.2343L203.162 52.8482Z" fill="#2D3250"/>
<path d="M225.244 67.713C225.689 67.8066 226.051 67.8534 226.332 67.8534C226.671 67.8534 226.935 67.7657 227.122 67.5902C227.321 67.4264 227.42 67.1982 227.42 66.9057C227.42 66.2856 226.993 65.9463 226.139 65.8878L226.49 64.554C224.84 64.4487 223.565 63.9105 222.664 62.9394C221.646 61.8396 221.137 60.2543 221.137 58.1834C221.137 56.1125 221.664 54.5271 222.717 53.4273C223.782 52.3275 225.373 51.7776 227.49 51.7776C228.848 51.7776 229.988 51.9824 230.913 52.3919V55.7088H230.105L229.298 53.1114C228.842 53.0061 228.315 52.9535 227.719 52.9535C224.805 52.9535 223.349 54.6968 223.349 58.1834C223.349 61.67 224.688 63.4133 227.368 63.4133C227.765 63.4133 228.122 63.4016 228.438 63.3782C228.754 63.3548 229.041 63.3197 229.298 63.2729L230.316 60.5H231.123L231 63.8169C230.837 63.9105 230.603 64.0041 230.298 64.0977C229.994 64.1913 229.661 64.2732 229.298 64.3434C228.947 64.4136 228.579 64.4721 228.192 64.5189C227.912 64.554 227.654 64.5774 227.42 64.5891L227.245 65.2736C227.83 65.297 228.28 65.4549 228.596 65.7474C228.924 66.0399 229.087 66.4202 229.087 66.8882C229.087 67.5083 228.865 67.9938 228.421 68.3448C227.988 68.7075 227.379 68.8889 226.595 68.8889C226.315 68.8889 225.864 68.8245 225.244 68.6958V67.713Z" fill="#2D3250"/>
<path d="M242.529 51.7776C243.477 51.7776 244.313 51.9356 245.039 52.2515C245.764 52.5674 246.378 53.0061 246.881 53.5677C247.384 54.1293 247.765 54.8021 248.022 55.586C248.28 56.3699 248.408 57.2298 248.408 58.1658C248.408 59.1135 248.28 59.9793 248.022 60.7632C247.776 61.5471 247.402 62.2257 246.899 62.799C246.408 63.3606 245.793 63.7994 245.056 64.1153C244.331 64.4312 243.488 64.5891 242.529 64.5891C241.511 64.5891 240.628 64.4195 239.879 64.0802C239.142 63.7409 238.533 63.2846 238.054 62.7113C237.574 62.1263 237.217 61.4418 236.983 60.6579C236.761 59.874 236.65 59.0316 236.65 58.1307C236.65 57.2532 236.767 56.4342 237.001 55.6737C237.235 54.9015 237.592 54.2288 238.071 53.6555C238.551 53.0705 239.159 52.6142 239.896 52.2866C240.645 51.9473 241.523 51.7776 242.529 51.7776ZM242.529 52.8131C241.336 52.8131 240.429 53.3162 239.809 54.3224C239.2 55.3169 238.896 56.6039 238.896 58.1834C238.896 59.8565 239.218 61.1727 239.861 62.1321C240.517 63.0798 241.406 63.5537 242.529 63.5537C243.652 63.5537 244.536 63.0798 245.179 62.1321C245.834 61.1727 246.162 59.8565 246.162 58.1834C246.162 56.6039 245.852 55.3169 245.232 54.3224C244.623 53.3162 243.722 52.8131 242.529 52.8131ZM239.282 49.8822C239.61 49.3674 239.932 48.9813 240.247 48.7239C240.575 48.4665 240.979 48.3203 241.458 48.2852C241.88 48.2852 242.307 48.4548 242.74 48.7941C243.184 49.1217 243.559 49.2855 243.863 49.2855C244.225 49.2855 244.688 49.0398 245.249 48.5484L245.776 49.0574C245.589 49.4669 245.302 49.8413 244.916 50.1806C244.53 50.5199 244.097 50.6895 243.617 50.6895C243.278 50.6895 242.892 50.5257 242.459 50.1981C242.038 49.8588 241.616 49.6892 241.195 49.6892C240.891 49.6892 240.435 49.9349 239.826 50.4263L239.282 49.8822Z" fill="#2D3250"/>
<path d="M253.582 64.3259V63.5186L255.196 63.1325V53.2343L253.582 52.8482V52.0409H262.725V55.6386H261.9L261.146 53.2167L257.355 53.0763V57.5867L261.146 57.2532V58.8152L257.355 58.4993V63.2904L261.479 63.15L262.374 60.5351H263.199L263.059 64.3259H253.582Z" fill="#2D3250"/>
<path d="M268.861 54.8489C268.861 53.8778 269.247 53.1231 270.02 52.5849C270.792 52.0467 271.792 51.7776 273.021 51.7776C274.331 51.7776 275.53 51.9122 276.618 52.1813L276.531 55.5509H275.741L274.863 53.0237C274.372 52.9301 273.875 52.8833 273.372 52.8833C272.564 52.8833 271.927 53.0412 271.459 53.3571C271.002 53.673 270.774 54.1118 270.774 54.6734C270.774 55.1531 270.979 55.5567 271.388 55.8843C271.81 56.2002 272.535 56.5746 273.565 57.0075C274.115 57.2298 274.565 57.4404 274.916 57.6393C275.279 57.8265 275.665 58.0781 276.074 58.394C276.484 58.7099 276.788 59.0901 276.987 59.5347C277.197 59.9793 277.303 60.4766 277.303 61.0265C277.303 62.1965 276.87 63.0974 276.004 63.7292C275.197 64.3142 274.185 64.6008 272.968 64.5891C272.64 64.5891 272.096 64.5599 271.336 64.5014C270.587 64.4429 269.774 64.2849 268.896 64.0275V60.5702H269.704L270.599 63.2027C271.09 63.3548 271.663 63.4308 272.319 63.4308C273.231 63.4308 273.968 63.2729 274.53 62.957C275.091 62.6294 275.372 62.1204 275.372 61.4301C275.372 60.9036 275.121 60.4473 274.618 60.0612C274.115 59.6751 273.377 59.2715 272.406 58.8503C271.073 58.277 270.148 57.7212 269.633 57.183C269.119 56.6448 268.861 55.8668 268.861 54.8489Z" fill="#2D3250"/>
<path d="M290.559 61.4126C290.559 59.9969 291.477 58.8035 293.314 57.8324C292.202 56.6273 291.647 55.5158 291.647 54.4979C291.647 53.597 291.974 52.9184 292.629 52.4621C293.296 52.0058 294.115 51.7776 295.086 51.7776C296.034 51.7776 296.841 52.0116 297.508 52.4796C298.175 52.9476 298.509 53.6028 298.509 54.4452C298.509 55.7673 297.608 56.8905 295.806 57.8148L298.667 60.6579C298.947 60.0378 299.146 59.3709 299.263 58.6572L298.21 58.2711V57.4814H301.808V58.2711L300.299 58.6572C300.17 59.6517 299.895 60.5702 299.474 61.4126L301.246 63.1149L303.001 63.5361V64.3259H300.018L298.509 62.8868C297.491 64.0217 296.204 64.5891 294.648 64.5891C293.489 64.5891 292.518 64.32 291.734 63.7818C290.95 63.2319 290.559 62.4422 290.559 61.4126ZM292.542 61.4126C292.542 61.9859 292.729 62.4831 293.103 62.9043C293.478 63.3255 294.022 63.5361 294.735 63.5361C295.941 63.5361 296.941 63.0681 297.736 62.1321L294.104 58.6572C293.062 59.4879 292.542 60.4064 292.542 61.4126ZM293.542 54.4803C293.542 54.7611 293.612 55.0595 293.753 55.3754C293.905 55.6913 294.156 56.0364 294.507 56.4108C294.858 56.7852 295.045 56.9841 295.069 57.0075C295.513 56.7384 295.876 56.3757 296.157 55.9194C296.449 55.4631 296.596 54.9776 296.596 54.4628C296.596 53.9363 296.449 53.5268 296.157 53.2343C295.864 52.9301 295.496 52.778 295.051 52.778C294.642 52.778 294.285 52.9301 293.981 53.2343C293.688 53.5268 293.542 53.9421 293.542 54.4803Z" fill="#2D3250"/>
<path d="M158.125 90.3259V89.5186L159.757 89.1325V79.2343L158.125 78.8482V78.0409H163.513V78.8482L161.898 79.2343V89.1325L163.513 89.5186V90.3259H158.125Z" fill="#2D3250"/>
<path d="M168.787 90.3259V89.5186L170.402 89.1325V79.2343L168.787 78.8482V78.0409H171.63L178.949 86.7281V79.2343L177.334 78.8482V78.0409H181.844V78.8482L180.23 79.2343V90.3259H179.177L171.63 81.428V89.1325L173.245 89.5186V90.3259H168.787Z" fill="#2D3250"/>
<path d="M186.061 78.8482V78.0409H191.379V78.8482L189.94 79.1465L192.923 87.5705L195.731 79.2343L194.345 78.8482V78.0409H198.574V78.8482L196.96 79.2343L193.099 90.4487H191.712L187.623 79.2343L186.061 78.8482Z" fill="#2D3250"/>
<path d="M203.017 90.3259V89.5186L204.632 89.1325V79.2343L203.017 78.8482V78.0409H212.16V81.6386H211.336L210.581 79.2167L206.79 79.0763V83.5867L210.581 83.2532V84.8152L206.79 84.4993V89.2904L210.914 89.15L211.809 86.5351H212.634L212.494 90.3259H203.017Z" fill="#2D3250"/>
<path d="M218.296 80.8489C218.296 79.8778 218.683 79.1231 219.455 78.5849C220.227 78.0467 221.227 77.7776 222.456 77.7776C223.766 77.7776 224.965 77.9122 226.054 78.1813L225.966 81.5509H225.176L224.299 79.0237C223.807 78.9301 223.31 78.8833 222.807 78.8833C221.999 78.8833 221.362 79.0412 220.894 79.3571C220.438 79.673 220.209 80.1118 220.209 80.6734C220.209 81.1531 220.414 81.5567 220.824 81.8843C221.245 82.2002 221.97 82.5746 223 83.0075C223.55 83.2298 224 83.4404 224.351 83.6393C224.714 83.8265 225.1 84.0781 225.509 84.394C225.919 84.7099 226.223 85.0901 226.422 85.5347C226.633 85.9793 226.738 86.4766 226.738 87.0265C226.738 88.1965 226.305 89.0974 225.439 89.7292C224.632 90.3142 223.62 90.6008 222.403 90.5891C222.076 90.5891 221.531 90.5599 220.771 90.5014C220.022 90.4429 219.209 90.2849 218.332 90.0275V86.5702H219.139L220.034 89.2027C220.525 89.3548 221.099 89.4308 221.754 89.4308C222.666 89.4308 223.403 89.2729 223.965 88.957C224.527 88.6294 224.807 88.1204 224.807 87.4301C224.807 86.9036 224.556 86.4473 224.053 86.0612C223.55 85.6751 222.813 85.2715 221.841 84.8503C220.508 84.277 219.583 83.7212 219.069 83.183C218.554 82.6448 218.296 81.8668 218.296 80.8489Z" fill="#2D3250"/>
<path d="M231.825 81.7615V78.0409H242.267V81.7615H241.443L240.653 79.2167L238.126 79.0763V89.1325L239.74 89.5186V90.3259H234.352V89.5186L235.967 89.1325V79.0763L233.422 79.2167L232.65 81.7615H231.825Z" fill="#2D3250"/>
<path d="M247.309 90.3259V89.5186L248.941 89.1325V79.2343L247.309 78.8482V78.0409H252.697V78.8482L251.082 79.2343V89.1325L252.697 89.5186V90.3259H247.309Z" fill="#2D3250"/>
<path d="M257.725 90.3259V89.5186L259.393 89.1149L259.954 79.2167L258.41 78.8482L258.427 78.0409H262.183L266.132 87.202L270.116 78.0409H273.731V78.8482L272.152 79.2167L272.748 89.1325L274.433 89.5186V90.3259H269.098V89.5186L270.642 89.15L270.168 80.8313L266.009 90.4136H265.237L261.025 80.8138L260.586 89.15L262.148 89.5186V90.3259H257.725Z" fill="#2D3250"/>
<path d="M279.431 90.3259V89.5186L281.045 89.1325V79.2343L279.431 78.8482V78.0409H288.574V81.6386H287.749L286.995 79.2167L283.204 79.0763V83.5867L286.995 83.2532V84.8152L283.204 84.4993V89.2904L287.328 89.15L288.223 86.5351H289.048L288.908 90.3259H279.431Z" fill="#2D3250"/>
<path d="M294.412 90.3259V89.5186L296.026 89.1325V79.2343L294.412 78.8482V78.0409H297.255L304.573 86.7281V79.2343L302.959 78.8482V78.0409H307.469V78.8482L305.854 79.2343V90.3259H304.801L297.255 81.428V89.1325L298.87 89.5186V90.3259H294.412Z" fill="#2D3250"/>
<path d="M312.335 81.7615V78.0409H322.777V81.7615H321.952L321.163 79.2167L318.636 79.0763V89.1325L320.25 89.5186V90.3259H314.862V89.5186L316.477 89.1325V79.0763L313.932 79.2167L313.16 81.7615H312.335Z" fill="#2D3250"/>
<path d="M333.821 77.7776C334.769 77.7776 335.605 77.9356 336.331 78.2515C337.056 78.5674 337.67 79.0061 338.173 79.5677C338.677 80.1293 339.057 80.8021 339.314 81.586C339.572 82.3699 339.7 83.2298 339.7 84.1658C339.7 85.1135 339.572 85.9793 339.314 86.7632C339.069 87.5471 338.694 88.2257 338.191 88.799C337.7 89.3606 337.085 89.7994 336.348 90.1153C335.623 90.4312 334.78 90.5891 333.821 90.5891C332.803 90.5891 331.92 90.4195 331.171 90.0802C330.434 89.7409 329.826 89.2846 329.346 88.7113C328.866 88.1263 328.509 87.4418 328.275 86.6579C328.053 85.874 327.942 85.0316 327.942 84.1307C327.942 83.2532 328.059 82.4342 328.293 81.6737C328.527 80.9015 328.884 80.2288 329.363 79.6555C329.843 79.0705 330.451 78.6142 331.189 78.2866C331.937 77.9473 332.815 77.7776 333.821 77.7776ZM333.821 78.8131C332.628 78.8131 331.721 79.3162 331.101 80.3224C330.492 81.3169 330.188 82.6039 330.188 84.1834C330.188 85.8565 330.51 87.1727 331.153 88.1321C331.809 89.0798 332.698 89.5537 333.821 89.5537C334.944 89.5537 335.828 89.0798 336.471 88.1321C337.126 87.1727 337.454 85.8565 337.454 84.1834C337.454 82.6039 337.144 81.3169 336.524 80.3224C335.915 79.3162 335.014 78.8131 333.821 78.8131Z" fill="#2D3250"/>
<path d="M345.395 80.8489C345.395 79.8778 345.781 79.1231 346.553 78.5849C347.326 78.0467 348.326 77.7776 349.554 77.7776C350.865 77.7776 352.064 77.9122 353.152 78.1813L353.064 81.5509H352.275L351.397 79.0237C350.906 78.9301 350.408 78.8833 349.905 78.8833C349.098 78.8833 348.46 79.0412 347.992 79.3571C347.536 79.673 347.308 80.1118 347.308 80.6734C347.308 81.1531 347.513 81.5567 347.922 81.8843C348.343 82.2002 349.069 82.5746 350.098 83.0075C350.648 83.2298 351.099 83.4404 351.45 83.6393C351.812 83.8265 352.199 84.0781 352.608 84.394C353.018 84.7099 353.322 85.0901 353.521 85.5347C353.731 85.9793 353.837 86.4766 353.837 87.0265C353.837 88.1965 353.404 89.0974 352.538 89.7292C351.731 90.3142 350.719 90.6008 349.502 90.5891C349.174 90.5891 348.63 90.5599 347.87 90.5014C347.121 90.4429 346.308 90.2849 345.43 90.0275V86.5702H346.237L347.132 89.2027C347.624 89.3548 348.197 89.4308 348.852 89.4308C349.765 89.4308 350.502 89.2729 351.064 88.957C351.625 88.6294 351.906 88.1204 351.906 87.4301C351.906 86.9036 351.655 86.4473 351.151 86.0612C350.648 85.6751 349.911 85.2715 348.94 84.8503C347.606 84.277 346.682 83.7212 346.167 83.183C345.652 82.6448 345.395 81.8668 345.395 80.8489Z" fill="#2D3250"/>
<defs>
<linearGradient id="paint0_linear_1095_590" x1="102.581" y1="22.8446" x2="82.4426" y2="117.534" gradientUnits="userSpaceOnUse">
<stop stop-color="#F8B179"/>
<stop offset="0.46875" stop-color="#7C5333"/>
<stop offset="1" stop-color="#F8B179"/>
</linearGradient>
<linearGradient id="paint1_linear_1095_590" x1="97.8097" y1="31.8958" x2="83.6411" y2="124.837" gradientUnits="userSpaceOnUse">
<stop stop-color="#F8B179"/>
<stop offset="0.46875" stop-color="#7C5333"/>
<stop offset="1" stop-color="#F8B179"/>
</linearGradient>
<radialGradient id="paint2_angular_1095_590" cx="0" cy="0" r="1" gradientUnits="userSpaceOnUse" gradientTransform="translate(68.7784 66.6035) rotate(50.7417) scale(40.3814 32.2303)">
<stop offset="0.565241" stop-color="#D79766"/>
<stop offset="1" stop-color="#9A6A43"/>
</radialGradient>
<radialGradient id="paint3_angular_1095_590" cx="0" cy="0" r="1" gradientUnits="userSpaceOnUse" gradientTransform="translate(88.4622 96.3862) rotate(-135.762) scale(40.2393 64.2506)">
<stop stop-color="#D79866"/>
<stop offset="1" stop-color="#8B5E3B"/>
</radialGradient>
<radialGradient id="paint4_angular_1095_590" cx="0" cy="0" r="1" gradientUnits="userSpaceOnUse" gradientTransform="translate(17.157 31.5897) rotate(50.7418) scale(40.3812 32.2301)">
<stop offset="0.565241" stop-color="#D79766"/>
<stop offset="1" stop-color="#9A6A43"/>
</radialGradient>
<radialGradient id="paint5_angular_1095_590" cx="0" cy="0" r="1" gradientUnits="userSpaceOnUse" gradientTransform="translate(36.8405 61.3734) rotate(-135.762) scale(40.2392 64.2505)">
<stop stop-color="#D79866"/>
<stop offset="1" stop-color="#8B5E3B"/>
</radialGradient>
</defs>
</svg>
