<svg width="auto" height="auto" viewBox="0 0 24 24" fill="none" xmlns="http://www.w3.org/2000/svg">
<path d="M20.3071 3.39636C18.1207 1.20516 15.2091 0 12.1148 0C5.72793 0 0.530783 5.19628 0.530783 11.5821C0.530783 13.622 1.06302 15.6149 2.07532 17.3731L0.431641 23.3728L6.57325 21.7607C8.26388 22.6842 10.1685 23.1693 12.1096 23.1693H12.1148C18.4964 23.1693 23.8084 17.9731 23.8084 11.5873C23.8084 8.49352 22.4934 5.58756 20.3071 3.39636V3.39636ZM12.1148 21.2181C10.3824 21.2181 8.68654 20.7538 7.20984 19.8773L6.86024 19.6686L3.21806 20.6234L4.18861 17.0705L3.95902 16.7053C2.99369 15.1715 2.48754 13.4029 2.48754 11.5821C2.48754 6.27623 6.80806 1.95643 12.12 1.95643C14.6925 1.95643 17.1084 2.95812 18.9243 4.77891C20.7402 6.59969 21.8568 9.01523 21.8516 11.5873C21.8516 16.8983 17.4215 21.2181 12.1148 21.2181V21.2181ZM17.3954 14.008C17.1084 13.862 15.6839 13.1629 15.4178 13.069C15.1517 12.9698 14.9586 12.9229 14.7655 13.215C14.5725 13.5072 14.0194 14.1541 13.8472 14.3524C13.6802 14.5454 13.508 14.5715 13.221 14.4254C11.5199 13.575 10.4033 12.9072 9.2814 10.9821C8.98397 10.4708 9.57882 10.5073 10.1319 9.4013C10.2259 9.20826 10.1789 9.04132 10.1058 8.89524C10.0328 8.74916 9.45359 7.32487 9.21356 6.74577C8.97875 6.18232 8.73872 6.26058 8.56131 6.25014C8.39433 6.23971 8.20127 6.23971 8.0082 6.23971C7.81513 6.23971 7.50205 6.31275 7.23593 6.59969C6.96982 6.89185 6.22364 7.59095 6.22364 9.01523C6.22364 10.4395 7.26203 11.8168 7.40291 12.0099C7.54902 12.2029 9.44316 15.1245 12.3496 16.3818C14.1863 17.1748 14.9064 17.2427 15.8248 17.107C16.3831 17.0235 17.5363 16.4079 17.7763 15.7297C18.0164 15.0515 18.0164 14.4724 17.9433 14.3524C17.8755 14.2219 17.6824 14.1489 17.3954 14.008Z" fill="white"/>
</svg>
