<svg width="auto" height="auto" viewBox="0 0 24 24" fill="none" xmlns="http://www.w3.org/2000/svg">
<path opacity="0.8" d="M19.8754 3.70886C17.6891 1.51766 14.7774 0.3125 11.6831 0.3125C5.29629 0.3125 0.0991423 5.50878 0.0991423 11.8946C0.0991423 13.9345 0.63138 15.9274 1.64368 17.6856L0 23.6853L6.14161 22.0732C7.83224 22.9967 9.73682 23.4818 11.6779 23.4818H11.6831C18.0648 23.4818 23.3767 18.2856 23.3767 11.8998C23.3767 8.80602 22.0618 5.90006 19.8754 3.70886ZM11.6831 21.5306C9.95076 21.5306 8.2549 21.0663 6.7782 20.1898L6.4286 19.9811L2.78642 20.9359L3.75697 17.383L3.52738 17.0178C2.56205 15.484 2.0559 13.7154 2.0559 11.8946C2.0559 6.58873 6.37642 2.26893 11.6884 2.26893C14.2608 2.26893 16.6768 3.27062 18.4927 5.09141C20.3085 6.91219 21.4252 9.32773 21.42 11.8998C21.42 17.2108 16.9899 21.5306 11.6831 21.5306ZM16.9638 14.3205C16.6768 14.1745 15.2523 13.4754 14.9861 13.3815C14.72 13.2823 14.527 13.2354 14.3339 13.5275C14.1408 13.8197 13.5877 14.4666 13.4155 14.6649C13.2485 14.8579 13.0764 14.884 12.7894 14.7379C11.0883 13.8875 9.97163 13.2197 8.84976 11.2946C8.55233 10.7833 9.14718 10.8198 9.70029 9.7138C9.79422 9.52076 9.74726 9.35382 9.6742 9.20774C9.60115 9.06166 9.02195 7.63737 8.78192 7.05827C8.54711 6.49482 8.30708 6.57308 8.12967 6.56264C7.96269 6.55221 7.76963 6.55221 7.57656 6.55221C7.38349 6.55221 7.07041 6.62525 6.80429 6.91219C6.53818 7.20435 5.792 7.90345 5.792 9.32773C5.792 10.752 6.83038 12.1293 6.97127 12.3224C7.11738 12.5154 9.01152 15.437 11.918 16.6943C13.7547 17.4873 14.4748 17.5552 15.3932 17.4195C15.9515 17.3361 17.1047 16.7204 17.3447 16.0422C17.5847 15.364 17.5847 14.7849 17.5117 14.6649C17.4438 14.5344 17.2508 14.4614 16.9638 14.3205Z" fill="#D69766"/>
</svg>
